{
  "projectId": "8c33d08c-c75e-475a-af5d-cdb1c2d72fd1",
  "tempo": 120,
  "timeSignatureNumerator": 4,
  "timeSignatureDenominator": 4,
  "arrangementLength": 752,
  "tracks": [
    {
      "id": "track_midi_12_0",
      "name": "kick 1",
      "type": "midi",
      "parentGroupId": null,
      "orderIndex": 0,
      "muted": false,
      "solo": false,
      "frozen": false,
      "armed": false,
      "color": null,
      "inferredRole": "kick",
      "inferredConfidence": 0.95,
      "clipCount": 2,
      "deviceCount": 2,
      "automationPoints": 0,
      "devices": [
        {
          "id": "track_midi_12_0_dev_0",
          "deviceClass": "OriginalSimpler",
          "pluginName": null,
          "enabled": true,
          "inferredPurpose": "sampler_instrument",
          "parameters": {},
          "hasSidechainInput": false
        },
        {
          "id": "track_midi_12_0_dev_1",
          "deviceClass": "Eq8",
          "pluginName": null,
          "enabled": true,
          "inferredPurpose": "eq_filter",
          "parameters": {},
          "hasSidechainInput": false
        }
      ],
      "clips": [
        {
          "id": "track_midi_12_0_clip_0",
          "trackId": "track_midi_12_0",
          "clipType": "midi",
          "start": 0,
          "end": 752,
          "loop": true,
          "sourceRef": null,
          "midiNoteCount": 16,
          "midiNotes": [
            {
              "pitch": 60,
              "time": 0,
              "duration": 0.25,
              "velocity": 100
            },
            {
              "pitch": 60,
              "time": 1,
              "duration": 0.25,
              "velocity": 100
            },
            {
              "pitch": 60,
              "time": 2,
              "duration": 0.25,
              "velocity": 100
            },
            {
              "pitch": 60,
              "time": 3,
              "duration": 0.25,
              "velocity": 100
            },
            {
              "pitch": 60,
              "time": 4,
              "duration": 0.25,
              "velocity": 100
            },
            {
              "pitch": 60,
              "time": 5,
              "duration": 0.25,
              "velocity": 100
            },
            {
              "pitch": 60,
              "time": 6,
              "duration": 0.25,
              "velocity": 100
            },
            {
              "pitch": 60,
              "time": 7,
              "duration": 0.25,
              "velocity": 100
            },
            {
              "pitch": 60,
              "time": 8,
              "duration": 0.25,
              "velocity": 100
            },
            {
              "pitch": 60,
              "time": 9,
              "duration": 0.25,
              "velocity": 100
            },
            {
              "pitch": 60,
              "time": 10,
              "duration": 0.25,
              "velocity": 100
            },
            {
              "pitch": 60,
              "time": 11,
              "duration": 0.25,
              "velocity": 100
            },
            {
              "pitch": 60,
              "time": 12,
              "duration": 0.25,
              "velocity": 100
            },
            {
              "pitch": 60,
              "time": 13,
              "duration": 0.25,
              "velocity": 100
            },
            {
              "pitch": 60,
              "time": 14,
              "duration": 0.25,
              "velocity": 100
            },
            {
              "pitch": 60,
              "time": 15,
              "duration": 0.25,
              "velocity": 100
            }
          ],
          "gainInfo": 1,
          "contentSummary": "midi clip, 188.0 bars, 16 notes",
          "clipColor": 12,
          "name": null
        },
        {
          "id": "track_midi_12_0_clip_1",
          "trackId": "track_midi_12_0",
          "clipType": "midi",
          "start": 0,
          "end": 16,
          "loop": true,
          "sourceRef": null,
          "midiNoteCount": 16,
          "midiNotes": [
            {
              "pitch": 60,
              "time": 0,
              "duration": 0.25,
              "velocity": 100
            },
            {
              "pitch": 60,
              "time": 1,
              "duration": 0.25,
              "velocity": 100
            },
            {
              "pitch": 60,
              "time": 2,
              "duration": 0.25,
              "velocity": 100
            },
            {
              "pitch": 60,
              "time": 3,
              "duration": 0.25,
              "velocity": 100
            },
            {
              "pitch": 60,
              "time": 4,
              "duration": 0.25,
              "velocity": 100
            },
            {
              "pitch": 60,
              "time": 5,
              "duration": 0.25,
              "velocity": 100
            },
            {
              "pitch": 60,
              "time": 6,
              "duration": 0.25,
              "velocity": 100
            },
            {
              "pitch": 60,
              "time": 7,
              "duration": 0.25,
              "velocity": 100
            },
            {
              "pitch": 60,
              "time": 8,
              "duration": 0.25,
              "velocity": 100
            },
            {
              "pitch": 60,
              "time": 9,
              "duration": 0.25,
              "velocity": 100
            },
            {
              "pitch": 60,
              "time": 10,
              "duration": 0.25,
              "velocity": 100
            },
            {
              "pitch": 60,
              "time": 11,
              "duration": 0.25,
              "velocity": 100
            },
            {
              "pitch": 60,
              "time": 12,
              "duration": 0.25,
              "velocity": 100
            },
            {
              "pitch": 60,
              "time": 13,
              "duration": 0.25,
              "velocity": 100
            },
            {
              "pitch": 60,
              "time": 14,
              "duration": 0.25,
              "velocity": 100
            },
            {
              "pitch": 60,
              "time": 15,
              "duration": 0.25,
              "velocity": 100
            }
          ],
          "gainInfo": 1,
          "contentSummary": "midi clip, 4.0 bars, 16 notes",
          "clipColor": 12,
          "name": null
        }
      ],
      "automationLanes": [],
      "routing": {
        "audioInput": {
          "target": "AudioIn/External/S0",
          "upper": "Ext. In",
          "lower": "1/2"
        },
        "audioOutput": {
          "target": "AudioOut/Main",
          "upper": "Master",
          "lower": ""
        }
      },
      "warnings": []
    },
    {
      "id": "track_midi_13_1",
      "name": "kick 2",
      "type": "midi",
      "parentGroupId": null,
      "orderIndex": 1,
      "muted": false,
      "solo": false,
      "frozen": false,
      "armed": false,
      "color": null,
      "inferredRole": "kick",
      "inferredConfidence": 0.95,
      "clipCount": 2,
      "deviceCount": 2,
      "automationPoints": 0,
      "devices": [
        {
          "id": "track_midi_13_1_dev_0",
          "deviceClass": "OriginalSimpler",
          "pluginName": null,
          "enabled": true,
          "inferredPurpose": "sampler_instrument",
          "parameters": {},
          "hasSidechainInput": false
        },
        {
          "id": "track_midi_13_1_dev_1",
          "deviceClass": "Eq8",
          "pluginName": null,
          "enabled": true,
          "inferredPurpose": "eq_filter",
          "parameters": {},
          "hasSidechainInput": false
        }
      ],
      "clips": [
        {
          "id": "track_midi_13_1_clip_0",
          "trackId": "track_midi_13_1",
          "clipType": "midi",
          "start": 0,
          "end": 752,
          "loop": true,
          "sourceRef": null,
          "midiNoteCount": 4,
          "midiNotes": [
            {
              "pitch": 60,
              "time": 0,
              "duration": 0.25,
              "velocity": 100
            },
            {
              "pitch": 60,
              "time": 1,
              "duration": 0.25,
              "velocity": 100
            },
            {
              "pitch": 60,
              "time": 2,
              "duration": 0.25,
              "velocity": 100
            },
            {
              "pitch": 60,
              "time": 3,
              "duration": 0.25,
              "velocity": 100
            }
          ],
          "gainInfo": 1,
          "contentSummary": "midi clip, 188.0 bars, 4 notes",
          "clipColor": 25,
          "name": null
        },
        {
          "id": "track_midi_13_1_clip_1",
          "trackId": "track_midi_13_1",
          "clipType": "midi",
          "start": 0,
          "end": 4,
          "loop": true,
          "sourceRef": null,
          "midiNoteCount": 4,
          "midiNotes": [
            {
              "pitch": 60,
              "time": 0,
              "duration": 0.25,
              "velocity": 100
            },
            {
              "pitch": 60,
              "time": 1,
              "duration": 0.25,
              "velocity": 100
            },
            {
              "pitch": 60,
              "time": 2,
              "duration": 0.25,
              "velocity": 100
            },
            {
              "pitch": 60,
              "time": 3,
              "duration": 0.25,
              "velocity": 100
            }
          ],
          "gainInfo": 1,
          "contentSummary": "midi clip, 1.0 bars, 4 notes",
          "clipColor": 25,
          "name": null
        }
      ],
      "automationLanes": [],
      "routing": {
        "audioInput": {
          "target": "AudioIn/External/S0",
          "upper": "Ext. In",
          "lower": "1/2"
        },
        "audioOutput": {
          "target": "AudioOut/Main",
          "upper": "Master",
          "lower": ""
        }
      },
      "warnings": []
    },
    {
      "id": "track_midi_15_2",
      "name": "sub",
      "type": "midi",
      "parentGroupId": null,
      "orderIndex": 2,
      "muted": false,
      "solo": false,
      "frozen": false,
      "armed": false,
      "color": null,
      "inferredRole": "bass",
      "inferredConfidence": 0.95,
      "clipCount": 2,
      "deviceCount": 4,
      "automationPoints": 0,
      "devices": [
        {
          "id": "track_midi_15_2_dev_0",
          "deviceClass": "OriginalSimpler",
          "pluginName": null,
          "enabled": true,
          "inferredPurpose": "sampler_instrument",
          "parameters": {},
          "hasSidechainInput": false
        },
        {
          "id": "track_midi_15_2_dev_1",
          "deviceClass": "Eq8",
          "pluginName": null,
          "enabled": true,
          "inferredPurpose": "eq_filter",
          "parameters": {},
          "hasSidechainInput": false
        },
        {
          "id": "track_midi_15_2_dev_2",
          "deviceClass": "AutoFilter",
          "pluginName": null,
          "enabled": true,
          "inferredPurpose": "eq_filter",
          "parameters": {},
          "hasSidechainInput": false
        },
        {
          "id": "track_midi_15_2_dev_3",
          "deviceClass": "Compressor2",
          "pluginName": null,
          "enabled": true,
          "inferredPurpose": "dynamics",
          "parameters": {},
          "hasSidechainInput": false
        }
      ],
      "clips": [
        {
          "id": "track_midi_15_2_clip_0",
          "trackId": "track_midi_15_2",
          "clipType": "midi",
          "start": 0,
          "end": 752,
          "loop": true,
          "sourceRef": null,
          "midiNoteCount": 16,
          "midiNotes": [
            {
              "pitch": 60,
              "time": 0,
              "duration": 0.25,
              "velocity": 100
            },
            {
              "pitch": 60,
              "time": 0.25,
              "duration": 0.25,
              "velocity": 100
            },
            {
              "pitch": 60,
              "time": 0.5,
              "duration": 0.25,
              "velocity": 100
            },
            {
              "pitch": 60,
              "time": 0.75,
              "duration": 0.25,
              "velocity": 100
            },
            {
              "pitch": 60,
              "time": 1,
              "duration": 0.25,
              "velocity": 100
            },
            {
              "pitch": 60,
              "time": 1.25,
              "duration": 0.25,
              "velocity": 100
            },
            {
              "pitch": 60,
              "time": 1.5,
              "duration": 0.25,
              "velocity": 100
            },
            {
              "pitch": 60,
              "time": 1.75,
              "duration": 0.25,
              "velocity": 100
            },
            {
              "pitch": 60,
              "time": 2,
              "duration": 0.25,
              "velocity": 100
            },
            {
              "pitch": 60,
              "time": 2.25,
              "duration": 0.25,
              "velocity": 100
            },
            {
              "pitch": 60,
              "time": 2.5,
              "duration": 0.25,
              "velocity": 100
            },
            {
              "pitch": 60,
              "time": 2.75,
              "duration": 0.25,
              "velocity": 100
            },
            {
              "pitch": 60,
              "time": 3,
              "duration": 0.25,
              "velocity": 100
            },
            {
              "pitch": 60,
              "time": 3.25,
              "duration": 0.25,
              "velocity": 100
            },
            {
              "pitch": 60,
              "time": 3.5,
              "duration": 0.25,
              "velocity": 100
            },
            {
              "pitch": 60,
              "time": 3.75,
              "duration": 0.25,
              "velocity": 100
            }
          ],
          "gainInfo": 1,
          "contentSummary": "midi clip, 188.0 bars, 16 notes",
          "clipColor": 25,
          "name": null
        },
        {
          "id": "track_midi_15_2_clip_1",
          "trackId": "track_midi_15_2",
          "clipType": "midi",
          "start": 0,
          "end": 4,
          "loop": true,
          "sourceRef": null,
          "midiNoteCount": 16,
          "midiNotes": [
            {
              "pitch": 60,
              "time": 0,
              "duration": 0.25,
              "velocity": 100
            },
            {
              "pitch": 60,
              "time": 0.25,
              "duration": 0.25,
              "velocity": 100
            },
            {
              "pitch": 60,
              "time": 0.5,
              "duration": 0.25,
              "velocity": 100
            },
            {
              "pitch": 60,
              "time": 0.75,
              "duration": 0.25,
              "velocity": 100
            },
            {
              "pitch": 60,
              "time": 1,
              "duration": 0.25,
              "velocity": 100
            },
            {
              "pitch": 60,
              "time": 1.25,
              "duration": 0.25,
              "velocity": 100
            },
            {
              "pitch": 60,
              "time": 1.5,
              "duration": 0.25,
              "velocity": 100
            },
            {
              "pitch": 60,
              "time": 1.75,
              "duration": 0.25,
              "velocity": 100
            },
            {
              "pitch": 60,
              "time": 2,
              "duration": 0.25,
              "velocity": 100
            },
            {
              "pitch": 60,
              "time": 2.25,
              "duration": 0.25,
              "velocity": 100
            },
            {
              "pitch": 60,
              "time": 2.5,
              "duration": 0.25,
              "velocity": 100
            },
            {
              "pitch": 60,
              "time": 2.75,
              "duration": 0.25,
              "velocity": 100
            },
            {
              "pitch": 60,
              "time": 3,
              "duration": 0.25,
              "velocity": 100
            },
            {
              "pitch": 60,
              "time": 3.25,
              "duration": 0.25,
              "velocity": 100
            },
            {
              "pitch": 60,
              "time": 3.5,
              "duration": 0.25,
              "velocity": 100
            },
            {
              "pitch": 60,
              "time": 3.75,
              "duration": 0.25,
              "velocity": 100
            }
          ],
          "gainInfo": 1,
          "contentSummary": "midi clip, 1.0 bars, 16 notes",
          "clipColor": 25,
          "name": null
        }
      ],
      "automationLanes": [],
      "routing": {
        "audioInput": {
          "target": "AudioIn/External/S0",
          "upper": "Ext. In",
          "lower": "1/2"
        },
        "audioOutput": {
          "target": "AudioOut/Main",
          "upper": "Master",
          "lower": ""
        }
      },
      "warnings": []
    },
    {
      "id": "track_midi_16_3",
      "name": "bass",
      "type": "midi",
      "parentGroupId": null,
      "orderIndex": 3,
      "muted": false,
      "solo": false,
      "frozen": false,
      "armed": false,
      "color": null,
      "inferredRole": "bass",
      "inferredConfidence": 0.95,
      "clipCount": 2,
      "deviceCount": 2,
      "automationPoints": 0,
      "devices": [
        {
          "id": "track_midi_16_3_dev_0",
          "deviceClass": "Operator",
          "pluginName": null,
          "enabled": true,
          "inferredPurpose": "synth",
          "parameters": {},
          "hasSidechainInput": false
        },
        {
          "id": "track_midi_16_3_dev_1",
          "deviceClass": "Compressor2",
          "pluginName": null,
          "enabled": true,
          "inferredPurpose": "dynamics",
          "parameters": {},
          "hasSidechainInput": false
        }
      ],
      "clips": [
        {
          "id": "track_midi_16_3_clip_0",
          "trackId": "track_midi_16_3",
          "clipType": "midi",
          "start": 0,
          "end": 752,
          "loop": true,
          "sourceRef": null,
          "midiNoteCount": 16,
          "midiNotes": [
            {
              "pitch": 48,
              "time": 0,
              "duration": 0.25,
              "velocity": 100
            },
            {
              "pitch": 48,
              "time": 0.5,
              "duration": 0.25,
              "velocity": 100
            },
            {
              "pitch": 48,
              "time": 1,
              "duration": 0.25,
              "velocity": 100
            },
            {
              "pitch": 48,
              "time": 1.25,
              "duration": 0.25,
              "velocity": 100
            },
            {
              "pitch": 48,
              "time": 1.5,
              "duration": 0.25,
              "velocity": 100
            },
            {
              "pitch": 48,
              "time": 2,
              "duration": 0.25,
              "velocity": 100
            },
            {
              "pitch": 48,
              "time": 2.25,
              "duration": 0.25,
              "velocity": 100
            },
            {
              "pitch": 48,
              "time": 2.5,
              "duration": 0.25,
              "velocity": 100
            },
            {
              "pitch": 48,
              "time": 2.75,
              "duration": 0.25,
              "velocity": 100
            },
            {
              "pitch": 48,
              "time": 3.25,
              "duration": 0.25,
              "velocity": 100
            },
            {
              "pitch": 48,
              "time": 3.75,
              "duration": 0.25,
              "velocity": 100
            },
            {
              "pitch": 49,
              "time": 0.25,
              "duration": 0.25,
              "velocity": 100
            },
            {
              "pitch": 49,
              "time": 0.75,
              "duration": 0.25,
              "velocity": 100
            },
            {
              "pitch": 49,
              "time": 1.75,
              "duration": 0.25,
              "velocity": 100
            },
            {
              "pitch": 49,
              "time": 3,
              "duration": 0.25,
              "velocity": 100
            },
            {
              "pitch": 49,
              "time": 3.5,
              "duration": 0.25,
              "velocity": 100
            }
          ],
          "gainInfo": 1,
          "contentSummary": "midi clip, 188.0 bars, 16 notes",
          "clipColor": 2,
          "name": null
        },
        {
          "id": "track_midi_16_3_clip_1",
          "trackId": "track_midi_16_3",
          "clipType": "midi",
          "start": 0,
          "end": 4,
          "loop": true,
          "sourceRef": null,
          "midiNoteCount": 16,
          "midiNotes": [
            {
              "pitch": 48,
              "time": 0,
              "duration": 0.25,
              "velocity": 100
            },
            {
              "pitch": 48,
              "time": 0.5,
              "duration": 0.25,
              "velocity": 100
            },
            {
              "pitch": 48,
              "time": 1,
              "duration": 0.25,
              "velocity": 100
            },
            {
              "pitch": 48,
              "time": 1.25,
              "duration": 0.25,
              "velocity": 100
            },
            {
              "pitch": 48,
              "time": 1.5,
              "duration": 0.25,
              "velocity": 100
            },
            {
              "pitch": 48,
              "time": 2,
              "duration": 0.25,
              "velocity": 100
            },
            {
              "pitch": 48,
              "time": 2.25,
              "duration": 0.25,
              "velocity": 100
            },
            {
              "pitch": 48,
              "time": 2.5,
              "duration": 0.25,
              "velocity": 100
            },
            {
              "pitch": 48,
              "time": 2.75,
              "duration": 0.25,
              "velocity": 100
            },
            {
              "pitch": 48,
              "time": 3.25,
              "duration": 0.25,
              "velocity": 100
            },
            {
              "pitch": 48,
              "time": 3.75,
              "duration": 0.25,
              "velocity": 100
            },
            {
              "pitch": 49,
              "time": 0.25,
              "duration": 0.25,
              "velocity": 100
            },
            {
              "pitch": 49,
              "time": 0.75,
              "duration": 0.25,
              "velocity": 100
            },
            {
              "pitch": 49,
              "time": 1.75,
              "duration": 0.25,
              "velocity": 100
            },
            {
              "pitch": 49,
              "time": 3,
              "duration": 0.25,
              "velocity": 100
            },
            {
              "pitch": 49,
              "time": 3.5,
              "duration": 0.25,
              "velocity": 100
            }
          ],
          "gainInfo": 1,
          "contentSummary": "midi clip, 1.0 bars, 16 notes",
          "clipColor": 2,
          "name": null
        }
      ],
      "automationLanes": [],
      "routing": {
        "audioInput": {
          "target": "AudioIn/External/S0",
          "upper": "Ext. In",
          "lower": "1/2"
        },
        "audioOutput": {
          "target": "AudioOut/Main",
          "upper": "Main",
          "lower": ""
        }
      },
      "warnings": []
    },
    {
      "id": "track_midi_17_4",
      "name": "texture",
      "type": "midi",
      "parentGroupId": null,
      "orderIndex": 4,
      "muted": false,
      "solo": false,
      "frozen": false,
      "armed": false,
      "color": null,
      "inferredRole": "drone",
      "inferredConfidence": 0.95,
      "clipCount": 2,
      "deviceCount": 9,
      "automationPoints": 0,
      "devices": [
        {
          "id": "track_midi_17_4_dev_0",
          "deviceClass": "AuPluginDevice",
          "pluginName": "Synthi V",
          "enabled": true,
          "inferredPurpose": "synth",
          "parameters": {},
          "hasSidechainInput": false
        },
        {
          "id": "track_midi_17_4_dev_1",
          "deviceClass": "Eq8",
          "pluginName": null,
          "enabled": true,
          "inferredPurpose": "eq_filter",
          "parameters": {},
          "hasSidechainInput": false
        },
        {
          "id": "track_midi_17_4_dev_2",
          "deviceClass": "Delay",
          "pluginName": null,
          "enabled": true,
          "inferredPurpose": "delay",
          "parameters": {},
          "hasSidechainInput": false
        },
        {
          "id": "track_midi_17_4_dev_3",
          "deviceClass": "Compressor2",
          "pluginName": null,
          "enabled": true,
          "inferredPurpose": "dynamics",
          "parameters": {},
          "hasSidechainInput": false
        },
        {
          "id": "track_midi_17_4_dev_4",
          "deviceClass": "Reverb",
          "pluginName": null,
          "enabled": true,
          "inferredPurpose": "reverb",
          "parameters": {},
          "hasSidechainInput": false
        },
        {
          "id": "track_midi_17_4_dev_5",
          "deviceClass": "Amp",
          "pluginName": null,
          "enabled": true,
          "inferredPurpose": "effect",
          "parameters": {},
          "hasSidechainInput": false
        },
        {
          "id": "track_midi_17_4_dev_6",
          "deviceClass": "Saturator",
          "pluginName": null,
          "enabled": true,
          "inferredPurpose": "modulation_distortion",
          "parameters": {},
          "hasSidechainInput": false
        },
        {
          "id": "track_midi_17_4_dev_7",
          "deviceClass": "Reverb",
          "pluginName": null,
          "enabled": true,
          "inferredPurpose": "reverb",
          "parameters": {},
          "hasSidechainInput": false
        },
        {
          "id": "track_midi_17_4_dev_8",
          "deviceClass": "AutoFilter",
          "pluginName": null,
          "enabled": true,
          "inferredPurpose": "eq_filter",
          "parameters": {},
          "hasSidechainInput": false
        }
      ],
      "clips": [
        {
          "id": "track_midi_17_4_clip_0",
          "trackId": "track_midi_17_4",
          "clipType": "midi",
          "start": 0,
          "end": 752,
          "loop": true,
          "sourceRef": null,
          "midiNoteCount": 7,
          "midiNotes": [
            {
              "pitch": 50,
              "time": 0.75,
              "duration": 0.25,
              "velocity": 100
            },
            {
              "pitch": 50,
              "time": 1,
              "duration": 0.25,
              "velocity": 100
            },
            {
              "pitch": 50,
              "time": 1.5,
              "duration": 0.25,
              "velocity": 100
            },
            {
              "pitch": 50,
              "time": 2.25,
              "duration": 0.25,
              "velocity": 100
            },
            {
              "pitch": 50,
              "time": 2.75,
              "duration": 0.25,
              "velocity": 100
            },
            {
              "pitch": 52,
              "time": 2.5,
              "duration": 0.25,
              "velocity": 100
            },
            {
              "pitch": 53,
              "time": 1,
              "duration": 0.25,
              "velocity": 100
            }
          ],
          "gainInfo": 1,
          "contentSummary": "midi clip, 188.0 bars, 7 notes",
          "clipColor": 2,
          "name": null
        },
        {
          "id": "track_midi_17_4_clip_1",
          "trackId": "track_midi_17_4",
          "clipType": "midi",
          "start": 0,
          "end": 4,
          "loop": true,
          "sourceRef": null,
          "midiNoteCount": 7,
          "midiNotes": [
            {
              "pitch": 50,
              "time": 0.75,
              "duration": 0.25,
              "velocity": 100
            },
            {
              "pitch": 50,
              "time": 1,
              "duration": 0.25,
              "velocity": 100
            },
            {
              "pitch": 50,
              "time": 1.5,
              "duration": 0.25,
              "velocity": 100
            },
            {
              "pitch": 50,
              "time": 2.25,
              "duration": 0.25,
              "velocity": 100
            },
            {
              "pitch": 50,
              "time": 2.75,
              "duration": 0.25,
              "velocity": 100
            },
            {
              "pitch": 52,
              "time": 2.5,
              "duration": 0.25,
              "velocity": 100
            },
            {
              "pitch": 53,
              "time": 1,
              "duration": 0.25,
              "velocity": 100
            }
          ],
          "gainInfo": 1,
          "contentSummary": "midi clip, 1.0 bars, 7 notes",
          "clipColor": 2,
          "name": null
        }
      ],
      "automationLanes": [],
      "routing": {
        "audioInput": {
          "target": "AudioIn/External/S0",
          "upper": "Ext. In",
          "lower": "1/2"
        },
        "audioOutput": {
          "target": "AudioOut/Main",
          "upper": "Main",
          "lower": ""
        }
      },
      "warnings": []
    },
    {
      "id": "track_midi_18_5",
      "name": "6-ADRKT_TS_OH_18",
      "type": "midi",
      "parentGroupId": null,
      "orderIndex": 5,
      "muted": false,
      "solo": false,
      "frozen": false,
      "armed": false,
      "color": null,
      "inferredRole": "hihat",
      "inferredConfidence": 0.85,
      "clipCount": 22,
      "deviceCount": 4,
      "automationPoints": 0,
      "devices": [
        {
          "id": "track_midi_18_5_dev_0",
          "deviceClass": "DrumCell",
          "pluginName": null,
          "enabled": true,
          "inferredPurpose": "drum_machine",
          "parameters": {},
          "hasSidechainInput": false
        },
        {
          "id": "track_midi_18_5_dev_1",
          "deviceClass": "MxDeviceAudioEffect",
          "pluginName": null,
          "enabled": true,
          "inferredPurpose": "effect",
          "parameters": {},
          "hasSidechainInput": false
        },
        {
          "id": "track_midi_18_5_dev_2",
          "deviceClass": "Reverb",
          "pluginName": null,
          "enabled": true,
          "inferredPurpose": "reverb",
          "parameters": {},
          "hasSidechainInput": false
        },
        {
          "id": "track_midi_18_5_dev_3",
          "deviceClass": "DrumBuss",
          "pluginName": null,
          "enabled": true,
          "inferredPurpose": "drum_machine",
          "parameters": {},
          "hasSidechainInput": false
        }
      ],
      "clips": [
        {
          "id": "track_midi_18_5_clip_0",
          "trackId": "track_midi_18_5",
          "clipType": "midi",
          "start": 160,
          "end": 176,
          "loop": true,
          "sourceRef": null,
          "midiNoteCount": 32,
          "midiNotes": [
            {
              "pitch": 60,
              "time": 0.000010666416916416916,
              "duration": 0.25,
              "velocity": 100
            },
            {
              "pitch": 60,
              "time": 0.2553665084915085,
              "duration": 0.243314498001998,
              "velocity": 100
            },
            {
              "pitch": 60,
              "time": 0.4986810064935065,
              "duration": 0.25,
              "velocity": 100
            },
            {
              "pitch": 60,
              "time": 0.7516525141525141,
              "duration": 0.25,
              "velocity": 100
            },
            {
              "pitch": 60,
              "time": 1.0017680236430238,
              "duration": 0.25,
              "velocity": 100
            },
            {
              "pitch": 60,
              "time": 1.2560777763902764,
              "duration": 0.2477322157009657,
              "velocity": 100
            },
            {
              "pitch": 60,
              "time": 1.503809992091242,
              "duration": 0.2486396416083916,
              "velocity": 100
            },
            {
              "pitch": 60,
              "time": 1.7524496336996338,
              "duration": 0.2463180049117549,
              "velocity": 100
            },
            {
              "pitch": 60,
              "time": 1.9987676386113886,
              "duration": 0.25,
              "velocity": 100
            },
            {
              "pitch": 60,
              "time": 2.2560507201132203,
              "duration": 0.24218828046953048,
              "velocity": 100
            },
            {
              "pitch": 60,
              "time": 2.4982390005827506,
              "duration": 0.25,
              "velocity": 100
            },
            {
              "pitch": 60,
              "time": 2.749630577755578,
              "duration": 0.24989203504828505,
              "velocity": 100
            },
            {
              "pitch": 60,
              "time": 2.999522612803863,
              "duration": 0.24435226232101231,
              "velocity": 100
            },
            {
              "pitch": 60,
              "time": 3.243874875124875,
              "duration": 0.25,
              "velocity": 100
            },
            {
              "pitch": 60,
              "time": 3.5044970654345655,
              "duration": 0.24838624916749916,
              "velocity": 100
            },
            {
              "pitch": 60,
              "time": 3.7528833146020646,
              "duration": 0.24139506327006327,
              "velocity": 100
            },
            {
              "pitch": 60,
              "time": 3.994278377872128,
              "duration": 0.25,
              "velocity": 100
            },
            {
              "pitch": 60,
              "time": 4.254352158258408,
              "duration": 0.25,
              "velocity": 100
            },
            {
              "pitch": 60,
              "time": 4.505412556193806,
              "duration": 0.24714426198801198,
              "velocity": 100
            },
            {
              "pitch": 60,
              "time": 4.7525568181818185,
              "duration": 0.25,
              "velocity": 100
            },
            {
              "pitch": 60,
              "time": 5.005466408591409,
              "duration": 0.24541344072594073,
              "velocity": 100
            },
            {
              "pitch": 60,
              "time": 5.250879849317349,
              "duration": 0.24538638444888444,
              "velocity": 100
            },
            {
              "pitch": 60,
              "time": 5.496266233766233,
              "duration": 0.25,
              "velocity": 100
            },
            {
              "pitch": 60,
              "time": 5.753404928404929,
              "duration": 0.24314097360972362,
              "velocity": 100
            },
            {
              "pitch": 60,
              "time": 5.996545902014652,
              "duration": 0.24955201048951048,
              "velocity": 100
            },
            {
              "pitch": 60,
              "time": 6.246097912504163,
              "duration": 0.25,
              "velocity": 100
            },
            {
              "pitch": 60,
              "time": 6.500682910839161,
              "duration": 0.25,
              "velocity": 100
            },
            {
              "pitch": 60,
              "time": 6.752770666833166,
              "duration": 0.24414101523476522,
              "velocity": 100
            },
            {
              "pitch": 60,
              "time": 6.996911682067932,
              "duration": 0.25,
              "velocity": 100
            },
            {
              "pitch": 60,
              "time": 7.252682733932734,
              "duration": 0.24558358308358308,
              "velocity": 100
            },
            {
              "pitch": 60,
              "time": 7.498266317016317,
              "duration": 0.24886311605061606,
              "velocity": 100
            },
            {
              "pitch": 60,
              "time": 7.747129433066933,
              "duration": 0.25,
              "velocity": 100
            }
          ],
          "gainInfo": 1,
          "contentSummary": "midi clip, 4.0 bars, 32 notes",
          "clipColor": 1,
          "name": null
        },
        {
          "id": "track_midi_18_5_clip_1",
          "trackId": "track_midi_18_5",
          "clipType": "midi",
          "start": 176,
          "end": 184,
          "loop": true,
          "sourceRef": null,
          "midiNoteCount": 32,
          "midiNotes": [
            {
              "pitch": 60,
              "time": 0.000010666416916416916,
              "duration": 0.25,
              "velocity": 100
            },
            {
              "pitch": 60,
              "time": 0.2553665084915085,
              "duration": 0.243314498001998,
              "velocity": 100
            },
            {
              "pitch": 60,
              "time": 0.4986810064935065,
              "duration": 0.25,
              "velocity": 100
            },
            {
              "pitch": 60,
              "time": 0.7516525141525141,
              "duration": 0.25,
              "velocity": 100
            },
            {
              "pitch": 60,
              "time": 1.0017680236430238,
              "duration": 0.25,
              "velocity": 100
            },
            {
              "pitch": 60,
              "time": 1.2560777763902764,
              "duration": 0.2477322157009657,
              "velocity": 100
            },
            {
              "pitch": 60,
              "time": 1.503809992091242,
              "duration": 0.2486396416083916,
              "velocity": 100
            },
            {
              "pitch": 60,
              "time": 1.7524496336996338,
              "duration": 0.2463180049117549,
              "velocity": 100
            },
            {
              "pitch": 60,
              "time": 1.9987676386113886,
              "duration": 0.25,
              "velocity": 100
            },
            {
              "pitch": 60,
              "time": 2.2560507201132203,
              "duration": 0.24218828046953048,
              "velocity": 100
            },
            {
              "pitch": 60,
              "time": 2.4982390005827506,
              "duration": 0.25,
              "velocity": 100
            },
            {
              "pitch": 60,
              "time": 2.749630577755578,
              "duration": 0.24989203504828505,
              "velocity": 100
            },
            {
              "pitch": 60,
              "time": 2.999522612803863,
              "duration": 0.24435226232101231,
              "velocity": 100
            },
            {
              "pitch": 60,
              "time": 3.243874875124875,
              "duration": 0.25,
              "velocity": 100
            },
            {
              "pitch": 60,
              "time": 3.5044970654345655,
              "duration": 0.24838624916749916,
              "velocity": 100
            },
            {
              "pitch": 60,
              "time": 3.7528833146020646,
              "duration": 0.24139506327006327,
              "velocity": 100
            },
            {
              "pitch": 60,
              "time": 3.994278377872128,
              "duration": 0.25,
              "velocity": 100
            },
            {
              "pitch": 60,
              "time": 4.254352158258408,
              "duration": 0.25,
              "velocity": 100
            },
            {
              "pitch": 60,
              "time": 4.505412556193806,
              "duration": 0.24714426198801198,
              "velocity": 100
            },
            {
              "pitch": 60,
              "time": 4.7525568181818185,
              "duration": 0.25,
              "velocity": 100
            },
            {
              "pitch": 60,
              "time": 5.005466408591409,
              "duration": 0.24541344072594073,
              "velocity": 100
            },
            {
              "pitch": 60,
              "time": 5.250879849317349,
              "duration": 0.24538638444888444,
              "velocity": 100
            },
            {
              "pitch": 60,
              "time": 5.496266233766233,
              "duration": 0.25,
              "velocity": 100
            },
            {
              "pitch": 60,
              "time": 5.753404928404929,
              "duration": 0.24314097360972362,
              "velocity": 100
            },
            {
              "pitch": 60,
              "time": 5.996545902014652,
              "duration": 0.24955201048951048,
              "velocity": 100
            },
            {
              "pitch": 60,
              "time": 6.246097912504163,
              "duration": 0.25,
              "velocity": 100
            },
            {
              "pitch": 60,
              "time": 6.500682910839161,
              "duration": 0.25,
              "velocity": 100
            },
            {
              "pitch": 60,
              "time": 6.752770666833166,
              "duration": 0.24414101523476522,
              "velocity": 100
            },
            {
              "pitch": 60,
              "time": 6.996911682067932,
              "duration": 0.25,
              "velocity": 100
            },
            {
              "pitch": 60,
              "time": 7.252682733932734,
              "duration": 0.24558358308358308,
              "velocity": 100
            },
            {
              "pitch": 60,
              "time": 7.498266317016317,
              "duration": 0.24886311605061606,
              "velocity": 100
            },
            {
              "pitch": 60,
              "time": 7.747129433066933,
              "duration": 0.25,
              "velocity": 100
            }
          ],
          "gainInfo": 1,
          "contentSummary": "midi clip, 2.0 bars, 32 notes",
          "clipColor": 1,
          "name": null
        },
        {
          "id": "track_midi_18_5_clip_2",
          "trackId": "track_midi_18_5",
          "clipType": "midi",
          "start": 184,
          "end": 192,
          "loop": true,
          "sourceRef": null,
          "midiNoteCount": 32,
          "midiNotes": [
            {
              "pitch": 60,
              "time": 0.000010666416916416916,
              "duration": 0.25,
              "velocity": 100
            },
            {
              "pitch": 60,
              "time": 0.2553665084915085,
              "duration": 0.243314498001998,
              "velocity": 100
            },
            {
              "pitch": 60,
              "time": 0.4986810064935065,
              "duration": 0.25,
              "velocity": 100
            },
            {
              "pitch": 60,
              "time": 0.7516525141525141,
              "duration": 0.25,
              "velocity": 100
            },
            {
              "pitch": 60,
              "time": 1.0017680236430238,
              "duration": 0.25,
              "velocity": 100
            },
            {
              "pitch": 60,
              "time": 1.2560777763902764,
              "duration": 0.2477322157009657,
              "velocity": 100
            },
            {
              "pitch": 60,
              "time": 1.503809992091242,
              "duration": 0.2486396416083916,
              "velocity": 100
            },
            {
              "pitch": 60,
              "time": 1.7524496336996338,
              "duration": 0.2463180049117549,
              "velocity": 100
            },
            {
              "pitch": 60,
              "time": 1.9987676386113886,
              "duration": 0.25,
              "velocity": 100
            },
            {
              "pitch": 60,
              "time": 2.2560507201132203,
              "duration": 0.24218828046953048,
              "velocity": 100
            },
            {
              "pitch": 60,
              "time": 2.4982390005827506,
              "duration": 0.25,
              "velocity": 100
            },
            {
              "pitch": 60,
              "time": 2.749630577755578,
              "duration": 0.24989203504828505,
              "velocity": 100
            },
            {
              "pitch": 60,
              "time": 2.999522612803863,
              "duration": 0.24435226232101231,
              "velocity": 100
            },
            {
              "pitch": 60,
              "time": 3.243874875124875,
              "duration": 0.25,
              "velocity": 100
            },
            {
              "pitch": 60,
              "time": 3.5044970654345655,
              "duration": 0.24838624916749916,
              "velocity": 100
            },
            {
              "pitch": 60,
              "time": 3.7528833146020646,
              "duration": 0.24139506327006327,
              "velocity": 100
            },
            {
              "pitch": 60,
              "time": 3.994278377872128,
              "duration": 0.25,
              "velocity": 100
            },
            {
              "pitch": 60,
              "time": 4.254352158258408,
              "duration": 0.25,
              "velocity": 100
            },
            {
              "pitch": 60,
              "time": 4.505412556193806,
              "duration": 0.24714426198801198,
              "velocity": 100
            },
            {
              "pitch": 60,
              "time": 4.7525568181818185,
              "duration": 0.25,
              "velocity": 100
            },
            {
              "pitch": 60,
              "time": 5.005466408591409,
              "duration": 0.24541344072594073,
              "velocity": 100
            },
            {
              "pitch": 60,
              "time": 5.250879849317349,
              "duration": 0.24538638444888444,
              "velocity": 100
            },
            {
              "pitch": 60,
              "time": 5.496266233766233,
              "duration": 0.25,
              "velocity": 100
            },
            {
              "pitch": 60,
              "time": 5.753404928404929,
              "duration": 0.24314097360972362,
              "velocity": 100
            },
            {
              "pitch": 60,
              "time": 5.996545902014652,
              "duration": 0.24955201048951048,
              "velocity": 100
            },
            {
              "pitch": 60,
              "time": 6.246097912504163,
              "duration": 0.25,
              "velocity": 100
            },
            {
              "pitch": 60,
              "time": 6.500682910839161,
              "duration": 0.25,
              "velocity": 100
            },
            {
              "pitch": 60,
              "time": 6.752770666833166,
              "duration": 0.24414101523476522,
              "velocity": 100
            },
            {
              "pitch": 60,
              "time": 6.996911682067932,
              "duration": 0.25,
              "velocity": 100
            },
            {
              "pitch": 60,
              "time": 7.252682733932734,
              "duration": 0.24558358308358308,
              "velocity": 100
            },
            {
              "pitch": 60,
              "time": 7.498266317016317,
              "duration": 0.24886311605061606,
              "velocity": 100
            },
            {
              "pitch": 60,
              "time": 7.747129433066933,
              "duration": 0.25,
              "velocity": 100
            }
          ],
          "gainInfo": 1,
          "contentSummary": "midi clip, 2.0 bars, 32 notes",
          "clipColor": 1,
          "name": null
        },
        {
          "id": "track_midi_18_5_clip_3",
          "trackId": "track_midi_18_5",
          "clipType": "midi",
          "start": 192,
          "end": 224,
          "loop": true,
          "sourceRef": null,
          "midiNoteCount": 32,
          "midiNotes": [
            {
              "pitch": 60,
              "time": 0.000010666416916416916,
              "duration": 0.25,
              "velocity": 100
            },
            {
              "pitch": 60,
              "time": 0.2553665084915085,
              "duration": 0.243314498001998,
              "velocity": 100
            },
            {
              "pitch": 60,
              "time": 0.4986810064935065,
              "duration": 0.25,
              "velocity": 100
            },
            {
              "pitch": 60,
              "time": 0.7516525141525141,
              "duration": 0.25,
              "velocity": 100
            },
            {
              "pitch": 60,
              "time": 1.0017680236430238,
              "duration": 0.25,
              "velocity": 100
            },
            {
              "pitch": 60,
              "time": 1.2560777763902764,
              "duration": 0.2477322157009657,
              "velocity": 100
            },
            {
              "pitch": 60,
              "time": 1.503809992091242,
              "duration": 0.2486396416083916,
              "velocity": 100
            },
            {
              "pitch": 60,
              "time": 1.7524496336996338,
              "duration": 0.2463180049117549,
              "velocity": 100
            },
            {
              "pitch": 60,
              "time": 1.9987676386113886,
              "duration": 0.25,
              "velocity": 100
            },
            {
              "pitch": 60,
              "time": 2.2560507201132203,
              "duration": 0.24218828046953048,
              "velocity": 100
            },
            {
              "pitch": 60,
              "time": 2.4982390005827506,
              "duration": 0.25,
              "velocity": 100
            },
            {
              "pitch": 60,
              "time": 2.749630577755578,
              "duration": 0.24989203504828505,
              "velocity": 100
            },
            {
              "pitch": 60,
              "time": 2.999522612803863,
              "duration": 0.24435226232101231,
              "velocity": 100
            },
            {
              "pitch": 60,
              "time": 3.243874875124875,
              "duration": 0.25,
              "velocity": 100
            },
            {
              "pitch": 60,
              "time": 3.5044970654345655,
              "duration": 0.24838624916749916,
              "velocity": 100
            },
            {
              "pitch": 60,
              "time": 3.7528833146020646,
              "duration": 0.24139506327006327,
              "velocity": 100
            },
            {
              "pitch": 60,
              "time": 3.994278377872128,
              "duration": 0.25,
              "velocity": 100
            },
            {
              "pitch": 60,
              "time": 4.254352158258408,
              "duration": 0.25,
              "velocity": 100
            },
            {
              "pitch": 60,
              "time": 4.505412556193806,
              "duration": 0.24714426198801198,
              "velocity": 100
            },
            {
              "pitch": 60,
              "time": 4.7525568181818185,
              "duration": 0.25,
              "velocity": 100
            },
            {
              "pitch": 60,
              "time": 5.005466408591409,
              "duration": 0.24541344072594073,
              "velocity": 100
            },
            {
              "pitch": 60,
              "time": 5.250879849317349,
              "duration": 0.24538638444888444,
              "velocity": 100
            },
            {
              "pitch": 60,
              "time": 5.496266233766233,
              "duration": 0.25,
              "velocity": 100
            },
            {
              "pitch": 60,
              "time": 5.753404928404929,
              "duration": 0.24314097360972362,
              "velocity": 100
            },
            {
              "pitch": 60,
              "time": 5.996545902014652,
              "duration": 0.24955201048951048,
              "velocity": 100
            },
            {
              "pitch": 60,
              "time": 6.246097912504163,
              "duration": 0.25,
              "velocity": 100
            },
            {
              "pitch": 60,
              "time": 6.500682910839161,
              "duration": 0.25,
              "velocity": 100
            },
            {
              "pitch": 60,
              "time": 6.752770666833166,
              "duration": 0.24414101523476522,
              "velocity": 100
            },
            {
              "pitch": 60,
              "time": 6.996911682067932,
              "duration": 0.25,
              "velocity": 100
            },
            {
              "pitch": 60,
              "time": 7.252682733932734,
              "duration": 0.24558358308358308,
              "velocity": 100
            },
            {
              "pitch": 60,
              "time": 7.498266317016317,
              "duration": 0.24886311605061606,
              "velocity": 100
            },
            {
              "pitch": 60,
              "time": 7.747129433066933,
              "duration": 0.25,
              "velocity": 100
            }
          ],
          "gainInfo": 1,
          "contentSummary": "midi clip, 8.0 bars, 32 notes",
          "clipColor": 1,
          "name": null
        },
        {
          "id": "track_midi_18_5_clip_4",
          "trackId": "track_midi_18_5",
          "clipType": "midi",
          "start": 224,
          "end": 256,
          "loop": true,
          "sourceRef": null,
          "midiNoteCount": 32,
          "midiNotes": [
            {
              "pitch": 60,
              "time": 0.000010666416916416916,
              "duration": 0.25,
              "velocity": 100
            },
            {
              "pitch": 60,
              "time": 0.2553665084915085,
              "duration": 0.243314498001998,
              "velocity": 100
            },
            {
              "pitch": 60,
              "time": 0.4986810064935065,
              "duration": 0.25,
              "velocity": 100
            },
            {
              "pitch": 60,
              "time": 0.7516525141525141,
              "duration": 0.25,
              "velocity": 100
            },
            {
              "pitch": 60,
              "time": 1.0017680236430238,
              "duration": 0.25,
              "velocity": 100
            },
            {
              "pitch": 60,
              "time": 1.2560777763902764,
              "duration": 0.2477322157009657,
              "velocity": 100
            },
            {
              "pitch": 60,
              "time": 1.503809992091242,
              "duration": 0.2486396416083916,
              "velocity": 100
            },
            {
              "pitch": 60,
              "time": 1.7524496336996338,
              "duration": 0.2463180049117549,
              "velocity": 100
            },
            {
              "pitch": 60,
              "time": 1.9987676386113886,
              "duration": 0.25,
              "velocity": 100
            },
            {
              "pitch": 60,
              "time": 2.2560507201132203,
              "duration": 0.24218828046953048,
              "velocity": 100
            },
            {
              "pitch": 60,
              "time": 2.4982390005827506,
              "duration": 0.25,
              "velocity": 100
            },
            {
              "pitch": 60,
              "time": 2.749630577755578,
              "duration": 0.24989203504828505,
              "velocity": 100
            },
            {
              "pitch": 60,
              "time": 2.999522612803863,
              "duration": 0.24435226232101231,
              "velocity": 100
            },
            {
              "pitch": 60,
              "time": 3.243874875124875,
              "duration": 0.25,
              "velocity": 100
            },
            {
              "pitch": 60,
              "time": 3.5044970654345655,
              "duration": 0.24838624916749916,
              "velocity": 100
            },
            {
              "pitch": 60,
              "time": 3.7528833146020646,
              "duration": 0.24139506327006327,
              "velocity": 100
            },
            {
              "pitch": 60,
              "time": 3.994278377872128,
              "duration": 0.25,
              "velocity": 100
            },
            {
              "pitch": 60,
              "time": 4.254352158258408,
              "duration": 0.25,
              "velocity": 100
            },
            {
              "pitch": 60,
              "time": 4.505412556193806,
              "duration": 0.24714426198801198,
              "velocity": 100
            },
            {
              "pitch": 60,
              "time": 4.7525568181818185,
              "duration": 0.25,
              "velocity": 100
            },
            {
              "pitch": 60,
              "time": 5.005466408591409,
              "duration": 0.24541344072594073,
              "velocity": 100
            },
            {
              "pitch": 60,
              "time": 5.250879849317349,
              "duration": 0.24538638444888444,
              "velocity": 100
            },
            {
              "pitch": 60,
              "time": 5.496266233766233,
              "duration": 0.25,
              "velocity": 100
            },
            {
              "pitch": 60,
              "time": 5.753404928404929,
              "duration": 0.24314097360972362,
              "velocity": 100
            },
            {
              "pitch": 60,
              "time": 5.996545902014652,
              "duration": 0.24955201048951048,
              "velocity": 100
            },
            {
              "pitch": 60,
              "time": 6.246097912504163,
              "duration": 0.25,
              "velocity": 100
            },
            {
              "pitch": 60,
              "time": 6.500682910839161,
              "duration": 0.25,
              "velocity": 100
            },
            {
              "pitch": 60,
              "time": 6.752770666833166,
              "duration": 0.24414101523476522,
              "velocity": 100
            },
            {
              "pitch": 60,
              "time": 6.996911682067932,
              "duration": 0.25,
              "velocity": 100
            },
            {
              "pitch": 60,
              "time": 7.252682733932734,
              "duration": 0.24558358308358308,
              "velocity": 100
            },
            {
              "pitch": 60,
              "time": 7.498266317016317,
              "duration": 0.24886311605061606,
              "velocity": 100
            },
            {
              "pitch": 60,
              "time": 7.747129433066933,
              "duration": 0.25,
              "velocity": 100
            }
          ],
          "gainInfo": 1,
          "contentSummary": "midi clip, 8.0 bars, 32 notes",
          "clipColor": 1,
          "name": null
        },
        {
          "id": "track_midi_18_5_clip_5",
          "trackId": "track_midi_18_5",
          "clipType": "midi",
          "start": 256,
          "end": 288,
          "loop": true,
          "sourceRef": null,
          "midiNoteCount": 32,
          "midiNotes": [
            {
              "pitch": 60,
              "time": 0.000010666416916416916,
              "duration": 0.25,
              "velocity": 100
            },
            {
              "pitch": 60,
              "time": 0.2553665084915085,
              "duration": 0.243314498001998,
              "velocity": 100
            },
            {
              "pitch": 60,
              "time": 0.4986810064935065,
              "duration": 0.25,
              "velocity": 100
            },
            {
              "pitch": 60,
              "time": 0.7516525141525141,
              "duration": 0.25,
              "velocity": 100
            },
            {
              "pitch": 60,
              "time": 1.0017680236430238,
              "duration": 0.25,
              "velocity": 100
            },
            {
              "pitch": 60,
              "time": 1.2560777763902764,
              "duration": 0.2477322157009657,
              "velocity": 100
            },
            {
              "pitch": 60,
              "time": 1.503809992091242,
              "duration": 0.2486396416083916,
              "velocity": 100
            },
            {
              "pitch": 60,
              "time": 1.7524496336996338,
              "duration": 0.2463180049117549,
              "velocity": 100
            },
            {
              "pitch": 60,
              "time": 1.9987676386113886,
              "duration": 0.25,
              "velocity": 100
            },
            {
              "pitch": 60,
              "time": 2.2560507201132203,
              "duration": 0.24218828046953048,
              "velocity": 100
            },
            {
              "pitch": 60,
              "time": 2.4982390005827506,
              "duration": 0.25,
              "velocity": 100
            },
            {
              "pitch": 60,
              "time": 2.749630577755578,
              "duration": 0.24989203504828505,
              "velocity": 100
            },
            {
              "pitch": 60,
              "time": 2.999522612803863,
              "duration": 0.24435226232101231,
              "velocity": 100
            },
            {
              "pitch": 60,
              "time": 3.243874875124875,
              "duration": 0.25,
              "velocity": 100
            },
            {
              "pitch": 60,
              "time": 3.5044970654345655,
              "duration": 0.24838624916749916,
              "velocity": 100
            },
            {
              "pitch": 60,
              "time": 3.7528833146020646,
              "duration": 0.24139506327006327,
              "velocity": 100
            },
            {
              "pitch": 60,
              "time": 3.994278377872128,
              "duration": 0.25,
              "velocity": 100
            },
            {
              "pitch": 60,
              "time": 4.254352158258408,
              "duration": 0.25,
              "velocity": 100
            },
            {
              "pitch": 60,
              "time": 4.505412556193806,
              "duration": 0.24714426198801198,
              "velocity": 100
            },
            {
              "pitch": 60,
              "time": 4.7525568181818185,
              "duration": 0.25,
              "velocity": 100
            },
            {
              "pitch": 60,
              "time": 5.005466408591409,
              "duration": 0.24541344072594073,
              "velocity": 100
            },
            {
              "pitch": 60,
              "time": 5.250879849317349,
              "duration": 0.24538638444888444,
              "velocity": 100
            },
            {
              "pitch": 60,
              "time": 5.496266233766233,
              "duration": 0.25,
              "velocity": 100
            },
            {
              "pitch": 60,
              "time": 5.753404928404929,
              "duration": 0.24314097360972362,
              "velocity": 100
            },
            {
              "pitch": 60,
              "time": 5.996545902014652,
              "duration": 0.24955201048951048,
              "velocity": 100
            },
            {
              "pitch": 60,
              "time": 6.246097912504163,
              "duration": 0.25,
              "velocity": 100
            },
            {
              "pitch": 60,
              "time": 6.500682910839161,
              "duration": 0.25,
              "velocity": 100
            },
            {
              "pitch": 60,
              "time": 6.752770666833166,
              "duration": 0.24414101523476522,
              "velocity": 100
            },
            {
              "pitch": 60,
              "time": 6.996911682067932,
              "duration": 0.25,
              "velocity": 100
            },
            {
              "pitch": 60,
              "time": 7.252682733932734,
              "duration": 0.24558358308358308,
              "velocity": 100
            },
            {
              "pitch": 60,
              "time": 7.498266317016317,
              "duration": 0.24886311605061606,
              "velocity": 100
            },
            {
              "pitch": 60,
              "time": 7.747129433066933,
              "duration": 0.25,
              "velocity": 100
            }
          ],
          "gainInfo": 1,
          "contentSummary": "midi clip, 8.0 bars, 32 notes",
          "clipColor": 1,
          "name": null
        },
        {
          "id": "track_midi_18_5_clip_6",
          "trackId": "track_midi_18_5",
          "clipType": "midi",
          "start": 288,
          "end": 320,
          "loop": true,
          "sourceRef": null,
          "midiNoteCount": 32,
          "midiNotes": [
            {
              "pitch": 60,
              "time": 0.000010666416916416916,
              "duration": 0.25,
              "velocity": 100
            },
            {
              "pitch": 60,
              "time": 0.2553665084915085,
              "duration": 0.243314498001998,
              "velocity": 100
            },
            {
              "pitch": 60,
              "time": 0.4986810064935065,
              "duration": 0.25,
              "velocity": 100
            },
            {
              "pitch": 60,
              "time": 0.7516525141525141,
              "duration": 0.25,
              "velocity": 100
            },
            {
              "pitch": 60,
              "time": 1.0017680236430238,
              "duration": 0.25,
              "velocity": 100
            },
            {
              "pitch": 60,
              "time": 1.2560777763902764,
              "duration": 0.2477322157009657,
              "velocity": 100
            },
            {
              "pitch": 60,
              "time": 1.503809992091242,
              "duration": 0.2486396416083916,
              "velocity": 100
            },
            {
              "pitch": 60,
              "time": 1.7524496336996338,
              "duration": 0.2463180049117549,
              "velocity": 100
            },
            {
              "pitch": 60,
              "time": 1.9987676386113886,
              "duration": 0.25,
              "velocity": 100
            },
            {
              "pitch": 60,
              "time": 2.2560507201132203,
              "duration": 0.24218828046953048,
              "velocity": 100
            },
            {
              "pitch": 60,
              "time": 2.4982390005827506,
              "duration": 0.25,
              "velocity": 100
            },
            {
              "pitch": 60,
              "time": 2.749630577755578,
              "duration": 0.24989203504828505,
              "velocity": 100
            },
            {
              "pitch": 60,
              "time": 2.999522612803863,
              "duration": 0.24435226232101231,
              "velocity": 100
            },
            {
              "pitch": 60,
              "time": 3.243874875124875,
              "duration": 0.25,
              "velocity": 100
            },
            {
              "pitch": 60,
              "time": 3.5044970654345655,
              "duration": 0.24838624916749916,
              "velocity": 100
            },
            {
              "pitch": 60,
              "time": 3.7528833146020646,
              "duration": 0.24139506327006327,
              "velocity": 100
            },
            {
              "pitch": 60,
              "time": 3.994278377872128,
              "duration": 0.25,
              "velocity": 100
            },
            {
              "pitch": 60,
              "time": 4.254352158258408,
              "duration": 0.25,
              "velocity": 100
            },
            {
              "pitch": 60,
              "time": 4.505412556193806,
              "duration": 0.24714426198801198,
              "velocity": 100
            },
            {
              "pitch": 60,
              "time": 4.7525568181818185,
              "duration": 0.25,
              "velocity": 100
            },
            {
              "pitch": 60,
              "time": 5.005466408591409,
              "duration": 0.24541344072594073,
              "velocity": 100
            },
            {
              "pitch": 60,
              "time": 5.250879849317349,
              "duration": 0.24538638444888444,
              "velocity": 100
            },
            {
              "pitch": 60,
              "time": 5.496266233766233,
              "duration": 0.25,
              "velocity": 100
            },
            {
              "pitch": 60,
              "time": 5.753404928404929,
              "duration": 0.24314097360972362,
              "velocity": 100
            },
            {
              "pitch": 60,
              "time": 5.996545902014652,
              "duration": 0.24955201048951048,
              "velocity": 100
            },
            {
              "pitch": 60,
              "time": 6.246097912504163,
              "duration": 0.25,
              "velocity": 100
            },
            {
              "pitch": 60,
              "time": 6.500682910839161,
              "duration": 0.25,
              "velocity": 100
            },
            {
              "pitch": 60,
              "time": 6.752770666833166,
              "duration": 0.24414101523476522,
              "velocity": 100
            },
            {
              "pitch": 60,
              "time": 6.996911682067932,
              "duration": 0.25,
              "velocity": 100
            },
            {
              "pitch": 60,
              "time": 7.252682733932734,
              "duration": 0.24558358308358308,
              "velocity": 100
            },
            {
              "pitch": 60,
              "time": 7.498266317016317,
              "duration": 0.24886311605061606,
              "velocity": 100
            },
            {
              "pitch": 60,
              "time": 7.747129433066933,
              "duration": 0.25,
              "velocity": 100
            }
          ],
          "gainInfo": 1,
          "contentSummary": "midi clip, 8.0 bars, 32 notes",
          "clipColor": 1,
          "name": null
        },
        {
          "id": "track_midi_18_5_clip_7",
          "trackId": "track_midi_18_5",
          "clipType": "midi",
          "start": 371,
          "end": 403,
          "loop": true,
          "sourceRef": null,
          "midiNoteCount": 32,
          "midiNotes": [
            {
              "pitch": 60,
              "time": 0.000010666416916416916,
              "duration": 0.25,
              "velocity": 100
            },
            {
              "pitch": 60,
              "time": 0.2553665084915085,
              "duration": 0.243314498001998,
              "velocity": 100
            },
            {
              "pitch": 60,
              "time": 0.4986810064935065,
              "duration": 0.25,
              "velocity": 100
            },
            {
              "pitch": 60,
              "time": 0.7516525141525141,
              "duration": 0.25,
              "velocity": 100
            },
            {
              "pitch": 60,
              "time": 1.0017680236430238,
              "duration": 0.25,
              "velocity": 100
            },
            {
              "pitch": 60,
              "time": 1.2560777763902764,
              "duration": 0.2477322157009657,
              "velocity": 100
            },
            {
              "pitch": 60,
              "time": 1.503809992091242,
              "duration": 0.2486396416083916,
              "velocity": 100
            },
            {
              "pitch": 60,
              "time": 1.7524496336996338,
              "duration": 0.2463180049117549,
              "velocity": 100
            },
            {
              "pitch": 60,
              "time": 1.9987676386113886,
              "duration": 0.25,
              "velocity": 100
            },
            {
              "pitch": 60,
              "time": 2.2560507201132203,
              "duration": 0.24218828046953048,
              "velocity": 100
            },
            {
              "pitch": 60,
              "time": 2.4982390005827506,
              "duration": 0.25,
              "velocity": 100
            },
            {
              "pitch": 60,
              "time": 2.749630577755578,
              "duration": 0.24989203504828505,
              "velocity": 100
            },
            {
              "pitch": 60,
              "time": 2.999522612803863,
              "duration": 0.24435226232101231,
              "velocity": 100
            },
            {
              "pitch": 60,
              "time": 3.243874875124875,
              "duration": 0.25,
              "velocity": 100
            },
            {
              "pitch": 60,
              "time": 3.5044970654345655,
              "duration": 0.24838624916749916,
              "velocity": 100
            },
            {
              "pitch": 60,
              "time": 3.7528833146020646,
              "duration": 0.24139506327006327,
              "velocity": 100
            },
            {
              "pitch": 60,
              "time": 3.994278377872128,
              "duration": 0.25,
              "velocity": 100
            },
            {
              "pitch": 60,
              "time": 4.254352158258408,
              "duration": 0.25,
              "velocity": 100
            },
            {
              "pitch": 60,
              "time": 4.505412556193806,
              "duration": 0.24714426198801198,
              "velocity": 100
            },
            {
              "pitch": 60,
              "time": 4.7525568181818185,
              "duration": 0.25,
              "velocity": 100
            },
            {
              "pitch": 60,
              "time": 5.005466408591409,
              "duration": 0.24541344072594073,
              "velocity": 100
            },
            {
              "pitch": 60,
              "time": 5.250879849317349,
              "duration": 0.24538638444888444,
              "velocity": 100
            },
            {
              "pitch": 60,
              "time": 5.496266233766233,
              "duration": 0.25,
              "velocity": 100
            },
            {
              "pitch": 60,
              "time": 5.753404928404929,
              "duration": 0.24314097360972362,
              "velocity": 100
            },
            {
              "pitch": 60,
              "time": 5.996545902014652,
              "duration": 0.24955201048951048,
              "velocity": 100
            },
            {
              "pitch": 60,
              "time": 6.246097912504163,
              "duration": 0.25,
              "velocity": 100
            },
            {
              "pitch": 60,
              "time": 6.500682910839161,
              "duration": 0.25,
              "velocity": 100
            },
            {
              "pitch": 60,
              "time": 6.752770666833166,
              "duration": 0.24414101523476522,
              "velocity": 100
            },
            {
              "pitch": 60,
              "time": 6.996911682067932,
              "duration": 0.25,
              "velocity": 100
            },
            {
              "pitch": 60,
              "time": 7.252682733932734,
              "duration": 0.24558358308358308,
              "velocity": 100
            },
            {
              "pitch": 60,
              "time": 7.498266317016317,
              "duration": 0.24886311605061606,
              "velocity": 100
            },
            {
              "pitch": 60,
              "time": 7.747129433066933,
              "duration": 0.25,
              "velocity": 100
            }
          ],
          "gainInfo": 1,
          "contentSummary": "midi clip, 8.0 bars, 32 notes",
          "clipColor": 1,
          "name": null
        },
        {
          "id": "track_midi_18_5_clip_8",
          "trackId": "track_midi_18_5",
          "clipType": "midi",
          "start": 546,
          "end": 578,
          "loop": true,
          "sourceRef": null,
          "midiNoteCount": 32,
          "midiNotes": [
            {
              "pitch": 60,
              "time": 0.000010666416916416916,
              "duration": 0.25,
              "velocity": 100
            },
            {
              "pitch": 60,
              "time": 0.2553665084915085,
              "duration": 0.243314498001998,
              "velocity": 100
            },
            {
              "pitch": 60,
              "time": 0.4986810064935065,
              "duration": 0.25,
              "velocity": 100
            },
            {
              "pitch": 60,
              "time": 0.7516525141525141,
              "duration": 0.25,
              "velocity": 100
            },
            {
              "pitch": 60,
              "time": 1.0017680236430238,
              "duration": 0.25,
              "velocity": 100
            },
            {
              "pitch": 60,
              "time": 1.2560777763902764,
              "duration": 0.2477322157009657,
              "velocity": 100
            },
            {
              "pitch": 60,
              "time": 1.503809992091242,
              "duration": 0.2486396416083916,
              "velocity": 100
            },
            {
              "pitch": 60,
              "time": 1.7524496336996338,
              "duration": 0.2463180049117549,
              "velocity": 100
            },
            {
              "pitch": 60,
              "time": 1.9987676386113886,
              "duration": 0.25,
              "velocity": 100
            },
            {
              "pitch": 60,
              "time": 2.2560507201132203,
              "duration": 0.24218828046953048,
              "velocity": 100
            },
            {
              "pitch": 60,
              "time": 2.4982390005827506,
              "duration": 0.25,
              "velocity": 100
            },
            {
              "pitch": 60,
              "time": 2.749630577755578,
              "duration": 0.24989203504828505,
              "velocity": 100
            },
            {
              "pitch": 60,
              "time": 2.999522612803863,
              "duration": 0.24435226232101231,
              "velocity": 100
            },
            {
              "pitch": 60,
              "time": 3.243874875124875,
              "duration": 0.25,
              "velocity": 100
            },
            {
              "pitch": 60,
              "time": 3.5044970654345655,
              "duration": 0.24838624916749916,
              "velocity": 100
            },
            {
              "pitch": 60,
              "time": 3.7528833146020646,
              "duration": 0.24139506327006327,
              "velocity": 100
            },
            {
              "pitch": 60,
              "time": 3.994278377872128,
              "duration": 0.25,
              "velocity": 100
            },
            {
              "pitch": 60,
              "time": 4.254352158258408,
              "duration": 0.25,
              "velocity": 100
            },
            {
              "pitch": 60,
              "time": 4.505412556193806,
              "duration": 0.24714426198801198,
              "velocity": 100
            },
            {
              "pitch": 60,
              "time": 4.7525568181818185,
              "duration": 0.25,
              "velocity": 100
            },
            {
              "pitch": 60,
              "time": 5.005466408591409,
              "duration": 0.24541344072594073,
              "velocity": 100
            },
            {
              "pitch": 60,
              "time": 5.250879849317349,
              "duration": 0.24538638444888444,
              "velocity": 100
            },
            {
              "pitch": 60,
              "time": 5.496266233766233,
              "duration": 0.25,
              "velocity": 100
            },
            {
              "pitch": 60,
              "time": 5.753404928404929,
              "duration": 0.24314097360972362,
              "velocity": 100
            },
            {
              "pitch": 60,
              "time": 5.996545902014652,
              "duration": 0.24955201048951048,
              "velocity": 100
            },
            {
              "pitch": 60,
              "time": 6.246097912504163,
              "duration": 0.25,
              "velocity": 100
            },
            {
              "pitch": 60,
              "time": 6.500682910839161,
              "duration": 0.25,
              "velocity": 100
            },
            {
              "pitch": 60,
              "time": 6.752770666833166,
              "duration": 0.24414101523476522,
              "velocity": 100
            },
            {
              "pitch": 60,
              "time": 6.996911682067932,
              "duration": 0.25,
              "velocity": 100
            },
            {
              "pitch": 60,
              "time": 7.252682733932734,
              "duration": 0.24558358308358308,
              "velocity": 100
            },
            {
              "pitch": 60,
              "time": 7.498266317016317,
              "duration": 0.24886311605061606,
              "velocity": 100
            },
            {
              "pitch": 60,
              "time": 7.747129433066933,
              "duration": 0.25,
              "velocity": 100
            }
          ],
          "gainInfo": 1,
          "contentSummary": "midi clip, 8.0 bars, 32 notes",
          "clipColor": 1,
          "name": null
        },
        {
          "id": "track_midi_18_5_clip_9",
          "trackId": "track_midi_18_5",
          "clipType": "midi",
          "start": 578,
          "end": 610,
          "loop": true,
          "sourceRef": null,
          "midiNoteCount": 32,
          "midiNotes": [
            {
              "pitch": 60,
              "time": 0.000010666416916416916,
              "duration": 0.25,
              "velocity": 100
            },
            {
              "pitch": 60,
              "time": 0.2553665084915085,
              "duration": 0.243314498001998,
              "velocity": 100
            },
            {
              "pitch": 60,
              "time": 0.4986810064935065,
              "duration": 0.25,
              "velocity": 100
            },
            {
              "pitch": 60,
              "time": 0.7516525141525141,
              "duration": 0.25,
              "velocity": 100
            },
            {
              "pitch": 60,
              "time": 1.0017680236430238,
              "duration": 0.25,
              "velocity": 100
            },
            {
              "pitch": 60,
              "time": 1.2560777763902764,
              "duration": 0.2477322157009657,
              "velocity": 100
            },
            {
              "pitch": 60,
              "time": 1.503809992091242,
              "duration": 0.2486396416083916,
              "velocity": 100
            },
            {
              "pitch": 60,
              "time": 1.7524496336996338,
              "duration": 0.2463180049117549,
              "velocity": 100
            },
            {
              "pitch": 60,
              "time": 1.9987676386113886,
              "duration": 0.25,
              "velocity": 100
            },
            {
              "pitch": 60,
              "time": 2.2560507201132203,
              "duration": 0.24218828046953048,
              "velocity": 100
            },
            {
              "pitch": 60,
              "time": 2.4982390005827506,
              "duration": 0.25,
              "velocity": 100
            },
            {
              "pitch": 60,
              "time": 2.749630577755578,
              "duration": 0.24989203504828505,
              "velocity": 100
            },
            {
              "pitch": 60,
              "time": 2.999522612803863,
              "duration": 0.24435226232101231,
              "velocity": 100
            },
            {
              "pitch": 60,
              "time": 3.243874875124875,
              "duration": 0.25,
              "velocity": 100
            },
            {
              "pitch": 60,
              "time": 3.5044970654345655,
              "duration": 0.24838624916749916,
              "velocity": 100
            },
            {
              "pitch": 60,
              "time": 3.7528833146020646,
              "duration": 0.24139506327006327,
              "velocity": 100
            },
            {
              "pitch": 60,
              "time": 3.994278377872128,
              "duration": 0.25,
              "velocity": 100
            },
            {
              "pitch": 60,
              "time": 4.254352158258408,
              "duration": 0.25,
              "velocity": 100
            },
            {
              "pitch": 60,
              "time": 4.505412556193806,
              "duration": 0.24714426198801198,
              "velocity": 100
            },
            {
              "pitch": 60,
              "time": 4.7525568181818185,
              "duration": 0.25,
              "velocity": 100
            },
            {
              "pitch": 60,
              "time": 5.005466408591409,
              "duration": 0.24541344072594073,
              "velocity": 100
            },
            {
              "pitch": 60,
              "time": 5.250879849317349,
              "duration": 0.24538638444888444,
              "velocity": 100
            },
            {
              "pitch": 60,
              "time": 5.496266233766233,
              "duration": 0.25,
              "velocity": 100
            },
            {
              "pitch": 60,
              "time": 5.753404928404929,
              "duration": 0.24314097360972362,
              "velocity": 100
            },
            {
              "pitch": 60,
              "time": 5.996545902014652,
              "duration": 0.24955201048951048,
              "velocity": 100
            },
            {
              "pitch": 60,
              "time": 6.246097912504163,
              "duration": 0.25,
              "velocity": 100
            },
            {
              "pitch": 60,
              "time": 6.500682910839161,
              "duration": 0.25,
              "velocity": 100
            },
            {
              "pitch": 60,
              "time": 6.752770666833166,
              "duration": 0.24414101523476522,
              "velocity": 100
            },
            {
              "pitch": 60,
              "time": 6.996911682067932,
              "duration": 0.25,
              "velocity": 100
            },
            {
              "pitch": 60,
              "time": 7.252682733932734,
              "duration": 0.24558358308358308,
              "velocity": 100
            },
            {
              "pitch": 60,
              "time": 7.498266317016317,
              "duration": 0.24886311605061606,
              "velocity": 100
            },
            {
              "pitch": 60,
              "time": 7.747129433066933,
              "duration": 0.25,
              "velocity": 100
            }
          ],
          "gainInfo": 1,
          "contentSummary": "midi clip, 8.0 bars, 32 notes",
          "clipColor": 1,
          "name": null
        },
        {
          "id": "track_midi_18_5_clip_10",
          "trackId": "track_midi_18_5",
          "clipType": "midi",
          "start": 610,
          "end": 636,
          "loop": true,
          "sourceRef": null,
          "midiNoteCount": 32,
          "midiNotes": [
            {
              "pitch": 60,
              "time": 0.000010666416916416916,
              "duration": 0.25,
              "velocity": 100
            },
            {
              "pitch": 60,
              "time": 0.2553665084915085,
              "duration": 0.243314498001998,
              "velocity": 100
            },
            {
              "pitch": 60,
              "time": 0.4986810064935065,
              "duration": 0.25,
              "velocity": 100
            },
            {
              "pitch": 60,
              "time": 0.7516525141525141,
              "duration": 0.25,
              "velocity": 100
            },
            {
              "pitch": 60,
              "time": 1.0017680236430238,
              "duration": 0.25,
              "velocity": 100
            },
            {
              "pitch": 60,
              "time": 1.2560777763902764,
              "duration": 0.2477322157009657,
              "velocity": 100
            },
            {
              "pitch": 60,
              "time": 1.503809992091242,
              "duration": 0.2486396416083916,
              "velocity": 100
            },
            {
              "pitch": 60,
              "time": 1.7524496336996338,
              "duration": 0.2463180049117549,
              "velocity": 100
            },
            {
              "pitch": 60,
              "time": 1.9987676386113886,
              "duration": 0.25,
              "velocity": 100
            },
            {
              "pitch": 60,
              "time": 2.2560507201132203,
              "duration": 0.24218828046953048,
              "velocity": 100
            },
            {
              "pitch": 60,
              "time": 2.4982390005827506,
              "duration": 0.25,
              "velocity": 100
            },
            {
              "pitch": 60,
              "time": 2.749630577755578,
              "duration": 0.24989203504828505,
              "velocity": 100
            },
            {
              "pitch": 60,
              "time": 2.999522612803863,
              "duration": 0.24435226232101231,
              "velocity": 100
            },
            {
              "pitch": 60,
              "time": 3.243874875124875,
              "duration": 0.25,
              "velocity": 100
            },
            {
              "pitch": 60,
              "time": 3.5044970654345655,
              "duration": 0.24838624916749916,
              "velocity": 100
            },
            {
              "pitch": 60,
              "time": 3.7528833146020646,
              "duration": 0.24139506327006327,
              "velocity": 100
            },
            {
              "pitch": 60,
              "time": 3.994278377872128,
              "duration": 0.25,
              "velocity": 100
            },
            {
              "pitch": 60,
              "time": 4.254352158258408,
              "duration": 0.25,
              "velocity": 100
            },
            {
              "pitch": 60,
              "time": 4.505412556193806,
              "duration": 0.24714426198801198,
              "velocity": 100
            },
            {
              "pitch": 60,
              "time": 4.7525568181818185,
              "duration": 0.25,
              "velocity": 100
            },
            {
              "pitch": 60,
              "time": 5.005466408591409,
              "duration": 0.24541344072594073,
              "velocity": 100
            },
            {
              "pitch": 60,
              "time": 5.250879849317349,
              "duration": 0.24538638444888444,
              "velocity": 100
            },
            {
              "pitch": 60,
              "time": 5.496266233766233,
              "duration": 0.25,
              "velocity": 100
            },
            {
              "pitch": 60,
              "time": 5.753404928404929,
              "duration": 0.24314097360972362,
              "velocity": 100
            },
            {
              "pitch": 60,
              "time": 5.996545902014652,
              "duration": 0.24955201048951048,
              "velocity": 100
            },
            {
              "pitch": 60,
              "time": 6.246097912504163,
              "duration": 0.25,
              "velocity": 100
            },
            {
              "pitch": 60,
              "time": 6.500682910839161,
              "duration": 0.25,
              "velocity": 100
            },
            {
              "pitch": 60,
              "time": 6.752770666833166,
              "duration": 0.24414101523476522,
              "velocity": 100
            },
            {
              "pitch": 60,
              "time": 6.996911682067932,
              "duration": 0.25,
              "velocity": 100
            },
            {
              "pitch": 60,
              "time": 7.252682733932734,
              "duration": 0.24558358308358308,
              "velocity": 100
            },
            {
              "pitch": 60,
              "time": 7.498266317016317,
              "duration": 0.24886311605061606,
              "velocity": 100
            },
            {
              "pitch": 60,
              "time": 7.747129433066933,
              "duration": 0.25,
              "velocity": 100
            }
          ],
          "gainInfo": 1,
          "contentSummary": "midi clip, 6.5 bars, 32 notes",
          "clipColor": 1,
          "name": null
        },
        {
          "id": "track_midi_18_5_clip_11",
          "trackId": "track_midi_18_5",
          "clipType": "midi",
          "start": 0,
          "end": 8,
          "loop": true,
          "sourceRef": null,
          "midiNoteCount": 32,
          "midiNotes": [
            {
              "pitch": 60,
              "time": 0.000010666416916416916,
              "duration": 0.25,
              "velocity": 100
            },
            {
              "pitch": 60,
              "time": 0.2553665084915085,
              "duration": 0.243314498001998,
              "velocity": 100
            },
            {
              "pitch": 60,
              "time": 0.4986810064935065,
              "duration": 0.25,
              "velocity": 100
            },
            {
              "pitch": 60,
              "time": 0.7516525141525141,
              "duration": 0.25,
              "velocity": 100
            },
            {
              "pitch": 60,
              "time": 1.0017680236430238,
              "duration": 0.25,
              "velocity": 100
            },
            {
              "pitch": 60,
              "time": 1.2560777763902764,
              "duration": 0.2477322157009657,
              "velocity": 100
            },
            {
              "pitch": 60,
              "time": 1.503809992091242,
              "duration": 0.2486396416083916,
              "velocity": 100
            },
            {
              "pitch": 60,
              "time": 1.7524496336996338,
              "duration": 0.2463180049117549,
              "velocity": 100
            },
            {
              "pitch": 60,
              "time": 1.9987676386113886,
              "duration": 0.25,
              "velocity": 100
            },
            {
              "pitch": 60,
              "time": 2.2560507201132203,
              "duration": 0.24218828046953048,
              "velocity": 100
            },
            {
              "pitch": 60,
              "time": 2.4982390005827506,
              "duration": 0.25,
              "velocity": 100
            },
            {
              "pitch": 60,
              "time": 2.749630577755578,
              "duration": 0.24989203504828505,
              "velocity": 100
            },
            {
              "pitch": 60,
              "time": 2.999522612803863,
              "duration": 0.24435226232101231,
              "velocity": 100
            },
            {
              "pitch": 60,
              "time": 3.243874875124875,
              "duration": 0.25,
              "velocity": 100
            },
            {
              "pitch": 60,
              "time": 3.5044970654345655,
              "duration": 0.24838624916749916,
              "velocity": 100
            },
            {
              "pitch": 60,
              "time": 3.7528833146020646,
              "duration": 0.24139506327006327,
              "velocity": 100
            },
            {
              "pitch": 60,
              "time": 3.994278377872128,
              "duration": 0.25,
              "velocity": 100
            },
            {
              "pitch": 60,
              "time": 4.254352158258408,
              "duration": 0.25,
              "velocity": 100
            },
            {
              "pitch": 60,
              "time": 4.505412556193806,
              "duration": 0.24714426198801198,
              "velocity": 100
            },
            {
              "pitch": 60,
              "time": 4.7525568181818185,
              "duration": 0.25,
              "velocity": 100
            },
            {
              "pitch": 60,
              "time": 5.005466408591409,
              "duration": 0.24541344072594073,
              "velocity": 100
            },
            {
              "pitch": 60,
              "time": 5.250879849317349,
              "duration": 0.24538638444888444,
              "velocity": 100
            },
            {
              "pitch": 60,
              "time": 5.496266233766233,
              "duration": 0.25,
              "velocity": 100
            },
            {
              "pitch": 60,
              "time": 5.753404928404929,
              "duration": 0.24314097360972362,
              "velocity": 100
            },
            {
              "pitch": 60,
              "time": 5.996545902014652,
              "duration": 0.24955201048951048,
              "velocity": 100
            },
            {
              "pitch": 60,
              "time": 6.246097912504163,
              "duration": 0.25,
              "velocity": 100
            },
            {
              "pitch": 60,
              "time": 6.500682910839161,
              "duration": 0.25,
              "velocity": 100
            },
            {
              "pitch": 60,
              "time": 6.752770666833166,
              "duration": 0.24414101523476522,
              "velocity": 100
            },
            {
              "pitch": 60,
              "time": 6.996911682067932,
              "duration": 0.25,
              "velocity": 100
            },
            {
              "pitch": 60,
              "time": 7.252682733932734,
              "duration": 0.24558358308358308,
              "velocity": 100
            },
            {
              "pitch": 60,
              "time": 7.498266317016317,
              "duration": 0.24886311605061606,
              "velocity": 100
            },
            {
              "pitch": 60,
              "time": 7.747129433066933,
              "duration": 0.25,
              "velocity": 100
            }
          ],
          "gainInfo": 1,
          "contentSummary": "midi clip, 2.0 bars, 32 notes",
          "clipColor": 1,
          "name": null
        },
        {
          "id": "track_midi_18_5_clip_12",
          "trackId": "track_midi_18_5",
          "clipType": "midi",
          "start": 0,
          "end": 8,
          "loop": true,
          "sourceRef": null,
          "midiNoteCount": 32,
          "midiNotes": [
            {
              "pitch": 60,
              "time": 0.000010666416916416916,
              "duration": 0.25,
              "velocity": 100
            },
            {
              "pitch": 60,
              "time": 0.2553665084915085,
              "duration": 0.243314498001998,
              "velocity": 100
            },
            {
              "pitch": 60,
              "time": 0.4986810064935065,
              "duration": 0.25,
              "velocity": 100
            },
            {
              "pitch": 60,
              "time": 0.7516525141525141,
              "duration": 0.25,
              "velocity": 100
            },
            {
              "pitch": 60,
              "time": 1.0017680236430238,
              "duration": 0.25,
              "velocity": 100
            },
            {
              "pitch": 60,
              "time": 1.2560777763902764,
              "duration": 0.2477322157009657,
              "velocity": 100
            },
            {
              "pitch": 60,
              "time": 1.503809992091242,
              "duration": 0.2486396416083916,
              "velocity": 100
            },
            {
              "pitch": 60,
              "time": 1.7524496336996338,
              "duration": 0.2463180049117549,
              "velocity": 100
            },
            {
              "pitch": 60,
              "time": 1.9987676386113886,
              "duration": 0.25,
              "velocity": 100
            },
            {
              "pitch": 60,
              "time": 2.2560507201132203,
              "duration": 0.24218828046953048,
              "velocity": 100
            },
            {
              "pitch": 60,
              "time": 2.4982390005827506,
              "duration": 0.25,
              "velocity": 100
            },
            {
              "pitch": 60,
              "time": 2.749630577755578,
              "duration": 0.24989203504828505,
              "velocity": 100
            },
            {
              "pitch": 60,
              "time": 2.999522612803863,
              "duration": 0.24435226232101231,
              "velocity": 100
            },
            {
              "pitch": 60,
              "time": 3.243874875124875,
              "duration": 0.25,
              "velocity": 100
            },
            {
              "pitch": 60,
              "time": 3.5044970654345655,
              "duration": 0.24838624916749916,
              "velocity": 100
            },
            {
              "pitch": 60,
              "time": 3.7528833146020646,
              "duration": 0.24139506327006327,
              "velocity": 100
            },
            {
              "pitch": 60,
              "time": 3.994278377872128,
              "duration": 0.25,
              "velocity": 100
            },
            {
              "pitch": 60,
              "time": 4.254352158258408,
              "duration": 0.25,
              "velocity": 100
            },
            {
              "pitch": 60,
              "time": 4.505412556193806,
              "duration": 0.24714426198801198,
              "velocity": 100
            },
            {
              "pitch": 60,
              "time": 4.7525568181818185,
              "duration": 0.25,
              "velocity": 100
            },
            {
              "pitch": 60,
              "time": 5.005466408591409,
              "duration": 0.24541344072594073,
              "velocity": 100
            },
            {
              "pitch": 60,
              "time": 5.250879849317349,
              "duration": 0.24538638444888444,
              "velocity": 100
            },
            {
              "pitch": 60,
              "time": 5.496266233766233,
              "duration": 0.25,
              "velocity": 100
            },
            {
              "pitch": 60,
              "time": 5.753404928404929,
              "duration": 0.24314097360972362,
              "velocity": 100
            },
            {
              "pitch": 60,
              "time": 5.996545902014652,
              "duration": 0.24955201048951048,
              "velocity": 100
            },
            {
              "pitch": 60,
              "time": 6.246097912504163,
              "duration": 0.25,
              "velocity": 100
            },
            {
              "pitch": 60,
              "time": 6.500682910839161,
              "duration": 0.25,
              "velocity": 100
            },
            {
              "pitch": 60,
              "time": 6.752770666833166,
              "duration": 0.24414101523476522,
              "velocity": 100
            },
            {
              "pitch": 60,
              "time": 6.996911682067932,
              "duration": 0.25,
              "velocity": 100
            },
            {
              "pitch": 60,
              "time": 7.252682733932734,
              "duration": 0.24558358308358308,
              "velocity": 100
            },
            {
              "pitch": 60,
              "time": 7.498266317016317,
              "duration": 0.24886311605061606,
              "velocity": 100
            },
            {
              "pitch": 60,
              "time": 7.747129433066933,
              "duration": 0.25,
              "velocity": 100
            }
          ],
          "gainInfo": 1,
          "contentSummary": "midi clip, 2.0 bars, 32 notes",
          "clipColor": 1,
          "name": null
        },
        {
          "id": "track_midi_18_5_clip_13",
          "trackId": "track_midi_18_5",
          "clipType": "midi",
          "start": 0,
          "end": 8,
          "loop": true,
          "sourceRef": null,
          "midiNoteCount": 32,
          "midiNotes": [
            {
              "pitch": 60,
              "time": 0.000010666416916416916,
              "duration": 0.25,
              "velocity": 100
            },
            {
              "pitch": 60,
              "time": 0.2553665084915085,
              "duration": 0.243314498001998,
              "velocity": 100
            },
            {
              "pitch": 60,
              "time": 0.4986810064935065,
              "duration": 0.25,
              "velocity": 100
            },
            {
              "pitch": 60,
              "time": 0.7516525141525141,
              "duration": 0.25,
              "velocity": 100
            },
            {
              "pitch": 60,
              "time": 1.0017680236430238,
              "duration": 0.25,
              "velocity": 100
            },
            {
              "pitch": 60,
              "time": 1.2560777763902764,
              "duration": 0.2477322157009657,
              "velocity": 100
            },
            {
              "pitch": 60,
              "time": 1.503809992091242,
              "duration": 0.2486396416083916,
              "velocity": 100
            },
            {
              "pitch": 60,
              "time": 1.7524496336996338,
              "duration": 0.2463180049117549,
              "velocity": 100
            },
            {
              "pitch": 60,
              "time": 1.9987676386113886,
              "duration": 0.25,
              "velocity": 100
            },
            {
              "pitch": 60,
              "time": 2.2560507201132203,
              "duration": 0.24218828046953048,
              "velocity": 100
            },
            {
              "pitch": 60,
              "time": 2.4982390005827506,
              "duration": 0.25,
              "velocity": 100
            },
            {
              "pitch": 60,
              "time": 2.749630577755578,
              "duration": 0.24989203504828505,
              "velocity": 100
            },
            {
              "pitch": 60,
              "time": 2.999522612803863,
              "duration": 0.24435226232101231,
              "velocity": 100
            },
            {
              "pitch": 60,
              "time": 3.243874875124875,
              "duration": 0.25,
              "velocity": 100
            },
            {
              "pitch": 60,
              "time": 3.5044970654345655,
              "duration": 0.24838624916749916,
              "velocity": 100
            },
            {
              "pitch": 60,
              "time": 3.7528833146020646,
              "duration": 0.24139506327006327,
              "velocity": 100
            },
            {
              "pitch": 60,
              "time": 3.994278377872128,
              "duration": 0.25,
              "velocity": 100
            },
            {
              "pitch": 60,
              "time": 4.254352158258408,
              "duration": 0.25,
              "velocity": 100
            },
            {
              "pitch": 60,
              "time": 4.505412556193806,
              "duration": 0.24714426198801198,
              "velocity": 100
            },
            {
              "pitch": 60,
              "time": 4.7525568181818185,
              "duration": 0.25,
              "velocity": 100
            },
            {
              "pitch": 60,
              "time": 5.005466408591409,
              "duration": 0.24541344072594073,
              "velocity": 100
            },
            {
              "pitch": 60,
              "time": 5.250879849317349,
              "duration": 0.24538638444888444,
              "velocity": 100
            },
            {
              "pitch": 60,
              "time": 5.496266233766233,
              "duration": 0.25,
              "velocity": 100
            },
            {
              "pitch": 60,
              "time": 5.753404928404929,
              "duration": 0.24314097360972362,
              "velocity": 100
            },
            {
              "pitch": 60,
              "time": 5.996545902014652,
              "duration": 0.24955201048951048,
              "velocity": 100
            },
            {
              "pitch": 60,
              "time": 6.246097912504163,
              "duration": 0.25,
              "velocity": 100
            },
            {
              "pitch": 60,
              "time": 6.500682910839161,
              "duration": 0.25,
              "velocity": 100
            },
            {
              "pitch": 60,
              "time": 6.752770666833166,
              "duration": 0.24414101523476522,
              "velocity": 100
            },
            {
              "pitch": 60,
              "time": 6.996911682067932,
              "duration": 0.25,
              "velocity": 100
            },
            {
              "pitch": 60,
              "time": 7.252682733932734,
              "duration": 0.24558358308358308,
              "velocity": 100
            },
            {
              "pitch": 60,
              "time": 7.498266317016317,
              "duration": 0.24886311605061606,
              "velocity": 100
            },
            {
              "pitch": 60,
              "time": 7.747129433066933,
              "duration": 0.25,
              "velocity": 100
            }
          ],
          "gainInfo": 1,
          "contentSummary": "midi clip, 2.0 bars, 32 notes",
          "clipColor": 1,
          "name": null
        },
        {
          "id": "track_midi_18_5_clip_14",
          "trackId": "track_midi_18_5",
          "clipType": "midi",
          "start": 0,
          "end": 8,
          "loop": true,
          "sourceRef": null,
          "midiNoteCount": 32,
          "midiNotes": [
            {
              "pitch": 60,
              "time": 0.000010666416916416916,
              "duration": 0.25,
              "velocity": 100
            },
            {
              "pitch": 60,
              "time": 0.2553665084915085,
              "duration": 0.243314498001998,
              "velocity": 100
            },
            {
              "pitch": 60,
              "time": 0.4986810064935065,
              "duration": 0.25,
              "velocity": 100
            },
            {
              "pitch": 60,
              "time": 0.7516525141525141,
              "duration": 0.25,
              "velocity": 100
            },
            {
              "pitch": 60,
              "time": 1.0017680236430238,
              "duration": 0.25,
              "velocity": 100
            },
            {
              "pitch": 60,
              "time": 1.2560777763902764,
              "duration": 0.2477322157009657,
              "velocity": 100
            },
            {
              "pitch": 60,
              "time": 1.503809992091242,
              "duration": 0.2486396416083916,
              "velocity": 100
            },
            {
              "pitch": 60,
              "time": 1.7524496336996338,
              "duration": 0.2463180049117549,
              "velocity": 100
            },
            {
              "pitch": 60,
              "time": 1.9987676386113886,
              "duration": 0.25,
              "velocity": 100
            },
            {
              "pitch": 60,
              "time": 2.2560507201132203,
              "duration": 0.24218828046953048,
              "velocity": 100
            },
            {
              "pitch": 60,
              "time": 2.4982390005827506,
              "duration": 0.25,
              "velocity": 100
            },
            {
              "pitch": 60,
              "time": 2.749630577755578,
              "duration": 0.24989203504828505,
              "velocity": 100
            },
            {
              "pitch": 60,
              "time": 2.999522612803863,
              "duration": 0.24435226232101231,
              "velocity": 100
            },
            {
              "pitch": 60,
              "time": 3.243874875124875,
              "duration": 0.25,
              "velocity": 100
            },
            {
              "pitch": 60,
              "time": 3.5044970654345655,
              "duration": 0.24838624916749916,
              "velocity": 100
            },
            {
              "pitch": 60,
              "time": 3.7528833146020646,
              "duration": 0.24139506327006327,
              "velocity": 100
            },
            {
              "pitch": 60,
              "time": 3.994278377872128,
              "duration": 0.25,
              "velocity": 100
            },
            {
              "pitch": 60,
              "time": 4.254352158258408,
              "duration": 0.25,
              "velocity": 100
            },
            {
              "pitch": 60,
              "time": 4.505412556193806,
              "duration": 0.24714426198801198,
              "velocity": 100
            },
            {
              "pitch": 60,
              "time": 4.7525568181818185,
              "duration": 0.25,
              "velocity": 100
            },
            {
              "pitch": 60,
              "time": 5.005466408591409,
              "duration": 0.24541344072594073,
              "velocity": 100
            },
            {
              "pitch": 60,
              "time": 5.250879849317349,
              "duration": 0.24538638444888444,
              "velocity": 100
            },
            {
              "pitch": 60,
              "time": 5.496266233766233,
              "duration": 0.25,
              "velocity": 100
            },
            {
              "pitch": 60,
              "time": 5.753404928404929,
              "duration": 0.24314097360972362,
              "velocity": 100
            },
            {
              "pitch": 60,
              "time": 5.996545902014652,
              "duration": 0.24955201048951048,
              "velocity": 100
            },
            {
              "pitch": 60,
              "time": 6.246097912504163,
              "duration": 0.25,
              "velocity": 100
            },
            {
              "pitch": 60,
              "time": 6.500682910839161,
              "duration": 0.25,
              "velocity": 100
            },
            {
              "pitch": 60,
              "time": 6.752770666833166,
              "duration": 0.24414101523476522,
              "velocity": 100
            },
            {
              "pitch": 60,
              "time": 6.996911682067932,
              "duration": 0.25,
              "velocity": 100
            },
            {
              "pitch": 60,
              "time": 7.252682733932734,
              "duration": 0.24558358308358308,
              "velocity": 100
            },
            {
              "pitch": 60,
              "time": 7.498266317016317,
              "duration": 0.24886311605061606,
              "velocity": 100
            },
            {
              "pitch": 60,
              "time": 7.747129433066933,
              "duration": 0.25,
              "velocity": 100
            }
          ],
          "gainInfo": 1,
          "contentSummary": "midi clip, 2.0 bars, 32 notes",
          "clipColor": 1,
          "name": null
        },
        {
          "id": "track_midi_18_5_clip_15",
          "trackId": "track_midi_18_5",
          "clipType": "midi",
          "start": 0,
          "end": 8,
          "loop": true,
          "sourceRef": null,
          "midiNoteCount": 32,
          "midiNotes": [
            {
              "pitch": 60,
              "time": 0.000010666416916416916,
              "duration": 0.25,
              "velocity": 100
            },
            {
              "pitch": 60,
              "time": 0.2553665084915085,
              "duration": 0.243314498001998,
              "velocity": 100
            },
            {
              "pitch": 60,
              "time": 0.4986810064935065,
              "duration": 0.25,
              "velocity": 100
            },
            {
              "pitch": 60,
              "time": 0.7516525141525141,
              "duration": 0.25,
              "velocity": 100
            },
            {
              "pitch": 60,
              "time": 1.0017680236430238,
              "duration": 0.25,
              "velocity": 100
            },
            {
              "pitch": 60,
              "time": 1.2560777763902764,
              "duration": 0.2477322157009657,
              "velocity": 100
            },
            {
              "pitch": 60,
              "time": 1.503809992091242,
              "duration": 0.2486396416083916,
              "velocity": 100
            },
            {
              "pitch": 60,
              "time": 1.7524496336996338,
              "duration": 0.2463180049117549,
              "velocity": 100
            },
            {
              "pitch": 60,
              "time": 1.9987676386113886,
              "duration": 0.25,
              "velocity": 100
            },
            {
              "pitch": 60,
              "time": 2.2560507201132203,
              "duration": 0.24218828046953048,
              "velocity": 100
            },
            {
              "pitch": 60,
              "time": 2.4982390005827506,
              "duration": 0.25,
              "velocity": 100
            },
            {
              "pitch": 60,
              "time": 2.749630577755578,
              "duration": 0.24989203504828505,
              "velocity": 100
            },
            {
              "pitch": 60,
              "time": 2.999522612803863,
              "duration": 0.24435226232101231,
              "velocity": 100
            },
            {
              "pitch": 60,
              "time": 3.243874875124875,
              "duration": 0.25,
              "velocity": 100
            },
            {
              "pitch": 60,
              "time": 3.5044970654345655,
              "duration": 0.24838624916749916,
              "velocity": 100
            },
            {
              "pitch": 60,
              "time": 3.7528833146020646,
              "duration": 0.24139506327006327,
              "velocity": 100
            },
            {
              "pitch": 60,
              "time": 3.994278377872128,
              "duration": 0.25,
              "velocity": 100
            },
            {
              "pitch": 60,
              "time": 4.254352158258408,
              "duration": 0.25,
              "velocity": 100
            },
            {
              "pitch": 60,
              "time": 4.505412556193806,
              "duration": 0.24714426198801198,
              "velocity": 100
            },
            {
              "pitch": 60,
              "time": 4.7525568181818185,
              "duration": 0.25,
              "velocity": 100
            },
            {
              "pitch": 60,
              "time": 5.005466408591409,
              "duration": 0.24541344072594073,
              "velocity": 100
            },
            {
              "pitch": 60,
              "time": 5.250879849317349,
              "duration": 0.24538638444888444,
              "velocity": 100
            },
            {
              "pitch": 60,
              "time": 5.496266233766233,
              "duration": 0.25,
              "velocity": 100
            },
            {
              "pitch": 60,
              "time": 5.753404928404929,
              "duration": 0.24314097360972362,
              "velocity": 100
            },
            {
              "pitch": 60,
              "time": 5.996545902014652,
              "duration": 0.24955201048951048,
              "velocity": 100
            },
            {
              "pitch": 60,
              "time": 6.246097912504163,
              "duration": 0.25,
              "velocity": 100
            },
            {
              "pitch": 60,
              "time": 6.500682910839161,
              "duration": 0.25,
              "velocity": 100
            },
            {
              "pitch": 60,
              "time": 6.752770666833166,
              "duration": 0.24414101523476522,
              "velocity": 100
            },
            {
              "pitch": 60,
              "time": 6.996911682067932,
              "duration": 0.25,
              "velocity": 100
            },
            {
              "pitch": 60,
              "time": 7.252682733932734,
              "duration": 0.24558358308358308,
              "velocity": 100
            },
            {
              "pitch": 60,
              "time": 7.498266317016317,
              "duration": 0.24886311605061606,
              "velocity": 100
            },
            {
              "pitch": 60,
              "time": 7.747129433066933,
              "duration": 0.25,
              "velocity": 100
            }
          ],
          "gainInfo": 1,
          "contentSummary": "midi clip, 2.0 bars, 32 notes",
          "clipColor": 1,
          "name": null
        },
        {
          "id": "track_midi_18_5_clip_16",
          "trackId": "track_midi_18_5",
          "clipType": "midi",
          "start": 0,
          "end": 8,
          "loop": true,
          "sourceRef": null,
          "midiNoteCount": 32,
          "midiNotes": [
            {
              "pitch": 60,
              "time": 0.000010666416916416916,
              "duration": 0.25,
              "velocity": 100
            },
            {
              "pitch": 60,
              "time": 0.2553665084915085,
              "duration": 0.243314498001998,
              "velocity": 100
            },
            {
              "pitch": 60,
              "time": 0.4986810064935065,
              "duration": 0.25,
              "velocity": 100
            },
            {
              "pitch": 60,
              "time": 0.7516525141525141,
              "duration": 0.25,
              "velocity": 100
            },
            {
              "pitch": 60,
              "time": 1.0017680236430238,
              "duration": 0.25,
              "velocity": 100
            },
            {
              "pitch": 60,
              "time": 1.2560777763902764,
              "duration": 0.2477322157009657,
              "velocity": 100
            },
            {
              "pitch": 60,
              "time": 1.503809992091242,
              "duration": 0.2486396416083916,
              "velocity": 100
            },
            {
              "pitch": 60,
              "time": 1.7524496336996338,
              "duration": 0.2463180049117549,
              "velocity": 100
            },
            {
              "pitch": 60,
              "time": 1.9987676386113886,
              "duration": 0.25,
              "velocity": 100
            },
            {
              "pitch": 60,
              "time": 2.2560507201132203,
              "duration": 0.24218828046953048,
              "velocity": 100
            },
            {
              "pitch": 60,
              "time": 2.4982390005827506,
              "duration": 0.25,
              "velocity": 100
            },
            {
              "pitch": 60,
              "time": 2.749630577755578,
              "duration": 0.24989203504828505,
              "velocity": 100
            },
            {
              "pitch": 60,
              "time": 2.999522612803863,
              "duration": 0.24435226232101231,
              "velocity": 100
            },
            {
              "pitch": 60,
              "time": 3.243874875124875,
              "duration": 0.25,
              "velocity": 100
            },
            {
              "pitch": 60,
              "time": 3.5044970654345655,
              "duration": 0.24838624916749916,
              "velocity": 100
            },
            {
              "pitch": 60,
              "time": 3.7528833146020646,
              "duration": 0.24139506327006327,
              "velocity": 100
            },
            {
              "pitch": 60,
              "time": 3.994278377872128,
              "duration": 0.25,
              "velocity": 100
            },
            {
              "pitch": 60,
              "time": 4.254352158258408,
              "duration": 0.25,
              "velocity": 100
            },
            {
              "pitch": 60,
              "time": 4.505412556193806,
              "duration": 0.24714426198801198,
              "velocity": 100
            },
            {
              "pitch": 60,
              "time": 4.7525568181818185,
              "duration": 0.25,
              "velocity": 100
            },
            {
              "pitch": 60,
              "time": 5.005466408591409,
              "duration": 0.24541344072594073,
              "velocity": 100
            },
            {
              "pitch": 60,
              "time": 5.250879849317349,
              "duration": 0.24538638444888444,
              "velocity": 100
            },
            {
              "pitch": 60,
              "time": 5.496266233766233,
              "duration": 0.25,
              "velocity": 100
            },
            {
              "pitch": 60,
              "time": 5.753404928404929,
              "duration": 0.24314097360972362,
              "velocity": 100
            },
            {
              "pitch": 60,
              "time": 5.996545902014652,
              "duration": 0.24955201048951048,
              "velocity": 100
            },
            {
              "pitch": 60,
              "time": 6.246097912504163,
              "duration": 0.25,
              "velocity": 100
            },
            {
              "pitch": 60,
              "time": 6.500682910839161,
              "duration": 0.25,
              "velocity": 100
            },
            {
              "pitch": 60,
              "time": 6.752770666833166,
              "duration": 0.24414101523476522,
              "velocity": 100
            },
            {
              "pitch": 60,
              "time": 6.996911682067932,
              "duration": 0.25,
              "velocity": 100
            },
            {
              "pitch": 60,
              "time": 7.252682733932734,
              "duration": 0.24558358308358308,
              "velocity": 100
            },
            {
              "pitch": 60,
              "time": 7.498266317016317,
              "duration": 0.24886311605061606,
              "velocity": 100
            },
            {
              "pitch": 60,
              "time": 7.747129433066933,
              "duration": 0.25,
              "velocity": 100
            }
          ],
          "gainInfo": 1,
          "contentSummary": "midi clip, 2.0 bars, 32 notes",
          "clipColor": 1,
          "name": null
        },
        {
          "id": "track_midi_18_5_clip_17",
          "trackId": "track_midi_18_5",
          "clipType": "midi",
          "start": 0,
          "end": 8,
          "loop": true,
          "sourceRef": null,
          "midiNoteCount": 32,
          "midiNotes": [
            {
              "pitch": 60,
              "time": 0.000010666416916416916,
              "duration": 0.25,
              "velocity": 100
            },
            {
              "pitch": 60,
              "time": 0.2553665084915085,
              "duration": 0.243314498001998,
              "velocity": 100
            },
            {
              "pitch": 60,
              "time": 0.4986810064935065,
              "duration": 0.25,
              "velocity": 100
            },
            {
              "pitch": 60,
              "time": 0.7516525141525141,
              "duration": 0.25,
              "velocity": 100
            },
            {
              "pitch": 60,
              "time": 1.0017680236430238,
              "duration": 0.25,
              "velocity": 100
            },
            {
              "pitch": 60,
              "time": 1.2560777763902764,
              "duration": 0.2477322157009657,
              "velocity": 100
            },
            {
              "pitch": 60,
              "time": 1.503809992091242,
              "duration": 0.2486396416083916,
              "velocity": 100
            },
            {
              "pitch": 60,
              "time": 1.7524496336996338,
              "duration": 0.2463180049117549,
              "velocity": 100
            },
            {
              "pitch": 60,
              "time": 1.9987676386113886,
              "duration": 0.25,
              "velocity": 100
            },
            {
              "pitch": 60,
              "time": 2.2560507201132203,
              "duration": 0.24218828046953048,
              "velocity": 100
            },
            {
              "pitch": 60,
              "time": 2.4982390005827506,
              "duration": 0.25,
              "velocity": 100
            },
            {
              "pitch": 60,
              "time": 2.749630577755578,
              "duration": 0.24989203504828505,
              "velocity": 100
            },
            {
              "pitch": 60,
              "time": 2.999522612803863,
              "duration": 0.24435226232101231,
              "velocity": 100
            },
            {
              "pitch": 60,
              "time": 3.243874875124875,
              "duration": 0.25,
              "velocity": 100
            },
            {
              "pitch": 60,
              "time": 3.5044970654345655,
              "duration": 0.24838624916749916,
              "velocity": 100
            },
            {
              "pitch": 60,
              "time": 3.7528833146020646,
              "duration": 0.24139506327006327,
              "velocity": 100
            },
            {
              "pitch": 60,
              "time": 3.994278377872128,
              "duration": 0.25,
              "velocity": 100
            },
            {
              "pitch": 60,
              "time": 4.254352158258408,
              "duration": 0.25,
              "velocity": 100
            },
            {
              "pitch": 60,
              "time": 4.505412556193806,
              "duration": 0.24714426198801198,
              "velocity": 100
            },
            {
              "pitch": 60,
              "time": 4.7525568181818185,
              "duration": 0.25,
              "velocity": 100
            },
            {
              "pitch": 60,
              "time": 5.005466408591409,
              "duration": 0.24541344072594073,
              "velocity": 100
            },
            {
              "pitch": 60,
              "time": 5.250879849317349,
              "duration": 0.24538638444888444,
              "velocity": 100
            },
            {
              "pitch": 60,
              "time": 5.496266233766233,
              "duration": 0.25,
              "velocity": 100
            },
            {
              "pitch": 60,
              "time": 5.753404928404929,
              "duration": 0.24314097360972362,
              "velocity": 100
            },
            {
              "pitch": 60,
              "time": 5.996545902014652,
              "duration": 0.24955201048951048,
              "velocity": 100
            },
            {
              "pitch": 60,
              "time": 6.246097912504163,
              "duration": 0.25,
              "velocity": 100
            },
            {
              "pitch": 60,
              "time": 6.500682910839161,
              "duration": 0.25,
              "velocity": 100
            },
            {
              "pitch": 60,
              "time": 6.752770666833166,
              "duration": 0.24414101523476522,
              "velocity": 100
            },
            {
              "pitch": 60,
              "time": 6.996911682067932,
              "duration": 0.25,
              "velocity": 100
            },
            {
              "pitch": 60,
              "time": 7.252682733932734,
              "duration": 0.24558358308358308,
              "velocity": 100
            },
            {
              "pitch": 60,
              "time": 7.498266317016317,
              "duration": 0.24886311605061606,
              "velocity": 100
            },
            {
              "pitch": 60,
              "time": 7.747129433066933,
              "duration": 0.25,
              "velocity": 100
            }
          ],
          "gainInfo": 1,
          "contentSummary": "midi clip, 2.0 bars, 32 notes",
          "clipColor": 1,
          "name": null
        },
        {
          "id": "track_midi_18_5_clip_18",
          "trackId": "track_midi_18_5",
          "clipType": "midi",
          "start": 0,
          "end": 8,
          "loop": true,
          "sourceRef": null,
          "midiNoteCount": 32,
          "midiNotes": [
            {
              "pitch": 60,
              "time": 0.000010666416916416916,
              "duration": 0.25,
              "velocity": 100
            },
            {
              "pitch": 60,
              "time": 0.2553665084915085,
              "duration": 0.243314498001998,
              "velocity": 100
            },
            {
              "pitch": 60,
              "time": 0.4986810064935065,
              "duration": 0.25,
              "velocity": 100
            },
            {
              "pitch": 60,
              "time": 0.7516525141525141,
              "duration": 0.25,
              "velocity": 100
            },
            {
              "pitch": 60,
              "time": 1.0017680236430238,
              "duration": 0.25,
              "velocity": 100
            },
            {
              "pitch": 60,
              "time": 1.2560777763902764,
              "duration": 0.2477322157009657,
              "velocity": 100
            },
            {
              "pitch": 60,
              "time": 1.503809992091242,
              "duration": 0.2486396416083916,
              "velocity": 100
            },
            {
              "pitch": 60,
              "time": 1.7524496336996338,
              "duration": 0.2463180049117549,
              "velocity": 100
            },
            {
              "pitch": 60,
              "time": 1.9987676386113886,
              "duration": 0.25,
              "velocity": 100
            },
            {
              "pitch": 60,
              "time": 2.2560507201132203,
              "duration": 0.24218828046953048,
              "velocity": 100
            },
            {
              "pitch": 60,
              "time": 2.4982390005827506,
              "duration": 0.25,
              "velocity": 100
            },
            {
              "pitch": 60,
              "time": 2.749630577755578,
              "duration": 0.24989203504828505,
              "velocity": 100
            },
            {
              "pitch": 60,
              "time": 2.999522612803863,
              "duration": 0.24435226232101231,
              "velocity": 100
            },
            {
              "pitch": 60,
              "time": 3.243874875124875,
              "duration": 0.25,
              "velocity": 100
            },
            {
              "pitch": 60,
              "time": 3.5044970654345655,
              "duration": 0.24838624916749916,
              "velocity": 100
            },
            {
              "pitch": 60,
              "time": 3.7528833146020646,
              "duration": 0.24139506327006327,
              "velocity": 100
            },
            {
              "pitch": 60,
              "time": 3.994278377872128,
              "duration": 0.25,
              "velocity": 100
            },
            {
              "pitch": 60,
              "time": 4.254352158258408,
              "duration": 0.25,
              "velocity": 100
            },
            {
              "pitch": 60,
              "time": 4.505412556193806,
              "duration": 0.24714426198801198,
              "velocity": 100
            },
            {
              "pitch": 60,
              "time": 4.7525568181818185,
              "duration": 0.25,
              "velocity": 100
            },
            {
              "pitch": 60,
              "time": 5.005466408591409,
              "duration": 0.24541344072594073,
              "velocity": 100
            },
            {
              "pitch": 60,
              "time": 5.250879849317349,
              "duration": 0.24538638444888444,
              "velocity": 100
            },
            {
              "pitch": 60,
              "time": 5.496266233766233,
              "duration": 0.25,
              "velocity": 100
            },
            {
              "pitch": 60,
              "time": 5.753404928404929,
              "duration": 0.24314097360972362,
              "velocity": 100
            },
            {
              "pitch": 60,
              "time": 5.996545902014652,
              "duration": 0.24955201048951048,
              "velocity": 100
            },
            {
              "pitch": 60,
              "time": 6.246097912504163,
              "duration": 0.25,
              "velocity": 100
            },
            {
              "pitch": 60,
              "time": 6.500682910839161,
              "duration": 0.25,
              "velocity": 100
            },
            {
              "pitch": 60,
              "time": 6.752770666833166,
              "duration": 0.24414101523476522,
              "velocity": 100
            },
            {
              "pitch": 60,
              "time": 6.996911682067932,
              "duration": 0.25,
              "velocity": 100
            },
            {
              "pitch": 60,
              "time": 7.252682733932734,
              "duration": 0.24558358308358308,
              "velocity": 100
            },
            {
              "pitch": 60,
              "time": 7.498266317016317,
              "duration": 0.24886311605061606,
              "velocity": 100
            },
            {
              "pitch": 60,
              "time": 7.747129433066933,
              "duration": 0.25,
              "velocity": 100
            }
          ],
          "gainInfo": 1,
          "contentSummary": "midi clip, 2.0 bars, 32 notes",
          "clipColor": 1,
          "name": null
        },
        {
          "id": "track_midi_18_5_clip_19",
          "trackId": "track_midi_18_5",
          "clipType": "midi",
          "start": 0,
          "end": 8,
          "loop": true,
          "sourceRef": null,
          "midiNoteCount": 32,
          "midiNotes": [
            {
              "pitch": 60,
              "time": 0.000010666416916416916,
              "duration": 0.25,
              "velocity": 100
            },
            {
              "pitch": 60,
              "time": 0.2553665084915085,
              "duration": 0.243314498001998,
              "velocity": 100
            },
            {
              "pitch": 60,
              "time": 0.4986810064935065,
              "duration": 0.25,
              "velocity": 100
            },
            {
              "pitch": 60,
              "time": 0.7516525141525141,
              "duration": 0.25,
              "velocity": 100
            },
            {
              "pitch": 60,
              "time": 1.0017680236430238,
              "duration": 0.25,
              "velocity": 100
            },
            {
              "pitch": 60,
              "time": 1.2560777763902764,
              "duration": 0.2477322157009657,
              "velocity": 100
            },
            {
              "pitch": 60,
              "time": 1.503809992091242,
              "duration": 0.2486396416083916,
              "velocity": 100
            },
            {
              "pitch": 60,
              "time": 1.7524496336996338,
              "duration": 0.2463180049117549,
              "velocity": 100
            },
            {
              "pitch": 60,
              "time": 1.9987676386113886,
              "duration": 0.25,
              "velocity": 100
            },
            {
              "pitch": 60,
              "time": 2.2560507201132203,
              "duration": 0.24218828046953048,
              "velocity": 100
            },
            {
              "pitch": 60,
              "time": 2.4982390005827506,
              "duration": 0.25,
              "velocity": 100
            },
            {
              "pitch": 60,
              "time": 2.749630577755578,
              "duration": 0.24989203504828505,
              "velocity": 100
            },
            {
              "pitch": 60,
              "time": 2.999522612803863,
              "duration": 0.24435226232101231,
              "velocity": 100
            },
            {
              "pitch": 60,
              "time": 3.243874875124875,
              "duration": 0.25,
              "velocity": 100
            },
            {
              "pitch": 60,
              "time": 3.5044970654345655,
              "duration": 0.24838624916749916,
              "velocity": 100
            },
            {
              "pitch": 60,
              "time": 3.7528833146020646,
              "duration": 0.24139506327006327,
              "velocity": 100
            },
            {
              "pitch": 60,
              "time": 3.994278377872128,
              "duration": 0.25,
              "velocity": 100
            },
            {
              "pitch": 60,
              "time": 4.254352158258408,
              "duration": 0.25,
              "velocity": 100
            },
            {
              "pitch": 60,
              "time": 4.505412556193806,
              "duration": 0.24714426198801198,
              "velocity": 100
            },
            {
              "pitch": 60,
              "time": 4.7525568181818185,
              "duration": 0.25,
              "velocity": 100
            },
            {
              "pitch": 60,
              "time": 5.005466408591409,
              "duration": 0.24541344072594073,
              "velocity": 100
            },
            {
              "pitch": 60,
              "time": 5.250879849317349,
              "duration": 0.24538638444888444,
              "velocity": 100
            },
            {
              "pitch": 60,
              "time": 5.496266233766233,
              "duration": 0.25,
              "velocity": 100
            },
            {
              "pitch": 60,
              "time": 5.753404928404929,
              "duration": 0.24314097360972362,
              "velocity": 100
            },
            {
              "pitch": 60,
              "time": 5.996545902014652,
              "duration": 0.24955201048951048,
              "velocity": 100
            },
            {
              "pitch": 60,
              "time": 6.246097912504163,
              "duration": 0.25,
              "velocity": 100
            },
            {
              "pitch": 60,
              "time": 6.500682910839161,
              "duration": 0.25,
              "velocity": 100
            },
            {
              "pitch": 60,
              "time": 6.752770666833166,
              "duration": 0.24414101523476522,
              "velocity": 100
            },
            {
              "pitch": 60,
              "time": 6.996911682067932,
              "duration": 0.25,
              "velocity": 100
            },
            {
              "pitch": 60,
              "time": 7.252682733932734,
              "duration": 0.24558358308358308,
              "velocity": 100
            },
            {
              "pitch": 60,
              "time": 7.498266317016317,
              "duration": 0.24886311605061606,
              "velocity": 100
            },
            {
              "pitch": 60,
              "time": 7.747129433066933,
              "duration": 0.25,
              "velocity": 100
            }
          ],
          "gainInfo": 1,
          "contentSummary": "midi clip, 2.0 bars, 32 notes",
          "clipColor": 1,
          "name": null
        },
        {
          "id": "track_midi_18_5_clip_20",
          "trackId": "track_midi_18_5",
          "clipType": "midi",
          "start": 0,
          "end": 8,
          "loop": true,
          "sourceRef": null,
          "midiNoteCount": 32,
          "midiNotes": [
            {
              "pitch": 60,
              "time": 0.000010666416916416916,
              "duration": 0.25,
              "velocity": 100
            },
            {
              "pitch": 60,
              "time": 0.2553665084915085,
              "duration": 0.243314498001998,
              "velocity": 100
            },
            {
              "pitch": 60,
              "time": 0.4986810064935065,
              "duration": 0.25,
              "velocity": 100
            },
            {
              "pitch": 60,
              "time": 0.7516525141525141,
              "duration": 0.25,
              "velocity": 100
            },
            {
              "pitch": 60,
              "time": 1.0017680236430238,
              "duration": 0.25,
              "velocity": 100
            },
            {
              "pitch": 60,
              "time": 1.2560777763902764,
              "duration": 0.2477322157009657,
              "velocity": 100
            },
            {
              "pitch": 60,
              "time": 1.503809992091242,
              "duration": 0.2486396416083916,
              "velocity": 100
            },
            {
              "pitch": 60,
              "time": 1.7524496336996338,
              "duration": 0.2463180049117549,
              "velocity": 100
            },
            {
              "pitch": 60,
              "time": 1.9987676386113886,
              "duration": 0.25,
              "velocity": 100
            },
            {
              "pitch": 60,
              "time": 2.2560507201132203,
              "duration": 0.24218828046953048,
              "velocity": 100
            },
            {
              "pitch": 60,
              "time": 2.4982390005827506,
              "duration": 0.25,
              "velocity": 100
            },
            {
              "pitch": 60,
              "time": 2.749630577755578,
              "duration": 0.24989203504828505,
              "velocity": 100
            },
            {
              "pitch": 60,
              "time": 2.999522612803863,
              "duration": 0.24435226232101231,
              "velocity": 100
            },
            {
              "pitch": 60,
              "time": 3.243874875124875,
              "duration": 0.25,
              "velocity": 100
            },
            {
              "pitch": 60,
              "time": 3.5044970654345655,
              "duration": 0.24838624916749916,
              "velocity": 100
            },
            {
              "pitch": 60,
              "time": 3.7528833146020646,
              "duration": 0.24139506327006327,
              "velocity": 100
            },
            {
              "pitch": 60,
              "time": 3.994278377872128,
              "duration": 0.25,
              "velocity": 100
            },
            {
              "pitch": 60,
              "time": 4.254352158258408,
              "duration": 0.25,
              "velocity": 100
            },
            {
              "pitch": 60,
              "time": 4.505412556193806,
              "duration": 0.24714426198801198,
              "velocity": 100
            },
            {
              "pitch": 60,
              "time": 4.7525568181818185,
              "duration": 0.25,
              "velocity": 100
            },
            {
              "pitch": 60,
              "time": 5.005466408591409,
              "duration": 0.24541344072594073,
              "velocity": 100
            },
            {
              "pitch": 60,
              "time": 5.250879849317349,
              "duration": 0.24538638444888444,
              "velocity": 100
            },
            {
              "pitch": 60,
              "time": 5.496266233766233,
              "duration": 0.25,
              "velocity": 100
            },
            {
              "pitch": 60,
              "time": 5.753404928404929,
              "duration": 0.24314097360972362,
              "velocity": 100
            },
            {
              "pitch": 60,
              "time": 5.996545902014652,
              "duration": 0.24955201048951048,
              "velocity": 100
            },
            {
              "pitch": 60,
              "time": 6.246097912504163,
              "duration": 0.25,
              "velocity": 100
            },
            {
              "pitch": 60,
              "time": 6.500682910839161,
              "duration": 0.25,
              "velocity": 100
            },
            {
              "pitch": 60,
              "time": 6.752770666833166,
              "duration": 0.24414101523476522,
              "velocity": 100
            },
            {
              "pitch": 60,
              "time": 6.996911682067932,
              "duration": 0.25,
              "velocity": 100
            },
            {
              "pitch": 60,
              "time": 7.252682733932734,
              "duration": 0.24558358308358308,
              "velocity": 100
            },
            {
              "pitch": 60,
              "time": 7.498266317016317,
              "duration": 0.24886311605061606,
              "velocity": 100
            },
            {
              "pitch": 60,
              "time": 7.747129433066933,
              "duration": 0.25,
              "velocity": 100
            }
          ],
          "gainInfo": 1,
          "contentSummary": "midi clip, 2.0 bars, 32 notes",
          "clipColor": 1,
          "name": null
        },
        {
          "id": "track_midi_18_5_clip_21",
          "trackId": "track_midi_18_5",
          "clipType": "midi",
          "start": 0,
          "end": 8,
          "loop": true,
          "sourceRef": null,
          "midiNoteCount": 32,
          "midiNotes": [
            {
              "pitch": 60,
              "time": 0.000010666416916416916,
              "duration": 0.25,
              "velocity": 100
            },
            {
              "pitch": 60,
              "time": 0.2553665084915085,
              "duration": 0.243314498001998,
              "velocity": 100
            },
            {
              "pitch": 60,
              "time": 0.4986810064935065,
              "duration": 0.25,
              "velocity": 100
            },
            {
              "pitch": 60,
              "time": 0.7516525141525141,
              "duration": 0.25,
              "velocity": 100
            },
            {
              "pitch": 60,
              "time": 1.0017680236430238,
              "duration": 0.25,
              "velocity": 100
            },
            {
              "pitch": 60,
              "time": 1.2560777763902764,
              "duration": 0.2477322157009657,
              "velocity": 100
            },
            {
              "pitch": 60,
              "time": 1.503809992091242,
              "duration": 0.2486396416083916,
              "velocity": 100
            },
            {
              "pitch": 60,
              "time": 1.7524496336996338,
              "duration": 0.2463180049117549,
              "velocity": 100
            },
            {
              "pitch": 60,
              "time": 1.9987676386113886,
              "duration": 0.25,
              "velocity": 100
            },
            {
              "pitch": 60,
              "time": 2.2560507201132203,
              "duration": 0.24218828046953048,
              "velocity": 100
            },
            {
              "pitch": 60,
              "time": 2.4982390005827506,
              "duration": 0.25,
              "velocity": 100
            },
            {
              "pitch": 60,
              "time": 2.749630577755578,
              "duration": 0.24989203504828505,
              "velocity": 100
            },
            {
              "pitch": 60,
              "time": 2.999522612803863,
              "duration": 0.24435226232101231,
              "velocity": 100
            },
            {
              "pitch": 60,
              "time": 3.243874875124875,
              "duration": 0.25,
              "velocity": 100
            },
            {
              "pitch": 60,
              "time": 3.5044970654345655,
              "duration": 0.24838624916749916,
              "velocity": 100
            },
            {
              "pitch": 60,
              "time": 3.7528833146020646,
              "duration": 0.24139506327006327,
              "velocity": 100
            },
            {
              "pitch": 60,
              "time": 3.994278377872128,
              "duration": 0.25,
              "velocity": 100
            },
            {
              "pitch": 60,
              "time": 4.254352158258408,
              "duration": 0.25,
              "velocity": 100
            },
            {
              "pitch": 60,
              "time": 4.505412556193806,
              "duration": 0.24714426198801198,
              "velocity": 100
            },
            {
              "pitch": 60,
              "time": 4.7525568181818185,
              "duration": 0.25,
              "velocity": 100
            },
            {
              "pitch": 60,
              "time": 5.005466408591409,
              "duration": 0.24541344072594073,
              "velocity": 100
            },
            {
              "pitch": 60,
              "time": 5.250879849317349,
              "duration": 0.24538638444888444,
              "velocity": 100
            },
            {
              "pitch": 60,
              "time": 5.496266233766233,
              "duration": 0.25,
              "velocity": 100
            },
            {
              "pitch": 60,
              "time": 5.753404928404929,
              "duration": 0.24314097360972362,
              "velocity": 100
            },
            {
              "pitch": 60,
              "time": 5.996545902014652,
              "duration": 0.24955201048951048,
              "velocity": 100
            },
            {
              "pitch": 60,
              "time": 6.246097912504163,
              "duration": 0.25,
              "velocity": 100
            },
            {
              "pitch": 60,
              "time": 6.500682910839161,
              "duration": 0.25,
              "velocity": 100
            },
            {
              "pitch": 60,
              "time": 6.752770666833166,
              "duration": 0.24414101523476522,
              "velocity": 100
            },
            {
              "pitch": 60,
              "time": 6.996911682067932,
              "duration": 0.25,
              "velocity": 100
            },
            {
              "pitch": 60,
              "time": 7.252682733932734,
              "duration": 0.24558358308358308,
              "velocity": 100
            },
            {
              "pitch": 60,
              "time": 7.498266317016317,
              "duration": 0.24886311605061606,
              "velocity": 100
            },
            {
              "pitch": 60,
              "time": 7.747129433066933,
              "duration": 0.25,
              "velocity": 100
            }
          ],
          "gainInfo": 1,
          "contentSummary": "midi clip, 2.0 bars, 32 notes",
          "clipColor": 1,
          "name": null
        }
      ],
      "automationLanes": [],
      "routing": {
        "audioInput": {
          "target": "AudioIn/External/S0",
          "upper": "Ext. In",
          "lower": "1/2"
        },
        "audioOutput": {
          "target": "AudioOut/Main",
          "upper": "Main",
          "lower": ""
        }
      },
      "warnings": []
    },
    {
      "id": "track_midi_19_6",
      "name": "7-ADRKT_TS_OH_32",
      "type": "midi",
      "parentGroupId": null,
      "orderIndex": 6,
      "muted": false,
      "solo": false,
      "frozen": false,
      "armed": false,
      "color": null,
      "inferredRole": "hihat",
      "inferredConfidence": 0.85,
      "clipCount": 24,
      "deviceCount": 4,
      "automationPoints": 0,
      "devices": [
        {
          "id": "track_midi_19_6_dev_0",
          "deviceClass": "DrumCell",
          "pluginName": null,
          "enabled": true,
          "inferredPurpose": "drum_machine",
          "parameters": {},
          "hasSidechainInput": false
        },
        {
          "id": "track_midi_19_6_dev_1",
          "deviceClass": "Roar",
          "pluginName": null,
          "enabled": true,
          "inferredPurpose": "effect",
          "parameters": {},
          "hasSidechainInput": false
        },
        {
          "id": "track_midi_19_6_dev_2",
          "deviceClass": "Eq8",
          "pluginName": null,
          "enabled": true,
          "inferredPurpose": "eq_filter",
          "parameters": {},
          "hasSidechainInput": false
        },
        {
          "id": "track_midi_19_6_dev_3",
          "deviceClass": "Reverb",
          "pluginName": null,
          "enabled": true,
          "inferredPurpose": "reverb",
          "parameters": {},
          "hasSidechainInput": false
        }
      ],
      "clips": [
        {
          "id": "track_midi_19_6_clip_0",
          "trackId": "track_midi_19_6",
          "clipType": "midi",
          "start": 96,
          "end": 192,
          "loop": true,
          "sourceRef": null,
          "midiNoteCount": 1,
          "midiNotes": [
            {
              "pitch": 60,
              "time": 0.5,
              "duration": 0.5,
              "velocity": 100
            }
          ],
          "gainInfo": 1,
          "contentSummary": "midi clip, 24.0 bars, 1 notes",
          "clipColor": 1,
          "name": null
        },
        {
          "id": "track_midi_19_6_clip_1",
          "trackId": "track_midi_19_6",
          "clipType": "midi",
          "start": 272,
          "end": 280,
          "loop": true,
          "sourceRef": null,
          "midiNoteCount": 1,
          "midiNotes": [
            {
              "pitch": 60,
              "time": 0.5,
              "duration": 0.5,
              "velocity": 100
            }
          ],
          "gainInfo": 1,
          "contentSummary": "midi clip, 2.0 bars, 1 notes",
          "clipColor": 1,
          "name": null
        },
        {
          "id": "track_midi_19_6_clip_2",
          "trackId": "track_midi_19_6",
          "clipType": "midi",
          "start": 280,
          "end": 312,
          "loop": true,
          "sourceRef": null,
          "midiNoteCount": 1,
          "midiNotes": [
            {
              "pitch": 60,
              "time": 0.5,
              "duration": 0.5,
              "velocity": 100
            }
          ],
          "gainInfo": 1,
          "contentSummary": "midi clip, 8.0 bars, 1 notes",
          "clipColor": 1,
          "name": null
        },
        {
          "id": "track_midi_19_6_clip_3",
          "trackId": "track_midi_19_6",
          "clipType": "midi",
          "start": 312,
          "end": 344,
          "loop": true,
          "sourceRef": null,
          "midiNoteCount": 1,
          "midiNotes": [
            {
              "pitch": 60,
              "time": 0.5,
              "duration": 0.5,
              "velocity": 100
            }
          ],
          "gainInfo": 1,
          "contentSummary": "midi clip, 8.0 bars, 1 notes",
          "clipColor": 1,
          "name": null
        },
        {
          "id": "track_midi_19_6_clip_4",
          "trackId": "track_midi_19_6",
          "clipType": "midi",
          "start": 344,
          "end": 376,
          "loop": true,
          "sourceRef": null,
          "midiNoteCount": 1,
          "midiNotes": [
            {
              "pitch": 60,
              "time": 0.5,
              "duration": 0.5,
              "velocity": 100
            }
          ],
          "gainInfo": 1,
          "contentSummary": "midi clip, 8.0 bars, 1 notes",
          "clipColor": 1,
          "name": null
        },
        {
          "id": "track_midi_19_6_clip_5",
          "trackId": "track_midi_19_6",
          "clipType": "midi",
          "start": 376,
          "end": 408,
          "loop": true,
          "sourceRef": null,
          "midiNoteCount": 1,
          "midiNotes": [
            {
              "pitch": 60,
              "time": 0.5,
              "duration": 0.5,
              "velocity": 100
            }
          ],
          "gainInfo": 1,
          "contentSummary": "midi clip, 8.0 bars, 1 notes",
          "clipColor": 1,
          "name": null
        },
        {
          "id": "track_midi_19_6_clip_6",
          "trackId": "track_midi_19_6",
          "clipType": "midi",
          "start": 483,
          "end": 515,
          "loop": true,
          "sourceRef": null,
          "midiNoteCount": 1,
          "midiNotes": [
            {
              "pitch": 60,
              "time": 0.5,
              "duration": 0.5,
              "velocity": 100
            }
          ],
          "gainInfo": 1,
          "contentSummary": "midi clip, 8.0 bars, 1 notes",
          "clipColor": 1,
          "name": null
        },
        {
          "id": "track_midi_19_6_clip_7",
          "trackId": "track_midi_19_6",
          "clipType": "midi",
          "start": 515,
          "end": 547,
          "loop": true,
          "sourceRef": null,
          "midiNoteCount": 1,
          "midiNotes": [
            {
              "pitch": 60,
              "time": 0.5,
              "duration": 0.5,
              "velocity": 100
            }
          ],
          "gainInfo": 1,
          "contentSummary": "midi clip, 8.0 bars, 1 notes",
          "clipColor": 1,
          "name": null
        },
        {
          "id": "track_midi_19_6_clip_8",
          "trackId": "track_midi_19_6",
          "clipType": "midi",
          "start": 547,
          "end": 579,
          "loop": true,
          "sourceRef": null,
          "midiNoteCount": 1,
          "midiNotes": [
            {
              "pitch": 60,
              "time": 0.5,
              "duration": 0.5,
              "velocity": 100
            }
          ],
          "gainInfo": 1,
          "contentSummary": "midi clip, 8.0 bars, 1 notes",
          "clipColor": 1,
          "name": null
        },
        {
          "id": "track_midi_19_6_clip_9",
          "trackId": "track_midi_19_6",
          "clipType": "midi",
          "start": 579,
          "end": 611,
          "loop": true,
          "sourceRef": null,
          "midiNoteCount": 1,
          "midiNotes": [
            {
              "pitch": 60,
              "time": 0.5,
              "duration": 0.5,
              "velocity": 100
            }
          ],
          "gainInfo": 1,
          "contentSummary": "midi clip, 8.0 bars, 1 notes",
          "clipColor": 1,
          "name": null
        },
        {
          "id": "track_midi_19_6_clip_10",
          "trackId": "track_midi_19_6",
          "clipType": "midi",
          "start": 611,
          "end": 672,
          "loop": true,
          "sourceRef": null,
          "midiNoteCount": 1,
          "midiNotes": [
            {
              "pitch": 60,
              "time": 0.5,
              "duration": 0.5,
              "velocity": 100
            }
          ],
          "gainInfo": 1,
          "contentSummary": "midi clip, 15.2 bars, 1 notes",
          "clipColor": 1,
          "name": null
        },
        {
          "id": "track_midi_19_6_clip_11",
          "trackId": "track_midi_19_6",
          "clipType": "midi",
          "start": 0,
          "end": 1,
          "loop": true,
          "sourceRef": null,
          "midiNoteCount": 1,
          "midiNotes": [
            {
              "pitch": 60,
              "time": 0.5,
              "duration": 0.5,
              "velocity": 100
            }
          ],
          "gainInfo": 1,
          "contentSummary": "midi clip, 0.2 bars, 1 notes",
          "clipColor": 1,
          "name": null
        },
        {
          "id": "track_midi_19_6_clip_12",
          "trackId": "track_midi_19_6",
          "clipType": "midi",
          "start": 0,
          "end": 1,
          "loop": true,
          "sourceRef": null,
          "midiNoteCount": 1,
          "midiNotes": [
            {
              "pitch": 60,
              "time": 0.5,
              "duration": 0.5,
              "velocity": 100
            }
          ],
          "gainInfo": 1,
          "contentSummary": "midi clip, 0.2 bars, 1 notes",
          "clipColor": 1,
          "name": null
        },
        {
          "id": "track_midi_19_6_clip_13",
          "trackId": "track_midi_19_6",
          "clipType": "midi",
          "start": 0,
          "end": 1,
          "loop": true,
          "sourceRef": null,
          "midiNoteCount": 1,
          "midiNotes": [
            {
              "pitch": 60,
              "time": 0.5,
              "duration": 0.5,
              "velocity": 100
            }
          ],
          "gainInfo": 1,
          "contentSummary": "midi clip, 0.2 bars, 1 notes",
          "clipColor": 1,
          "name": null
        },
        {
          "id": "track_midi_19_6_clip_14",
          "trackId": "track_midi_19_6",
          "clipType": "midi",
          "start": 0,
          "end": 1,
          "loop": true,
          "sourceRef": null,
          "midiNoteCount": 1,
          "midiNotes": [
            {
              "pitch": 60,
              "time": 0.5,
              "duration": 0.5,
              "velocity": 100
            }
          ],
          "gainInfo": 1,
          "contentSummary": "midi clip, 0.2 bars, 1 notes",
          "clipColor": 1,
          "name": null
        },
        {
          "id": "track_midi_19_6_clip_15",
          "trackId": "track_midi_19_6",
          "clipType": "midi",
          "start": 0,
          "end": 1,
          "loop": true,
          "sourceRef": null,
          "midiNoteCount": 1,
          "midiNotes": [
            {
              "pitch": 60,
              "time": 0.5,
              "duration": 0.5,
              "velocity": 100
            }
          ],
          "gainInfo": 1,
          "contentSummary": "midi clip, 0.2 bars, 1 notes",
          "clipColor": 1,
          "name": null
        },
        {
          "id": "track_midi_19_6_clip_16",
          "trackId": "track_midi_19_6",
          "clipType": "midi",
          "start": 0,
          "end": 1,
          "loop": true,
          "sourceRef": null,
          "midiNoteCount": 1,
          "midiNotes": [
            {
              "pitch": 60,
              "time": 0.5,
              "duration": 0.5,
              "velocity": 100
            }
          ],
          "gainInfo": 1,
          "contentSummary": "midi clip, 0.2 bars, 1 notes",
          "clipColor": 1,
          "name": null
        },
        {
          "id": "track_midi_19_6_clip_17",
          "trackId": "track_midi_19_6",
          "clipType": "midi",
          "start": 0,
          "end": 1,
          "loop": true,
          "sourceRef": null,
          "midiNoteCount": 1,
          "midiNotes": [
            {
              "pitch": 60,
              "time": 0.5,
              "duration": 0.5,
              "velocity": 100
            }
          ],
          "gainInfo": 1,
          "contentSummary": "midi clip, 0.2 bars, 1 notes",
          "clipColor": 1,
          "name": null
        },
        {
          "id": "track_midi_19_6_clip_18",
          "trackId": "track_midi_19_6",
          "clipType": "midi",
          "start": 0,
          "end": 1,
          "loop": true,
          "sourceRef": null,
          "midiNoteCount": 1,
          "midiNotes": [
            {
              "pitch": 60,
              "time": 0.5,
              "duration": 0.5,
              "velocity": 100
            }
          ],
          "gainInfo": 1,
          "contentSummary": "midi clip, 0.2 bars, 1 notes",
          "clipColor": 1,
          "name": null
        },
        {
          "id": "track_midi_19_6_clip_19",
          "trackId": "track_midi_19_6",
          "clipType": "midi",
          "start": 0,
          "end": 1,
          "loop": true,
          "sourceRef": null,
          "midiNoteCount": 1,
          "midiNotes": [
            {
              "pitch": 60,
              "time": 0.5,
              "duration": 0.5,
              "velocity": 100
            }
          ],
          "gainInfo": 1,
          "contentSummary": "midi clip, 0.2 bars, 1 notes",
          "clipColor": 1,
          "name": null
        },
        {
          "id": "track_midi_19_6_clip_20",
          "trackId": "track_midi_19_6",
          "clipType": "midi",
          "start": 0,
          "end": 1,
          "loop": true,
          "sourceRef": null,
          "midiNoteCount": 1,
          "midiNotes": [
            {
              "pitch": 60,
              "time": 0.5,
              "duration": 0.5,
              "velocity": 100
            }
          ],
          "gainInfo": 1,
          "contentSummary": "midi clip, 0.2 bars, 1 notes",
          "clipColor": 1,
          "name": null
        },
        {
          "id": "track_midi_19_6_clip_21",
          "trackId": "track_midi_19_6",
          "clipType": "midi",
          "start": 0,
          "end": 1,
          "loop": true,
          "sourceRef": null,
          "midiNoteCount": 1,
          "midiNotes": [
            {
              "pitch": 60,
              "time": 0.5,
              "duration": 0.5,
              "velocity": 100
            }
          ],
          "gainInfo": 1,
          "contentSummary": "midi clip, 0.2 bars, 1 notes",
          "clipColor": 1,
          "name": null
        },
        {
          "id": "track_midi_19_6_clip_22",
          "trackId": "track_midi_19_6",
          "clipType": "midi",
          "start": 0,
          "end": 1,
          "loop": true,
          "sourceRef": null,
          "midiNoteCount": 1,
          "midiNotes": [
            {
              "pitch": 60,
              "time": 0.5,
              "duration": 0.5,
              "velocity": 100
            }
          ],
          "gainInfo": 1,
          "contentSummary": "midi clip, 0.2 bars, 1 notes",
          "clipColor": 1,
          "name": null
        },
        {
          "id": "track_midi_19_6_clip_23",
          "trackId": "track_midi_19_6",
          "clipType": "midi",
          "start": 0,
          "end": 1,
          "loop": true,
          "sourceRef": null,
          "midiNoteCount": 1,
          "midiNotes": [
            {
              "pitch": 60,
              "time": 0.5,
              "duration": 0.5,
              "velocity": 100
            }
          ],
          "gainInfo": 1,
          "contentSummary": "midi clip, 0.2 bars, 1 notes",
          "clipColor": 1,
          "name": null
        }
      ],
      "automationLanes": [],
      "routing": {
        "audioInput": {
          "target": "AudioIn/External/S0",
          "upper": "Ext. In",
          "lower": "1/2"
        },
        "audioOutput": {
          "target": "AudioOut/Main",
          "upper": "Main",
          "lower": ""
        }
      },
      "warnings": []
    },
    {
      "id": "track_midi_20_7",
      "name": "8-Hihat Closed Pointy Hat",
      "type": "midi",
      "parentGroupId": null,
      "orderIndex": 7,
      "muted": false,
      "solo": false,
      "frozen": false,
      "armed": false,
      "color": null,
      "inferredRole": "hihat",
      "inferredConfidence": 0.95,
      "clipCount": 26,
      "deviceCount": 7,
      "automationPoints": 0,
      "devices": [
        {
          "id": "track_midi_20_7_dev_0",
          "deviceClass": "DrumCell",
          "pluginName": null,
          "enabled": true,
          "inferredPurpose": "drum_machine",
          "parameters": {},
          "hasSidechainInput": false
        },
        {
          "id": "track_midi_20_7_dev_1",
          "deviceClass": "Roar",
          "pluginName": null,
          "enabled": true,
          "inferredPurpose": "effect",
          "parameters": {},
          "hasSidechainInput": false
        },
        {
          "id": "track_midi_20_7_dev_2",
          "deviceClass": "Eq8",
          "pluginName": null,
          "enabled": true,
          "inferredPurpose": "eq_filter",
          "parameters": {},
          "hasSidechainInput": false
        },
        {
          "id": "track_midi_20_7_dev_3",
          "deviceClass": "StereoGain",
          "pluginName": null,
          "enabled": true,
          "inferredPurpose": "utility",
          "parameters": {},
          "hasSidechainInput": false
        },
        {
          "id": "track_midi_20_7_dev_4",
          "deviceClass": "Delay",
          "pluginName": null,
          "enabled": true,
          "inferredPurpose": "delay",
          "parameters": {},
          "hasSidechainInput": false
        },
        {
          "id": "track_midi_20_7_dev_5",
          "deviceClass": "Reverb",
          "pluginName": null,
          "enabled": true,
          "inferredPurpose": "reverb",
          "parameters": {},
          "hasSidechainInput": false
        },
        {
          "id": "track_midi_20_7_dev_6",
          "deviceClass": "DrumBuss",
          "pluginName": null,
          "enabled": true,
          "inferredPurpose": "drum_machine",
          "parameters": {},
          "hasSidechainInput": false
        }
      ],
      "clips": [
        {
          "id": "track_midi_20_7_clip_0",
          "trackId": "track_midi_20_7",
          "clipType": "midi",
          "start": 128,
          "end": 224,
          "loop": true,
          "sourceRef": null,
          "midiNoteCount": 9,
          "midiNotes": [
            {
              "pitch": 60,
              "time": 0,
              "duration": 0.25,
              "velocity": 100
            },
            {
              "pitch": 60,
              "time": 4,
              "duration": 0.25,
              "velocity": 100
            },
            {
              "pitch": 60,
              "time": 11.25,
              "duration": 0.25,
              "velocity": 100
            },
            {
              "pitch": 60,
              "time": 11.5,
              "duration": 0.25,
              "velocity": 100
            },
            {
              "pitch": 60,
              "time": 16,
              "duration": 0.25,
              "velocity": 100
            },
            {
              "pitch": 60,
              "time": 20,
              "duration": 0.25,
              "velocity": 100
            },
            {
              "pitch": 60,
              "time": 27.25,
              "duration": 0.25,
              "velocity": 100
            },
            {
              "pitch": 60,
              "time": 27.5,
              "duration": 0.25,
              "velocity": 100
            },
            {
              "pitch": 60,
              "time": 28,
              "duration": 0.25,
              "velocity": 55
            }
          ],
          "gainInfo": 1,
          "contentSummary": "midi clip, 24.0 bars, 9 notes",
          "clipColor": 1,
          "name": null
        },
        {
          "id": "track_midi_20_7_clip_1",
          "trackId": "track_midi_20_7",
          "clipType": "midi",
          "start": 240,
          "end": 272,
          "loop": true,
          "sourceRef": null,
          "midiNoteCount": 10,
          "midiNotes": [
            {
              "pitch": 60,
              "time": 11,
              "duration": 0.25,
              "velocity": 13
            },
            {
              "pitch": 60,
              "time": 11.25,
              "duration": 0.25,
              "velocity": 63
            },
            {
              "pitch": 60,
              "time": 11.5,
              "duration": 0.25,
              "velocity": 100
            },
            {
              "pitch": 60,
              "time": 27,
              "duration": 0.25,
              "velocity": 13
            },
            {
              "pitch": 60,
              "time": 27.25,
              "duration": 0.25,
              "velocity": 63
            },
            {
              "pitch": 60,
              "time": 27.5,
              "duration": 0.25,
              "velocity": 100
            },
            {
              "pitch": 60,
              "time": 28,
              "duration": 0.25,
              "velocity": 13
            },
            {
              "pitch": 60,
              "time": 28.25,
              "duration": 0.25,
              "velocity": 13
            },
            {
              "pitch": 60,
              "time": 28.5,
              "duration": 0.25,
              "velocity": 63
            },
            {
              "pitch": 60,
              "time": 28.75,
              "duration": 0.25,
              "velocity": 100
            }
          ],
          "gainInfo": 1,
          "contentSummary": "midi clip, 8.0 bars, 10 notes",
          "clipColor": 1,
          "name": null
        },
        {
          "id": "track_midi_20_7_clip_2",
          "trackId": "track_midi_20_7",
          "clipType": "midi",
          "start": 272,
          "end": 304,
          "loop": true,
          "sourceRef": null,
          "midiNoteCount": 10,
          "midiNotes": [
            {
              "pitch": 60,
              "time": 11,
              "duration": 0.25,
              "velocity": 13
            },
            {
              "pitch": 60,
              "time": 11.25,
              "duration": 0.25,
              "velocity": 63
            },
            {
              "pitch": 60,
              "time": 11.5,
              "duration": 0.25,
              "velocity": 100
            },
            {
              "pitch": 60,
              "time": 27,
              "duration": 0.25,
              "velocity": 13
            },
            {
              "pitch": 60,
              "time": 27.25,
              "duration": 0.25,
              "velocity": 63
            },
            {
              "pitch": 60,
              "time": 27.5,
              "duration": 0.25,
              "velocity": 100
            },
            {
              "pitch": 60,
              "time": 28,
              "duration": 0.25,
              "velocity": 13
            },
            {
              "pitch": 60,
              "time": 28.25,
              "duration": 0.25,
              "velocity": 13
            },
            {
              "pitch": 60,
              "time": 28.5,
              "duration": 0.25,
              "velocity": 63
            },
            {
              "pitch": 60,
              "time": 28.75,
              "duration": 0.25,
              "velocity": 100
            }
          ],
          "gainInfo": 1,
          "contentSummary": "midi clip, 8.0 bars, 10 notes",
          "clipColor": 1,
          "name": null
        },
        {
          "id": "track_midi_20_7_clip_3",
          "trackId": "track_midi_20_7",
          "clipType": "midi",
          "start": 304,
          "end": 336,
          "loop": true,
          "sourceRef": null,
          "midiNoteCount": 10,
          "midiNotes": [
            {
              "pitch": 60,
              "time": 11,
              "duration": 0.25,
              "velocity": 13
            },
            {
              "pitch": 60,
              "time": 11.25,
              "duration": 0.25,
              "velocity": 63
            },
            {
              "pitch": 60,
              "time": 11.5,
              "duration": 0.25,
              "velocity": 100
            },
            {
              "pitch": 60,
              "time": 27,
              "duration": 0.25,
              "velocity": 13
            },
            {
              "pitch": 60,
              "time": 27.25,
              "duration": 0.25,
              "velocity": 63
            },
            {
              "pitch": 60,
              "time": 27.5,
              "duration": 0.25,
              "velocity": 100
            },
            {
              "pitch": 60,
              "time": 28,
              "duration": 0.25,
              "velocity": 13
            },
            {
              "pitch": 60,
              "time": 28.25,
              "duration": 0.25,
              "velocity": 13
            },
            {
              "pitch": 60,
              "time": 28.5,
              "duration": 0.25,
              "velocity": 63
            },
            {
              "pitch": 60,
              "time": 28.75,
              "duration": 0.25,
              "velocity": 100
            }
          ],
          "gainInfo": 1,
          "contentSummary": "midi clip, 8.0 bars, 10 notes",
          "clipColor": 1,
          "name": null
        },
        {
          "id": "track_midi_20_7_clip_4",
          "trackId": "track_midi_20_7",
          "clipType": "midi",
          "start": 336,
          "end": 368,
          "loop": true,
          "sourceRef": null,
          "midiNoteCount": 10,
          "midiNotes": [
            {
              "pitch": 60,
              "time": 11,
              "duration": 0.25,
              "velocity": 13
            },
            {
              "pitch": 60,
              "time": 11.25,
              "duration": 0.25,
              "velocity": 63
            },
            {
              "pitch": 60,
              "time": 11.5,
              "duration": 0.25,
              "velocity": 100
            },
            {
              "pitch": 60,
              "time": 27,
              "duration": 0.25,
              "velocity": 13
            },
            {
              "pitch": 60,
              "time": 27.25,
              "duration": 0.25,
              "velocity": 63
            },
            {
              "pitch": 60,
              "time": 27.5,
              "duration": 0.25,
              "velocity": 100
            },
            {
              "pitch": 60,
              "time": 28,
              "duration": 0.25,
              "velocity": 13
            },
            {
              "pitch": 60,
              "time": 28.25,
              "duration": 0.25,
              "velocity": 13
            },
            {
              "pitch": 60,
              "time": 28.5,
              "duration": 0.25,
              "velocity": 63
            },
            {
              "pitch": 60,
              "time": 28.75,
              "duration": 0.25,
              "velocity": 100
            }
          ],
          "gainInfo": 1,
          "contentSummary": "midi clip, 8.0 bars, 10 notes",
          "clipColor": 1,
          "name": null
        },
        {
          "id": "track_midi_20_7_clip_5",
          "trackId": "track_midi_20_7",
          "clipType": "midi",
          "start": 371,
          "end": 403,
          "loop": true,
          "sourceRef": null,
          "midiNoteCount": 10,
          "midiNotes": [
            {
              "pitch": 60,
              "time": 11,
              "duration": 0.25,
              "velocity": 13
            },
            {
              "pitch": 60,
              "time": 11.25,
              "duration": 0.25,
              "velocity": 63
            },
            {
              "pitch": 60,
              "time": 11.5,
              "duration": 0.25,
              "velocity": 100
            },
            {
              "pitch": 60,
              "time": 27,
              "duration": 0.25,
              "velocity": 13
            },
            {
              "pitch": 60,
              "time": 27.25,
              "duration": 0.25,
              "velocity": 63
            },
            {
              "pitch": 60,
              "time": 27.5,
              "duration": 0.25,
              "velocity": 100
            },
            {
              "pitch": 60,
              "time": 28,
              "duration": 0.25,
              "velocity": 13
            },
            {
              "pitch": 60,
              "time": 28.25,
              "duration": 0.25,
              "velocity": 13
            },
            {
              "pitch": 60,
              "time": 28.5,
              "duration": 0.25,
              "velocity": 63
            },
            {
              "pitch": 60,
              "time": 28.75,
              "duration": 0.25,
              "velocity": 100
            }
          ],
          "gainInfo": 1,
          "contentSummary": "midi clip, 8.0 bars, 10 notes",
          "clipColor": 1,
          "name": null
        },
        {
          "id": "track_midi_20_7_clip_6",
          "trackId": "track_midi_20_7",
          "clipType": "midi",
          "start": 403,
          "end": 435,
          "loop": true,
          "sourceRef": null,
          "midiNoteCount": 10,
          "midiNotes": [
            {
              "pitch": 60,
              "time": 11,
              "duration": 0.25,
              "velocity": 13
            },
            {
              "pitch": 60,
              "time": 11.25,
              "duration": 0.25,
              "velocity": 63
            },
            {
              "pitch": 60,
              "time": 11.5,
              "duration": 0.25,
              "velocity": 100
            },
            {
              "pitch": 60,
              "time": 27,
              "duration": 0.25,
              "velocity": 13
            },
            {
              "pitch": 60,
              "time": 27.25,
              "duration": 0.25,
              "velocity": 63
            },
            {
              "pitch": 60,
              "time": 27.5,
              "duration": 0.25,
              "velocity": 100
            },
            {
              "pitch": 60,
              "time": 28,
              "duration": 0.25,
              "velocity": 13
            },
            {
              "pitch": 60,
              "time": 28.25,
              "duration": 0.25,
              "velocity": 13
            },
            {
              "pitch": 60,
              "time": 28.5,
              "duration": 0.25,
              "velocity": 63
            },
            {
              "pitch": 60,
              "time": 28.75,
              "duration": 0.25,
              "velocity": 100
            }
          ],
          "gainInfo": 1,
          "contentSummary": "midi clip, 8.0 bars, 10 notes",
          "clipColor": 1,
          "name": null
        },
        {
          "id": "track_midi_20_7_clip_7",
          "trackId": "track_midi_20_7",
          "clipType": "midi",
          "start": 435,
          "end": 467,
          "loop": true,
          "sourceRef": null,
          "midiNoteCount": 10,
          "midiNotes": [
            {
              "pitch": 60,
              "time": 11,
              "duration": 0.25,
              "velocity": 13
            },
            {
              "pitch": 60,
              "time": 11.25,
              "duration": 0.25,
              "velocity": 63
            },
            {
              "pitch": 60,
              "time": 11.5,
              "duration": 0.25,
              "velocity": 100
            },
            {
              "pitch": 60,
              "time": 27,
              "duration": 0.25,
              "velocity": 13
            },
            {
              "pitch": 60,
              "time": 27.25,
              "duration": 0.25,
              "velocity": 63
            },
            {
              "pitch": 60,
              "time": 27.5,
              "duration": 0.25,
              "velocity": 100
            },
            {
              "pitch": 60,
              "time": 28,
              "duration": 0.25,
              "velocity": 13
            },
            {
              "pitch": 60,
              "time": 28.25,
              "duration": 0.25,
              "velocity": 13
            },
            {
              "pitch": 60,
              "time": 28.5,
              "duration": 0.25,
              "velocity": 63
            },
            {
              "pitch": 60,
              "time": 28.75,
              "duration": 0.25,
              "velocity": 100
            }
          ],
          "gainInfo": 1,
          "contentSummary": "midi clip, 8.0 bars, 10 notes",
          "clipColor": 1,
          "name": null
        },
        {
          "id": "track_midi_20_7_clip_8",
          "trackId": "track_midi_20_7",
          "clipType": "midi",
          "start": 467,
          "end": 499,
          "loop": true,
          "sourceRef": null,
          "midiNoteCount": 10,
          "midiNotes": [
            {
              "pitch": 60,
              "time": 11,
              "duration": 0.25,
              "velocity": 13
            },
            {
              "pitch": 60,
              "time": 11.25,
              "duration": 0.25,
              "velocity": 63
            },
            {
              "pitch": 60,
              "time": 11.5,
              "duration": 0.25,
              "velocity": 100
            },
            {
              "pitch": 60,
              "time": 27,
              "duration": 0.25,
              "velocity": 13
            },
            {
              "pitch": 60,
              "time": 27.25,
              "duration": 0.25,
              "velocity": 63
            },
            {
              "pitch": 60,
              "time": 27.5,
              "duration": 0.25,
              "velocity": 100
            },
            {
              "pitch": 60,
              "time": 28,
              "duration": 0.25,
              "velocity": 13
            },
            {
              "pitch": 60,
              "time": 28.25,
              "duration": 0.25,
              "velocity": 13
            },
            {
              "pitch": 60,
              "time": 28.5,
              "duration": 0.25,
              "velocity": 63
            },
            {
              "pitch": 60,
              "time": 28.75,
              "duration": 0.25,
              "velocity": 100
            }
          ],
          "gainInfo": 1,
          "contentSummary": "midi clip, 8.0 bars, 10 notes",
          "clipColor": 1,
          "name": null
        },
        {
          "id": "track_midi_20_7_clip_9",
          "trackId": "track_midi_20_7",
          "clipType": "midi",
          "start": 499,
          "end": 531,
          "loop": true,
          "sourceRef": null,
          "midiNoteCount": 10,
          "midiNotes": [
            {
              "pitch": 60,
              "time": 11,
              "duration": 0.25,
              "velocity": 13
            },
            {
              "pitch": 60,
              "time": 11.25,
              "duration": 0.25,
              "velocity": 63
            },
            {
              "pitch": 60,
              "time": 11.5,
              "duration": 0.25,
              "velocity": 100
            },
            {
              "pitch": 60,
              "time": 27,
              "duration": 0.25,
              "velocity": 13
            },
            {
              "pitch": 60,
              "time": 27.25,
              "duration": 0.25,
              "velocity": 63
            },
            {
              "pitch": 60,
              "time": 27.5,
              "duration": 0.25,
              "velocity": 100
            },
            {
              "pitch": 60,
              "time": 28,
              "duration": 0.25,
              "velocity": 13
            },
            {
              "pitch": 60,
              "time": 28.25,
              "duration": 0.25,
              "velocity": 13
            },
            {
              "pitch": 60,
              "time": 28.5,
              "duration": 0.25,
              "velocity": 63
            },
            {
              "pitch": 60,
              "time": 28.75,
              "duration": 0.25,
              "velocity": 100
            }
          ],
          "gainInfo": 1,
          "contentSummary": "midi clip, 8.0 bars, 10 notes",
          "clipColor": 1,
          "name": null
        },
        {
          "id": "track_midi_20_7_clip_10",
          "trackId": "track_midi_20_7",
          "clipType": "midi",
          "start": 534,
          "end": 566,
          "loop": true,
          "sourceRef": null,
          "midiNoteCount": 10,
          "midiNotes": [
            {
              "pitch": 60,
              "time": 11,
              "duration": 0.25,
              "velocity": 13
            },
            {
              "pitch": 60,
              "time": 11.25,
              "duration": 0.25,
              "velocity": 63
            },
            {
              "pitch": 60,
              "time": 11.5,
              "duration": 0.25,
              "velocity": 100
            },
            {
              "pitch": 60,
              "time": 27,
              "duration": 0.25,
              "velocity": 13
            },
            {
              "pitch": 60,
              "time": 27.25,
              "duration": 0.25,
              "velocity": 63
            },
            {
              "pitch": 60,
              "time": 27.5,
              "duration": 0.25,
              "velocity": 100
            },
            {
              "pitch": 60,
              "time": 28,
              "duration": 0.25,
              "velocity": 13
            },
            {
              "pitch": 60,
              "time": 28.25,
              "duration": 0.25,
              "velocity": 13
            },
            {
              "pitch": 60,
              "time": 28.5,
              "duration": 0.25,
              "velocity": 63
            },
            {
              "pitch": 60,
              "time": 28.75,
              "duration": 0.25,
              "velocity": 100
            }
          ],
          "gainInfo": 1,
          "contentSummary": "midi clip, 8.0 bars, 10 notes",
          "clipColor": 1,
          "name": null
        },
        {
          "id": "track_midi_20_7_clip_11",
          "trackId": "track_midi_20_7",
          "clipType": "midi",
          "start": 566,
          "end": 598,
          "loop": true,
          "sourceRef": null,
          "midiNoteCount": 10,
          "midiNotes": [
            {
              "pitch": 60,
              "time": 11,
              "duration": 0.25,
              "velocity": 13
            },
            {
              "pitch": 60,
              "time": 11.25,
              "duration": 0.25,
              "velocity": 63
            },
            {
              "pitch": 60,
              "time": 11.5,
              "duration": 0.25,
              "velocity": 100
            },
            {
              "pitch": 60,
              "time": 27,
              "duration": 0.25,
              "velocity": 13
            },
            {
              "pitch": 60,
              "time": 27.25,
              "duration": 0.25,
              "velocity": 63
            },
            {
              "pitch": 60,
              "time": 27.5,
              "duration": 0.25,
              "velocity": 100
            },
            {
              "pitch": 60,
              "time": 28,
              "duration": 0.25,
              "velocity": 13
            },
            {
              "pitch": 60,
              "time": 28.25,
              "duration": 0.25,
              "velocity": 13
            },
            {
              "pitch": 60,
              "time": 28.5,
              "duration": 0.25,
              "velocity": 63
            },
            {
              "pitch": 60,
              "time": 28.75,
              "duration": 0.25,
              "velocity": 100
            }
          ],
          "gainInfo": 1,
          "contentSummary": "midi clip, 8.0 bars, 10 notes",
          "clipColor": 1,
          "name": null
        },
        {
          "id": "track_midi_20_7_clip_12",
          "trackId": "track_midi_20_7",
          "clipType": "midi",
          "start": 598,
          "end": 630,
          "loop": true,
          "sourceRef": null,
          "midiNoteCount": 10,
          "midiNotes": [
            {
              "pitch": 60,
              "time": 11,
              "duration": 0.25,
              "velocity": 13
            },
            {
              "pitch": 60,
              "time": 11.25,
              "duration": 0.25,
              "velocity": 63
            },
            {
              "pitch": 60,
              "time": 11.5,
              "duration": 0.25,
              "velocity": 100
            },
            {
              "pitch": 60,
              "time": 27,
              "duration": 0.25,
              "velocity": 13
            },
            {
              "pitch": 60,
              "time": 27.25,
              "duration": 0.25,
              "velocity": 63
            },
            {
              "pitch": 60,
              "time": 27.5,
              "duration": 0.25,
              "velocity": 100
            },
            {
              "pitch": 60,
              "time": 28,
              "duration": 0.25,
              "velocity": 13
            },
            {
              "pitch": 60,
              "time": 28.25,
              "duration": 0.25,
              "velocity": 13
            },
            {
              "pitch": 60,
              "time": 28.5,
              "duration": 0.25,
              "velocity": 63
            },
            {
              "pitch": 60,
              "time": 28.75,
              "duration": 0.25,
              "velocity": 100
            }
          ],
          "gainInfo": 1,
          "contentSummary": "midi clip, 8.0 bars, 10 notes",
          "clipColor": 1,
          "name": null
        },
        {
          "id": "track_midi_20_7_clip_13",
          "trackId": "track_midi_20_7",
          "clipType": "midi",
          "start": 0,
          "end": 32,
          "loop": true,
          "sourceRef": null,
          "midiNoteCount": 9,
          "midiNotes": [
            {
              "pitch": 60,
              "time": 0,
              "duration": 0.25,
              "velocity": 100
            },
            {
              "pitch": 60,
              "time": 4,
              "duration": 0.25,
              "velocity": 100
            },
            {
              "pitch": 60,
              "time": 11.25,
              "duration": 0.25,
              "velocity": 100
            },
            {
              "pitch": 60,
              "time": 11.5,
              "duration": 0.25,
              "velocity": 100
            },
            {
              "pitch": 60,
              "time": 16,
              "duration": 0.25,
              "velocity": 100
            },
            {
              "pitch": 60,
              "time": 20,
              "duration": 0.25,
              "velocity": 100
            },
            {
              "pitch": 60,
              "time": 27.25,
              "duration": 0.25,
              "velocity": 100
            },
            {
              "pitch": 60,
              "time": 27.5,
              "duration": 0.25,
              "velocity": 100
            },
            {
              "pitch": 60,
              "time": 28,
              "duration": 0.25,
              "velocity": 55
            }
          ],
          "gainInfo": 1,
          "contentSummary": "midi clip, 8.0 bars, 9 notes",
          "clipColor": 1,
          "name": null
        },
        {
          "id": "track_midi_20_7_clip_14",
          "trackId": "track_midi_20_7",
          "clipType": "midi",
          "start": 0,
          "end": 32,
          "loop": true,
          "sourceRef": null,
          "midiNoteCount": 10,
          "midiNotes": [
            {
              "pitch": 60,
              "time": 11,
              "duration": 0.25,
              "velocity": 13
            },
            {
              "pitch": 60,
              "time": 11.25,
              "duration": 0.25,
              "velocity": 63
            },
            {
              "pitch": 60,
              "time": 11.5,
              "duration": 0.25,
              "velocity": 100
            },
            {
              "pitch": 60,
              "time": 27,
              "duration": 0.25,
              "velocity": 13
            },
            {
              "pitch": 60,
              "time": 27.25,
              "duration": 0.25,
              "velocity": 63
            },
            {
              "pitch": 60,
              "time": 27.5,
              "duration": 0.25,
              "velocity": 100
            },
            {
              "pitch": 60,
              "time": 28,
              "duration": 0.25,
              "velocity": 13
            },
            {
              "pitch": 60,
              "time": 28.25,
              "duration": 0.25,
              "velocity": 13
            },
            {
              "pitch": 60,
              "time": 28.5,
              "duration": 0.25,
              "velocity": 63
            },
            {
              "pitch": 60,
              "time": 28.75,
              "duration": 0.25,
              "velocity": 100
            }
          ],
          "gainInfo": 1,
          "contentSummary": "midi clip, 8.0 bars, 10 notes",
          "clipColor": 1,
          "name": null
        },
        {
          "id": "track_midi_20_7_clip_15",
          "trackId": "track_midi_20_7",
          "clipType": "midi",
          "start": 0,
          "end": 32,
          "loop": true,
          "sourceRef": null,
          "midiNoteCount": 10,
          "midiNotes": [
            {
              "pitch": 60,
              "time": 11,
              "duration": 0.25,
              "velocity": 13
            },
            {
              "pitch": 60,
              "time": 11.25,
              "duration": 0.25,
              "velocity": 63
            },
            {
              "pitch": 60,
              "time": 11.5,
              "duration": 0.25,
              "velocity": 100
            },
            {
              "pitch": 60,
              "time": 27,
              "duration": 0.25,
              "velocity": 13
            },
            {
              "pitch": 60,
              "time": 27.25,
              "duration": 0.25,
              "velocity": 63
            },
            {
              "pitch": 60,
              "time": 27.5,
              "duration": 0.25,
              "velocity": 100
            },
            {
              "pitch": 60,
              "time": 28,
              "duration": 0.25,
              "velocity": 13
            },
            {
              "pitch": 60,
              "time": 28.25,
              "duration": 0.25,
              "velocity": 13
            },
            {
              "pitch": 60,
              "time": 28.5,
              "duration": 0.25,
              "velocity": 63
            },
            {
              "pitch": 60,
              "time": 28.75,
              "duration": 0.25,
              "velocity": 100
            }
          ],
          "gainInfo": 1,
          "contentSummary": "midi clip, 8.0 bars, 10 notes",
          "clipColor": 1,
          "name": null
        },
        {
          "id": "track_midi_20_7_clip_16",
          "trackId": "track_midi_20_7",
          "clipType": "midi",
          "start": 0,
          "end": 32,
          "loop": true,
          "sourceRef": null,
          "midiNoteCount": 10,
          "midiNotes": [
            {
              "pitch": 60,
              "time": 11,
              "duration": 0.25,
              "velocity": 13
            },
            {
              "pitch": 60,
              "time": 11.25,
              "duration": 0.25,
              "velocity": 63
            },
            {
              "pitch": 60,
              "time": 11.5,
              "duration": 0.25,
              "velocity": 100
            },
            {
              "pitch": 60,
              "time": 27,
              "duration": 0.25,
              "velocity": 13
            },
            {
              "pitch": 60,
              "time": 27.25,
              "duration": 0.25,
              "velocity": 63
            },
            {
              "pitch": 60,
              "time": 27.5,
              "duration": 0.25,
              "velocity": 100
            },
            {
              "pitch": 60,
              "time": 28,
              "duration": 0.25,
              "velocity": 13
            },
            {
              "pitch": 60,
              "time": 28.25,
              "duration": 0.25,
              "velocity": 13
            },
            {
              "pitch": 60,
              "time": 28.5,
              "duration": 0.25,
              "velocity": 63
            },
            {
              "pitch": 60,
              "time": 28.75,
              "duration": 0.25,
              "velocity": 100
            }
          ],
          "gainInfo": 1,
          "contentSummary": "midi clip, 8.0 bars, 10 notes",
          "clipColor": 1,
          "name": null
        },
        {
          "id": "track_midi_20_7_clip_17",
          "trackId": "track_midi_20_7",
          "clipType": "midi",
          "start": 0,
          "end": 32,
          "loop": true,
          "sourceRef": null,
          "midiNoteCount": 10,
          "midiNotes": [
            {
              "pitch": 60,
              "time": 11,
              "duration": 0.25,
              "velocity": 13
            },
            {
              "pitch": 60,
              "time": 11.25,
              "duration": 0.25,
              "velocity": 63
            },
            {
              "pitch": 60,
              "time": 11.5,
              "duration": 0.25,
              "velocity": 100
            },
            {
              "pitch": 60,
              "time": 27,
              "duration": 0.25,
              "velocity": 13
            },
            {
              "pitch": 60,
              "time": 27.25,
              "duration": 0.25,
              "velocity": 63
            },
            {
              "pitch": 60,
              "time": 27.5,
              "duration": 0.25,
              "velocity": 100
            },
            {
              "pitch": 60,
              "time": 28,
              "duration": 0.25,
              "velocity": 13
            },
            {
              "pitch": 60,
              "time": 28.25,
              "duration": 0.25,
              "velocity": 13
            },
            {
              "pitch": 60,
              "time": 28.5,
              "duration": 0.25,
              "velocity": 63
            },
            {
              "pitch": 60,
              "time": 28.75,
              "duration": 0.25,
              "velocity": 100
            }
          ],
          "gainInfo": 1,
          "contentSummary": "midi clip, 8.0 bars, 10 notes",
          "clipColor": 1,
          "name": null
        },
        {
          "id": "track_midi_20_7_clip_18",
          "trackId": "track_midi_20_7",
          "clipType": "midi",
          "start": 0,
          "end": 32,
          "loop": true,
          "sourceRef": null,
          "midiNoteCount": 10,
          "midiNotes": [
            {
              "pitch": 60,
              "time": 11,
              "duration": 0.25,
              "velocity": 13
            },
            {
              "pitch": 60,
              "time": 11.25,
              "duration": 0.25,
              "velocity": 63
            },
            {
              "pitch": 60,
              "time": 11.5,
              "duration": 0.25,
              "velocity": 100
            },
            {
              "pitch": 60,
              "time": 27,
              "duration": 0.25,
              "velocity": 13
            },
            {
              "pitch": 60,
              "time": 27.25,
              "duration": 0.25,
              "velocity": 63
            },
            {
              "pitch": 60,
              "time": 27.5,
              "duration": 0.25,
              "velocity": 100
            },
            {
              "pitch": 60,
              "time": 28,
              "duration": 0.25,
              "velocity": 13
            },
            {
              "pitch": 60,
              "time": 28.25,
              "duration": 0.25,
              "velocity": 13
            },
            {
              "pitch": 60,
              "time": 28.5,
              "duration": 0.25,
              "velocity": 63
            },
            {
              "pitch": 60,
              "time": 28.75,
              "duration": 0.25,
              "velocity": 100
            }
          ],
          "gainInfo": 1,
          "contentSummary": "midi clip, 8.0 bars, 10 notes",
          "clipColor": 1,
          "name": null
        },
        {
          "id": "track_midi_20_7_clip_19",
          "trackId": "track_midi_20_7",
          "clipType": "midi",
          "start": 0,
          "end": 32,
          "loop": true,
          "sourceRef": null,
          "midiNoteCount": 10,
          "midiNotes": [
            {
              "pitch": 60,
              "time": 11,
              "duration": 0.25,
              "velocity": 13
            },
            {
              "pitch": 60,
              "time": 11.25,
              "duration": 0.25,
              "velocity": 63
            },
            {
              "pitch": 60,
              "time": 11.5,
              "duration": 0.25,
              "velocity": 100
            },
            {
              "pitch": 60,
              "time": 27,
              "duration": 0.25,
              "velocity": 13
            },
            {
              "pitch": 60,
              "time": 27.25,
              "duration": 0.25,
              "velocity": 63
            },
            {
              "pitch": 60,
              "time": 27.5,
              "duration": 0.25,
              "velocity": 100
            },
            {
              "pitch": 60,
              "time": 28,
              "duration": 0.25,
              "velocity": 13
            },
            {
              "pitch": 60,
              "time": 28.25,
              "duration": 0.25,
              "velocity": 13
            },
            {
              "pitch": 60,
              "time": 28.5,
              "duration": 0.25,
              "velocity": 63
            },
            {
              "pitch": 60,
              "time": 28.75,
              "duration": 0.25,
              "velocity": 100
            }
          ],
          "gainInfo": 1,
          "contentSummary": "midi clip, 8.0 bars, 10 notes",
          "clipColor": 1,
          "name": null
        },
        {
          "id": "track_midi_20_7_clip_20",
          "trackId": "track_midi_20_7",
          "clipType": "midi",
          "start": 0,
          "end": 32,
          "loop": true,
          "sourceRef": null,
          "midiNoteCount": 10,
          "midiNotes": [
            {
              "pitch": 60,
              "time": 11,
              "duration": 0.25,
              "velocity": 13
            },
            {
              "pitch": 60,
              "time": 11.25,
              "duration": 0.25,
              "velocity": 63
            },
            {
              "pitch": 60,
              "time": 11.5,
              "duration": 0.25,
              "velocity": 100
            },
            {
              "pitch": 60,
              "time": 27,
              "duration": 0.25,
              "velocity": 13
            },
            {
              "pitch": 60,
              "time": 27.25,
              "duration": 0.25,
              "velocity": 63
            },
            {
              "pitch": 60,
              "time": 27.5,
              "duration": 0.25,
              "velocity": 100
            },
            {
              "pitch": 60,
              "time": 28,
              "duration": 0.25,
              "velocity": 13
            },
            {
              "pitch": 60,
              "time": 28.25,
              "duration": 0.25,
              "velocity": 13
            },
            {
              "pitch": 60,
              "time": 28.5,
              "duration": 0.25,
              "velocity": 63
            },
            {
              "pitch": 60,
              "time": 28.75,
              "duration": 0.25,
              "velocity": 100
            }
          ],
          "gainInfo": 1,
          "contentSummary": "midi clip, 8.0 bars, 10 notes",
          "clipColor": 1,
          "name": null
        },
        {
          "id": "track_midi_20_7_clip_21",
          "trackId": "track_midi_20_7",
          "clipType": "midi",
          "start": 0,
          "end": 32,
          "loop": true,
          "sourceRef": null,
          "midiNoteCount": 10,
          "midiNotes": [
            {
              "pitch": 60,
              "time": 11,
              "duration": 0.25,
              "velocity": 13
            },
            {
              "pitch": 60,
              "time": 11.25,
              "duration": 0.25,
              "velocity": 63
            },
            {
              "pitch": 60,
              "time": 11.5,
              "duration": 0.25,
              "velocity": 100
            },
            {
              "pitch": 60,
              "time": 27,
              "duration": 0.25,
              "velocity": 13
            },
            {
              "pitch": 60,
              "time": 27.25,
              "duration": 0.25,
              "velocity": 63
            },
            {
              "pitch": 60,
              "time": 27.5,
              "duration": 0.25,
              "velocity": 100
            },
            {
              "pitch": 60,
              "time": 28,
              "duration": 0.25,
              "velocity": 13
            },
            {
              "pitch": 60,
              "time": 28.25,
              "duration": 0.25,
              "velocity": 13
            },
            {
              "pitch": 60,
              "time": 28.5,
              "duration": 0.25,
              "velocity": 63
            },
            {
              "pitch": 60,
              "time": 28.75,
              "duration": 0.25,
              "velocity": 100
            }
          ],
          "gainInfo": 1,
          "contentSummary": "midi clip, 8.0 bars, 10 notes",
          "clipColor": 1,
          "name": null
        },
        {
          "id": "track_midi_20_7_clip_22",
          "trackId": "track_midi_20_7",
          "clipType": "midi",
          "start": 0,
          "end": 32,
          "loop": true,
          "sourceRef": null,
          "midiNoteCount": 10,
          "midiNotes": [
            {
              "pitch": 60,
              "time": 11,
              "duration": 0.25,
              "velocity": 13
            },
            {
              "pitch": 60,
              "time": 11.25,
              "duration": 0.25,
              "velocity": 63
            },
            {
              "pitch": 60,
              "time": 11.5,
              "duration": 0.25,
              "velocity": 100
            },
            {
              "pitch": 60,
              "time": 27,
              "duration": 0.25,
              "velocity": 13
            },
            {
              "pitch": 60,
              "time": 27.25,
              "duration": 0.25,
              "velocity": 63
            },
            {
              "pitch": 60,
              "time": 27.5,
              "duration": 0.25,
              "velocity": 100
            },
            {
              "pitch": 60,
              "time": 28,
              "duration": 0.25,
              "velocity": 13
            },
            {
              "pitch": 60,
              "time": 28.25,
              "duration": 0.25,
              "velocity": 13
            },
            {
              "pitch": 60,
              "time": 28.5,
              "duration": 0.25,
              "velocity": 63
            },
            {
              "pitch": 60,
              "time": 28.75,
              "duration": 0.25,
              "velocity": 100
            }
          ],
          "gainInfo": 1,
          "contentSummary": "midi clip, 8.0 bars, 10 notes",
          "clipColor": 1,
          "name": null
        },
        {
          "id": "track_midi_20_7_clip_23",
          "trackId": "track_midi_20_7",
          "clipType": "midi",
          "start": 0,
          "end": 32,
          "loop": true,
          "sourceRef": null,
          "midiNoteCount": 10,
          "midiNotes": [
            {
              "pitch": 60,
              "time": 11,
              "duration": 0.25,
              "velocity": 13
            },
            {
              "pitch": 60,
              "time": 11.25,
              "duration": 0.25,
              "velocity": 63
            },
            {
              "pitch": 60,
              "time": 11.5,
              "duration": 0.25,
              "velocity": 100
            },
            {
              "pitch": 60,
              "time": 27,
              "duration": 0.25,
              "velocity": 13
            },
            {
              "pitch": 60,
              "time": 27.25,
              "duration": 0.25,
              "velocity": 63
            },
            {
              "pitch": 60,
              "time": 27.5,
              "duration": 0.25,
              "velocity": 100
            },
            {
              "pitch": 60,
              "time": 28,
              "duration": 0.25,
              "velocity": 13
            },
            {
              "pitch": 60,
              "time": 28.25,
              "duration": 0.25,
              "velocity": 13
            },
            {
              "pitch": 60,
              "time": 28.5,
              "duration": 0.25,
              "velocity": 63
            },
            {
              "pitch": 60,
              "time": 28.75,
              "duration": 0.25,
              "velocity": 100
            }
          ],
          "gainInfo": 1,
          "contentSummary": "midi clip, 8.0 bars, 10 notes",
          "clipColor": 1,
          "name": null
        },
        {
          "id": "track_midi_20_7_clip_24",
          "trackId": "track_midi_20_7",
          "clipType": "midi",
          "start": 0,
          "end": 32,
          "loop": true,
          "sourceRef": null,
          "midiNoteCount": 10,
          "midiNotes": [
            {
              "pitch": 60,
              "time": 11,
              "duration": 0.25,
              "velocity": 13
            },
            {
              "pitch": 60,
              "time": 11.25,
              "duration": 0.25,
              "velocity": 63
            },
            {
              "pitch": 60,
              "time": 11.5,
              "duration": 0.25,
              "velocity": 100
            },
            {
              "pitch": 60,
              "time": 27,
              "duration": 0.25,
              "velocity": 13
            },
            {
              "pitch": 60,
              "time": 27.25,
              "duration": 0.25,
              "velocity": 63
            },
            {
              "pitch": 60,
              "time": 27.5,
              "duration": 0.25,
              "velocity": 100
            },
            {
              "pitch": 60,
              "time": 28,
              "duration": 0.25,
              "velocity": 13
            },
            {
              "pitch": 60,
              "time": 28.25,
              "duration": 0.25,
              "velocity": 13
            },
            {
              "pitch": 60,
              "time": 28.5,
              "duration": 0.25,
              "velocity": 63
            },
            {
              "pitch": 60,
              "time": 28.75,
              "duration": 0.25,
              "velocity": 100
            }
          ],
          "gainInfo": 1,
          "contentSummary": "midi clip, 8.0 bars, 10 notes",
          "clipColor": 1,
          "name": null
        },
        {
          "id": "track_midi_20_7_clip_25",
          "trackId": "track_midi_20_7",
          "clipType": "midi",
          "start": 0,
          "end": 32,
          "loop": true,
          "sourceRef": null,
          "midiNoteCount": 10,
          "midiNotes": [
            {
              "pitch": 60,
              "time": 11,
              "duration": 0.25,
              "velocity": 13
            },
            {
              "pitch": 60,
              "time": 11.25,
              "duration": 0.25,
              "velocity": 63
            },
            {
              "pitch": 60,
              "time": 11.5,
              "duration": 0.25,
              "velocity": 100
            },
            {
              "pitch": 60,
              "time": 27,
              "duration": 0.25,
              "velocity": 13
            },
            {
              "pitch": 60,
              "time": 27.25,
              "duration": 0.25,
              "velocity": 63
            },
            {
              "pitch": 60,
              "time": 27.5,
              "duration": 0.25,
              "velocity": 100
            },
            {
              "pitch": 60,
              "time": 28,
              "duration": 0.25,
              "velocity": 13
            },
            {
              "pitch": 60,
              "time": 28.25,
              "duration": 0.25,
              "velocity": 13
            },
            {
              "pitch": 60,
              "time": 28.5,
              "duration": 0.25,
              "velocity": 63
            },
            {
              "pitch": 60,
              "time": 28.75,
              "duration": 0.25,
              "velocity": 100
            }
          ],
          "gainInfo": 1,
          "contentSummary": "midi clip, 8.0 bars, 10 notes",
          "clipColor": 1,
          "name": null
        }
      ],
      "automationLanes": [],
      "routing": {
        "audioInput": {
          "target": "AudioIn/External/S0",
          "upper": "Ext. In",
          "lower": "1/2"
        },
        "audioOutput": {
          "target": "AudioOut/Main",
          "upper": "Main",
          "lower": ""
        }
      },
      "warnings": []
    },
    {
      "id": "track_midi_22_8",
      "name": "9-XFSDT Floor Tom 2",
      "type": "midi",
      "parentGroupId": null,
      "orderIndex": 8,
      "muted": false,
      "solo": false,
      "frozen": false,
      "armed": false,
      "color": null,
      "inferredRole": "percussion",
      "inferredConfidence": 0.9157894736842105,
      "clipCount": 2,
      "deviceCount": 5,
      "automationPoints": 0,
      "devices": [
        {
          "id": "track_midi_22_8_dev_0",
          "deviceClass": "OriginalSimpler",
          "pluginName": null,
          "enabled": true,
          "inferredPurpose": "sampler_instrument",
          "parameters": {},
          "hasSidechainInput": false
        },
        {
          "id": "track_midi_22_8_dev_1",
          "deviceClass": "Roar",
          "pluginName": null,
          "enabled": true,
          "inferredPurpose": "effect",
          "parameters": {},
          "hasSidechainInput": false
        },
        {
          "id": "track_midi_22_8_dev_2",
          "deviceClass": "Eq8",
          "pluginName": null,
          "enabled": true,
          "inferredPurpose": "eq_filter",
          "parameters": {},
          "hasSidechainInput": false
        },
        {
          "id": "track_midi_22_8_dev_3",
          "deviceClass": "Reverb",
          "pluginName": null,
          "enabled": true,
          "inferredPurpose": "reverb",
          "parameters": {},
          "hasSidechainInput": false
        },
        {
          "id": "track_midi_22_8_dev_4",
          "deviceClass": "AutoFilter",
          "pluginName": null,
          "enabled": true,
          "inferredPurpose": "eq_filter",
          "parameters": {},
          "hasSidechainInput": false
        }
      ],
      "clips": [
        {
          "id": "track_midi_22_8_clip_0",
          "trackId": "track_midi_22_8",
          "clipType": "midi",
          "start": 0,
          "end": 752,
          "loop": true,
          "sourceRef": null,
          "midiNoteCount": 9,
          "midiNotes": [
            {
              "pitch": 60,
              "time": 0,
              "duration": 0.25,
              "velocity": 100
            },
            {
              "pitch": 60,
              "time": 0.5,
              "duration": 0.25,
              "velocity": 100
            },
            {
              "pitch": 60,
              "time": 0.75,
              "duration": 0.25,
              "velocity": 100
            },
            {
              "pitch": 60,
              "time": 1.25,
              "duration": 0.25,
              "velocity": 100
            },
            {
              "pitch": 60,
              "time": 1.75,
              "duration": 0.25,
              "velocity": 100
            },
            {
              "pitch": 60,
              "time": 2.25,
              "duration": 0.25,
              "velocity": 100
            },
            {
              "pitch": 60,
              "time": 2.5,
              "duration": 0.25,
              "velocity": 100
            },
            {
              "pitch": 60,
              "time": 3,
              "duration": 0.25,
              "velocity": 100
            },
            {
              "pitch": 60,
              "time": 3.4947778783716283,
              "duration": 0.25,
              "velocity": 100
            }
          ],
          "gainInfo": 1,
          "contentSummary": "midi clip, 188.0 bars, 9 notes",
          "clipColor": 2,
          "name": null
        },
        {
          "id": "track_midi_22_8_clip_1",
          "trackId": "track_midi_22_8",
          "clipType": "midi",
          "start": 0,
          "end": 4,
          "loop": true,
          "sourceRef": null,
          "midiNoteCount": 9,
          "midiNotes": [
            {
              "pitch": 60,
              "time": 0,
              "duration": 0.25,
              "velocity": 100
            },
            {
              "pitch": 60,
              "time": 0.5,
              "duration": 0.25,
              "velocity": 100
            },
            {
              "pitch": 60,
              "time": 0.75,
              "duration": 0.25,
              "velocity": 100
            },
            {
              "pitch": 60,
              "time": 1.25,
              "duration": 0.25,
              "velocity": 100
            },
            {
              "pitch": 60,
              "time": 1.75,
              "duration": 0.25,
              "velocity": 100
            },
            {
              "pitch": 60,
              "time": 2.25,
              "duration": 0.25,
              "velocity": 100
            },
            {
              "pitch": 60,
              "time": 2.5,
              "duration": 0.25,
              "velocity": 100
            },
            {
              "pitch": 60,
              "time": 3,
              "duration": 0.25,
              "velocity": 100
            },
            {
              "pitch": 60,
              "time": 3.4947778783716283,
              "duration": 0.25,
              "velocity": 100
            }
          ],
          "gainInfo": 1,
          "contentSummary": "midi clip, 1.0 bars, 9 notes",
          "clipColor": 2,
          "name": null
        }
      ],
      "automationLanes": [],
      "routing": {
        "audioInput": {
          "target": "AudioIn/External/S0",
          "upper": "Ext. In",
          "lower": "1/2"
        },
        "audioOutput": {
          "target": "AudioOut/Main",
          "upper": "Main",
          "lower": ""
        }
      },
      "warnings": []
    },
    {
      "id": "track_midi_32_9",
      "name": "effect 1",
      "type": "midi",
      "parentGroupId": null,
      "orderIndex": 9,
      "muted": false,
      "solo": false,
      "frozen": false,
      "armed": false,
      "color": null,
      "inferredRole": "percussion",
      "inferredConfidence": 0.55,
      "clipCount": 9,
      "deviceCount": 6,
      "automationPoints": 0,
      "devices": [
        {
          "id": "track_midi_32_9_dev_0",
          "deviceClass": "AuPluginDevice",
          "pluginName": "ARP 2600 V3",
          "enabled": true,
          "inferredPurpose": "effect",
          "parameters": {},
          "hasSidechainInput": false
        },
        {
          "id": "track_midi_32_9_dev_1",
          "deviceClass": "DrumBuss",
          "pluginName": null,
          "enabled": true,
          "inferredPurpose": "drum_machine",
          "parameters": {},
          "hasSidechainInput": false
        },
        {
          "id": "track_midi_32_9_dev_2",
          "deviceClass": "Reverb",
          "pluginName": null,
          "enabled": true,
          "inferredPurpose": "reverb",
          "parameters": {},
          "hasSidechainInput": false
        },
        {
          "id": "track_midi_32_9_dev_3",
          "deviceClass": "Delay",
          "pluginName": null,
          "enabled": true,
          "inferredPurpose": "delay",
          "parameters": {},
          "hasSidechainInput": false
        },
        {
          "id": "track_midi_32_9_dev_4",
          "deviceClass": "Roar",
          "pluginName": null,
          "enabled": true,
          "inferredPurpose": "effect",
          "parameters": {},
          "hasSidechainInput": false
        },
        {
          "id": "track_midi_32_9_dev_5",
          "deviceClass": "PluginDevice",
          "pluginName": null,
          "enabled": true,
          "inferredPurpose": "effect",
          "parameters": {},
          "hasSidechainInput": false
        }
      ],
      "clips": [
        {
          "id": "track_midi_32_9_clip_0",
          "trackId": "track_midi_32_9",
          "clipType": "midi",
          "start": 64.78135146103897,
          "end": 192,
          "loop": false,
          "sourceRef": null,
          "midiNoteCount": 254,
          "midiNotes": [
            {
              "pitch": 41,
              "time": 2.9999908945221447,
              "duration": 0.24794112137862137,
              "velocity": 39
            },
            {
              "pitch": 41,
              "time": 4.4999976585914085,
              "duration": 0.24794112137862137,
              "velocity": 39
            },
            {
              "pitch": 41,
              "time": 7.000009105477855,
              "duration": 0.24788882992007993,
              "velocity": 39
            },
            {
              "pitch": 41,
              "time": 8.50001586954712,
              "duration": 0.24788882992007993,
              "velocity": 39
            },
            {
              "pitch": 41,
              "time": 10.999975024975026,
              "duration": 0.24794112137862137,
              "velocity": 39
            },
            {
              "pitch": 41,
              "time": 12.49998178904429,
              "duration": 0.24794112137862137,
              "velocity": 39
            },
            {
              "pitch": 41,
              "time": 14.999993235930736,
              "duration": 0.24794112137862137,
              "velocity": 39
            },
            {
              "pitch": 41,
              "time": 16.5,
              "duration": 0.24794112137862137,
              "velocity": 39
            },
            {
              "pitch": 41,
              "time": 19.000011446886447,
              "duration": 0.24788882992007993,
              "velocity": 39
            },
            {
              "pitch": 41,
              "time": 20.500018210955712,
              "duration": 0.24788882992007993,
              "velocity": 39
            },
            {
              "pitch": 41,
              "time": 22.999977366383618,
              "duration": 0.24794112137862137,
              "velocity": 39
            },
            {
              "pitch": 41,
              "time": 24.49998413045288,
              "duration": 0.24794112137862137,
              "velocity": 39
            },
            {
              "pitch": 41,
              "time": 26.999995577339327,
              "duration": 0.24794086122211123,
              "velocity": 39
            },
            {
              "pitch": 41,
              "time": 28.500002341408592,
              "duration": 0.24788882992007993,
              "velocity": 39
            },
            {
              "pitch": 41,
              "time": 31.000013528138528,
              "duration": 0.24788909007659007,
              "velocity": 39
            },
            {
              "pitch": 41,
              "time": 32.50002029220779,
              "duration": 0.24788909007659007,
              "velocity": 39
            },
            {
              "pitch": 41,
              "time": 34.99997970779221,
              "duration": 0.24794086122211123,
              "velocity": 39
            },
            {
              "pitch": 41,
              "time": 36.49998647186147,
              "duration": 0.24794086122211123,
              "velocity": 39
            },
            {
              "pitch": 41,
              "time": 38.99999765859141,
              "duration": 0.24794112137862137,
              "velocity": 39
            },
            {
              "pitch": 41,
              "time": 40.50000442266067,
              "duration": 0.24788909007659007,
              "velocity": 39
            },
            {
              "pitch": 41,
              "time": 43.00001586954712,
              "duration": 0.24788882992007993,
              "velocity": 39
            },
            {
              "pitch": 41,
              "time": 44.50002263361638,
              "duration": 0.24788882992007993,
              "velocity": 39
            },
            {
              "pitch": 41,
              "time": 46.99998178904429,
              "duration": 0.24794112137862137,
              "velocity": 39
            },
            {
              "pitch": 41,
              "time": 48.49998855311355,
              "duration": 0.24794112137862137,
              "velocity": 39
            },
            {
              "pitch": 41,
              "time": 51,
              "duration": 0.24794112137862137,
              "velocity": 39
            },
            {
              "pitch": 41,
              "time": 52.50000676406926,
              "duration": 0.24788882992007993,
              "velocity": 39
            },
            {
              "pitch": 41,
              "time": 55.00001821095571,
              "duration": 0.24788882992007993,
              "velocity": 39
            },
            {
              "pitch": 41,
              "time": 56.50002497502498,
              "duration": 0.24788882992007993,
              "velocity": 39
            },
            {
              "pitch": 41,
              "time": 58.99998413045288,
              "duration": 0.24794112137862137,
              "velocity": 39
            },
            {
              "pitch": 41,
              "time": 60.49999089452214,
              "duration": 0.24794112137862137,
              "velocity": 39
            },
            {
              "pitch": 41,
              "time": 63.00000234140859,
              "duration": 0.24788882992007993,
              "velocity": 39
            },
            {
              "pitch": 41,
              "time": 64.50000910547786,
              "duration": 0.24788882992007993,
              "velocity": 39
            },
            {
              "pitch": 41,
              "time": 67.0000202922078,
              "duration": 0.24788909007659007,
              "velocity": 39
            },
            {
              "pitch": 41,
              "time": 68.49997502497503,
              "duration": 0.24794112137862137,
              "velocity": 39
            },
            {
              "pitch": 41,
              "time": 70.99998647186148,
              "duration": 0.24794086122211123,
              "velocity": 39
            },
            {
              "pitch": 41,
              "time": 72.49999323593073,
              "duration": 0.24794112137862137,
              "velocity": 39
            },
            {
              "pitch": 41,
              "time": 75.00000442266067,
              "duration": 0.24788909007659007,
              "velocity": 39
            },
            {
              "pitch": 41,
              "time": 76.50001144688645,
              "duration": 0.24788882992007993,
              "velocity": 39
            },
            {
              "pitch": 41,
              "time": 79.00002263361638,
              "duration": 0.24788882992007993,
              "velocity": 39
            },
            {
              "pitch": 41,
              "time": 80.49997736638362,
              "duration": 0.24794112137862137,
              "velocity": 39
            },
            {
              "pitch": 41,
              "time": 82.99998855311355,
              "duration": 0.24794112137862137,
              "velocity": 39
            },
            {
              "pitch": 41,
              "time": 84.49999557733933,
              "duration": 0.24794086122211123,
              "velocity": 39
            },
            {
              "pitch": 41,
              "time": 87.00000676406927,
              "duration": 0.24788882992007993,
              "velocity": 39
            },
            {
              "pitch": 41,
              "time": 88.50001352813852,
              "duration": 0.24788909007659007,
              "velocity": 39
            },
            {
              "pitch": 41,
              "time": 91.00002497502497,
              "duration": 0.24788882992007993,
              "velocity": 39
            },
            {
              "pitch": 41,
              "time": 92.4999797077922,
              "duration": 0.24794086122211123,
              "velocity": 39
            },
            {
              "pitch": 41,
              "time": 94.99999089452214,
              "duration": 0.24794112137862137,
              "velocity": 39
            },
            {
              "pitch": 41,
              "time": 96.49999765859141,
              "duration": 0.24794112137862137,
              "velocity": 39
            },
            {
              "pitch": 41,
              "time": 99.00000910547786,
              "duration": 0.24788882992007993,
              "velocity": 39
            },
            {
              "pitch": 41,
              "time": 100.50001586954711,
              "duration": 0.24788882992007993,
              "velocity": 39
            },
            {
              "pitch": 41,
              "time": 102.99997502497503,
              "duration": 0.24794112137862137,
              "velocity": 39
            },
            {
              "pitch": 41,
              "time": 104.49998178904428,
              "duration": 0.24794112137862137,
              "velocity": 39
            },
            {
              "pitch": 41,
              "time": 106.99999323593073,
              "duration": 0.24794112137862137,
              "velocity": 39
            },
            {
              "pitch": 41,
              "time": 108.5,
              "duration": 0.24794112137862137,
              "velocity": 39
            },
            {
              "pitch": 41,
              "time": 111.00001144688645,
              "duration": 0.24788882992007993,
              "velocity": 39
            },
            {
              "pitch": 41,
              "time": 112.50001821095572,
              "duration": 0.24788882992007993,
              "velocity": 39
            },
            {
              "pitch": 41,
              "time": 114.99997736638362,
              "duration": 0.24794112137862137,
              "velocity": 39
            },
            {
              "pitch": 41,
              "time": 116.49998413045289,
              "duration": 0.24794112137862137,
              "velocity": 39
            },
            {
              "pitch": 41,
              "time": 118.99999557733933,
              "duration": 0.24794086122211123,
              "velocity": 39
            },
            {
              "pitch": 41,
              "time": 120.50000234140859,
              "duration": 0.24788882992007993,
              "velocity": 39
            },
            {
              "pitch": 41,
              "time": 123.00001352813852,
              "duration": 0.24788909007659007,
              "velocity": 39
            },
            {
              "pitch": 41,
              "time": 124.5000202922078,
              "duration": 0.24788909007659007,
              "velocity": 39
            },
            {
              "pitch": 41,
              "time": 126.9999797077922,
              "duration": 0.24794086122211123,
              "velocity": 39
            },
            {
              "pitch": 44,
              "time": 0.999981789044289,
              "duration": 0.24794112137862137,
              "velocity": 64
            },
            {
              "pitch": 44,
              "time": 2.4999885531135533,
              "duration": 0.24794112137862137,
              "velocity": 64
            },
            {
              "pitch": 44,
              "time": 5,
              "duration": 0.24794112137862137,
              "velocity": 64
            },
            {
              "pitch": 44,
              "time": 6.500006764069264,
              "duration": 0.24788882992007993,
              "velocity": 64
            },
            {
              "pitch": 44,
              "time": 9.00001821095571,
              "duration": 0.24788882992007993,
              "velocity": 64
            },
            {
              "pitch": 44,
              "time": 10.500024975024974,
              "duration": 0.24788882992007993,
              "velocity": 64
            },
            {
              "pitch": 44,
              "time": 12.99998413045288,
              "duration": 0.24794112137862137,
              "velocity": 64
            },
            {
              "pitch": 44,
              "time": 14.499990894522144,
              "duration": 0.24794112137862137,
              "velocity": 64
            },
            {
              "pitch": 44,
              "time": 17.000002341408592,
              "duration": 0.24788882992007993,
              "velocity": 64
            },
            {
              "pitch": 44,
              "time": 18.500009105477854,
              "duration": 0.24788882992007993,
              "velocity": 64
            },
            {
              "pitch": 44,
              "time": 21.000020292207793,
              "duration": 0.24788909007659007,
              "velocity": 64
            },
            {
              "pitch": 44,
              "time": 22.499975024975026,
              "duration": 0.24794112137862137,
              "velocity": 64
            },
            {
              "pitch": 44,
              "time": 24.999986471861472,
              "duration": 0.24794086122211123,
              "velocity": 64
            },
            {
              "pitch": 44,
              "time": 26.499993235930734,
              "duration": 0.24794112137862137,
              "velocity": 64
            },
            {
              "pitch": 44,
              "time": 29.000004422660673,
              "duration": 0.24788909007659007,
              "velocity": 64
            },
            {
              "pitch": 44,
              "time": 30.500011446886447,
              "duration": 0.24788882992007993,
              "velocity": 64
            },
            {
              "pitch": 44,
              "time": 33.00002263361638,
              "duration": 0.24788882992007993,
              "velocity": 64
            },
            {
              "pitch": 44,
              "time": 34.49997736638362,
              "duration": 0.24794112137862137,
              "velocity": 64
            },
            {
              "pitch": 44,
              "time": 36.99998855311355,
              "duration": 0.24794112137862137,
              "velocity": 64
            },
            {
              "pitch": 44,
              "time": 38.49999557733933,
              "duration": 0.24794086122211123,
              "velocity": 64
            },
            {
              "pitch": 44,
              "time": 41.00000676406926,
              "duration": 0.24788882992007993,
              "velocity": 64
            },
            {
              "pitch": 44,
              "time": 42.50001352813853,
              "duration": 0.24788909007659007,
              "velocity": 64
            },
            {
              "pitch": 44,
              "time": 45.00002497502498,
              "duration": 0.24788882992007993,
              "velocity": 64
            },
            {
              "pitch": 44,
              "time": 46.49997970779221,
              "duration": 0.24794086122211123,
              "velocity": 64
            },
            {
              "pitch": 44,
              "time": 48.99999089452214,
              "duration": 0.24794112137862137,
              "velocity": 64
            },
            {
              "pitch": 44,
              "time": 50.49999765859141,
              "duration": 0.24794112137862137,
              "velocity": 64
            },
            {
              "pitch": 44,
              "time": 53.00000910547786,
              "duration": 0.24788882992007993,
              "velocity": 64
            },
            {
              "pitch": 44,
              "time": 54.50001586954712,
              "duration": 0.24788882992007993,
              "velocity": 64
            },
            {
              "pitch": 44,
              "time": 56.99997502497502,
              "duration": 0.24794112137862137,
              "velocity": 64
            },
            {
              "pitch": 44,
              "time": 58.49998178904429,
              "duration": 0.24794112137862137,
              "velocity": 64
            },
            {
              "pitch": 44,
              "time": 60.99999323593074,
              "duration": 0.24794112137862137,
              "velocity": 64
            },
            {
              "pitch": 44,
              "time": 62.5,
              "duration": 0.24794112137862137,
              "velocity": 64
            },
            {
              "pitch": 44,
              "time": 65.00001144688645,
              "duration": 0.24788882992007993,
              "velocity": 64
            },
            {
              "pitch": 44,
              "time": 66.50001821095572,
              "duration": 0.24788882992007993,
              "velocity": 64
            },
            {
              "pitch": 44,
              "time": 68.99997736638362,
              "duration": 0.24794112137862137,
              "velocity": 64
            },
            {
              "pitch": 44,
              "time": 70.49998413045289,
              "duration": 0.24794112137862137,
              "velocity": 64
            },
            {
              "pitch": 44,
              "time": 72.99999557733933,
              "duration": 0.24794086122211123,
              "velocity": 64
            },
            {
              "pitch": 44,
              "time": 74.50000234140859,
              "duration": 0.24788882992007993,
              "velocity": 64
            },
            {
              "pitch": 44,
              "time": 77.00001352813852,
              "duration": 0.24788909007659007,
              "velocity": 64
            },
            {
              "pitch": 44,
              "time": 78.5000202922078,
              "duration": 0.24788909007659007,
              "velocity": 64
            },
            {
              "pitch": 44,
              "time": 80.9999797077922,
              "duration": 0.24794086122211123,
              "velocity": 64
            },
            {
              "pitch": 44,
              "time": 82.49998647186148,
              "duration": 0.24794086122211123,
              "velocity": 64
            },
            {
              "pitch": 44,
              "time": 84.99999765859141,
              "duration": 0.24794112137862137,
              "velocity": 64
            },
            {
              "pitch": 44,
              "time": 86.50000442266067,
              "duration": 0.24788909007659007,
              "velocity": 64
            },
            {
              "pitch": 44,
              "time": 89.00001586954711,
              "duration": 0.24788882992007993,
              "velocity": 64
            },
            {
              "pitch": 44,
              "time": 90.50002263361638,
              "duration": 0.24788882992007993,
              "velocity": 64
            },
            {
              "pitch": 44,
              "time": 92.99998178904428,
              "duration": 0.24794112137862137,
              "velocity": 64
            },
            {
              "pitch": 44,
              "time": 94.49998855311355,
              "duration": 0.24794112137862137,
              "velocity": 64
            },
            {
              "pitch": 44,
              "time": 97,
              "duration": 0.24794112137862137,
              "velocity": 64
            },
            {
              "pitch": 44,
              "time": 98.50000676406927,
              "duration": 0.24788882992007993,
              "velocity": 64
            },
            {
              "pitch": 44,
              "time": 101.00001821095572,
              "duration": 0.24788882992007993,
              "velocity": 64
            },
            {
              "pitch": 44,
              "time": 102.50002497502497,
              "duration": 0.24788882992007993,
              "velocity": 64
            },
            {
              "pitch": 44,
              "time": 104.99998413045289,
              "duration": 0.24794112137862137,
              "velocity": 64
            },
            {
              "pitch": 44,
              "time": 106.49999089452214,
              "duration": 0.24794112137862137,
              "velocity": 64
            },
            {
              "pitch": 44,
              "time": 109.00000234140859,
              "duration": 0.24788882992007993,
              "velocity": 64
            },
            {
              "pitch": 44,
              "time": 110.50000910547786,
              "duration": 0.24788882992007993,
              "velocity": 64
            },
            {
              "pitch": 44,
              "time": 113.0000202922078,
              "duration": 0.24788909007659007,
              "velocity": 64
            },
            {
              "pitch": 44,
              "time": 114.49997502497503,
              "duration": 0.24794112137862137,
              "velocity": 64
            },
            {
              "pitch": 44,
              "time": 116.99998647186148,
              "duration": 0.24794086122211123,
              "velocity": 64
            },
            {
              "pitch": 44,
              "time": 118.49999323593073,
              "duration": 0.24794112137862137,
              "velocity": 64
            },
            {
              "pitch": 44,
              "time": 121.00000442266067,
              "duration": 0.24788909007659007,
              "velocity": 64
            },
            {
              "pitch": 44,
              "time": 122.50001144688645,
              "duration": 0.24788882992007993,
              "velocity": 64
            },
            {
              "pitch": 44,
              "time": 125.00002263361638,
              "duration": 0.24788882992007993,
              "velocity": 64
            },
            {
              "pitch": 44,
              "time": 126.49997736638362,
              "duration": 0.24794112137862137,
              "velocity": 64
            },
            {
              "pitch": 69,
              "time": 1.4999841304528805,
              "duration": 0.24794112137862137,
              "velocity": 3
            }
          ],
          "gainInfo": 1,
          "contentSummary": "midi clip, 31.8 bars, 254 notes",
          "clipColor": 10,
          "name": "ARP 2600 V3 3"
        },
        {
          "id": "track_midi_32_9_clip_1",
          "trackId": "track_midi_32_9",
          "clipType": "midi",
          "start": 192,
          "end": 319.218648538961,
          "loop": false,
          "sourceRef": null,
          "midiNoteCount": 254,
          "midiNotes": [
            {
              "pitch": 41,
              "time": 2.9999908945221447,
              "duration": 0.24794112137862137,
              "velocity": 39
            },
            {
              "pitch": 41,
              "time": 4.4999976585914085,
              "duration": 0.24794112137862137,
              "velocity": 39
            },
            {
              "pitch": 41,
              "time": 7.000009105477855,
              "duration": 0.24788882992007993,
              "velocity": 39
            },
            {
              "pitch": 41,
              "time": 8.50001586954712,
              "duration": 0.24788882992007993,
              "velocity": 39
            },
            {
              "pitch": 41,
              "time": 10.999975024975026,
              "duration": 0.24794112137862137,
              "velocity": 39
            },
            {
              "pitch": 41,
              "time": 12.49998178904429,
              "duration": 0.24794112137862137,
              "velocity": 39
            },
            {
              "pitch": 41,
              "time": 14.999993235930736,
              "duration": 0.24794112137862137,
              "velocity": 39
            },
            {
              "pitch": 41,
              "time": 16.5,
              "duration": 0.24794112137862137,
              "velocity": 39
            },
            {
              "pitch": 41,
              "time": 19.000011446886447,
              "duration": 0.24788882992007993,
              "velocity": 39
            },
            {
              "pitch": 41,
              "time": 20.500018210955712,
              "duration": 0.24788882992007993,
              "velocity": 39
            },
            {
              "pitch": 41,
              "time": 22.999977366383618,
              "duration": 0.24794112137862137,
              "velocity": 39
            },
            {
              "pitch": 41,
              "time": 24.49998413045288,
              "duration": 0.24794112137862137,
              "velocity": 39
            },
            {
              "pitch": 41,
              "time": 26.999995577339327,
              "duration": 0.24794086122211123,
              "velocity": 39
            },
            {
              "pitch": 41,
              "time": 28.500002341408592,
              "duration": 0.24788882992007993,
              "velocity": 39
            },
            {
              "pitch": 41,
              "time": 31.000013528138528,
              "duration": 0.24788909007659007,
              "velocity": 39
            },
            {
              "pitch": 41,
              "time": 32.50002029220779,
              "duration": 0.24788909007659007,
              "velocity": 39
            },
            {
              "pitch": 41,
              "time": 34.99997970779221,
              "duration": 0.24794086122211123,
              "velocity": 39
            },
            {
              "pitch": 41,
              "time": 36.49998647186147,
              "duration": 0.24794086122211123,
              "velocity": 39
            },
            {
              "pitch": 41,
              "time": 38.99999765859141,
              "duration": 0.24794112137862137,
              "velocity": 39
            },
            {
              "pitch": 41,
              "time": 40.50000442266067,
              "duration": 0.24788909007659007,
              "velocity": 39
            },
            {
              "pitch": 41,
              "time": 43.00001586954712,
              "duration": 0.24788882992007993,
              "velocity": 39
            },
            {
              "pitch": 41,
              "time": 44.50002263361638,
              "duration": 0.24788882992007993,
              "velocity": 39
            },
            {
              "pitch": 41,
              "time": 46.99998178904429,
              "duration": 0.24794112137862137,
              "velocity": 39
            },
            {
              "pitch": 41,
              "time": 48.49998855311355,
              "duration": 0.24794112137862137,
              "velocity": 39
            },
            {
              "pitch": 41,
              "time": 51,
              "duration": 0.24794112137862137,
              "velocity": 39
            },
            {
              "pitch": 41,
              "time": 52.50000676406926,
              "duration": 0.24788882992007993,
              "velocity": 39
            },
            {
              "pitch": 41,
              "time": 55.00001821095571,
              "duration": 0.24788882992007993,
              "velocity": 39
            },
            {
              "pitch": 41,
              "time": 56.50002497502498,
              "duration": 0.24788882992007993,
              "velocity": 39
            },
            {
              "pitch": 41,
              "time": 58.99998413045288,
              "duration": 0.24794112137862137,
              "velocity": 39
            },
            {
              "pitch": 41,
              "time": 60.49999089452214,
              "duration": 0.24794112137862137,
              "velocity": 39
            },
            {
              "pitch": 41,
              "time": 63.00000234140859,
              "duration": 0.24788882992007993,
              "velocity": 39
            },
            {
              "pitch": 41,
              "time": 64.50000910547786,
              "duration": 0.24788882992007993,
              "velocity": 39
            },
            {
              "pitch": 41,
              "time": 67.0000202922078,
              "duration": 0.24788909007659007,
              "velocity": 39
            },
            {
              "pitch": 41,
              "time": 68.49997502497503,
              "duration": 0.24794112137862137,
              "velocity": 39
            },
            {
              "pitch": 41,
              "time": 70.99998647186148,
              "duration": 0.24794086122211123,
              "velocity": 39
            },
            {
              "pitch": 41,
              "time": 72.49999323593073,
              "duration": 0.24794112137862137,
              "velocity": 39
            },
            {
              "pitch": 41,
              "time": 75.00000442266067,
              "duration": 0.24788909007659007,
              "velocity": 39
            },
            {
              "pitch": 41,
              "time": 76.50001144688645,
              "duration": 0.24788882992007993,
              "velocity": 39
            },
            {
              "pitch": 41,
              "time": 79.00002263361638,
              "duration": 0.24788882992007993,
              "velocity": 39
            },
            {
              "pitch": 41,
              "time": 80.49997736638362,
              "duration": 0.24794112137862137,
              "velocity": 39
            },
            {
              "pitch": 41,
              "time": 82.99998855311355,
              "duration": 0.24794112137862137,
              "velocity": 39
            },
            {
              "pitch": 41,
              "time": 84.49999557733933,
              "duration": 0.24794086122211123,
              "velocity": 39
            },
            {
              "pitch": 41,
              "time": 87.00000676406927,
              "duration": 0.24788882992007993,
              "velocity": 39
            },
            {
              "pitch": 41,
              "time": 88.50001352813852,
              "duration": 0.24788909007659007,
              "velocity": 39
            },
            {
              "pitch": 41,
              "time": 91.00002497502497,
              "duration": 0.24788882992007993,
              "velocity": 39
            },
            {
              "pitch": 41,
              "time": 92.4999797077922,
              "duration": 0.24794086122211123,
              "velocity": 39
            },
            {
              "pitch": 41,
              "time": 94.99999089452214,
              "duration": 0.24794112137862137,
              "velocity": 39
            },
            {
              "pitch": 41,
              "time": 96.49999765859141,
              "duration": 0.24794112137862137,
              "velocity": 39
            },
            {
              "pitch": 41,
              "time": 99.00000910547786,
              "duration": 0.24788882992007993,
              "velocity": 39
            },
            {
              "pitch": 41,
              "time": 100.50001586954711,
              "duration": 0.24788882992007993,
              "velocity": 39
            },
            {
              "pitch": 41,
              "time": 102.99997502497503,
              "duration": 0.24794112137862137,
              "velocity": 39
            },
            {
              "pitch": 41,
              "time": 104.49998178904428,
              "duration": 0.24794112137862137,
              "velocity": 39
            },
            {
              "pitch": 41,
              "time": 106.99999323593073,
              "duration": 0.24794112137862137,
              "velocity": 39
            },
            {
              "pitch": 41,
              "time": 108.5,
              "duration": 0.24794112137862137,
              "velocity": 39
            },
            {
              "pitch": 41,
              "time": 111.00001144688645,
              "duration": 0.24788882992007993,
              "velocity": 39
            },
            {
              "pitch": 41,
              "time": 112.50001821095572,
              "duration": 0.24788882992007993,
              "velocity": 39
            },
            {
              "pitch": 41,
              "time": 114.99997736638362,
              "duration": 0.24794112137862137,
              "velocity": 39
            },
            {
              "pitch": 41,
              "time": 116.49998413045289,
              "duration": 0.24794112137862137,
              "velocity": 39
            },
            {
              "pitch": 41,
              "time": 118.99999557733933,
              "duration": 0.24794086122211123,
              "velocity": 39
            },
            {
              "pitch": 41,
              "time": 120.50000234140859,
              "duration": 0.24788882992007993,
              "velocity": 39
            },
            {
              "pitch": 41,
              "time": 123.00001352813852,
              "duration": 0.24788909007659007,
              "velocity": 39
            },
            {
              "pitch": 41,
              "time": 124.5000202922078,
              "duration": 0.24788909007659007,
              "velocity": 39
            },
            {
              "pitch": 41,
              "time": 126.9999797077922,
              "duration": 0.24794086122211123,
              "velocity": 39
            },
            {
              "pitch": 44,
              "time": 0.999981789044289,
              "duration": 0.24794112137862137,
              "velocity": 64
            },
            {
              "pitch": 44,
              "time": 2.4999885531135533,
              "duration": 0.24794112137862137,
              "velocity": 64
            },
            {
              "pitch": 44,
              "time": 5,
              "duration": 0.24794112137862137,
              "velocity": 64
            },
            {
              "pitch": 44,
              "time": 6.500006764069264,
              "duration": 0.24788882992007993,
              "velocity": 64
            },
            {
              "pitch": 44,
              "time": 9.00001821095571,
              "duration": 0.24788882992007993,
              "velocity": 64
            },
            {
              "pitch": 44,
              "time": 10.500024975024974,
              "duration": 0.24788882992007993,
              "velocity": 64
            },
            {
              "pitch": 44,
              "time": 12.99998413045288,
              "duration": 0.24794112137862137,
              "velocity": 64
            },
            {
              "pitch": 44,
              "time": 14.499990894522144,
              "duration": 0.24794112137862137,
              "velocity": 64
            },
            {
              "pitch": 44,
              "time": 17.000002341408592,
              "duration": 0.24788882992007993,
              "velocity": 64
            },
            {
              "pitch": 44,
              "time": 18.500009105477854,
              "duration": 0.24788882992007993,
              "velocity": 64
            },
            {
              "pitch": 44,
              "time": 21.000020292207793,
              "duration": 0.24788909007659007,
              "velocity": 64
            },
            {
              "pitch": 44,
              "time": 22.499975024975026,
              "duration": 0.24794112137862137,
              "velocity": 64
            },
            {
              "pitch": 44,
              "time": 24.999986471861472,
              "duration": 0.24794086122211123,
              "velocity": 64
            },
            {
              "pitch": 44,
              "time": 26.499993235930734,
              "duration": 0.24794112137862137,
              "velocity": 64
            },
            {
              "pitch": 44,
              "time": 29.000004422660673,
              "duration": 0.24788909007659007,
              "velocity": 64
            },
            {
              "pitch": 44,
              "time": 30.500011446886447,
              "duration": 0.24788882992007993,
              "velocity": 64
            },
            {
              "pitch": 44,
              "time": 33.00002263361638,
              "duration": 0.24788882992007993,
              "velocity": 64
            },
            {
              "pitch": 44,
              "time": 34.49997736638362,
              "duration": 0.24794112137862137,
              "velocity": 64
            },
            {
              "pitch": 44,
              "time": 36.99998855311355,
              "duration": 0.24794112137862137,
              "velocity": 64
            },
            {
              "pitch": 44,
              "time": 38.49999557733933,
              "duration": 0.24794086122211123,
              "velocity": 64
            },
            {
              "pitch": 44,
              "time": 41.00000676406926,
              "duration": 0.24788882992007993,
              "velocity": 64
            },
            {
              "pitch": 44,
              "time": 42.50001352813853,
              "duration": 0.24788909007659007,
              "velocity": 64
            },
            {
              "pitch": 44,
              "time": 45.00002497502498,
              "duration": 0.24788882992007993,
              "velocity": 64
            },
            {
              "pitch": 44,
              "time": 46.49997970779221,
              "duration": 0.24794086122211123,
              "velocity": 64
            },
            {
              "pitch": 44,
              "time": 48.99999089452214,
              "duration": 0.24794112137862137,
              "velocity": 64
            },
            {
              "pitch": 44,
              "time": 50.49999765859141,
              "duration": 0.24794112137862137,
              "velocity": 64
            },
            {
              "pitch": 44,
              "time": 53.00000910547786,
              "duration": 0.24788882992007993,
              "velocity": 64
            },
            {
              "pitch": 44,
              "time": 54.50001586954712,
              "duration": 0.24788882992007993,
              "velocity": 64
            },
            {
              "pitch": 44,
              "time": 56.99997502497502,
              "duration": 0.24794112137862137,
              "velocity": 64
            },
            {
              "pitch": 44,
              "time": 58.49998178904429,
              "duration": 0.24794112137862137,
              "velocity": 64
            },
            {
              "pitch": 44,
              "time": 60.99999323593074,
              "duration": 0.24794112137862137,
              "velocity": 64
            },
            {
              "pitch": 44,
              "time": 62.5,
              "duration": 0.24794112137862137,
              "velocity": 64
            },
            {
              "pitch": 44,
              "time": 65.00001144688645,
              "duration": 0.24788882992007993,
              "velocity": 64
            },
            {
              "pitch": 44,
              "time": 66.50001821095572,
              "duration": 0.24788882992007993,
              "velocity": 64
            },
            {
              "pitch": 44,
              "time": 68.99997736638362,
              "duration": 0.24794112137862137,
              "velocity": 64
            },
            {
              "pitch": 44,
              "time": 70.49998413045289,
              "duration": 0.24794112137862137,
              "velocity": 64
            },
            {
              "pitch": 44,
              "time": 72.99999557733933,
              "duration": 0.24794086122211123,
              "velocity": 64
            },
            {
              "pitch": 44,
              "time": 74.50000234140859,
              "duration": 0.24788882992007993,
              "velocity": 64
            },
            {
              "pitch": 44,
              "time": 77.00001352813852,
              "duration": 0.24788909007659007,
              "velocity": 64
            },
            {
              "pitch": 44,
              "time": 78.5000202922078,
              "duration": 0.24788909007659007,
              "velocity": 64
            },
            {
              "pitch": 44,
              "time": 80.9999797077922,
              "duration": 0.24794086122211123,
              "velocity": 64
            },
            {
              "pitch": 44,
              "time": 82.49998647186148,
              "duration": 0.24794086122211123,
              "velocity": 64
            },
            {
              "pitch": 44,
              "time": 84.99999765859141,
              "duration": 0.24794112137862137,
              "velocity": 64
            },
            {
              "pitch": 44,
              "time": 86.50000442266067,
              "duration": 0.24788909007659007,
              "velocity": 64
            },
            {
              "pitch": 44,
              "time": 89.00001586954711,
              "duration": 0.24788882992007993,
              "velocity": 64
            },
            {
              "pitch": 44,
              "time": 90.50002263361638,
              "duration": 0.24788882992007993,
              "velocity": 64
            },
            {
              "pitch": 44,
              "time": 92.99998178904428,
              "duration": 0.24794112137862137,
              "velocity": 64
            },
            {
              "pitch": 44,
              "time": 94.49998855311355,
              "duration": 0.24794112137862137,
              "velocity": 64
            },
            {
              "pitch": 44,
              "time": 97,
              "duration": 0.24794112137862137,
              "velocity": 64
            },
            {
              "pitch": 44,
              "time": 98.50000676406927,
              "duration": 0.24788882992007993,
              "velocity": 64
            },
            {
              "pitch": 44,
              "time": 101.00001821095572,
              "duration": 0.24788882992007993,
              "velocity": 64
            },
            {
              "pitch": 44,
              "time": 102.50002497502497,
              "duration": 0.24788882992007993,
              "velocity": 64
            },
            {
              "pitch": 44,
              "time": 104.99998413045289,
              "duration": 0.24794112137862137,
              "velocity": 64
            },
            {
              "pitch": 44,
              "time": 106.49999089452214,
              "duration": 0.24794112137862137,
              "velocity": 64
            },
            {
              "pitch": 44,
              "time": 109.00000234140859,
              "duration": 0.24788882992007993,
              "velocity": 64
            },
            {
              "pitch": 44,
              "time": 110.50000910547786,
              "duration": 0.24788882992007993,
              "velocity": 64
            },
            {
              "pitch": 44,
              "time": 113.0000202922078,
              "duration": 0.24788909007659007,
              "velocity": 64
            },
            {
              "pitch": 44,
              "time": 114.49997502497503,
              "duration": 0.24794112137862137,
              "velocity": 64
            },
            {
              "pitch": 44,
              "time": 116.99998647186148,
              "duration": 0.24794086122211123,
              "velocity": 64
            },
            {
              "pitch": 44,
              "time": 118.49999323593073,
              "duration": 0.24794112137862137,
              "velocity": 64
            },
            {
              "pitch": 44,
              "time": 121.00000442266067,
              "duration": 0.24788909007659007,
              "velocity": 64
            },
            {
              "pitch": 44,
              "time": 122.50001144688645,
              "duration": 0.24788882992007993,
              "velocity": 64
            },
            {
              "pitch": 44,
              "time": 125.00002263361638,
              "duration": 0.24788882992007993,
              "velocity": 64
            },
            {
              "pitch": 44,
              "time": 126.49997736638362,
              "duration": 0.24794112137862137,
              "velocity": 64
            },
            {
              "pitch": 69,
              "time": 1.4999841304528805,
              "duration": 0.24794112137862137,
              "velocity": 3
            }
          ],
          "gainInfo": 1,
          "contentSummary": "midi clip, 31.8 bars, 254 notes",
          "clipColor": 10,
          "name": "ARP 2600 V3 3"
        },
        {
          "id": "track_midi_32_9_clip_2",
          "trackId": "track_midi_32_9",
          "clipType": "midi",
          "start": 319.218648538961,
          "end": 320,
          "loop": false,
          "sourceRef": null,
          "midiNoteCount": 254,
          "midiNotes": [
            {
              "pitch": 53,
              "time": 2.9999908945221447,
              "duration": 0.24794112137862137,
              "velocity": 39
            },
            {
              "pitch": 53,
              "time": 4.4999976585914085,
              "duration": 0.24794112137862137,
              "velocity": 39
            },
            {
              "pitch": 53,
              "time": 7.000009105477855,
              "duration": 0.24788882992007993,
              "velocity": 39
            },
            {
              "pitch": 53,
              "time": 8.50001586954712,
              "duration": 0.24788882992007993,
              "velocity": 39
            },
            {
              "pitch": 53,
              "time": 10.999975024975026,
              "duration": 0.24794112137862137,
              "velocity": 39
            },
            {
              "pitch": 53,
              "time": 12.49998178904429,
              "duration": 0.24794112137862137,
              "velocity": 39
            },
            {
              "pitch": 53,
              "time": 14.999993235930736,
              "duration": 0.24794112137862137,
              "velocity": 39
            },
            {
              "pitch": 53,
              "time": 16.5,
              "duration": 0.24794112137862137,
              "velocity": 39
            },
            {
              "pitch": 53,
              "time": 19.000011446886447,
              "duration": 0.24788882992007993,
              "velocity": 39
            },
            {
              "pitch": 53,
              "time": 20.500018210955712,
              "duration": 0.24788882992007993,
              "velocity": 39
            },
            {
              "pitch": 53,
              "time": 22.999977366383618,
              "duration": 0.24794112137862137,
              "velocity": 39
            },
            {
              "pitch": 53,
              "time": 24.49998413045288,
              "duration": 0.24794112137862137,
              "velocity": 39
            },
            {
              "pitch": 53,
              "time": 26.999995577339327,
              "duration": 0.24794086122211123,
              "velocity": 39
            },
            {
              "pitch": 53,
              "time": 28.500002341408592,
              "duration": 0.24788882992007993,
              "velocity": 39
            },
            {
              "pitch": 53,
              "time": 31.000013528138528,
              "duration": 0.24788909007659007,
              "velocity": 39
            },
            {
              "pitch": 53,
              "time": 32.50002029220779,
              "duration": 0.24788909007659007,
              "velocity": 39
            },
            {
              "pitch": 53,
              "time": 34.99997970779221,
              "duration": 0.24794086122211123,
              "velocity": 39
            },
            {
              "pitch": 53,
              "time": 36.49998647186147,
              "duration": 0.24794086122211123,
              "velocity": 39
            },
            {
              "pitch": 53,
              "time": 38.99999765859141,
              "duration": 0.24794112137862137,
              "velocity": 39
            },
            {
              "pitch": 53,
              "time": 40.50000442266067,
              "duration": 0.24788909007659007,
              "velocity": 39
            },
            {
              "pitch": 53,
              "time": 43.00001586954712,
              "duration": 0.24788882992007993,
              "velocity": 39
            },
            {
              "pitch": 53,
              "time": 44.50002263361638,
              "duration": 0.24788882992007993,
              "velocity": 39
            },
            {
              "pitch": 53,
              "time": 46.99998178904429,
              "duration": 0.24794112137862137,
              "velocity": 39
            },
            {
              "pitch": 53,
              "time": 48.49998855311355,
              "duration": 0.24794112137862137,
              "velocity": 39
            },
            {
              "pitch": 53,
              "time": 51,
              "duration": 0.24794112137862137,
              "velocity": 39
            },
            {
              "pitch": 53,
              "time": 52.50000676406926,
              "duration": 0.24788882992007993,
              "velocity": 39
            },
            {
              "pitch": 53,
              "time": 55.00001821095571,
              "duration": 0.24788882992007993,
              "velocity": 39
            },
            {
              "pitch": 53,
              "time": 56.50002497502498,
              "duration": 0.24788882992007993,
              "velocity": 39
            },
            {
              "pitch": 53,
              "time": 58.99998413045288,
              "duration": 0.24794112137862137,
              "velocity": 39
            },
            {
              "pitch": 53,
              "time": 60.49999089452214,
              "duration": 0.24794112137862137,
              "velocity": 39
            },
            {
              "pitch": 53,
              "time": 63.00000234140859,
              "duration": 0.24788882992007993,
              "velocity": 39
            },
            {
              "pitch": 53,
              "time": 64.50000910547786,
              "duration": 0.24788882992007993,
              "velocity": 39
            },
            {
              "pitch": 53,
              "time": 67.0000202922078,
              "duration": 0.24788909007659007,
              "velocity": 39
            },
            {
              "pitch": 53,
              "time": 68.49997502497503,
              "duration": 0.24794112137862137,
              "velocity": 39
            },
            {
              "pitch": 53,
              "time": 70.99998647186148,
              "duration": 0.24794086122211123,
              "velocity": 39
            },
            {
              "pitch": 53,
              "time": 72.49999323593073,
              "duration": 0.24794112137862137,
              "velocity": 39
            },
            {
              "pitch": 53,
              "time": 75.00000442266067,
              "duration": 0.24788909007659007,
              "velocity": 39
            },
            {
              "pitch": 53,
              "time": 76.50001144688645,
              "duration": 0.24788882992007993,
              "velocity": 39
            },
            {
              "pitch": 53,
              "time": 79.00002263361638,
              "duration": 0.24788882992007993,
              "velocity": 39
            },
            {
              "pitch": 53,
              "time": 80.49997736638362,
              "duration": 0.24794112137862137,
              "velocity": 39
            },
            {
              "pitch": 53,
              "time": 82.99998855311355,
              "duration": 0.24794112137862137,
              "velocity": 39
            },
            {
              "pitch": 53,
              "time": 84.49999557733933,
              "duration": 0.24794086122211123,
              "velocity": 39
            },
            {
              "pitch": 53,
              "time": 87.00000676406927,
              "duration": 0.24788882992007993,
              "velocity": 39
            },
            {
              "pitch": 53,
              "time": 88.50001352813852,
              "duration": 0.24788909007659007,
              "velocity": 39
            },
            {
              "pitch": 53,
              "time": 91.00002497502497,
              "duration": 0.24788882992007993,
              "velocity": 39
            },
            {
              "pitch": 53,
              "time": 92.4999797077922,
              "duration": 0.24794086122211123,
              "velocity": 39
            },
            {
              "pitch": 53,
              "time": 94.99999089452214,
              "duration": 0.24794112137862137,
              "velocity": 39
            },
            {
              "pitch": 53,
              "time": 96.49999765859141,
              "duration": 0.24794112137862137,
              "velocity": 39
            },
            {
              "pitch": 53,
              "time": 99.00000910547786,
              "duration": 0.24788882992007993,
              "velocity": 39
            },
            {
              "pitch": 53,
              "time": 100.50001586954711,
              "duration": 0.24788882992007993,
              "velocity": 39
            },
            {
              "pitch": 53,
              "time": 102.99997502497503,
              "duration": 0.24794112137862137,
              "velocity": 39
            },
            {
              "pitch": 53,
              "time": 104.49998178904428,
              "duration": 0.24794112137862137,
              "velocity": 39
            },
            {
              "pitch": 53,
              "time": 106.99999323593073,
              "duration": 0.24794112137862137,
              "velocity": 39
            },
            {
              "pitch": 53,
              "time": 108.5,
              "duration": 0.24794112137862137,
              "velocity": 39
            },
            {
              "pitch": 53,
              "time": 111.00001144688645,
              "duration": 0.24788882992007993,
              "velocity": 39
            },
            {
              "pitch": 53,
              "time": 112.50001821095572,
              "duration": 0.24788882992007993,
              "velocity": 39
            },
            {
              "pitch": 53,
              "time": 114.99997736638362,
              "duration": 0.24794112137862137,
              "velocity": 39
            },
            {
              "pitch": 53,
              "time": 116.49998413045289,
              "duration": 0.24794112137862137,
              "velocity": 39
            },
            {
              "pitch": 53,
              "time": 118.99999557733933,
              "duration": 0.24794086122211123,
              "velocity": 39
            },
            {
              "pitch": 53,
              "time": 120.50000234140859,
              "duration": 0.24788882992007993,
              "velocity": 39
            },
            {
              "pitch": 53,
              "time": 123.00001352813852,
              "duration": 0.24788909007659007,
              "velocity": 39
            },
            {
              "pitch": 53,
              "time": 124.5000202922078,
              "duration": 0.24788909007659007,
              "velocity": 39
            },
            {
              "pitch": 53,
              "time": 126.9999797077922,
              "duration": 0.24794086122211123,
              "velocity": 39
            },
            {
              "pitch": 56,
              "time": 0.999981789044289,
              "duration": 0.24794112137862137,
              "velocity": 64
            },
            {
              "pitch": 56,
              "time": 2.4999885531135533,
              "duration": 0.24794112137862137,
              "velocity": 64
            },
            {
              "pitch": 56,
              "time": 5,
              "duration": 0.24794112137862137,
              "velocity": 64
            },
            {
              "pitch": 56,
              "time": 6.500006764069264,
              "duration": 0.24788882992007993,
              "velocity": 64
            },
            {
              "pitch": 56,
              "time": 9.00001821095571,
              "duration": 0.24788882992007993,
              "velocity": 64
            },
            {
              "pitch": 56,
              "time": 10.500024975024974,
              "duration": 0.24788882992007993,
              "velocity": 64
            },
            {
              "pitch": 56,
              "time": 12.99998413045288,
              "duration": 0.24794112137862137,
              "velocity": 64
            },
            {
              "pitch": 56,
              "time": 14.499990894522144,
              "duration": 0.24794112137862137,
              "velocity": 64
            },
            {
              "pitch": 56,
              "time": 17.000002341408592,
              "duration": 0.24788882992007993,
              "velocity": 64
            },
            {
              "pitch": 56,
              "time": 18.500009105477854,
              "duration": 0.24788882992007993,
              "velocity": 64
            },
            {
              "pitch": 56,
              "time": 21.000020292207793,
              "duration": 0.24788909007659007,
              "velocity": 64
            },
            {
              "pitch": 56,
              "time": 22.499975024975026,
              "duration": 0.24794112137862137,
              "velocity": 64
            },
            {
              "pitch": 56,
              "time": 24.999986471861472,
              "duration": 0.24794086122211123,
              "velocity": 64
            },
            {
              "pitch": 56,
              "time": 26.499993235930734,
              "duration": 0.24794112137862137,
              "velocity": 64
            },
            {
              "pitch": 56,
              "time": 29.000004422660673,
              "duration": 0.24788909007659007,
              "velocity": 64
            },
            {
              "pitch": 56,
              "time": 30.500011446886447,
              "duration": 0.24788882992007993,
              "velocity": 64
            },
            {
              "pitch": 56,
              "time": 33.00002263361638,
              "duration": 0.24788882992007993,
              "velocity": 64
            },
            {
              "pitch": 56,
              "time": 34.49997736638362,
              "duration": 0.24794112137862137,
              "velocity": 64
            },
            {
              "pitch": 56,
              "time": 36.99998855311355,
              "duration": 0.24794112137862137,
              "velocity": 64
            },
            {
              "pitch": 56,
              "time": 38.49999557733933,
              "duration": 0.24794086122211123,
              "velocity": 64
            },
            {
              "pitch": 56,
              "time": 41.00000676406926,
              "duration": 0.24788882992007993,
              "velocity": 64
            },
            {
              "pitch": 56,
              "time": 42.50001352813853,
              "duration": 0.24788909007659007,
              "velocity": 64
            },
            {
              "pitch": 56,
              "time": 45.00002497502498,
              "duration": 0.24788882992007993,
              "velocity": 64
            },
            {
              "pitch": 56,
              "time": 46.49997970779221,
              "duration": 0.24794086122211123,
              "velocity": 64
            },
            {
              "pitch": 56,
              "time": 48.99999089452214,
              "duration": 0.24794112137862137,
              "velocity": 64
            },
            {
              "pitch": 56,
              "time": 50.49999765859141,
              "duration": 0.24794112137862137,
              "velocity": 64
            },
            {
              "pitch": 56,
              "time": 53.00000910547786,
              "duration": 0.24788882992007993,
              "velocity": 64
            },
            {
              "pitch": 56,
              "time": 54.50001586954712,
              "duration": 0.24788882992007993,
              "velocity": 64
            },
            {
              "pitch": 56,
              "time": 56.99997502497502,
              "duration": 0.24794112137862137,
              "velocity": 64
            },
            {
              "pitch": 56,
              "time": 58.49998178904429,
              "duration": 0.24794112137862137,
              "velocity": 64
            },
            {
              "pitch": 56,
              "time": 60.99999323593074,
              "duration": 0.24794112137862137,
              "velocity": 64
            },
            {
              "pitch": 56,
              "time": 62.5,
              "duration": 0.24794112137862137,
              "velocity": 64
            },
            {
              "pitch": 56,
              "time": 65.00001144688645,
              "duration": 0.24788882992007993,
              "velocity": 64
            },
            {
              "pitch": 56,
              "time": 66.50001821095572,
              "duration": 0.24788882992007993,
              "velocity": 64
            },
            {
              "pitch": 56,
              "time": 68.99997736638362,
              "duration": 0.24794112137862137,
              "velocity": 64
            },
            {
              "pitch": 56,
              "time": 70.49998413045289,
              "duration": 0.24794112137862137,
              "velocity": 64
            },
            {
              "pitch": 56,
              "time": 72.99999557733933,
              "duration": 0.24794086122211123,
              "velocity": 64
            },
            {
              "pitch": 56,
              "time": 74.50000234140859,
              "duration": 0.24788882992007993,
              "velocity": 64
            },
            {
              "pitch": 56,
              "time": 77.00001352813852,
              "duration": 0.24788909007659007,
              "velocity": 64
            },
            {
              "pitch": 56,
              "time": 78.5000202922078,
              "duration": 0.24788909007659007,
              "velocity": 64
            },
            {
              "pitch": 56,
              "time": 80.9999797077922,
              "duration": 0.24794086122211123,
              "velocity": 64
            },
            {
              "pitch": 56,
              "time": 82.49998647186148,
              "duration": 0.24794086122211123,
              "velocity": 64
            },
            {
              "pitch": 56,
              "time": 84.99999765859141,
              "duration": 0.24794112137862137,
              "velocity": 64
            },
            {
              "pitch": 56,
              "time": 86.50000442266067,
              "duration": 0.24788909007659007,
              "velocity": 64
            },
            {
              "pitch": 56,
              "time": 89.00001586954711,
              "duration": 0.24788882992007993,
              "velocity": 64
            },
            {
              "pitch": 56,
              "time": 90.50002263361638,
              "duration": 0.24788882992007993,
              "velocity": 64
            },
            {
              "pitch": 56,
              "time": 92.99998178904428,
              "duration": 0.24794112137862137,
              "velocity": 64
            },
            {
              "pitch": 56,
              "time": 94.49998855311355,
              "duration": 0.24794112137862137,
              "velocity": 64
            },
            {
              "pitch": 56,
              "time": 97,
              "duration": 0.24794112137862137,
              "velocity": 64
            },
            {
              "pitch": 56,
              "time": 98.50000676406927,
              "duration": 0.24788882992007993,
              "velocity": 64
            },
            {
              "pitch": 56,
              "time": 101.00001821095572,
              "duration": 0.24788882992007993,
              "velocity": 64
            },
            {
              "pitch": 56,
              "time": 102.50002497502497,
              "duration": 0.24788882992007993,
              "velocity": 64
            },
            {
              "pitch": 56,
              "time": 104.99998413045289,
              "duration": 0.24794112137862137,
              "velocity": 64
            },
            {
              "pitch": 56,
              "time": 106.49999089452214,
              "duration": 0.24794112137862137,
              "velocity": 64
            },
            {
              "pitch": 56,
              "time": 109.00000234140859,
              "duration": 0.24788882992007993,
              "velocity": 64
            },
            {
              "pitch": 56,
              "time": 110.50000910547786,
              "duration": 0.24788882992007993,
              "velocity": 64
            },
            {
              "pitch": 56,
              "time": 113.0000202922078,
              "duration": 0.24788909007659007,
              "velocity": 64
            },
            {
              "pitch": 56,
              "time": 114.49997502497503,
              "duration": 0.24794112137862137,
              "velocity": 64
            },
            {
              "pitch": 56,
              "time": 116.99998647186148,
              "duration": 0.24794086122211123,
              "velocity": 64
            },
            {
              "pitch": 56,
              "time": 118.49999323593073,
              "duration": 0.24794112137862137,
              "velocity": 64
            },
            {
              "pitch": 56,
              "time": 121.00000442266067,
              "duration": 0.24788909007659007,
              "velocity": 64
            },
            {
              "pitch": 56,
              "time": 122.50001144688645,
              "duration": 0.24788882992007993,
              "velocity": 64
            },
            {
              "pitch": 56,
              "time": 125.00002263361638,
              "duration": 0.24788882992007993,
              "velocity": 64
            },
            {
              "pitch": 56,
              "time": 126.49997736638362,
              "duration": 0.24794112137862137,
              "velocity": 64
            },
            {
              "pitch": 81,
              "time": 1.4999841304528805,
              "duration": 0.24794112137862137,
              "velocity": 3
            }
          ],
          "gainInfo": 1,
          "contentSummary": "midi clip, 0.2 bars, 254 notes",
          "clipColor": 10,
          "name": "ARP 2600 V3 3"
        },
        {
          "id": "track_midi_32_9_clip_3",
          "trackId": "track_midi_32_9",
          "clipType": "midi",
          "start": 320,
          "end": 447.218648538961,
          "loop": false,
          "sourceRef": null,
          "midiNoteCount": 254,
          "midiNotes": [
            {
              "pitch": 41,
              "time": 2.9999908945221447,
              "duration": 0.24794112137862137,
              "velocity": 39
            },
            {
              "pitch": 41,
              "time": 4.4999976585914085,
              "duration": 0.24794112137862137,
              "velocity": 39
            },
            {
              "pitch": 41,
              "time": 7.000009105477855,
              "duration": 0.24788882992007993,
              "velocity": 39
            },
            {
              "pitch": 41,
              "time": 8.50001586954712,
              "duration": 0.24788882992007993,
              "velocity": 39
            },
            {
              "pitch": 41,
              "time": 10.999975024975026,
              "duration": 0.24794112137862137,
              "velocity": 39
            },
            {
              "pitch": 41,
              "time": 12.49998178904429,
              "duration": 0.24794112137862137,
              "velocity": 39
            },
            {
              "pitch": 41,
              "time": 14.999993235930736,
              "duration": 0.24794112137862137,
              "velocity": 39
            },
            {
              "pitch": 41,
              "time": 16.5,
              "duration": 0.24794112137862137,
              "velocity": 39
            },
            {
              "pitch": 41,
              "time": 19.000011446886447,
              "duration": 0.24788882992007993,
              "velocity": 39
            },
            {
              "pitch": 41,
              "time": 20.500018210955712,
              "duration": 0.24788882992007993,
              "velocity": 39
            },
            {
              "pitch": 41,
              "time": 22.999977366383618,
              "duration": 0.24794112137862137,
              "velocity": 39
            },
            {
              "pitch": 41,
              "time": 24.49998413045288,
              "duration": 0.24794112137862137,
              "velocity": 39
            },
            {
              "pitch": 41,
              "time": 26.999995577339327,
              "duration": 0.24794086122211123,
              "velocity": 39
            },
            {
              "pitch": 41,
              "time": 28.500002341408592,
              "duration": 0.24788882992007993,
              "velocity": 39
            },
            {
              "pitch": 41,
              "time": 31.000013528138528,
              "duration": 0.24788909007659007,
              "velocity": 39
            },
            {
              "pitch": 41,
              "time": 32.50002029220779,
              "duration": 0.24788909007659007,
              "velocity": 39
            },
            {
              "pitch": 41,
              "time": 34.99997970779221,
              "duration": 0.24794086122211123,
              "velocity": 39
            },
            {
              "pitch": 41,
              "time": 36.49998647186147,
              "duration": 0.24794086122211123,
              "velocity": 39
            },
            {
              "pitch": 41,
              "time": 38.99999765859141,
              "duration": 0.24794112137862137,
              "velocity": 39
            },
            {
              "pitch": 41,
              "time": 40.50000442266067,
              "duration": 0.24788909007659007,
              "velocity": 39
            },
            {
              "pitch": 41,
              "time": 43.00001586954712,
              "duration": 0.24788882992007993,
              "velocity": 39
            },
            {
              "pitch": 41,
              "time": 44.50002263361638,
              "duration": 0.24788882992007993,
              "velocity": 39
            },
            {
              "pitch": 41,
              "time": 46.99998178904429,
              "duration": 0.24794112137862137,
              "velocity": 39
            },
            {
              "pitch": 41,
              "time": 48.49998855311355,
              "duration": 0.24794112137862137,
              "velocity": 39
            },
            {
              "pitch": 41,
              "time": 51,
              "duration": 0.24794112137862137,
              "velocity": 39
            },
            {
              "pitch": 41,
              "time": 52.50000676406926,
              "duration": 0.24788882992007993,
              "velocity": 39
            },
            {
              "pitch": 41,
              "time": 55.00001821095571,
              "duration": 0.24788882992007993,
              "velocity": 39
            },
            {
              "pitch": 41,
              "time": 56.50002497502498,
              "duration": 0.24788882992007993,
              "velocity": 39
            },
            {
              "pitch": 41,
              "time": 58.99998413045288,
              "duration": 0.24794112137862137,
              "velocity": 39
            },
            {
              "pitch": 41,
              "time": 60.49999089452214,
              "duration": 0.24794112137862137,
              "velocity": 39
            },
            {
              "pitch": 41,
              "time": 63.00000234140859,
              "duration": 0.24788882992007993,
              "velocity": 39
            },
            {
              "pitch": 41,
              "time": 64.50000910547786,
              "duration": 0.24788882992007993,
              "velocity": 39
            },
            {
              "pitch": 41,
              "time": 67.0000202922078,
              "duration": 0.24788909007659007,
              "velocity": 39
            },
            {
              "pitch": 41,
              "time": 68.49997502497503,
              "duration": 0.24794112137862137,
              "velocity": 39
            },
            {
              "pitch": 41,
              "time": 70.99998647186148,
              "duration": 0.24794086122211123,
              "velocity": 39
            },
            {
              "pitch": 41,
              "time": 72.49999323593073,
              "duration": 0.24794112137862137,
              "velocity": 39
            },
            {
              "pitch": 41,
              "time": 75.00000442266067,
              "duration": 0.24788909007659007,
              "velocity": 39
            },
            {
              "pitch": 41,
              "time": 76.50001144688645,
              "duration": 0.24788882992007993,
              "velocity": 39
            },
            {
              "pitch": 41,
              "time": 79.00002263361638,
              "duration": 0.24788882992007993,
              "velocity": 39
            },
            {
              "pitch": 41,
              "time": 80.49997736638362,
              "duration": 0.24794112137862137,
              "velocity": 39
            },
            {
              "pitch": 41,
              "time": 82.99998855311355,
              "duration": 0.24794112137862137,
              "velocity": 39
            },
            {
              "pitch": 41,
              "time": 84.49999557733933,
              "duration": 0.24794086122211123,
              "velocity": 39
            },
            {
              "pitch": 41,
              "time": 87.00000676406927,
              "duration": 0.24788882992007993,
              "velocity": 39
            },
            {
              "pitch": 41,
              "time": 88.50001352813852,
              "duration": 0.24788909007659007,
              "velocity": 39
            },
            {
              "pitch": 41,
              "time": 91.00002497502497,
              "duration": 0.24788882992007993,
              "velocity": 39
            },
            {
              "pitch": 41,
              "time": 92.4999797077922,
              "duration": 0.24794086122211123,
              "velocity": 39
            },
            {
              "pitch": 41,
              "time": 94.99999089452214,
              "duration": 0.24794112137862137,
              "velocity": 39
            },
            {
              "pitch": 41,
              "time": 96.49999765859141,
              "duration": 0.24794112137862137,
              "velocity": 39
            },
            {
              "pitch": 41,
              "time": 99.00000910547786,
              "duration": 0.24788882992007993,
              "velocity": 39
            },
            {
              "pitch": 41,
              "time": 100.50001586954711,
              "duration": 0.24788882992007993,
              "velocity": 39
            },
            {
              "pitch": 41,
              "time": 102.99997502497503,
              "duration": 0.24794112137862137,
              "velocity": 39
            },
            {
              "pitch": 41,
              "time": 104.49998178904428,
              "duration": 0.24794112137862137,
              "velocity": 39
            },
            {
              "pitch": 41,
              "time": 106.99999323593073,
              "duration": 0.24794112137862137,
              "velocity": 39
            },
            {
              "pitch": 41,
              "time": 108.5,
              "duration": 0.24794112137862137,
              "velocity": 39
            },
            {
              "pitch": 41,
              "time": 111.00001144688645,
              "duration": 0.24788882992007993,
              "velocity": 39
            },
            {
              "pitch": 41,
              "time": 112.50001821095572,
              "duration": 0.24788882992007993,
              "velocity": 39
            },
            {
              "pitch": 41,
              "time": 114.99997736638362,
              "duration": 0.24794112137862137,
              "velocity": 39
            },
            {
              "pitch": 41,
              "time": 116.49998413045289,
              "duration": 0.24794112137862137,
              "velocity": 39
            },
            {
              "pitch": 41,
              "time": 118.99999557733933,
              "duration": 0.24794086122211123,
              "velocity": 39
            },
            {
              "pitch": 41,
              "time": 120.50000234140859,
              "duration": 0.24788882992007993,
              "velocity": 39
            },
            {
              "pitch": 41,
              "time": 123.00001352813852,
              "duration": 0.24788909007659007,
              "velocity": 39
            },
            {
              "pitch": 41,
              "time": 124.5000202922078,
              "duration": 0.24788909007659007,
              "velocity": 39
            },
            {
              "pitch": 41,
              "time": 126.9999797077922,
              "duration": 0.24794086122211123,
              "velocity": 39
            },
            {
              "pitch": 44,
              "time": 0.999981789044289,
              "duration": 0.24794112137862137,
              "velocity": 64
            },
            {
              "pitch": 44,
              "time": 2.4999885531135533,
              "duration": 0.24794112137862137,
              "velocity": 64
            },
            {
              "pitch": 44,
              "time": 5,
              "duration": 0.24794112137862137,
              "velocity": 64
            },
            {
              "pitch": 44,
              "time": 6.500006764069264,
              "duration": 0.24788882992007993,
              "velocity": 64
            },
            {
              "pitch": 44,
              "time": 9.00001821095571,
              "duration": 0.24788882992007993,
              "velocity": 64
            },
            {
              "pitch": 44,
              "time": 10.500024975024974,
              "duration": 0.24788882992007993,
              "velocity": 64
            },
            {
              "pitch": 44,
              "time": 12.99998413045288,
              "duration": 0.24794112137862137,
              "velocity": 64
            },
            {
              "pitch": 44,
              "time": 14.499990894522144,
              "duration": 0.24794112137862137,
              "velocity": 64
            },
            {
              "pitch": 44,
              "time": 17.000002341408592,
              "duration": 0.24788882992007993,
              "velocity": 64
            },
            {
              "pitch": 44,
              "time": 18.500009105477854,
              "duration": 0.24788882992007993,
              "velocity": 64
            },
            {
              "pitch": 44,
              "time": 21.000020292207793,
              "duration": 0.24788909007659007,
              "velocity": 64
            },
            {
              "pitch": 44,
              "time": 22.499975024975026,
              "duration": 0.24794112137862137,
              "velocity": 64
            },
            {
              "pitch": 44,
              "time": 24.999986471861472,
              "duration": 0.24794086122211123,
              "velocity": 64
            },
            {
              "pitch": 44,
              "time": 26.499993235930734,
              "duration": 0.24794112137862137,
              "velocity": 64
            },
            {
              "pitch": 44,
              "time": 29.000004422660673,
              "duration": 0.24788909007659007,
              "velocity": 64
            },
            {
              "pitch": 44,
              "time": 30.500011446886447,
              "duration": 0.24788882992007993,
              "velocity": 64
            },
            {
              "pitch": 44,
              "time": 33.00002263361638,
              "duration": 0.24788882992007993,
              "velocity": 64
            },
            {
              "pitch": 44,
              "time": 34.49997736638362,
              "duration": 0.24794112137862137,
              "velocity": 64
            },
            {
              "pitch": 44,
              "time": 36.99998855311355,
              "duration": 0.24794112137862137,
              "velocity": 64
            },
            {
              "pitch": 44,
              "time": 38.49999557733933,
              "duration": 0.24794086122211123,
              "velocity": 64
            },
            {
              "pitch": 44,
              "time": 41.00000676406926,
              "duration": 0.24788882992007993,
              "velocity": 64
            },
            {
              "pitch": 44,
              "time": 42.50001352813853,
              "duration": 0.24788909007659007,
              "velocity": 64
            },
            {
              "pitch": 44,
              "time": 45.00002497502498,
              "duration": 0.24788882992007993,
              "velocity": 64
            },
            {
              "pitch": 44,
              "time": 46.49997970779221,
              "duration": 0.24794086122211123,
              "velocity": 64
            },
            {
              "pitch": 44,
              "time": 48.99999089452214,
              "duration": 0.24794112137862137,
              "velocity": 64
            },
            {
              "pitch": 44,
              "time": 50.49999765859141,
              "duration": 0.24794112137862137,
              "velocity": 64
            },
            {
              "pitch": 44,
              "time": 53.00000910547786,
              "duration": 0.24788882992007993,
              "velocity": 64
            },
            {
              "pitch": 44,
              "time": 54.50001586954712,
              "duration": 0.24788882992007993,
              "velocity": 64
            },
            {
              "pitch": 44,
              "time": 56.99997502497502,
              "duration": 0.24794112137862137,
              "velocity": 64
            },
            {
              "pitch": 44,
              "time": 58.49998178904429,
              "duration": 0.24794112137862137,
              "velocity": 64
            },
            {
              "pitch": 44,
              "time": 60.99999323593074,
              "duration": 0.24794112137862137,
              "velocity": 64
            },
            {
              "pitch": 44,
              "time": 62.5,
              "duration": 0.24794112137862137,
              "velocity": 64
            },
            {
              "pitch": 44,
              "time": 65.00001144688645,
              "duration": 0.24788882992007993,
              "velocity": 64
            },
            {
              "pitch": 44,
              "time": 66.50001821095572,
              "duration": 0.24788882992007993,
              "velocity": 64
            },
            {
              "pitch": 44,
              "time": 68.99997736638362,
              "duration": 0.24794112137862137,
              "velocity": 64
            },
            {
              "pitch": 44,
              "time": 70.49998413045289,
              "duration": 0.24794112137862137,
              "velocity": 64
            },
            {
              "pitch": 44,
              "time": 72.99999557733933,
              "duration": 0.24794086122211123,
              "velocity": 64
            },
            {
              "pitch": 44,
              "time": 74.50000234140859,
              "duration": 0.24788882992007993,
              "velocity": 64
            },
            {
              "pitch": 44,
              "time": 77.00001352813852,
              "duration": 0.24788909007659007,
              "velocity": 64
            },
            {
              "pitch": 44,
              "time": 78.5000202922078,
              "duration": 0.24788909007659007,
              "velocity": 64
            },
            {
              "pitch": 44,
              "time": 80.9999797077922,
              "duration": 0.24794086122211123,
              "velocity": 64
            },
            {
              "pitch": 44,
              "time": 82.49998647186148,
              "duration": 0.24794086122211123,
              "velocity": 64
            },
            {
              "pitch": 44,
              "time": 84.99999765859141,
              "duration": 0.24794112137862137,
              "velocity": 64
            },
            {
              "pitch": 44,
              "time": 86.50000442266067,
              "duration": 0.24788909007659007,
              "velocity": 64
            },
            {
              "pitch": 44,
              "time": 89.00001586954711,
              "duration": 0.24788882992007993,
              "velocity": 64
            },
            {
              "pitch": 44,
              "time": 90.50002263361638,
              "duration": 0.24788882992007993,
              "velocity": 64
            },
            {
              "pitch": 44,
              "time": 92.99998178904428,
              "duration": 0.24794112137862137,
              "velocity": 64
            },
            {
              "pitch": 44,
              "time": 94.49998855311355,
              "duration": 0.24794112137862137,
              "velocity": 64
            },
            {
              "pitch": 44,
              "time": 97,
              "duration": 0.24794112137862137,
              "velocity": 64
            },
            {
              "pitch": 44,
              "time": 98.50000676406927,
              "duration": 0.24788882992007993,
              "velocity": 64
            },
            {
              "pitch": 44,
              "time": 101.00001821095572,
              "duration": 0.24788882992007993,
              "velocity": 64
            },
            {
              "pitch": 44,
              "time": 102.50002497502497,
              "duration": 0.24788882992007993,
              "velocity": 64
            },
            {
              "pitch": 44,
              "time": 104.99998413045289,
              "duration": 0.24794112137862137,
              "velocity": 64
            },
            {
              "pitch": 44,
              "time": 106.49999089452214,
              "duration": 0.24794112137862137,
              "velocity": 64
            },
            {
              "pitch": 44,
              "time": 109.00000234140859,
              "duration": 0.24788882992007993,
              "velocity": 64
            },
            {
              "pitch": 44,
              "time": 110.50000910547786,
              "duration": 0.24788882992007993,
              "velocity": 64
            },
            {
              "pitch": 44,
              "time": 113.0000202922078,
              "duration": 0.24788909007659007,
              "velocity": 64
            },
            {
              "pitch": 44,
              "time": 114.49997502497503,
              "duration": 0.24794112137862137,
              "velocity": 64
            },
            {
              "pitch": 44,
              "time": 116.99998647186148,
              "duration": 0.24794086122211123,
              "velocity": 64
            },
            {
              "pitch": 44,
              "time": 118.49999323593073,
              "duration": 0.24794112137862137,
              "velocity": 64
            },
            {
              "pitch": 44,
              "time": 121.00000442266067,
              "duration": 0.24788909007659007,
              "velocity": 64
            },
            {
              "pitch": 44,
              "time": 122.50001144688645,
              "duration": 0.24788882992007993,
              "velocity": 64
            },
            {
              "pitch": 44,
              "time": 125.00002263361638,
              "duration": 0.24788882992007993,
              "velocity": 64
            },
            {
              "pitch": 44,
              "time": 126.49997736638362,
              "duration": 0.24794112137862137,
              "velocity": 64
            },
            {
              "pitch": 69,
              "time": 1.4999841304528805,
              "duration": 0.24794112137862137,
              "velocity": 3
            }
          ],
          "gainInfo": 1,
          "contentSummary": "midi clip, 31.8 bars, 254 notes",
          "clipColor": 10,
          "name": "ARP 2600 V3 3"
        },
        {
          "id": "track_midi_32_9_clip_4",
          "trackId": "track_midi_32_9",
          "clipType": "midi",
          "start": 447.218648538961,
          "end": 448,
          "loop": false,
          "sourceRef": null,
          "midiNoteCount": 254,
          "midiNotes": [
            {
              "pitch": 53,
              "time": 2.9999908945221447,
              "duration": 0.24794112137862137,
              "velocity": 39
            },
            {
              "pitch": 53,
              "time": 4.4999976585914085,
              "duration": 0.24794112137862137,
              "velocity": 39
            },
            {
              "pitch": 53,
              "time": 7.000009105477855,
              "duration": 0.24788882992007993,
              "velocity": 39
            },
            {
              "pitch": 53,
              "time": 8.50001586954712,
              "duration": 0.24788882992007993,
              "velocity": 39
            },
            {
              "pitch": 53,
              "time": 10.999975024975026,
              "duration": 0.24794112137862137,
              "velocity": 39
            },
            {
              "pitch": 53,
              "time": 12.49998178904429,
              "duration": 0.24794112137862137,
              "velocity": 39
            },
            {
              "pitch": 53,
              "time": 14.999993235930736,
              "duration": 0.24794112137862137,
              "velocity": 39
            },
            {
              "pitch": 53,
              "time": 16.5,
              "duration": 0.24794112137862137,
              "velocity": 39
            },
            {
              "pitch": 53,
              "time": 19.000011446886447,
              "duration": 0.24788882992007993,
              "velocity": 39
            },
            {
              "pitch": 53,
              "time": 20.500018210955712,
              "duration": 0.24788882992007993,
              "velocity": 39
            },
            {
              "pitch": 53,
              "time": 22.999977366383618,
              "duration": 0.24794112137862137,
              "velocity": 39
            },
            {
              "pitch": 53,
              "time": 24.49998413045288,
              "duration": 0.24794112137862137,
              "velocity": 39
            },
            {
              "pitch": 53,
              "time": 26.999995577339327,
              "duration": 0.24794086122211123,
              "velocity": 39
            },
            {
              "pitch": 53,
              "time": 28.500002341408592,
              "duration": 0.24788882992007993,
              "velocity": 39
            },
            {
              "pitch": 53,
              "time": 31.000013528138528,
              "duration": 0.24788909007659007,
              "velocity": 39
            },
            {
              "pitch": 53,
              "time": 32.50002029220779,
              "duration": 0.24788909007659007,
              "velocity": 39
            },
            {
              "pitch": 53,
              "time": 34.99997970779221,
              "duration": 0.24794086122211123,
              "velocity": 39
            },
            {
              "pitch": 53,
              "time": 36.49998647186147,
              "duration": 0.24794086122211123,
              "velocity": 39
            },
            {
              "pitch": 53,
              "time": 38.99999765859141,
              "duration": 0.24794112137862137,
              "velocity": 39
            },
            {
              "pitch": 53,
              "time": 40.50000442266067,
              "duration": 0.24788909007659007,
              "velocity": 39
            },
            {
              "pitch": 53,
              "time": 43.00001586954712,
              "duration": 0.24788882992007993,
              "velocity": 39
            },
            {
              "pitch": 53,
              "time": 44.50002263361638,
              "duration": 0.24788882992007993,
              "velocity": 39
            },
            {
              "pitch": 53,
              "time": 46.99998178904429,
              "duration": 0.24794112137862137,
              "velocity": 39
            },
            {
              "pitch": 53,
              "time": 48.49998855311355,
              "duration": 0.24794112137862137,
              "velocity": 39
            },
            {
              "pitch": 53,
              "time": 51,
              "duration": 0.24794112137862137,
              "velocity": 39
            },
            {
              "pitch": 53,
              "time": 52.50000676406926,
              "duration": 0.24788882992007993,
              "velocity": 39
            },
            {
              "pitch": 53,
              "time": 55.00001821095571,
              "duration": 0.24788882992007993,
              "velocity": 39
            },
            {
              "pitch": 53,
              "time": 56.50002497502498,
              "duration": 0.24788882992007993,
              "velocity": 39
            },
            {
              "pitch": 53,
              "time": 58.99998413045288,
              "duration": 0.24794112137862137,
              "velocity": 39
            },
            {
              "pitch": 53,
              "time": 60.49999089452214,
              "duration": 0.24794112137862137,
              "velocity": 39
            },
            {
              "pitch": 53,
              "time": 63.00000234140859,
              "duration": 0.24788882992007993,
              "velocity": 39
            },
            {
              "pitch": 53,
              "time": 64.50000910547786,
              "duration": 0.24788882992007993,
              "velocity": 39
            },
            {
              "pitch": 53,
              "time": 67.0000202922078,
              "duration": 0.24788909007659007,
              "velocity": 39
            },
            {
              "pitch": 53,
              "time": 68.49997502497503,
              "duration": 0.24794112137862137,
              "velocity": 39
            },
            {
              "pitch": 53,
              "time": 70.99998647186148,
              "duration": 0.24794086122211123,
              "velocity": 39
            },
            {
              "pitch": 53,
              "time": 72.49999323593073,
              "duration": 0.24794112137862137,
              "velocity": 39
            },
            {
              "pitch": 53,
              "time": 75.00000442266067,
              "duration": 0.24788909007659007,
              "velocity": 39
            },
            {
              "pitch": 53,
              "time": 76.50001144688645,
              "duration": 0.24788882992007993,
              "velocity": 39
            },
            {
              "pitch": 53,
              "time": 79.00002263361638,
              "duration": 0.24788882992007993,
              "velocity": 39
            },
            {
              "pitch": 53,
              "time": 80.49997736638362,
              "duration": 0.24794112137862137,
              "velocity": 39
            },
            {
              "pitch": 53,
              "time": 82.99998855311355,
              "duration": 0.24794112137862137,
              "velocity": 39
            },
            {
              "pitch": 53,
              "time": 84.49999557733933,
              "duration": 0.24794086122211123,
              "velocity": 39
            },
            {
              "pitch": 53,
              "time": 87.00000676406927,
              "duration": 0.24788882992007993,
              "velocity": 39
            },
            {
              "pitch": 53,
              "time": 88.50001352813852,
              "duration": 0.24788909007659007,
              "velocity": 39
            },
            {
              "pitch": 53,
              "time": 91.00002497502497,
              "duration": 0.24788882992007993,
              "velocity": 39
            },
            {
              "pitch": 53,
              "time": 92.4999797077922,
              "duration": 0.24794086122211123,
              "velocity": 39
            },
            {
              "pitch": 53,
              "time": 94.99999089452214,
              "duration": 0.24794112137862137,
              "velocity": 39
            },
            {
              "pitch": 53,
              "time": 96.49999765859141,
              "duration": 0.24794112137862137,
              "velocity": 39
            },
            {
              "pitch": 53,
              "time": 99.00000910547786,
              "duration": 0.24788882992007993,
              "velocity": 39
            },
            {
              "pitch": 53,
              "time": 100.50001586954711,
              "duration": 0.24788882992007993,
              "velocity": 39
            },
            {
              "pitch": 53,
              "time": 102.99997502497503,
              "duration": 0.24794112137862137,
              "velocity": 39
            },
            {
              "pitch": 53,
              "time": 104.49998178904428,
              "duration": 0.24794112137862137,
              "velocity": 39
            },
            {
              "pitch": 53,
              "time": 106.99999323593073,
              "duration": 0.24794112137862137,
              "velocity": 39
            },
            {
              "pitch": 53,
              "time": 108.5,
              "duration": 0.24794112137862137,
              "velocity": 39
            },
            {
              "pitch": 53,
              "time": 111.00001144688645,
              "duration": 0.24788882992007993,
              "velocity": 39
            },
            {
              "pitch": 53,
              "time": 112.50001821095572,
              "duration": 0.24788882992007993,
              "velocity": 39
            },
            {
              "pitch": 53,
              "time": 114.99997736638362,
              "duration": 0.24794112137862137,
              "velocity": 39
            },
            {
              "pitch": 53,
              "time": 116.49998413045289,
              "duration": 0.24794112137862137,
              "velocity": 39
            },
            {
              "pitch": 53,
              "time": 118.99999557733933,
              "duration": 0.24794086122211123,
              "velocity": 39
            },
            {
              "pitch": 53,
              "time": 120.50000234140859,
              "duration": 0.24788882992007993,
              "velocity": 39
            },
            {
              "pitch": 53,
              "time": 123.00001352813852,
              "duration": 0.24788909007659007,
              "velocity": 39
            },
            {
              "pitch": 53,
              "time": 124.5000202922078,
              "duration": 0.24788909007659007,
              "velocity": 39
            },
            {
              "pitch": 53,
              "time": 126.9999797077922,
              "duration": 0.24794086122211123,
              "velocity": 39
            },
            {
              "pitch": 56,
              "time": 0.999981789044289,
              "duration": 0.24794112137862137,
              "velocity": 64
            },
            {
              "pitch": 56,
              "time": 2.4999885531135533,
              "duration": 0.24794112137862137,
              "velocity": 64
            },
            {
              "pitch": 56,
              "time": 5,
              "duration": 0.24794112137862137,
              "velocity": 64
            },
            {
              "pitch": 56,
              "time": 6.500006764069264,
              "duration": 0.24788882992007993,
              "velocity": 64
            },
            {
              "pitch": 56,
              "time": 9.00001821095571,
              "duration": 0.24788882992007993,
              "velocity": 64
            },
            {
              "pitch": 56,
              "time": 10.500024975024974,
              "duration": 0.24788882992007993,
              "velocity": 64
            },
            {
              "pitch": 56,
              "time": 12.99998413045288,
              "duration": 0.24794112137862137,
              "velocity": 64
            },
            {
              "pitch": 56,
              "time": 14.499990894522144,
              "duration": 0.24794112137862137,
              "velocity": 64
            },
            {
              "pitch": 56,
              "time": 17.000002341408592,
              "duration": 0.24788882992007993,
              "velocity": 64
            },
            {
              "pitch": 56,
              "time": 18.500009105477854,
              "duration": 0.24788882992007993,
              "velocity": 64
            },
            {
              "pitch": 56,
              "time": 21.000020292207793,
              "duration": 0.24788909007659007,
              "velocity": 64
            },
            {
              "pitch": 56,
              "time": 22.499975024975026,
              "duration": 0.24794112137862137,
              "velocity": 64
            },
            {
              "pitch": 56,
              "time": 24.999986471861472,
              "duration": 0.24794086122211123,
              "velocity": 64
            },
            {
              "pitch": 56,
              "time": 26.499993235930734,
              "duration": 0.24794112137862137,
              "velocity": 64
            },
            {
              "pitch": 56,
              "time": 29.000004422660673,
              "duration": 0.24788909007659007,
              "velocity": 64
            },
            {
              "pitch": 56,
              "time": 30.500011446886447,
              "duration": 0.24788882992007993,
              "velocity": 64
            },
            {
              "pitch": 56,
              "time": 33.00002263361638,
              "duration": 0.24788882992007993,
              "velocity": 64
            },
            {
              "pitch": 56,
              "time": 34.49997736638362,
              "duration": 0.24794112137862137,
              "velocity": 64
            },
            {
              "pitch": 56,
              "time": 36.99998855311355,
              "duration": 0.24794112137862137,
              "velocity": 64
            },
            {
              "pitch": 56,
              "time": 38.49999557733933,
              "duration": 0.24794086122211123,
              "velocity": 64
            },
            {
              "pitch": 56,
              "time": 41.00000676406926,
              "duration": 0.24788882992007993,
              "velocity": 64
            },
            {
              "pitch": 56,
              "time": 42.50001352813853,
              "duration": 0.24788909007659007,
              "velocity": 64
            },
            {
              "pitch": 56,
              "time": 45.00002497502498,
              "duration": 0.24788882992007993,
              "velocity": 64
            },
            {
              "pitch": 56,
              "time": 46.49997970779221,
              "duration": 0.24794086122211123,
              "velocity": 64
            },
            {
              "pitch": 56,
              "time": 48.99999089452214,
              "duration": 0.24794112137862137,
              "velocity": 64
            },
            {
              "pitch": 56,
              "time": 50.49999765859141,
              "duration": 0.24794112137862137,
              "velocity": 64
            },
            {
              "pitch": 56,
              "time": 53.00000910547786,
              "duration": 0.24788882992007993,
              "velocity": 64
            },
            {
              "pitch": 56,
              "time": 54.50001586954712,
              "duration": 0.24788882992007993,
              "velocity": 64
            },
            {
              "pitch": 56,
              "time": 56.99997502497502,
              "duration": 0.24794112137862137,
              "velocity": 64
            },
            {
              "pitch": 56,
              "time": 58.49998178904429,
              "duration": 0.24794112137862137,
              "velocity": 64
            },
            {
              "pitch": 56,
              "time": 60.99999323593074,
              "duration": 0.24794112137862137,
              "velocity": 64
            },
            {
              "pitch": 56,
              "time": 62.5,
              "duration": 0.24794112137862137,
              "velocity": 64
            },
            {
              "pitch": 56,
              "time": 65.00001144688645,
              "duration": 0.24788882992007993,
              "velocity": 64
            },
            {
              "pitch": 56,
              "time": 66.50001821095572,
              "duration": 0.24788882992007993,
              "velocity": 64
            },
            {
              "pitch": 56,
              "time": 68.99997736638362,
              "duration": 0.24794112137862137,
              "velocity": 64
            },
            {
              "pitch": 56,
              "time": 70.49998413045289,
              "duration": 0.24794112137862137,
              "velocity": 64
            },
            {
              "pitch": 56,
              "time": 72.99999557733933,
              "duration": 0.24794086122211123,
              "velocity": 64
            },
            {
              "pitch": 56,
              "time": 74.50000234140859,
              "duration": 0.24788882992007993,
              "velocity": 64
            },
            {
              "pitch": 56,
              "time": 77.00001352813852,
              "duration": 0.24788909007659007,
              "velocity": 64
            },
            {
              "pitch": 56,
              "time": 78.5000202922078,
              "duration": 0.24788909007659007,
              "velocity": 64
            },
            {
              "pitch": 56,
              "time": 80.9999797077922,
              "duration": 0.24794086122211123,
              "velocity": 64
            },
            {
              "pitch": 56,
              "time": 82.49998647186148,
              "duration": 0.24794086122211123,
              "velocity": 64
            },
            {
              "pitch": 56,
              "time": 84.99999765859141,
              "duration": 0.24794112137862137,
              "velocity": 64
            },
            {
              "pitch": 56,
              "time": 86.50000442266067,
              "duration": 0.24788909007659007,
              "velocity": 64
            },
            {
              "pitch": 56,
              "time": 89.00001586954711,
              "duration": 0.24788882992007993,
              "velocity": 64
            },
            {
              "pitch": 56,
              "time": 90.50002263361638,
              "duration": 0.24788882992007993,
              "velocity": 64
            },
            {
              "pitch": 56,
              "time": 92.99998178904428,
              "duration": 0.24794112137862137,
              "velocity": 64
            },
            {
              "pitch": 56,
              "time": 94.49998855311355,
              "duration": 0.24794112137862137,
              "velocity": 64
            },
            {
              "pitch": 56,
              "time": 97,
              "duration": 0.24794112137862137,
              "velocity": 64
            },
            {
              "pitch": 56,
              "time": 98.50000676406927,
              "duration": 0.24788882992007993,
              "velocity": 64
            },
            {
              "pitch": 56,
              "time": 101.00001821095572,
              "duration": 0.24788882992007993,
              "velocity": 64
            },
            {
              "pitch": 56,
              "time": 102.50002497502497,
              "duration": 0.24788882992007993,
              "velocity": 64
            },
            {
              "pitch": 56,
              "time": 104.99998413045289,
              "duration": 0.24794112137862137,
              "velocity": 64
            },
            {
              "pitch": 56,
              "time": 106.49999089452214,
              "duration": 0.24794112137862137,
              "velocity": 64
            },
            {
              "pitch": 56,
              "time": 109.00000234140859,
              "duration": 0.24788882992007993,
              "velocity": 64
            },
            {
              "pitch": 56,
              "time": 110.50000910547786,
              "duration": 0.24788882992007993,
              "velocity": 64
            },
            {
              "pitch": 56,
              "time": 113.0000202922078,
              "duration": 0.24788909007659007,
              "velocity": 64
            },
            {
              "pitch": 56,
              "time": 114.49997502497503,
              "duration": 0.24794112137862137,
              "velocity": 64
            },
            {
              "pitch": 56,
              "time": 116.99998647186148,
              "duration": 0.24794086122211123,
              "velocity": 64
            },
            {
              "pitch": 56,
              "time": 118.49999323593073,
              "duration": 0.24794112137862137,
              "velocity": 64
            },
            {
              "pitch": 56,
              "time": 121.00000442266067,
              "duration": 0.24788909007659007,
              "velocity": 64
            },
            {
              "pitch": 56,
              "time": 122.50001144688645,
              "duration": 0.24788882992007993,
              "velocity": 64
            },
            {
              "pitch": 56,
              "time": 125.00002263361638,
              "duration": 0.24788882992007993,
              "velocity": 64
            },
            {
              "pitch": 56,
              "time": 126.49997736638362,
              "duration": 0.24794112137862137,
              "velocity": 64
            },
            {
              "pitch": 81,
              "time": 1.4999841304528805,
              "duration": 0.24794112137862137,
              "velocity": 3
            }
          ],
          "gainInfo": 1,
          "contentSummary": "midi clip, 0.2 bars, 254 notes",
          "clipColor": 10,
          "name": "ARP 2600 V3 3"
        },
        {
          "id": "track_midi_32_9_clip_5",
          "trackId": "track_midi_32_9",
          "clipType": "midi",
          "start": 448.781351461039,
          "end": 576,
          "loop": false,
          "sourceRef": null,
          "midiNoteCount": 254,
          "midiNotes": [
            {
              "pitch": 41,
              "time": 2.9999908945221447,
              "duration": 0.24794112137862137,
              "velocity": 39
            },
            {
              "pitch": 41,
              "time": 4.4999976585914085,
              "duration": 0.24794112137862137,
              "velocity": 39
            },
            {
              "pitch": 41,
              "time": 7.000009105477855,
              "duration": 0.24788882992007993,
              "velocity": 39
            },
            {
              "pitch": 41,
              "time": 8.50001586954712,
              "duration": 0.24788882992007993,
              "velocity": 39
            },
            {
              "pitch": 41,
              "time": 10.999975024975026,
              "duration": 0.24794112137862137,
              "velocity": 39
            },
            {
              "pitch": 41,
              "time": 12.49998178904429,
              "duration": 0.24794112137862137,
              "velocity": 39
            },
            {
              "pitch": 41,
              "time": 14.999993235930736,
              "duration": 0.24794112137862137,
              "velocity": 39
            },
            {
              "pitch": 41,
              "time": 16.5,
              "duration": 0.24794112137862137,
              "velocity": 39
            },
            {
              "pitch": 41,
              "time": 19.000011446886447,
              "duration": 0.24788882992007993,
              "velocity": 39
            },
            {
              "pitch": 41,
              "time": 20.500018210955712,
              "duration": 0.24788882992007993,
              "velocity": 39
            },
            {
              "pitch": 41,
              "time": 22.999977366383618,
              "duration": 0.24794112137862137,
              "velocity": 39
            },
            {
              "pitch": 41,
              "time": 24.49998413045288,
              "duration": 0.24794112137862137,
              "velocity": 39
            },
            {
              "pitch": 41,
              "time": 26.999995577339327,
              "duration": 0.24794086122211123,
              "velocity": 39
            },
            {
              "pitch": 41,
              "time": 28.500002341408592,
              "duration": 0.24788882992007993,
              "velocity": 39
            },
            {
              "pitch": 41,
              "time": 31.000013528138528,
              "duration": 0.24788909007659007,
              "velocity": 39
            },
            {
              "pitch": 41,
              "time": 32.50002029220779,
              "duration": 0.24788909007659007,
              "velocity": 39
            },
            {
              "pitch": 41,
              "time": 34.99997970779221,
              "duration": 0.24794086122211123,
              "velocity": 39
            },
            {
              "pitch": 41,
              "time": 36.49998647186147,
              "duration": 0.24794086122211123,
              "velocity": 39
            },
            {
              "pitch": 41,
              "time": 38.99999765859141,
              "duration": 0.24794112137862137,
              "velocity": 39
            },
            {
              "pitch": 41,
              "time": 40.50000442266067,
              "duration": 0.24788909007659007,
              "velocity": 39
            },
            {
              "pitch": 41,
              "time": 43.00001586954712,
              "duration": 0.24788882992007993,
              "velocity": 39
            },
            {
              "pitch": 41,
              "time": 44.50002263361638,
              "duration": 0.24788882992007993,
              "velocity": 39
            },
            {
              "pitch": 41,
              "time": 46.99998178904429,
              "duration": 0.24794112137862137,
              "velocity": 39
            },
            {
              "pitch": 41,
              "time": 48.49998855311355,
              "duration": 0.24794112137862137,
              "velocity": 39
            },
            {
              "pitch": 41,
              "time": 51,
              "duration": 0.24794112137862137,
              "velocity": 39
            },
            {
              "pitch": 41,
              "time": 52.50000676406926,
              "duration": 0.24788882992007993,
              "velocity": 39
            },
            {
              "pitch": 41,
              "time": 55.00001821095571,
              "duration": 0.24788882992007993,
              "velocity": 39
            },
            {
              "pitch": 41,
              "time": 56.50002497502498,
              "duration": 0.24788882992007993,
              "velocity": 39
            },
            {
              "pitch": 41,
              "time": 58.99998413045288,
              "duration": 0.24794112137862137,
              "velocity": 39
            },
            {
              "pitch": 41,
              "time": 60.49999089452214,
              "duration": 0.24794112137862137,
              "velocity": 39
            },
            {
              "pitch": 41,
              "time": 63.00000234140859,
              "duration": 0.24788882992007993,
              "velocity": 39
            },
            {
              "pitch": 41,
              "time": 64.50000910547786,
              "duration": 0.24788882992007993,
              "velocity": 39
            },
            {
              "pitch": 41,
              "time": 67.0000202922078,
              "duration": 0.24788909007659007,
              "velocity": 39
            },
            {
              "pitch": 41,
              "time": 68.49997502497503,
              "duration": 0.24794112137862137,
              "velocity": 39
            },
            {
              "pitch": 41,
              "time": 70.99998647186148,
              "duration": 0.24794086122211123,
              "velocity": 39
            },
            {
              "pitch": 41,
              "time": 72.49999323593073,
              "duration": 0.24794112137862137,
              "velocity": 39
            },
            {
              "pitch": 41,
              "time": 75.00000442266067,
              "duration": 0.24788909007659007,
              "velocity": 39
            },
            {
              "pitch": 41,
              "time": 76.50001144688645,
              "duration": 0.24788882992007993,
              "velocity": 39
            },
            {
              "pitch": 41,
              "time": 79.00002263361638,
              "duration": 0.24788882992007993,
              "velocity": 39
            },
            {
              "pitch": 41,
              "time": 80.49997736638362,
              "duration": 0.24794112137862137,
              "velocity": 39
            },
            {
              "pitch": 41,
              "time": 82.99998855311355,
              "duration": 0.24794112137862137,
              "velocity": 39
            },
            {
              "pitch": 41,
              "time": 84.49999557733933,
              "duration": 0.24794086122211123,
              "velocity": 39
            },
            {
              "pitch": 41,
              "time": 87.00000676406927,
              "duration": 0.24788882992007993,
              "velocity": 39
            },
            {
              "pitch": 41,
              "time": 88.50001352813852,
              "duration": 0.24788909007659007,
              "velocity": 39
            },
            {
              "pitch": 41,
              "time": 91.00002497502497,
              "duration": 0.24788882992007993,
              "velocity": 39
            },
            {
              "pitch": 41,
              "time": 92.4999797077922,
              "duration": 0.24794086122211123,
              "velocity": 39
            },
            {
              "pitch": 41,
              "time": 94.99999089452214,
              "duration": 0.24794112137862137,
              "velocity": 39
            },
            {
              "pitch": 41,
              "time": 96.49999765859141,
              "duration": 0.24794112137862137,
              "velocity": 39
            },
            {
              "pitch": 41,
              "time": 99.00000910547786,
              "duration": 0.24788882992007993,
              "velocity": 39
            },
            {
              "pitch": 41,
              "time": 100.50001586954711,
              "duration": 0.24788882992007993,
              "velocity": 39
            },
            {
              "pitch": 41,
              "time": 102.99997502497503,
              "duration": 0.24794112137862137,
              "velocity": 39
            },
            {
              "pitch": 41,
              "time": 104.49998178904428,
              "duration": 0.24794112137862137,
              "velocity": 39
            },
            {
              "pitch": 41,
              "time": 106.99999323593073,
              "duration": 0.24794112137862137,
              "velocity": 39
            },
            {
              "pitch": 41,
              "time": 108.5,
              "duration": 0.24794112137862137,
              "velocity": 39
            },
            {
              "pitch": 41,
              "time": 111.00001144688645,
              "duration": 0.24788882992007993,
              "velocity": 39
            },
            {
              "pitch": 41,
              "time": 112.50001821095572,
              "duration": 0.24788882992007993,
              "velocity": 39
            },
            {
              "pitch": 41,
              "time": 114.99997736638362,
              "duration": 0.24794112137862137,
              "velocity": 39
            },
            {
              "pitch": 41,
              "time": 116.49998413045289,
              "duration": 0.24794112137862137,
              "velocity": 39
            },
            {
              "pitch": 41,
              "time": 118.99999557733933,
              "duration": 0.24794086122211123,
              "velocity": 39
            },
            {
              "pitch": 41,
              "time": 120.50000234140859,
              "duration": 0.24788882992007993,
              "velocity": 39
            },
            {
              "pitch": 41,
              "time": 123.00001352813852,
              "duration": 0.24788909007659007,
              "velocity": 39
            },
            {
              "pitch": 41,
              "time": 124.5000202922078,
              "duration": 0.24788909007659007,
              "velocity": 39
            },
            {
              "pitch": 41,
              "time": 126.9999797077922,
              "duration": 0.24794086122211123,
              "velocity": 39
            },
            {
              "pitch": 44,
              "time": 0.999981789044289,
              "duration": 0.24794112137862137,
              "velocity": 64
            },
            {
              "pitch": 44,
              "time": 2.4999885531135533,
              "duration": 0.24794112137862137,
              "velocity": 64
            },
            {
              "pitch": 44,
              "time": 5,
              "duration": 0.24794112137862137,
              "velocity": 64
            },
            {
              "pitch": 44,
              "time": 6.500006764069264,
              "duration": 0.24788882992007993,
              "velocity": 64
            },
            {
              "pitch": 44,
              "time": 9.00001821095571,
              "duration": 0.24788882992007993,
              "velocity": 64
            },
            {
              "pitch": 44,
              "time": 10.500024975024974,
              "duration": 0.24788882992007993,
              "velocity": 64
            },
            {
              "pitch": 44,
              "time": 12.99998413045288,
              "duration": 0.24794112137862137,
              "velocity": 64
            },
            {
              "pitch": 44,
              "time": 14.499990894522144,
              "duration": 0.24794112137862137,
              "velocity": 64
            },
            {
              "pitch": 44,
              "time": 17.000002341408592,
              "duration": 0.24788882992007993,
              "velocity": 64
            },
            {
              "pitch": 44,
              "time": 18.500009105477854,
              "duration": 0.24788882992007993,
              "velocity": 64
            },
            {
              "pitch": 44,
              "time": 21.000020292207793,
              "duration": 0.24788909007659007,
              "velocity": 64
            },
            {
              "pitch": 44,
              "time": 22.499975024975026,
              "duration": 0.24794112137862137,
              "velocity": 64
            },
            {
              "pitch": 44,
              "time": 24.999986471861472,
              "duration": 0.24794086122211123,
              "velocity": 64
            },
            {
              "pitch": 44,
              "time": 26.499993235930734,
              "duration": 0.24794112137862137,
              "velocity": 64
            },
            {
              "pitch": 44,
              "time": 29.000004422660673,
              "duration": 0.24788909007659007,
              "velocity": 64
            },
            {
              "pitch": 44,
              "time": 30.500011446886447,
              "duration": 0.24788882992007993,
              "velocity": 64
            },
            {
              "pitch": 44,
              "time": 33.00002263361638,
              "duration": 0.24788882992007993,
              "velocity": 64
            },
            {
              "pitch": 44,
              "time": 34.49997736638362,
              "duration": 0.24794112137862137,
              "velocity": 64
            },
            {
              "pitch": 44,
              "time": 36.99998855311355,
              "duration": 0.24794112137862137,
              "velocity": 64
            },
            {
              "pitch": 44,
              "time": 38.49999557733933,
              "duration": 0.24794086122211123,
              "velocity": 64
            },
            {
              "pitch": 44,
              "time": 41.00000676406926,
              "duration": 0.24788882992007993,
              "velocity": 64
            },
            {
              "pitch": 44,
              "time": 42.50001352813853,
              "duration": 0.24788909007659007,
              "velocity": 64
            },
            {
              "pitch": 44,
              "time": 45.00002497502498,
              "duration": 0.24788882992007993,
              "velocity": 64
            },
            {
              "pitch": 44,
              "time": 46.49997970779221,
              "duration": 0.24794086122211123,
              "velocity": 64
            },
            {
              "pitch": 44,
              "time": 48.99999089452214,
              "duration": 0.24794112137862137,
              "velocity": 64
            },
            {
              "pitch": 44,
              "time": 50.49999765859141,
              "duration": 0.24794112137862137,
              "velocity": 64
            },
            {
              "pitch": 44,
              "time": 53.00000910547786,
              "duration": 0.24788882992007993,
              "velocity": 64
            },
            {
              "pitch": 44,
              "time": 54.50001586954712,
              "duration": 0.24788882992007993,
              "velocity": 64
            },
            {
              "pitch": 44,
              "time": 56.99997502497502,
              "duration": 0.24794112137862137,
              "velocity": 64
            },
            {
              "pitch": 44,
              "time": 58.49998178904429,
              "duration": 0.24794112137862137,
              "velocity": 64
            },
            {
              "pitch": 44,
              "time": 60.99999323593074,
              "duration": 0.24794112137862137,
              "velocity": 64
            },
            {
              "pitch": 44,
              "time": 62.5,
              "duration": 0.24794112137862137,
              "velocity": 64
            },
            {
              "pitch": 44,
              "time": 65.00001144688645,
              "duration": 0.24788882992007993,
              "velocity": 64
            },
            {
              "pitch": 44,
              "time": 66.50001821095572,
              "duration": 0.24788882992007993,
              "velocity": 64
            },
            {
              "pitch": 44,
              "time": 68.99997736638362,
              "duration": 0.24794112137862137,
              "velocity": 64
            },
            {
              "pitch": 44,
              "time": 70.49998413045289,
              "duration": 0.24794112137862137,
              "velocity": 64
            },
            {
              "pitch": 44,
              "time": 72.99999557733933,
              "duration": 0.24794086122211123,
              "velocity": 64
            },
            {
              "pitch": 44,
              "time": 74.50000234140859,
              "duration": 0.24788882992007993,
              "velocity": 64
            },
            {
              "pitch": 44,
              "time": 77.00001352813852,
              "duration": 0.24788909007659007,
              "velocity": 64
            },
            {
              "pitch": 44,
              "time": 78.5000202922078,
              "duration": 0.24788909007659007,
              "velocity": 64
            },
            {
              "pitch": 44,
              "time": 80.9999797077922,
              "duration": 0.24794086122211123,
              "velocity": 64
            },
            {
              "pitch": 44,
              "time": 82.49998647186148,
              "duration": 0.24794086122211123,
              "velocity": 64
            },
            {
              "pitch": 44,
              "time": 84.99999765859141,
              "duration": 0.24794112137862137,
              "velocity": 64
            },
            {
              "pitch": 44,
              "time": 86.50000442266067,
              "duration": 0.24788909007659007,
              "velocity": 64
            },
            {
              "pitch": 44,
              "time": 89.00001586954711,
              "duration": 0.24788882992007993,
              "velocity": 64
            },
            {
              "pitch": 44,
              "time": 90.50002263361638,
              "duration": 0.24788882992007993,
              "velocity": 64
            },
            {
              "pitch": 44,
              "time": 92.99998178904428,
              "duration": 0.24794112137862137,
              "velocity": 64
            },
            {
              "pitch": 44,
              "time": 94.49998855311355,
              "duration": 0.24794112137862137,
              "velocity": 64
            },
            {
              "pitch": 44,
              "time": 97,
              "duration": 0.24794112137862137,
              "velocity": 64
            },
            {
              "pitch": 44,
              "time": 98.50000676406927,
              "duration": 0.24788882992007993,
              "velocity": 64
            },
            {
              "pitch": 44,
              "time": 101.00001821095572,
              "duration": 0.24788882992007993,
              "velocity": 64
            },
            {
              "pitch": 44,
              "time": 102.50002497502497,
              "duration": 0.24788882992007993,
              "velocity": 64
            },
            {
              "pitch": 44,
              "time": 104.99998413045289,
              "duration": 0.24794112137862137,
              "velocity": 64
            },
            {
              "pitch": 44,
              "time": 106.49999089452214,
              "duration": 0.24794112137862137,
              "velocity": 64
            },
            {
              "pitch": 44,
              "time": 109.00000234140859,
              "duration": 0.24788882992007993,
              "velocity": 64
            },
            {
              "pitch": 44,
              "time": 110.50000910547786,
              "duration": 0.24788882992007993,
              "velocity": 64
            },
            {
              "pitch": 44,
              "time": 113.0000202922078,
              "duration": 0.24788909007659007,
              "velocity": 64
            },
            {
              "pitch": 44,
              "time": 114.49997502497503,
              "duration": 0.24794112137862137,
              "velocity": 64
            },
            {
              "pitch": 44,
              "time": 116.99998647186148,
              "duration": 0.24794086122211123,
              "velocity": 64
            },
            {
              "pitch": 44,
              "time": 118.49999323593073,
              "duration": 0.24794112137862137,
              "velocity": 64
            },
            {
              "pitch": 44,
              "time": 121.00000442266067,
              "duration": 0.24788909007659007,
              "velocity": 64
            },
            {
              "pitch": 44,
              "time": 122.50001144688645,
              "duration": 0.24788882992007993,
              "velocity": 64
            },
            {
              "pitch": 44,
              "time": 125.00002263361638,
              "duration": 0.24788882992007993,
              "velocity": 64
            },
            {
              "pitch": 44,
              "time": 126.49997736638362,
              "duration": 0.24794112137862137,
              "velocity": 64
            },
            {
              "pitch": 69,
              "time": 1.4999841304528805,
              "duration": 0.24794112137862137,
              "velocity": 3
            }
          ],
          "gainInfo": 1,
          "contentSummary": "midi clip, 31.8 bars, 254 notes",
          "clipColor": 10,
          "name": "ARP 2600 V3 3"
        },
        {
          "id": "track_midi_32_9_clip_6",
          "trackId": "track_midi_32_9",
          "clipType": "midi",
          "start": 576,
          "end": 703.218648538961,
          "loop": false,
          "sourceRef": null,
          "midiNoteCount": 254,
          "midiNotes": [
            {
              "pitch": 41,
              "time": 2.9999908945221447,
              "duration": 0.24794112137862137,
              "velocity": 39
            },
            {
              "pitch": 41,
              "time": 4.4999976585914085,
              "duration": 0.24794112137862137,
              "velocity": 39
            },
            {
              "pitch": 41,
              "time": 7.000009105477855,
              "duration": 0.24788882992007993,
              "velocity": 39
            },
            {
              "pitch": 41,
              "time": 8.50001586954712,
              "duration": 0.24788882992007993,
              "velocity": 39
            },
            {
              "pitch": 41,
              "time": 10.999975024975026,
              "duration": 0.24794112137862137,
              "velocity": 39
            },
            {
              "pitch": 41,
              "time": 12.49998178904429,
              "duration": 0.24794112137862137,
              "velocity": 39
            },
            {
              "pitch": 41,
              "time": 14.999993235930736,
              "duration": 0.24794112137862137,
              "velocity": 39
            },
            {
              "pitch": 41,
              "time": 16.5,
              "duration": 0.24794112137862137,
              "velocity": 39
            },
            {
              "pitch": 41,
              "time": 19.000011446886447,
              "duration": 0.24788882992007993,
              "velocity": 39
            },
            {
              "pitch": 41,
              "time": 20.500018210955712,
              "duration": 0.24788882992007993,
              "velocity": 39
            },
            {
              "pitch": 41,
              "time": 22.999977366383618,
              "duration": 0.24794112137862137,
              "velocity": 39
            },
            {
              "pitch": 41,
              "time": 24.49998413045288,
              "duration": 0.24794112137862137,
              "velocity": 39
            },
            {
              "pitch": 41,
              "time": 26.999995577339327,
              "duration": 0.24794086122211123,
              "velocity": 39
            },
            {
              "pitch": 41,
              "time": 28.500002341408592,
              "duration": 0.24788882992007993,
              "velocity": 39
            },
            {
              "pitch": 41,
              "time": 31.000013528138528,
              "duration": 0.24788909007659007,
              "velocity": 39
            },
            {
              "pitch": 41,
              "time": 32.50002029220779,
              "duration": 0.24788909007659007,
              "velocity": 39
            },
            {
              "pitch": 41,
              "time": 34.99997970779221,
              "duration": 0.24794086122211123,
              "velocity": 39
            },
            {
              "pitch": 41,
              "time": 36.49998647186147,
              "duration": 0.24794086122211123,
              "velocity": 39
            },
            {
              "pitch": 41,
              "time": 38.99999765859141,
              "duration": 0.24794112137862137,
              "velocity": 39
            },
            {
              "pitch": 41,
              "time": 40.50000442266067,
              "duration": 0.24788909007659007,
              "velocity": 39
            },
            {
              "pitch": 41,
              "time": 43.00001586954712,
              "duration": 0.24788882992007993,
              "velocity": 39
            },
            {
              "pitch": 41,
              "time": 44.50002263361638,
              "duration": 0.24788882992007993,
              "velocity": 39
            },
            {
              "pitch": 41,
              "time": 46.99998178904429,
              "duration": 0.24794112137862137,
              "velocity": 39
            },
            {
              "pitch": 41,
              "time": 48.49998855311355,
              "duration": 0.24794112137862137,
              "velocity": 39
            },
            {
              "pitch": 41,
              "time": 51,
              "duration": 0.24794112137862137,
              "velocity": 39
            },
            {
              "pitch": 41,
              "time": 52.50000676406926,
              "duration": 0.24788882992007993,
              "velocity": 39
            },
            {
              "pitch": 41,
              "time": 55.00001821095571,
              "duration": 0.24788882992007993,
              "velocity": 39
            },
            {
              "pitch": 41,
              "time": 56.50002497502498,
              "duration": 0.24788882992007993,
              "velocity": 39
            },
            {
              "pitch": 41,
              "time": 58.99998413045288,
              "duration": 0.24794112137862137,
              "velocity": 39
            },
            {
              "pitch": 41,
              "time": 60.49999089452214,
              "duration": 0.24794112137862137,
              "velocity": 39
            },
            {
              "pitch": 41,
              "time": 63.00000234140859,
              "duration": 0.24788882992007993,
              "velocity": 39
            },
            {
              "pitch": 41,
              "time": 64.50000910547786,
              "duration": 0.24788882992007993,
              "velocity": 39
            },
            {
              "pitch": 41,
              "time": 67.0000202922078,
              "duration": 0.24788909007659007,
              "velocity": 39
            },
            {
              "pitch": 41,
              "time": 68.49997502497503,
              "duration": 0.24794112137862137,
              "velocity": 39
            },
            {
              "pitch": 41,
              "time": 70.99998647186148,
              "duration": 0.24794086122211123,
              "velocity": 39
            },
            {
              "pitch": 41,
              "time": 72.49999323593073,
              "duration": 0.24794112137862137,
              "velocity": 39
            },
            {
              "pitch": 41,
              "time": 75.00000442266067,
              "duration": 0.24788909007659007,
              "velocity": 39
            },
            {
              "pitch": 41,
              "time": 76.50001144688645,
              "duration": 0.24788882992007993,
              "velocity": 39
            },
            {
              "pitch": 41,
              "time": 79.00002263361638,
              "duration": 0.24788882992007993,
              "velocity": 39
            },
            {
              "pitch": 41,
              "time": 80.49997736638362,
              "duration": 0.24794112137862137,
              "velocity": 39
            },
            {
              "pitch": 41,
              "time": 82.99998855311355,
              "duration": 0.24794112137862137,
              "velocity": 39
            },
            {
              "pitch": 41,
              "time": 84.49999557733933,
              "duration": 0.24794086122211123,
              "velocity": 39
            },
            {
              "pitch": 41,
              "time": 87.00000676406927,
              "duration": 0.24788882992007993,
              "velocity": 39
            },
            {
              "pitch": 41,
              "time": 88.50001352813852,
              "duration": 0.24788909007659007,
              "velocity": 39
            },
            {
              "pitch": 41,
              "time": 91.00002497502497,
              "duration": 0.24788882992007993,
              "velocity": 39
            },
            {
              "pitch": 41,
              "time": 92.4999797077922,
              "duration": 0.24794086122211123,
              "velocity": 39
            },
            {
              "pitch": 41,
              "time": 94.99999089452214,
              "duration": 0.24794112137862137,
              "velocity": 39
            },
            {
              "pitch": 41,
              "time": 96.49999765859141,
              "duration": 0.24794112137862137,
              "velocity": 39
            },
            {
              "pitch": 41,
              "time": 99.00000910547786,
              "duration": 0.24788882992007993,
              "velocity": 39
            },
            {
              "pitch": 41,
              "time": 100.50001586954711,
              "duration": 0.24788882992007993,
              "velocity": 39
            },
            {
              "pitch": 41,
              "time": 102.99997502497503,
              "duration": 0.24794112137862137,
              "velocity": 39
            },
            {
              "pitch": 41,
              "time": 104.49998178904428,
              "duration": 0.24794112137862137,
              "velocity": 39
            },
            {
              "pitch": 41,
              "time": 106.99999323593073,
              "duration": 0.24794112137862137,
              "velocity": 39
            },
            {
              "pitch": 41,
              "time": 108.5,
              "duration": 0.24794112137862137,
              "velocity": 39
            },
            {
              "pitch": 41,
              "time": 111.00001144688645,
              "duration": 0.24788882992007993,
              "velocity": 39
            },
            {
              "pitch": 41,
              "time": 112.50001821095572,
              "duration": 0.24788882992007993,
              "velocity": 39
            },
            {
              "pitch": 41,
              "time": 114.99997736638362,
              "duration": 0.24794112137862137,
              "velocity": 39
            },
            {
              "pitch": 41,
              "time": 116.49998413045289,
              "duration": 0.24794112137862137,
              "velocity": 39
            },
            {
              "pitch": 41,
              "time": 118.99999557733933,
              "duration": 0.24794086122211123,
              "velocity": 39
            },
            {
              "pitch": 41,
              "time": 120.50000234140859,
              "duration": 0.24788882992007993,
              "velocity": 39
            },
            {
              "pitch": 41,
              "time": 123.00001352813852,
              "duration": 0.24788909007659007,
              "velocity": 39
            },
            {
              "pitch": 41,
              "time": 124.5000202922078,
              "duration": 0.24788909007659007,
              "velocity": 39
            },
            {
              "pitch": 41,
              "time": 126.9999797077922,
              "duration": 0.24794086122211123,
              "velocity": 39
            },
            {
              "pitch": 44,
              "time": 0.999981789044289,
              "duration": 0.24794112137862137,
              "velocity": 64
            },
            {
              "pitch": 44,
              "time": 2.4999885531135533,
              "duration": 0.24794112137862137,
              "velocity": 64
            },
            {
              "pitch": 44,
              "time": 5,
              "duration": 0.24794112137862137,
              "velocity": 64
            },
            {
              "pitch": 44,
              "time": 6.500006764069264,
              "duration": 0.24788882992007993,
              "velocity": 64
            },
            {
              "pitch": 44,
              "time": 9.00001821095571,
              "duration": 0.24788882992007993,
              "velocity": 64
            },
            {
              "pitch": 44,
              "time": 10.500024975024974,
              "duration": 0.24788882992007993,
              "velocity": 64
            },
            {
              "pitch": 44,
              "time": 12.99998413045288,
              "duration": 0.24794112137862137,
              "velocity": 64
            },
            {
              "pitch": 44,
              "time": 14.499990894522144,
              "duration": 0.24794112137862137,
              "velocity": 64
            },
            {
              "pitch": 44,
              "time": 17.000002341408592,
              "duration": 0.24788882992007993,
              "velocity": 64
            },
            {
              "pitch": 44,
              "time": 18.500009105477854,
              "duration": 0.24788882992007993,
              "velocity": 64
            },
            {
              "pitch": 44,
              "time": 21.000020292207793,
              "duration": 0.24788909007659007,
              "velocity": 64
            },
            {
              "pitch": 44,
              "time": 22.499975024975026,
              "duration": 0.24794112137862137,
              "velocity": 64
            },
            {
              "pitch": 44,
              "time": 24.999986471861472,
              "duration": 0.24794086122211123,
              "velocity": 64
            },
            {
              "pitch": 44,
              "time": 26.499993235930734,
              "duration": 0.24794112137862137,
              "velocity": 64
            },
            {
              "pitch": 44,
              "time": 29.000004422660673,
              "duration": 0.24788909007659007,
              "velocity": 64
            },
            {
              "pitch": 44,
              "time": 30.500011446886447,
              "duration": 0.24788882992007993,
              "velocity": 64
            },
            {
              "pitch": 44,
              "time": 33.00002263361638,
              "duration": 0.24788882992007993,
              "velocity": 64
            },
            {
              "pitch": 44,
              "time": 34.49997736638362,
              "duration": 0.24794112137862137,
              "velocity": 64
            },
            {
              "pitch": 44,
              "time": 36.99998855311355,
              "duration": 0.24794112137862137,
              "velocity": 64
            },
            {
              "pitch": 44,
              "time": 38.49999557733933,
              "duration": 0.24794086122211123,
              "velocity": 64
            },
            {
              "pitch": 44,
              "time": 41.00000676406926,
              "duration": 0.24788882992007993,
              "velocity": 64
            },
            {
              "pitch": 44,
              "time": 42.50001352813853,
              "duration": 0.24788909007659007,
              "velocity": 64
            },
            {
              "pitch": 44,
              "time": 45.00002497502498,
              "duration": 0.24788882992007993,
              "velocity": 64
            },
            {
              "pitch": 44,
              "time": 46.49997970779221,
              "duration": 0.24794086122211123,
              "velocity": 64
            },
            {
              "pitch": 44,
              "time": 48.99999089452214,
              "duration": 0.24794112137862137,
              "velocity": 64
            },
            {
              "pitch": 44,
              "time": 50.49999765859141,
              "duration": 0.24794112137862137,
              "velocity": 64
            },
            {
              "pitch": 44,
              "time": 53.00000910547786,
              "duration": 0.24788882992007993,
              "velocity": 64
            },
            {
              "pitch": 44,
              "time": 54.50001586954712,
              "duration": 0.24788882992007993,
              "velocity": 64
            },
            {
              "pitch": 44,
              "time": 56.99997502497502,
              "duration": 0.24794112137862137,
              "velocity": 64
            },
            {
              "pitch": 44,
              "time": 58.49998178904429,
              "duration": 0.24794112137862137,
              "velocity": 64
            },
            {
              "pitch": 44,
              "time": 60.99999323593074,
              "duration": 0.24794112137862137,
              "velocity": 64
            },
            {
              "pitch": 44,
              "time": 62.5,
              "duration": 0.24794112137862137,
              "velocity": 64
            },
            {
              "pitch": 44,
              "time": 65.00001144688645,
              "duration": 0.24788882992007993,
              "velocity": 64
            },
            {
              "pitch": 44,
              "time": 66.50001821095572,
              "duration": 0.24788882992007993,
              "velocity": 64
            },
            {
              "pitch": 44,
              "time": 68.99997736638362,
              "duration": 0.24794112137862137,
              "velocity": 64
            },
            {
              "pitch": 44,
              "time": 70.49998413045289,
              "duration": 0.24794112137862137,
              "velocity": 64
            },
            {
              "pitch": 44,
              "time": 72.99999557733933,
              "duration": 0.24794086122211123,
              "velocity": 64
            },
            {
              "pitch": 44,
              "time": 74.50000234140859,
              "duration": 0.24788882992007993,
              "velocity": 64
            },
            {
              "pitch": 44,
              "time": 77.00001352813852,
              "duration": 0.24788909007659007,
              "velocity": 64
            },
            {
              "pitch": 44,
              "time": 78.5000202922078,
              "duration": 0.24788909007659007,
              "velocity": 64
            },
            {
              "pitch": 44,
              "time": 80.9999797077922,
              "duration": 0.24794086122211123,
              "velocity": 64
            },
            {
              "pitch": 44,
              "time": 82.49998647186148,
              "duration": 0.24794086122211123,
              "velocity": 64
            },
            {
              "pitch": 44,
              "time": 84.99999765859141,
              "duration": 0.24794112137862137,
              "velocity": 64
            },
            {
              "pitch": 44,
              "time": 86.50000442266067,
              "duration": 0.24788909007659007,
              "velocity": 64
            },
            {
              "pitch": 44,
              "time": 89.00001586954711,
              "duration": 0.24788882992007993,
              "velocity": 64
            },
            {
              "pitch": 44,
              "time": 90.50002263361638,
              "duration": 0.24788882992007993,
              "velocity": 64
            },
            {
              "pitch": 44,
              "time": 92.99998178904428,
              "duration": 0.24794112137862137,
              "velocity": 64
            },
            {
              "pitch": 44,
              "time": 94.49998855311355,
              "duration": 0.24794112137862137,
              "velocity": 64
            },
            {
              "pitch": 44,
              "time": 97,
              "duration": 0.24794112137862137,
              "velocity": 64
            },
            {
              "pitch": 44,
              "time": 98.50000676406927,
              "duration": 0.24788882992007993,
              "velocity": 64
            },
            {
              "pitch": 44,
              "time": 101.00001821095572,
              "duration": 0.24788882992007993,
              "velocity": 64
            },
            {
              "pitch": 44,
              "time": 102.50002497502497,
              "duration": 0.24788882992007993,
              "velocity": 64
            },
            {
              "pitch": 44,
              "time": 104.99998413045289,
              "duration": 0.24794112137862137,
              "velocity": 64
            },
            {
              "pitch": 44,
              "time": 106.49999089452214,
              "duration": 0.24794112137862137,
              "velocity": 64
            },
            {
              "pitch": 44,
              "time": 109.00000234140859,
              "duration": 0.24788882992007993,
              "velocity": 64
            },
            {
              "pitch": 44,
              "time": 110.50000910547786,
              "duration": 0.24788882992007993,
              "velocity": 64
            },
            {
              "pitch": 44,
              "time": 113.0000202922078,
              "duration": 0.24788909007659007,
              "velocity": 64
            },
            {
              "pitch": 44,
              "time": 114.49997502497503,
              "duration": 0.24794112137862137,
              "velocity": 64
            },
            {
              "pitch": 44,
              "time": 116.99998647186148,
              "duration": 0.24794086122211123,
              "velocity": 64
            },
            {
              "pitch": 44,
              "time": 118.49999323593073,
              "duration": 0.24794112137862137,
              "velocity": 64
            },
            {
              "pitch": 44,
              "time": 121.00000442266067,
              "duration": 0.24788909007659007,
              "velocity": 64
            },
            {
              "pitch": 44,
              "time": 122.50001144688645,
              "duration": 0.24788882992007993,
              "velocity": 64
            },
            {
              "pitch": 44,
              "time": 125.00002263361638,
              "duration": 0.24788882992007993,
              "velocity": 64
            },
            {
              "pitch": 44,
              "time": 126.49997736638362,
              "duration": 0.24794112137862137,
              "velocity": 64
            },
            {
              "pitch": 69,
              "time": 1.4999841304528805,
              "duration": 0.24794112137862137,
              "velocity": 3
            }
          ],
          "gainInfo": 1,
          "contentSummary": "midi clip, 31.8 bars, 254 notes",
          "clipColor": 10,
          "name": "ARP 2600 V3 3"
        },
        {
          "id": "track_midi_32_9_clip_7",
          "trackId": "track_midi_32_9",
          "clipType": "midi",
          "start": 703.218648538961,
          "end": 704,
          "loop": false,
          "sourceRef": null,
          "midiNoteCount": 254,
          "midiNotes": [
            {
              "pitch": 53,
              "time": 2.9999908945221447,
              "duration": 0.24794112137862137,
              "velocity": 39
            },
            {
              "pitch": 53,
              "time": 4.4999976585914085,
              "duration": 0.24794112137862137,
              "velocity": 39
            },
            {
              "pitch": 53,
              "time": 7.000009105477855,
              "duration": 0.24788882992007993,
              "velocity": 39
            },
            {
              "pitch": 53,
              "time": 8.50001586954712,
              "duration": 0.24788882992007993,
              "velocity": 39
            },
            {
              "pitch": 53,
              "time": 10.999975024975026,
              "duration": 0.24794112137862137,
              "velocity": 39
            },
            {
              "pitch": 53,
              "time": 12.49998178904429,
              "duration": 0.24794112137862137,
              "velocity": 39
            },
            {
              "pitch": 53,
              "time": 14.999993235930736,
              "duration": 0.24794112137862137,
              "velocity": 39
            },
            {
              "pitch": 53,
              "time": 16.5,
              "duration": 0.24794112137862137,
              "velocity": 39
            },
            {
              "pitch": 53,
              "time": 19.000011446886447,
              "duration": 0.24788882992007993,
              "velocity": 39
            },
            {
              "pitch": 53,
              "time": 20.500018210955712,
              "duration": 0.24788882992007993,
              "velocity": 39
            },
            {
              "pitch": 53,
              "time": 22.999977366383618,
              "duration": 0.24794112137862137,
              "velocity": 39
            },
            {
              "pitch": 53,
              "time": 24.49998413045288,
              "duration": 0.24794112137862137,
              "velocity": 39
            },
            {
              "pitch": 53,
              "time": 26.999995577339327,
              "duration": 0.24794086122211123,
              "velocity": 39
            },
            {
              "pitch": 53,
              "time": 28.500002341408592,
              "duration": 0.24788882992007993,
              "velocity": 39
            },
            {
              "pitch": 53,
              "time": 31.000013528138528,
              "duration": 0.24788909007659007,
              "velocity": 39
            },
            {
              "pitch": 53,
              "time": 32.50002029220779,
              "duration": 0.24788909007659007,
              "velocity": 39
            },
            {
              "pitch": 53,
              "time": 34.99997970779221,
              "duration": 0.24794086122211123,
              "velocity": 39
            },
            {
              "pitch": 53,
              "time": 36.49998647186147,
              "duration": 0.24794086122211123,
              "velocity": 39
            },
            {
              "pitch": 53,
              "time": 38.99999765859141,
              "duration": 0.24794112137862137,
              "velocity": 39
            },
            {
              "pitch": 53,
              "time": 40.50000442266067,
              "duration": 0.24788909007659007,
              "velocity": 39
            },
            {
              "pitch": 53,
              "time": 43.00001586954712,
              "duration": 0.24788882992007993,
              "velocity": 39
            },
            {
              "pitch": 53,
              "time": 44.50002263361638,
              "duration": 0.24788882992007993,
              "velocity": 39
            },
            {
              "pitch": 53,
              "time": 46.99998178904429,
              "duration": 0.24794112137862137,
              "velocity": 39
            },
            {
              "pitch": 53,
              "time": 48.49998855311355,
              "duration": 0.24794112137862137,
              "velocity": 39
            },
            {
              "pitch": 53,
              "time": 51,
              "duration": 0.24794112137862137,
              "velocity": 39
            },
            {
              "pitch": 53,
              "time": 52.50000676406926,
              "duration": 0.24788882992007993,
              "velocity": 39
            },
            {
              "pitch": 53,
              "time": 55.00001821095571,
              "duration": 0.24788882992007993,
              "velocity": 39
            },
            {
              "pitch": 53,
              "time": 56.50002497502498,
              "duration": 0.24788882992007993,
              "velocity": 39
            },
            {
              "pitch": 53,
              "time": 58.99998413045288,
              "duration": 0.24794112137862137,
              "velocity": 39
            },
            {
              "pitch": 53,
              "time": 60.49999089452214,
              "duration": 0.24794112137862137,
              "velocity": 39
            },
            {
              "pitch": 53,
              "time": 63.00000234140859,
              "duration": 0.24788882992007993,
              "velocity": 39
            },
            {
              "pitch": 53,
              "time": 64.50000910547786,
              "duration": 0.24788882992007993,
              "velocity": 39
            },
            {
              "pitch": 53,
              "time": 67.0000202922078,
              "duration": 0.24788909007659007,
              "velocity": 39
            },
            {
              "pitch": 53,
              "time": 68.49997502497503,
              "duration": 0.24794112137862137,
              "velocity": 39
            },
            {
              "pitch": 53,
              "time": 70.99998647186148,
              "duration": 0.24794086122211123,
              "velocity": 39
            },
            {
              "pitch": 53,
              "time": 72.49999323593073,
              "duration": 0.24794112137862137,
              "velocity": 39
            },
            {
              "pitch": 53,
              "time": 75.00000442266067,
              "duration": 0.24788909007659007,
              "velocity": 39
            },
            {
              "pitch": 53,
              "time": 76.50001144688645,
              "duration": 0.24788882992007993,
              "velocity": 39
            },
            {
              "pitch": 53,
              "time": 79.00002263361638,
              "duration": 0.24788882992007993,
              "velocity": 39
            },
            {
              "pitch": 53,
              "time": 80.49997736638362,
              "duration": 0.24794112137862137,
              "velocity": 39
            },
            {
              "pitch": 53,
              "time": 82.99998855311355,
              "duration": 0.24794112137862137,
              "velocity": 39
            },
            {
              "pitch": 53,
              "time": 84.49999557733933,
              "duration": 0.24794086122211123,
              "velocity": 39
            },
            {
              "pitch": 53,
              "time": 87.00000676406927,
              "duration": 0.24788882992007993,
              "velocity": 39
            },
            {
              "pitch": 53,
              "time": 88.50001352813852,
              "duration": 0.24788909007659007,
              "velocity": 39
            },
            {
              "pitch": 53,
              "time": 91.00002497502497,
              "duration": 0.24788882992007993,
              "velocity": 39
            },
            {
              "pitch": 53,
              "time": 92.4999797077922,
              "duration": 0.24794086122211123,
              "velocity": 39
            },
            {
              "pitch": 53,
              "time": 94.99999089452214,
              "duration": 0.24794112137862137,
              "velocity": 39
            },
            {
              "pitch": 53,
              "time": 96.49999765859141,
              "duration": 0.24794112137862137,
              "velocity": 39
            },
            {
              "pitch": 53,
              "time": 99.00000910547786,
              "duration": 0.24788882992007993,
              "velocity": 39
            },
            {
              "pitch": 53,
              "time": 100.50001586954711,
              "duration": 0.24788882992007993,
              "velocity": 39
            },
            {
              "pitch": 53,
              "time": 102.99997502497503,
              "duration": 0.24794112137862137,
              "velocity": 39
            },
            {
              "pitch": 53,
              "time": 104.49998178904428,
              "duration": 0.24794112137862137,
              "velocity": 39
            },
            {
              "pitch": 53,
              "time": 106.99999323593073,
              "duration": 0.24794112137862137,
              "velocity": 39
            },
            {
              "pitch": 53,
              "time": 108.5,
              "duration": 0.24794112137862137,
              "velocity": 39
            },
            {
              "pitch": 53,
              "time": 111.00001144688645,
              "duration": 0.24788882992007993,
              "velocity": 39
            },
            {
              "pitch": 53,
              "time": 112.50001821095572,
              "duration": 0.24788882992007993,
              "velocity": 39
            },
            {
              "pitch": 53,
              "time": 114.99997736638362,
              "duration": 0.24794112137862137,
              "velocity": 39
            },
            {
              "pitch": 53,
              "time": 116.49998413045289,
              "duration": 0.24794112137862137,
              "velocity": 39
            },
            {
              "pitch": 53,
              "time": 118.99999557733933,
              "duration": 0.24794086122211123,
              "velocity": 39
            },
            {
              "pitch": 53,
              "time": 120.50000234140859,
              "duration": 0.24788882992007993,
              "velocity": 39
            },
            {
              "pitch": 53,
              "time": 123.00001352813852,
              "duration": 0.24788909007659007,
              "velocity": 39
            },
            {
              "pitch": 53,
              "time": 124.5000202922078,
              "duration": 0.24788909007659007,
              "velocity": 39
            },
            {
              "pitch": 53,
              "time": 126.9999797077922,
              "duration": 0.24794086122211123,
              "velocity": 39
            },
            {
              "pitch": 56,
              "time": 0.999981789044289,
              "duration": 0.24794112137862137,
              "velocity": 64
            },
            {
              "pitch": 56,
              "time": 2.4999885531135533,
              "duration": 0.24794112137862137,
              "velocity": 64
            },
            {
              "pitch": 56,
              "time": 5,
              "duration": 0.24794112137862137,
              "velocity": 64
            },
            {
              "pitch": 56,
              "time": 6.500006764069264,
              "duration": 0.24788882992007993,
              "velocity": 64
            },
            {
              "pitch": 56,
              "time": 9.00001821095571,
              "duration": 0.24788882992007993,
              "velocity": 64
            },
            {
              "pitch": 56,
              "time": 10.500024975024974,
              "duration": 0.24788882992007993,
              "velocity": 64
            },
            {
              "pitch": 56,
              "time": 12.99998413045288,
              "duration": 0.24794112137862137,
              "velocity": 64
            },
            {
              "pitch": 56,
              "time": 14.499990894522144,
              "duration": 0.24794112137862137,
              "velocity": 64
            },
            {
              "pitch": 56,
              "time": 17.000002341408592,
              "duration": 0.24788882992007993,
              "velocity": 64
            },
            {
              "pitch": 56,
              "time": 18.500009105477854,
              "duration": 0.24788882992007993,
              "velocity": 64
            },
            {
              "pitch": 56,
              "time": 21.000020292207793,
              "duration": 0.24788909007659007,
              "velocity": 64
            },
            {
              "pitch": 56,
              "time": 22.499975024975026,
              "duration": 0.24794112137862137,
              "velocity": 64
            },
            {
              "pitch": 56,
              "time": 24.999986471861472,
              "duration": 0.24794086122211123,
              "velocity": 64
            },
            {
              "pitch": 56,
              "time": 26.499993235930734,
              "duration": 0.24794112137862137,
              "velocity": 64
            },
            {
              "pitch": 56,
              "time": 29.000004422660673,
              "duration": 0.24788909007659007,
              "velocity": 64
            },
            {
              "pitch": 56,
              "time": 30.500011446886447,
              "duration": 0.24788882992007993,
              "velocity": 64
            },
            {
              "pitch": 56,
              "time": 33.00002263361638,
              "duration": 0.24788882992007993,
              "velocity": 64
            },
            {
              "pitch": 56,
              "time": 34.49997736638362,
              "duration": 0.24794112137862137,
              "velocity": 64
            },
            {
              "pitch": 56,
              "time": 36.99998855311355,
              "duration": 0.24794112137862137,
              "velocity": 64
            },
            {
              "pitch": 56,
              "time": 38.49999557733933,
              "duration": 0.24794086122211123,
              "velocity": 64
            },
            {
              "pitch": 56,
              "time": 41.00000676406926,
              "duration": 0.24788882992007993,
              "velocity": 64
            },
            {
              "pitch": 56,
              "time": 42.50001352813853,
              "duration": 0.24788909007659007,
              "velocity": 64
            },
            {
              "pitch": 56,
              "time": 45.00002497502498,
              "duration": 0.24788882992007993,
              "velocity": 64
            },
            {
              "pitch": 56,
              "time": 46.49997970779221,
              "duration": 0.24794086122211123,
              "velocity": 64
            },
            {
              "pitch": 56,
              "time": 48.99999089452214,
              "duration": 0.24794112137862137,
              "velocity": 64
            },
            {
              "pitch": 56,
              "time": 50.49999765859141,
              "duration": 0.24794112137862137,
              "velocity": 64
            },
            {
              "pitch": 56,
              "time": 53.00000910547786,
              "duration": 0.24788882992007993,
              "velocity": 64
            },
            {
              "pitch": 56,
              "time": 54.50001586954712,
              "duration": 0.24788882992007993,
              "velocity": 64
            },
            {
              "pitch": 56,
              "time": 56.99997502497502,
              "duration": 0.24794112137862137,
              "velocity": 64
            },
            {
              "pitch": 56,
              "time": 58.49998178904429,
              "duration": 0.24794112137862137,
              "velocity": 64
            },
            {
              "pitch": 56,
              "time": 60.99999323593074,
              "duration": 0.24794112137862137,
              "velocity": 64
            },
            {
              "pitch": 56,
              "time": 62.5,
              "duration": 0.24794112137862137,
              "velocity": 64
            },
            {
              "pitch": 56,
              "time": 65.00001144688645,
              "duration": 0.24788882992007993,
              "velocity": 64
            },
            {
              "pitch": 56,
              "time": 66.50001821095572,
              "duration": 0.24788882992007993,
              "velocity": 64
            },
            {
              "pitch": 56,
              "time": 68.99997736638362,
              "duration": 0.24794112137862137,
              "velocity": 64
            },
            {
              "pitch": 56,
              "time": 70.49998413045289,
              "duration": 0.24794112137862137,
              "velocity": 64
            },
            {
              "pitch": 56,
              "time": 72.99999557733933,
              "duration": 0.24794086122211123,
              "velocity": 64
            },
            {
              "pitch": 56,
              "time": 74.50000234140859,
              "duration": 0.24788882992007993,
              "velocity": 64
            },
            {
              "pitch": 56,
              "time": 77.00001352813852,
              "duration": 0.24788909007659007,
              "velocity": 64
            },
            {
              "pitch": 56,
              "time": 78.5000202922078,
              "duration": 0.24788909007659007,
              "velocity": 64
            },
            {
              "pitch": 56,
              "time": 80.9999797077922,
              "duration": 0.24794086122211123,
              "velocity": 64
            },
            {
              "pitch": 56,
              "time": 82.49998647186148,
              "duration": 0.24794086122211123,
              "velocity": 64
            },
            {
              "pitch": 56,
              "time": 84.99999765859141,
              "duration": 0.24794112137862137,
              "velocity": 64
            },
            {
              "pitch": 56,
              "time": 86.50000442266067,
              "duration": 0.24788909007659007,
              "velocity": 64
            },
            {
              "pitch": 56,
              "time": 89.00001586954711,
              "duration": 0.24788882992007993,
              "velocity": 64
            },
            {
              "pitch": 56,
              "time": 90.50002263361638,
              "duration": 0.24788882992007993,
              "velocity": 64
            },
            {
              "pitch": 56,
              "time": 92.99998178904428,
              "duration": 0.24794112137862137,
              "velocity": 64
            },
            {
              "pitch": 56,
              "time": 94.49998855311355,
              "duration": 0.24794112137862137,
              "velocity": 64
            },
            {
              "pitch": 56,
              "time": 97,
              "duration": 0.24794112137862137,
              "velocity": 64
            },
            {
              "pitch": 56,
              "time": 98.50000676406927,
              "duration": 0.24788882992007993,
              "velocity": 64
            },
            {
              "pitch": 56,
              "time": 101.00001821095572,
              "duration": 0.24788882992007993,
              "velocity": 64
            },
            {
              "pitch": 56,
              "time": 102.50002497502497,
              "duration": 0.24788882992007993,
              "velocity": 64
            },
            {
              "pitch": 56,
              "time": 104.99998413045289,
              "duration": 0.24794112137862137,
              "velocity": 64
            },
            {
              "pitch": 56,
              "time": 106.49999089452214,
              "duration": 0.24794112137862137,
              "velocity": 64
            },
            {
              "pitch": 56,
              "time": 109.00000234140859,
              "duration": 0.24788882992007993,
              "velocity": 64
            },
            {
              "pitch": 56,
              "time": 110.50000910547786,
              "duration": 0.24788882992007993,
              "velocity": 64
            },
            {
              "pitch": 56,
              "time": 113.0000202922078,
              "duration": 0.24788909007659007,
              "velocity": 64
            },
            {
              "pitch": 56,
              "time": 114.49997502497503,
              "duration": 0.24794112137862137,
              "velocity": 64
            },
            {
              "pitch": 56,
              "time": 116.99998647186148,
              "duration": 0.24794086122211123,
              "velocity": 64
            },
            {
              "pitch": 56,
              "time": 118.49999323593073,
              "duration": 0.24794112137862137,
              "velocity": 64
            },
            {
              "pitch": 56,
              "time": 121.00000442266067,
              "duration": 0.24788909007659007,
              "velocity": 64
            },
            {
              "pitch": 56,
              "time": 122.50001144688645,
              "duration": 0.24788882992007993,
              "velocity": 64
            },
            {
              "pitch": 56,
              "time": 125.00002263361638,
              "duration": 0.24788882992007993,
              "velocity": 64
            },
            {
              "pitch": 56,
              "time": 126.49997736638362,
              "duration": 0.24794112137862137,
              "velocity": 64
            },
            {
              "pitch": 81,
              "time": 1.4999841304528805,
              "duration": 0.24794112137862137,
              "velocity": 3
            }
          ],
          "gainInfo": 1,
          "contentSummary": "midi clip, 0.2 bars, 254 notes",
          "clipColor": 10,
          "name": "ARP 2600 V3 3"
        },
        {
          "id": "track_midi_32_9_clip_8",
          "trackId": "track_midi_32_9",
          "clipType": "midi",
          "start": 704,
          "end": 752,
          "loop": false,
          "sourceRef": null,
          "midiNoteCount": 254,
          "midiNotes": [
            {
              "pitch": 41,
              "time": 2.9999908945221447,
              "duration": 0.24794112137862137,
              "velocity": 39
            },
            {
              "pitch": 41,
              "time": 4.4999976585914085,
              "duration": 0.24794112137862137,
              "velocity": 39
            },
            {
              "pitch": 41,
              "time": 7.000009105477855,
              "duration": 0.24788882992007993,
              "velocity": 39
            },
            {
              "pitch": 41,
              "time": 8.50001586954712,
              "duration": 0.24788882992007993,
              "velocity": 39
            },
            {
              "pitch": 41,
              "time": 10.999975024975026,
              "duration": 0.24794112137862137,
              "velocity": 39
            },
            {
              "pitch": 41,
              "time": 12.49998178904429,
              "duration": 0.24794112137862137,
              "velocity": 39
            },
            {
              "pitch": 41,
              "time": 14.999993235930736,
              "duration": 0.24794112137862137,
              "velocity": 39
            },
            {
              "pitch": 41,
              "time": 16.5,
              "duration": 0.24794112137862137,
              "velocity": 39
            },
            {
              "pitch": 41,
              "time": 19.000011446886447,
              "duration": 0.24788882992007993,
              "velocity": 39
            },
            {
              "pitch": 41,
              "time": 20.500018210955712,
              "duration": 0.24788882992007993,
              "velocity": 39
            },
            {
              "pitch": 41,
              "time": 22.999977366383618,
              "duration": 0.24794112137862137,
              "velocity": 39
            },
            {
              "pitch": 41,
              "time": 24.49998413045288,
              "duration": 0.24794112137862137,
              "velocity": 39
            },
            {
              "pitch": 41,
              "time": 26.999995577339327,
              "duration": 0.24794086122211123,
              "velocity": 39
            },
            {
              "pitch": 41,
              "time": 28.500002341408592,
              "duration": 0.24788882992007993,
              "velocity": 39
            },
            {
              "pitch": 41,
              "time": 31.000013528138528,
              "duration": 0.24788909007659007,
              "velocity": 39
            },
            {
              "pitch": 41,
              "time": 32.50002029220779,
              "duration": 0.24788909007659007,
              "velocity": 39
            },
            {
              "pitch": 41,
              "time": 34.99997970779221,
              "duration": 0.24794086122211123,
              "velocity": 39
            },
            {
              "pitch": 41,
              "time": 36.49998647186147,
              "duration": 0.24794086122211123,
              "velocity": 39
            },
            {
              "pitch": 41,
              "time": 38.99999765859141,
              "duration": 0.24794112137862137,
              "velocity": 39
            },
            {
              "pitch": 41,
              "time": 40.50000442266067,
              "duration": 0.24788909007659007,
              "velocity": 39
            },
            {
              "pitch": 41,
              "time": 43.00001586954712,
              "duration": 0.24788882992007993,
              "velocity": 39
            },
            {
              "pitch": 41,
              "time": 44.50002263361638,
              "duration": 0.24788882992007993,
              "velocity": 39
            },
            {
              "pitch": 41,
              "time": 46.99998178904429,
              "duration": 0.24794112137862137,
              "velocity": 39
            },
            {
              "pitch": 41,
              "time": 48.49998855311355,
              "duration": 0.24794112137862137,
              "velocity": 39
            },
            {
              "pitch": 41,
              "time": 51,
              "duration": 0.24794112137862137,
              "velocity": 39
            },
            {
              "pitch": 41,
              "time": 52.50000676406926,
              "duration": 0.24788882992007993,
              "velocity": 39
            },
            {
              "pitch": 41,
              "time": 55.00001821095571,
              "duration": 0.24788882992007993,
              "velocity": 39
            },
            {
              "pitch": 41,
              "time": 56.50002497502498,
              "duration": 0.24788882992007993,
              "velocity": 39
            },
            {
              "pitch": 41,
              "time": 58.99998413045288,
              "duration": 0.24794112137862137,
              "velocity": 39
            },
            {
              "pitch": 41,
              "time": 60.49999089452214,
              "duration": 0.24794112137862137,
              "velocity": 39
            },
            {
              "pitch": 41,
              "time": 63.00000234140859,
              "duration": 0.24788882992007993,
              "velocity": 39
            },
            {
              "pitch": 41,
              "time": 64.50000910547786,
              "duration": 0.24788882992007993,
              "velocity": 39
            },
            {
              "pitch": 41,
              "time": 67.0000202922078,
              "duration": 0.24788909007659007,
              "velocity": 39
            },
            {
              "pitch": 41,
              "time": 68.49997502497503,
              "duration": 0.24794112137862137,
              "velocity": 39
            },
            {
              "pitch": 41,
              "time": 70.99998647186148,
              "duration": 0.24794086122211123,
              "velocity": 39
            },
            {
              "pitch": 41,
              "time": 72.49999323593073,
              "duration": 0.24794112137862137,
              "velocity": 39
            },
            {
              "pitch": 41,
              "time": 75.00000442266067,
              "duration": 0.24788909007659007,
              "velocity": 39
            },
            {
              "pitch": 41,
              "time": 76.50001144688645,
              "duration": 0.24788882992007993,
              "velocity": 39
            },
            {
              "pitch": 41,
              "time": 79.00002263361638,
              "duration": 0.24788882992007993,
              "velocity": 39
            },
            {
              "pitch": 41,
              "time": 80.49997736638362,
              "duration": 0.24794112137862137,
              "velocity": 39
            },
            {
              "pitch": 41,
              "time": 82.99998855311355,
              "duration": 0.24794112137862137,
              "velocity": 39
            },
            {
              "pitch": 41,
              "time": 84.49999557733933,
              "duration": 0.24794086122211123,
              "velocity": 39
            },
            {
              "pitch": 41,
              "time": 87.00000676406927,
              "duration": 0.24788882992007993,
              "velocity": 39
            },
            {
              "pitch": 41,
              "time": 88.50001352813852,
              "duration": 0.24788909007659007,
              "velocity": 39
            },
            {
              "pitch": 41,
              "time": 91.00002497502497,
              "duration": 0.24788882992007993,
              "velocity": 39
            },
            {
              "pitch": 41,
              "time": 92.4999797077922,
              "duration": 0.24794086122211123,
              "velocity": 39
            },
            {
              "pitch": 41,
              "time": 94.99999089452214,
              "duration": 0.24794112137862137,
              "velocity": 39
            },
            {
              "pitch": 41,
              "time": 96.49999765859141,
              "duration": 0.24794112137862137,
              "velocity": 39
            },
            {
              "pitch": 41,
              "time": 99.00000910547786,
              "duration": 0.24788882992007993,
              "velocity": 39
            },
            {
              "pitch": 41,
              "time": 100.50001586954711,
              "duration": 0.24788882992007993,
              "velocity": 39
            },
            {
              "pitch": 41,
              "time": 102.99997502497503,
              "duration": 0.24794112137862137,
              "velocity": 39
            },
            {
              "pitch": 41,
              "time": 104.49998178904428,
              "duration": 0.24794112137862137,
              "velocity": 39
            },
            {
              "pitch": 41,
              "time": 106.99999323593073,
              "duration": 0.24794112137862137,
              "velocity": 39
            },
            {
              "pitch": 41,
              "time": 108.5,
              "duration": 0.24794112137862137,
              "velocity": 39
            },
            {
              "pitch": 41,
              "time": 111.00001144688645,
              "duration": 0.24788882992007993,
              "velocity": 39
            },
            {
              "pitch": 41,
              "time": 112.50001821095572,
              "duration": 0.24788882992007993,
              "velocity": 39
            },
            {
              "pitch": 41,
              "time": 114.99997736638362,
              "duration": 0.24794112137862137,
              "velocity": 39
            },
            {
              "pitch": 41,
              "time": 116.49998413045289,
              "duration": 0.24794112137862137,
              "velocity": 39
            },
            {
              "pitch": 41,
              "time": 118.99999557733933,
              "duration": 0.24794086122211123,
              "velocity": 39
            },
            {
              "pitch": 41,
              "time": 120.50000234140859,
              "duration": 0.24788882992007993,
              "velocity": 39
            },
            {
              "pitch": 41,
              "time": 123.00001352813852,
              "duration": 0.24788909007659007,
              "velocity": 39
            },
            {
              "pitch": 41,
              "time": 124.5000202922078,
              "duration": 0.24788909007659007,
              "velocity": 39
            },
            {
              "pitch": 41,
              "time": 126.9999797077922,
              "duration": 0.24794086122211123,
              "velocity": 39
            },
            {
              "pitch": 44,
              "time": 0.999981789044289,
              "duration": 0.24794112137862137,
              "velocity": 64
            },
            {
              "pitch": 44,
              "time": 2.4999885531135533,
              "duration": 0.24794112137862137,
              "velocity": 64
            },
            {
              "pitch": 44,
              "time": 5,
              "duration": 0.24794112137862137,
              "velocity": 64
            },
            {
              "pitch": 44,
              "time": 6.500006764069264,
              "duration": 0.24788882992007993,
              "velocity": 64
            },
            {
              "pitch": 44,
              "time": 9.00001821095571,
              "duration": 0.24788882992007993,
              "velocity": 64
            },
            {
              "pitch": 44,
              "time": 10.500024975024974,
              "duration": 0.24788882992007993,
              "velocity": 64
            },
            {
              "pitch": 44,
              "time": 12.99998413045288,
              "duration": 0.24794112137862137,
              "velocity": 64
            },
            {
              "pitch": 44,
              "time": 14.499990894522144,
              "duration": 0.24794112137862137,
              "velocity": 64
            },
            {
              "pitch": 44,
              "time": 17.000002341408592,
              "duration": 0.24788882992007993,
              "velocity": 64
            },
            {
              "pitch": 44,
              "time": 18.500009105477854,
              "duration": 0.24788882992007993,
              "velocity": 64
            },
            {
              "pitch": 44,
              "time": 21.000020292207793,
              "duration": 0.24788909007659007,
              "velocity": 64
            },
            {
              "pitch": 44,
              "time": 22.499975024975026,
              "duration": 0.24794112137862137,
              "velocity": 64
            },
            {
              "pitch": 44,
              "time": 24.999986471861472,
              "duration": 0.24794086122211123,
              "velocity": 64
            },
            {
              "pitch": 44,
              "time": 26.499993235930734,
              "duration": 0.24794112137862137,
              "velocity": 64
            },
            {
              "pitch": 44,
              "time": 29.000004422660673,
              "duration": 0.24788909007659007,
              "velocity": 64
            },
            {
              "pitch": 44,
              "time": 30.500011446886447,
              "duration": 0.24788882992007993,
              "velocity": 64
            },
            {
              "pitch": 44,
              "time": 33.00002263361638,
              "duration": 0.24788882992007993,
              "velocity": 64
            },
            {
              "pitch": 44,
              "time": 34.49997736638362,
              "duration": 0.24794112137862137,
              "velocity": 64
            },
            {
              "pitch": 44,
              "time": 36.99998855311355,
              "duration": 0.24794112137862137,
              "velocity": 64
            },
            {
              "pitch": 44,
              "time": 38.49999557733933,
              "duration": 0.24794086122211123,
              "velocity": 64
            },
            {
              "pitch": 44,
              "time": 41.00000676406926,
              "duration": 0.24788882992007993,
              "velocity": 64
            },
            {
              "pitch": 44,
              "time": 42.50001352813853,
              "duration": 0.24788909007659007,
              "velocity": 64
            },
            {
              "pitch": 44,
              "time": 45.00002497502498,
              "duration": 0.24788882992007993,
              "velocity": 64
            },
            {
              "pitch": 44,
              "time": 46.49997970779221,
              "duration": 0.24794086122211123,
              "velocity": 64
            },
            {
              "pitch": 44,
              "time": 48.99999089452214,
              "duration": 0.24794112137862137,
              "velocity": 64
            },
            {
              "pitch": 44,
              "time": 50.49999765859141,
              "duration": 0.24794112137862137,
              "velocity": 64
            },
            {
              "pitch": 44,
              "time": 53.00000910547786,
              "duration": 0.24788882992007993,
              "velocity": 64
            },
            {
              "pitch": 44,
              "time": 54.50001586954712,
              "duration": 0.24788882992007993,
              "velocity": 64
            },
            {
              "pitch": 44,
              "time": 56.99997502497502,
              "duration": 0.24794112137862137,
              "velocity": 64
            },
            {
              "pitch": 44,
              "time": 58.49998178904429,
              "duration": 0.24794112137862137,
              "velocity": 64
            },
            {
              "pitch": 44,
              "time": 60.99999323593074,
              "duration": 0.24794112137862137,
              "velocity": 64
            },
            {
              "pitch": 44,
              "time": 62.5,
              "duration": 0.24794112137862137,
              "velocity": 64
            },
            {
              "pitch": 44,
              "time": 65.00001144688645,
              "duration": 0.24788882992007993,
              "velocity": 64
            },
            {
              "pitch": 44,
              "time": 66.50001821095572,
              "duration": 0.24788882992007993,
              "velocity": 64
            },
            {
              "pitch": 44,
              "time": 68.99997736638362,
              "duration": 0.24794112137862137,
              "velocity": 64
            },
            {
              "pitch": 44,
              "time": 70.49998413045289,
              "duration": 0.24794112137862137,
              "velocity": 64
            },
            {
              "pitch": 44,
              "time": 72.99999557733933,
              "duration": 0.24794086122211123,
              "velocity": 64
            },
            {
              "pitch": 44,
              "time": 74.50000234140859,
              "duration": 0.24788882992007993,
              "velocity": 64
            },
            {
              "pitch": 44,
              "time": 77.00001352813852,
              "duration": 0.24788909007659007,
              "velocity": 64
            },
            {
              "pitch": 44,
              "time": 78.5000202922078,
              "duration": 0.24788909007659007,
              "velocity": 64
            },
            {
              "pitch": 44,
              "time": 80.9999797077922,
              "duration": 0.24794086122211123,
              "velocity": 64
            },
            {
              "pitch": 44,
              "time": 82.49998647186148,
              "duration": 0.24794086122211123,
              "velocity": 64
            },
            {
              "pitch": 44,
              "time": 84.99999765859141,
              "duration": 0.24794112137862137,
              "velocity": 64
            },
            {
              "pitch": 44,
              "time": 86.50000442266067,
              "duration": 0.24788909007659007,
              "velocity": 64
            },
            {
              "pitch": 44,
              "time": 89.00001586954711,
              "duration": 0.24788882992007993,
              "velocity": 64
            },
            {
              "pitch": 44,
              "time": 90.50002263361638,
              "duration": 0.24788882992007993,
              "velocity": 64
            },
            {
              "pitch": 44,
              "time": 92.99998178904428,
              "duration": 0.24794112137862137,
              "velocity": 64
            },
            {
              "pitch": 44,
              "time": 94.49998855311355,
              "duration": 0.24794112137862137,
              "velocity": 64
            },
            {
              "pitch": 44,
              "time": 97,
              "duration": 0.24794112137862137,
              "velocity": 64
            },
            {
              "pitch": 44,
              "time": 98.50000676406927,
              "duration": 0.24788882992007993,
              "velocity": 64
            },
            {
              "pitch": 44,
              "time": 101.00001821095572,
              "duration": 0.24788882992007993,
              "velocity": 64
            },
            {
              "pitch": 44,
              "time": 102.50002497502497,
              "duration": 0.24788882992007993,
              "velocity": 64
            },
            {
              "pitch": 44,
              "time": 104.99998413045289,
              "duration": 0.24794112137862137,
              "velocity": 64
            },
            {
              "pitch": 44,
              "time": 106.49999089452214,
              "duration": 0.24794112137862137,
              "velocity": 64
            },
            {
              "pitch": 44,
              "time": 109.00000234140859,
              "duration": 0.24788882992007993,
              "velocity": 64
            },
            {
              "pitch": 44,
              "time": 110.50000910547786,
              "duration": 0.24788882992007993,
              "velocity": 64
            },
            {
              "pitch": 44,
              "time": 113.0000202922078,
              "duration": 0.24788909007659007,
              "velocity": 64
            },
            {
              "pitch": 44,
              "time": 114.49997502497503,
              "duration": 0.24794112137862137,
              "velocity": 64
            },
            {
              "pitch": 44,
              "time": 116.99998647186148,
              "duration": 0.24794086122211123,
              "velocity": 64
            },
            {
              "pitch": 44,
              "time": 118.49999323593073,
              "duration": 0.24794112137862137,
              "velocity": 64
            },
            {
              "pitch": 44,
              "time": 121.00000442266067,
              "duration": 0.24788909007659007,
              "velocity": 64
            },
            {
              "pitch": 44,
              "time": 122.50001144688645,
              "duration": 0.24788882992007993,
              "velocity": 64
            },
            {
              "pitch": 44,
              "time": 125.00002263361638,
              "duration": 0.24788882992007993,
              "velocity": 64
            },
            {
              "pitch": 44,
              "time": 126.49997736638362,
              "duration": 0.24794112137862137,
              "velocity": 64
            },
            {
              "pitch": 69,
              "time": 1.4999841304528805,
              "duration": 0.24794112137862137,
              "velocity": 3
            }
          ],
          "gainInfo": 1,
          "contentSummary": "midi clip, 12.0 bars, 254 notes",
          "clipColor": 10,
          "name": "ARP 2600 V3 3"
        }
      ],
      "automationLanes": [],
      "routing": {
        "audioInput": {
          "target": "AudioIn/External/S0",
          "upper": "Ext. In",
          "lower": "1/2"
        },
        "audioOutput": {
          "target": "AudioOut/Main",
          "upper": "Main",
          "lower": ""
        }
      },
      "warnings": []
    },
    {
      "id": "track_midi_33_10",
      "name": "effect 2",
      "type": "midi",
      "parentGroupId": null,
      "orderIndex": 10,
      "muted": false,
      "solo": false,
      "frozen": false,
      "armed": false,
      "color": null,
      "inferredRole": "percussion",
      "inferredConfidence": 0.55,
      "clipCount": 13,
      "deviceCount": 6,
      "automationPoints": 0,
      "devices": [
        {
          "id": "track_midi_33_10_dev_0",
          "deviceClass": "AuPluginDevice",
          "pluginName": "ARP 2600 V3",
          "enabled": true,
          "inferredPurpose": "effect",
          "parameters": {},
          "hasSidechainInput": false
        },
        {
          "id": "track_midi_33_10_dev_1",
          "deviceClass": "DrumBuss",
          "pluginName": null,
          "enabled": true,
          "inferredPurpose": "drum_machine",
          "parameters": {},
          "hasSidechainInput": false
        },
        {
          "id": "track_midi_33_10_dev_2",
          "deviceClass": "Reverb",
          "pluginName": null,
          "enabled": true,
          "inferredPurpose": "reverb",
          "parameters": {},
          "hasSidechainInput": false
        },
        {
          "id": "track_midi_33_10_dev_3",
          "deviceClass": "Delay",
          "pluginName": null,
          "enabled": true,
          "inferredPurpose": "delay",
          "parameters": {},
          "hasSidechainInput": false
        },
        {
          "id": "track_midi_33_10_dev_4",
          "deviceClass": "Roar",
          "pluginName": null,
          "enabled": true,
          "inferredPurpose": "effect",
          "parameters": {},
          "hasSidechainInput": false
        },
        {
          "id": "track_midi_33_10_dev_5",
          "deviceClass": "PluginDevice",
          "pluginName": null,
          "enabled": true,
          "inferredPurpose": "effect",
          "parameters": {},
          "hasSidechainInput": false
        }
      ],
      "clips": [
        {
          "id": "track_midi_33_10_clip_0",
          "trackId": "track_midi_33_10",
          "clipType": "midi",
          "start": 64.78135146103897,
          "end": 96,
          "loop": false,
          "sourceRef": null,
          "midiNoteCount": 231,
          "midiNotes": [
            {
              "pitch": 41,
              "time": 1.9866258741258742,
              "duration": 0.5019777097902098,
              "velocity": 39
            },
            {
              "pitch": 41,
              "time": 3.498792873792874,
              "duration": 0.7560827193639693,
              "velocity": 39
            },
            {
              "pitch": 41,
              "time": 6.019071813603063,
              "duration": 0.5019251581751581,
              "velocity": 39
            },
            {
              "pitch": 41,
              "time": 7.5312390734265735,
              "duration": 0.4998982788045288,
              "velocity": 39
            },
            {
              "pitch": 41,
              "time": 10.01622309981685,
              "duration": 0.5019777097902098,
              "velocity": 39
            },
            {
              "pitch": 41,
              "time": 11.528390099483849,
              "duration": 0.7560827193639693,
              "velocity": 39
            },
            {
              "pitch": 41,
              "time": 14.048669039294039,
              "duration": 0.5019251581751581,
              "velocity": 39
            },
            {
              "pitch": 41,
              "time": 15.560836299117549,
              "duration": 0.2498982788045288,
              "velocity": 39
            },
            {
              "pitch": 41,
              "time": 17.986625874125874,
              "duration": 0.5019777097902098,
              "velocity": 39
            },
            {
              "pitch": 41,
              "time": 19.498792873792873,
              "duration": 0.7560827193639693,
              "velocity": 39
            },
            {
              "pitch": 41,
              "time": 22.019071813603063,
              "duration": 0.5019251581751581,
              "velocity": 39
            },
            {
              "pitch": 41,
              "time": 23.531239073426573,
              "duration": 0.4998982788045288,
              "velocity": 39
            },
            {
              "pitch": 41,
              "time": 26.016223099816848,
              "duration": 0.5019777097902098,
              "velocity": 39
            },
            {
              "pitch": 41,
              "time": 27.52839009948385,
              "duration": 0.7560827193639693,
              "velocity": 39
            },
            {
              "pitch": 41,
              "time": 30.04866903929404,
              "duration": 0.5019251581751581,
              "velocity": 39
            },
            {
              "pitch": 41,
              "time": 31.56083629911755,
              "duration": 0.2498982788045288,
              "velocity": 39
            },
            {
              "pitch": 41,
              "time": 34.24603599525474,
              "duration": 0.2499508304195804,
              "velocity": 39
            },
            {
              "pitch": 41,
              "time": 35.75820325507826,
              "duration": 0.2499508304195804,
              "velocity": 39
            },
            {
              "pitch": 41,
              "time": 38.278481674575424,
              "duration": 0.24995109057609058,
              "velocity": 39
            },
            {
              "pitch": 41,
              "time": 39.79064893439894,
              "duration": 0.24989879911754911,
              "velocity": 39
            },
            {
              "pitch": 41,
              "time": 42.31092787420913,
              "duration": 0.2498982788045288,
              "velocity": 39
            },
            {
              "pitch": 41,
              "time": 43.82309487387612,
              "duration": 0.24989853896103897,
              "velocity": 39
            },
            {
              "pitch": 41,
              "time": 46.34332100191475,
              "duration": 0.24995135073260072,
              "velocity": 39
            },
            {
              "pitch": 41,
              "time": 47.85548826173826,
              "duration": 0.24995109057609058,
              "velocity": 39
            },
            {
              "pitch": 41,
              "time": 50.37576720154845,
              "duration": 0.24995109057609058,
              "velocity": 39
            },
            {
              "pitch": 41,
              "time": 51.88793420121545,
              "duration": 0.24989853896103897,
              "velocity": 39
            },
            {
              "pitch": 41,
              "time": 54.40821314102564,
              "duration": 0.24989853896103897,
              "velocity": 39
            },
            {
              "pitch": 41,
              "time": 55.92038040084915,
              "duration": 0.24989853896103897,
              "velocity": 39
            },
            {
              "pitch": 41,
              "time": 58.44060652888778,
              "duration": 0.24995109057609058,
              "velocity": 39
            },
            {
              "pitch": 41,
              "time": 59.95277378871129,
              "duration": 0.24995109057609058,
              "velocity": 39
            },
            {
              "pitch": 41,
              "time": 62.47305246836497,
              "duration": 0.24989853896103897,
              "velocity": 39
            },
            {
              "pitch": 41,
              "time": 63.985219728188476,
              "duration": 0.24989853896103897,
              "velocity": 39
            },
            {
              "pitch": 41,
              "time": 66.50549840784215,
              "duration": 0.24989853896103897,
              "velocity": 39
            },
            {
              "pitch": 41,
              "time": 68.01761311605061,
              "duration": 0.24995109057609058,
              "velocity": 39
            },
            {
              "pitch": 41,
              "time": 70.5378917957043,
              "duration": 0.24995109057609058,
              "velocity": 39
            },
            {
              "pitch": 41,
              "time": 72.05005905552781,
              "duration": 0.24995109057609058,
              "velocity": 39
            },
            {
              "pitch": 41,
              "time": 74.57033773518148,
              "duration": 0.24989853896103897,
              "velocity": 39
            },
            {
              "pitch": 41,
              "time": 76.08250525516151,
              "duration": 0.2498982788045288,
              "velocity": 39
            },
            {
              "pitch": 41,
              "time": 78.60278367465868,
              "duration": 0.24989853896103897,
              "velocity": 39
            },
            {
              "pitch": 41,
              "time": 80.11489838286714,
              "duration": 0.24995135073260072,
              "velocity": 39
            },
            {
              "pitch": 41,
              "time": 82.63517706252081,
              "duration": 0.24995109057609058,
              "velocity": 39
            },
            {
              "pitch": 41,
              "time": 84.14734458250084,
              "duration": 0.2499508304195804,
              "velocity": 39
            },
            {
              "pitch": 41,
              "time": 86.667623001998,
              "duration": 0.24989853896103897,
              "velocity": 39
            },
            {
              "pitch": 41,
              "time": 88.17979026182151,
              "duration": 0.24989879911754911,
              "velocity": 39
            },
            {
              "pitch": 41,
              "time": 90.7000692016317,
              "duration": 0.2498982788045288,
              "velocity": 39
            },
            {
              "pitch": 41,
              "time": 92.21218390984016,
              "duration": 0.2499508304195804,
              "velocity": 39
            },
            {
              "pitch": 41,
              "time": 94.73246232933732,
              "duration": 0.24995135073260072,
              "velocity": 39
            },
            {
              "pitch": 41,
              "time": 96.24462958916084,
              "duration": 0.24995109057609058,
              "velocity": 39
            },
            {
              "pitch": 41,
              "time": 98.76490852897103,
              "duration": 0.2498982788045288,
              "velocity": 39
            },
            {
              "pitch": 41,
              "time": 100.27707578879453,
              "duration": 0.2498982788045288,
              "velocity": 39
            },
            {
              "pitch": 41,
              "time": 102.79730191683316,
              "duration": 0.24995109057609058,
              "velocity": 39
            },
            {
              "pitch": 41,
              "time": 104.30946891650017,
              "duration": 0.24995135073260072,
              "velocity": 39
            },
            {
              "pitch": 41,
              "time": 106.82974785631036,
              "duration": 0.24995109057609058,
              "velocity": 39
            },
            {
              "pitch": 41,
              "time": 108.34191511613386,
              "duration": 0.24995109057609058,
              "velocity": 39
            },
            {
              "pitch": 41,
              "time": 110.86219379578755,
              "duration": 0.24989853896103897,
              "velocity": 39
            },
            {
              "pitch": 41,
              "time": 112.37436105561106,
              "duration": 0.24989853896103897,
              "velocity": 39
            },
            {
              "pitch": 41,
              "time": 114.89458718364969,
              "duration": 0.24995109057609058,
              "velocity": 39
            },
            {
              "pitch": 41,
              "time": 116.40675444347319,
              "duration": 0.24995109057609058,
              "velocity": 39
            },
            {
              "pitch": 41,
              "time": 118.92703338328339,
              "duration": 0.2499508304195804,
              "velocity": 39
            },
            {
              "pitch": 41,
              "time": 120.43920038295039,
              "duration": 0.24989853896103897,
              "velocity": 39
            },
            {
              "pitch": 41,
              "time": 122.95947906260406,
              "duration": 0.24989879911754911,
              "velocity": 39
            },
            {
              "pitch": 41,
              "time": 124.47164632242757,
              "duration": 0.24989853896103897,
              "velocity": 39
            },
            {
              "pitch": 41,
              "time": 126.99187271062272,
              "duration": 0.2499508304195804,
              "velocity": 39
            },
            {
              "pitch": 44,
              "time": -0.02959722569097569,
              "duration": 0.50197796994672,
              "velocity": 64
            },
            {
              "pitch": 44,
              "time": 1.482570034132534,
              "duration": 0.5019777097902098,
              "velocity": 64
            },
            {
              "pitch": 44,
              "time": 5.5150159736097235,
              "duration": 0.5019251581751581,
              "velocity": 64
            },
            {
              "pitch": 44,
              "time": 8,
              "duration": 0.50197796994672,
              "velocity": 64
            },
            {
              "pitch": 44,
              "time": 9.51216725982351,
              "duration": 0.5019777097902098,
              "velocity": 64
            },
            {
              "pitch": 44,
              "time": 13.544613199300699,
              "duration": 0.5019251581751581,
              "velocity": 64
            },
            {
              "pitch": 44,
              "time": 17.482570034132536,
              "duration": 0.5019777097902098,
              "velocity": 64
            },
            {
              "pitch": 44,
              "time": 21.515015973609724,
              "duration": 0.5019251581751581,
              "velocity": 64
            },
            {
              "pitch": 44,
              "time": 24,
              "duration": 0.50197796994672,
              "velocity": 64
            },
            {
              "pitch": 44,
              "time": 25.51216725982351,
              "duration": 0.5019777097902098,
              "velocity": 64
            },
            {
              "pitch": 44,
              "time": 29.5446131993007,
              "duration": 0.5019251581751581,
              "velocity": 64
            },
            {
              "pitch": 44,
              "time": 36.262258574758576,
              "duration": 0.24995135073260072,
              "velocity": 64
            },
            {
              "pitch": 44,
              "time": 37.774426094738594,
              "duration": 0.24995109057609058,
              "velocity": 64
            },
            {
              "pitch": 44,
              "time": 40.29470477439227,
              "duration": 0.24989853896103897,
              "velocity": 64
            },
            {
              "pitch": 44,
              "time": 41.806872034215786,
              "duration": 0.24989853896103897,
              "velocity": 64
            },
            {
              "pitch": 44,
              "time": 44.327150713869464,
              "duration": 0.24989853896103897,
              "velocity": 64
            },
            {
              "pitch": 44,
              "time": 45.83926542207792,
              "duration": 0.24995109057609058,
              "velocity": 64
            },
            {
              "pitch": 44,
              "time": 48.3595441017316,
              "duration": 0.24995109057609058,
              "velocity": 64
            },
            {
              "pitch": 44,
              "time": 49.871711361555114,
              "duration": 0.24995109057609058,
              "velocity": 64
            },
            {
              "pitch": 44,
              "time": 52.39199004120879,
              "duration": 0.24989853896103897,
              "velocity": 64
            },
            {
              "pitch": 44,
              "time": 53.9041573010323,
              "duration": 0.24989853896103897,
              "velocity": 64
            },
            {
              "pitch": 44,
              "time": 56.42438342907093,
              "duration": 0.24995109057609058,
              "velocity": 64
            },
            {
              "pitch": 44,
              "time": 57.93655068889444,
              "duration": 0.24995109057609058,
              "velocity": 64
            },
            {
              "pitch": 44,
              "time": 60.456829628704625,
              "duration": 0.24995109057609058,
              "velocity": 64
            },
            {
              "pitch": 44,
              "time": 61.96899662837163,
              "duration": 0.24995135073260072,
              "velocity": 64
            },
            {
              "pitch": 44,
              "time": 64.48927556818182,
              "duration": 0.24989853896103897,
              "velocity": 64
            },
            {
              "pitch": 44,
              "time": 66.00144282800532,
              "duration": 0.2498982788045288,
              "velocity": 64
            },
            {
              "pitch": 44,
              "time": 68.52166895604395,
              "duration": 0.24995109057609058,
              "velocity": 64
            },
            {
              "pitch": 44,
              "time": 70.03383595571096,
              "duration": 0.24995135073260072,
              "velocity": 64
            },
            {
              "pitch": 44,
              "time": 72.55411489552115,
              "duration": 0.2499508304195804,
              "velocity": 64
            },
            {
              "pitch": 44,
              "time": 74.06628215534465,
              "duration": 0.2498982788045288,
              "velocity": 64
            },
            {
              "pitch": 44,
              "time": 76.58656057484183,
              "duration": 0.24989879911754911,
              "velocity": 64
            },
            {
              "pitch": 44,
              "time": 78.09872783466534,
              "duration": 0.24989879911754911,
              "velocity": 64
            },
            {
              "pitch": 44,
              "time": 80.61895422286047,
              "duration": 0.2499508304195804,
              "velocity": 64
            },
            {
              "pitch": 44,
              "time": 82.13112148268398,
              "duration": 0.2499508304195804,
              "velocity": 64
            },
            {
              "pitch": 44,
              "time": 84.65140016233767,
              "duration": 0.24995109057609058,
              "velocity": 64
            },
            {
              "pitch": 44,
              "time": 86.16356716200467,
              "duration": 0.24989879911754911,
              "velocity": 64
            },
            {
              "pitch": 44,
              "time": 88.68384610181485,
              "duration": 0.24989853896103897,
              "velocity": 64
            },
            {
              "pitch": 44,
              "time": 90.19601336163836,
              "duration": 0.2498982788045288,
              "velocity": 64
            },
            {
              "pitch": 44,
              "time": 92.716239489677,
              "duration": 0.24995109057609058,
              "velocity": 64
            },
            {
              "pitch": 44,
              "time": 94.2284067495005,
              "duration": 0.24995109057609058,
              "velocity": 64
            },
            {
              "pitch": 44,
              "time": 96.74868542915418,
              "duration": 0.24995109057609058,
              "velocity": 64
            },
            {
              "pitch": 44,
              "time": 98.26085268897769,
              "duration": 0.24989853896103897,
              "velocity": 64
            },
            {
              "pitch": 44,
              "time": 100.78113162878788,
              "duration": 0.2498982788045288,
              "velocity": 64
            },
            {
              "pitch": 44,
              "time": 102.29329862845488,
              "duration": 0.24989853896103897,
              "velocity": 64
            },
            {
              "pitch": 44,
              "time": 104.8135247564935,
              "duration": 0.24995135073260072,
              "velocity": 64
            },
            {
              "pitch": 44,
              "time": 106.32569201631702,
              "duration": 0.24995109057609058,
              "velocity": 64
            },
            {
              "pitch": 44,
              "time": 108.8459709561272,
              "duration": 0.2498982788045288,
              "velocity": 64
            },
            {
              "pitch": 44,
              "time": 110.3581379557942,
              "duration": 0.24989853896103897,
              "velocity": 64
            },
            {
              "pitch": 44,
              "time": 112.87841663544789,
              "duration": 0.24989879911754911,
              "velocity": 64
            },
            {
              "pitch": 44,
              "time": 114.39053134365635,
              "duration": 0.24995109057609058,
              "velocity": 64
            },
            {
              "pitch": 44,
              "time": 116.91081028346653,
              "duration": 0.2499508304195804,
              "velocity": 64
            },
            {
              "pitch": 44,
              "time": 118.42297754329005,
              "duration": 0.24995109057609058,
              "velocity": 64
            },
            {
              "pitch": 44,
              "time": 120.94325596278722,
              "duration": 0.24989879911754911,
              "velocity": 64
            },
            {
              "pitch": 44,
              "time": 122.45542348276723,
              "duration": 0.24989853896103897,
              "velocity": 64
            },
            {
              "pitch": 44,
              "time": 124.97570216242092,
              "duration": 0.2498982788045288,
              "velocity": 64
            },
            {
              "pitch": 44,
              "time": 126.48781687062937,
              "duration": 0.24995109057609058,
              "velocity": 64
            },
            {
              "pitch": 69,
              "time": 0.4744586143023643,
              "duration": 1.0060312083749583,
              "velocity": 3
            },
            {
              "pitch": 69,
              "time": 4.506904553779553,
              "duration": 0.7539520375457875,
              "velocity": 3
            },
            {
              "pitch": 69,
              "time": 8.50405583999334,
              "duration": 1.0060312083749583,
              "velocity": 3
            },
            {
              "pitch": 69,
              "time": 12.53650177947053,
              "duration": 0.7539520375457875,
              "velocity": 3
            },
            {
              "pitch": 69,
              "time": 16.474458614302364,
              "duration": 1.0060312083749583,
              "velocity": 3
            },
            {
              "pitch": 69,
              "time": 20.506904553779552,
              "duration": 0.7539520375457875,
              "velocity": 3
            },
            {
              "pitch": 69,
              "time": 24.50405583999334,
              "duration": 1.0060312083749583,
              "velocity": 3
            },
            {
              "pitch": 69,
              "time": 28.53650177947053,
              "duration": 0.7539520375457875,
              "velocity": 3
            }
          ],
          "gainInfo": 1,
          "contentSummary": "midi clip, 7.8 bars, 231 notes",
          "clipColor": 10,
          "name": "ARP 2600 V3 3"
        },
        {
          "id": "track_midi_33_10_clip_1",
          "trackId": "track_midi_33_10",
          "clipType": "midi",
          "start": 96,
          "end": 127,
          "loop": false,
          "sourceRef": null,
          "midiNoteCount": 231,
          "midiNotes": [
            {
              "pitch": 41,
              "time": 1.9866258741258742,
              "duration": 0.5019777097902098,
              "velocity": 39
            },
            {
              "pitch": 41,
              "time": 3.498792873792874,
              "duration": 0.7560827193639693,
              "velocity": 39
            },
            {
              "pitch": 41,
              "time": 6.019071813603063,
              "duration": 0.5019251581751581,
              "velocity": 39
            },
            {
              "pitch": 41,
              "time": 7.5312390734265735,
              "duration": 0.4998982788045288,
              "velocity": 39
            },
            {
              "pitch": 41,
              "time": 10.01622309981685,
              "duration": 0.5019777097902098,
              "velocity": 39
            },
            {
              "pitch": 41,
              "time": 11.528390099483849,
              "duration": 0.7560827193639693,
              "velocity": 39
            },
            {
              "pitch": 41,
              "time": 14.048669039294039,
              "duration": 0.5019251581751581,
              "velocity": 39
            },
            {
              "pitch": 41,
              "time": 15.560836299117549,
              "duration": 0.2498982788045288,
              "velocity": 39
            },
            {
              "pitch": 41,
              "time": 17.986625874125874,
              "duration": 0.5019777097902098,
              "velocity": 39
            },
            {
              "pitch": 41,
              "time": 19.498792873792873,
              "duration": 0.7560827193639693,
              "velocity": 39
            },
            {
              "pitch": 41,
              "time": 22.019071813603063,
              "duration": 0.5019251581751581,
              "velocity": 39
            },
            {
              "pitch": 41,
              "time": 23.531239073426573,
              "duration": 0.4998982788045288,
              "velocity": 39
            },
            {
              "pitch": 41,
              "time": 26.016223099816848,
              "duration": 0.5019777097902098,
              "velocity": 39
            },
            {
              "pitch": 41,
              "time": 27.52839009948385,
              "duration": 0.7560827193639693,
              "velocity": 39
            },
            {
              "pitch": 41,
              "time": 30.04866903929404,
              "duration": 0.5019251581751581,
              "velocity": 39
            },
            {
              "pitch": 41,
              "time": 31.56083629911755,
              "duration": 0.2498982788045288,
              "velocity": 39
            },
            {
              "pitch": 41,
              "time": 34.24603599525474,
              "duration": 0.2499508304195804,
              "velocity": 39
            },
            {
              "pitch": 41,
              "time": 35.75820325507826,
              "duration": 0.2499508304195804,
              "velocity": 39
            },
            {
              "pitch": 41,
              "time": 38.278481674575424,
              "duration": 0.24995109057609058,
              "velocity": 39
            },
            {
              "pitch": 41,
              "time": 39.79064893439894,
              "duration": 0.24989879911754911,
              "velocity": 39
            },
            {
              "pitch": 41,
              "time": 42.31092787420913,
              "duration": 0.2498982788045288,
              "velocity": 39
            },
            {
              "pitch": 41,
              "time": 43.82309487387612,
              "duration": 0.24989853896103897,
              "velocity": 39
            },
            {
              "pitch": 41,
              "time": 46.34332100191475,
              "duration": 0.24995135073260072,
              "velocity": 39
            },
            {
              "pitch": 41,
              "time": 47.85548826173826,
              "duration": 0.24995109057609058,
              "velocity": 39
            },
            {
              "pitch": 41,
              "time": 50.37576720154845,
              "duration": 0.24995109057609058,
              "velocity": 39
            },
            {
              "pitch": 41,
              "time": 51.88793420121545,
              "duration": 0.24989853896103897,
              "velocity": 39
            },
            {
              "pitch": 41,
              "time": 54.40821314102564,
              "duration": 0.24989853896103897,
              "velocity": 39
            },
            {
              "pitch": 41,
              "time": 55.92038040084915,
              "duration": 0.24989853896103897,
              "velocity": 39
            },
            {
              "pitch": 41,
              "time": 58.44060652888778,
              "duration": 0.24995109057609058,
              "velocity": 39
            },
            {
              "pitch": 41,
              "time": 59.95277378871129,
              "duration": 0.24995109057609058,
              "velocity": 39
            },
            {
              "pitch": 41,
              "time": 62.47305246836497,
              "duration": 0.24989853896103897,
              "velocity": 39
            },
            {
              "pitch": 41,
              "time": 63.985219728188476,
              "duration": 0.24989853896103897,
              "velocity": 39
            },
            {
              "pitch": 41,
              "time": 66.50549840784215,
              "duration": 0.24989853896103897,
              "velocity": 39
            },
            {
              "pitch": 41,
              "time": 68.01761311605061,
              "duration": 0.24995109057609058,
              "velocity": 39
            },
            {
              "pitch": 41,
              "time": 70.5378917957043,
              "duration": 0.24995109057609058,
              "velocity": 39
            },
            {
              "pitch": 41,
              "time": 72.05005905552781,
              "duration": 0.24995109057609058,
              "velocity": 39
            },
            {
              "pitch": 41,
              "time": 74.57033773518148,
              "duration": 0.24989853896103897,
              "velocity": 39
            },
            {
              "pitch": 41,
              "time": 76.08250525516151,
              "duration": 0.2498982788045288,
              "velocity": 39
            },
            {
              "pitch": 41,
              "time": 78.60278367465868,
              "duration": 0.24989853896103897,
              "velocity": 39
            },
            {
              "pitch": 41,
              "time": 80.11489838286714,
              "duration": 0.24995135073260072,
              "velocity": 39
            },
            {
              "pitch": 41,
              "time": 82.63517706252081,
              "duration": 0.24995109057609058,
              "velocity": 39
            },
            {
              "pitch": 41,
              "time": 84.14734458250084,
              "duration": 0.2499508304195804,
              "velocity": 39
            },
            {
              "pitch": 41,
              "time": 86.667623001998,
              "duration": 0.24989853896103897,
              "velocity": 39
            },
            {
              "pitch": 41,
              "time": 88.17979026182151,
              "duration": 0.24989879911754911,
              "velocity": 39
            },
            {
              "pitch": 41,
              "time": 90.7000692016317,
              "duration": 0.2498982788045288,
              "velocity": 39
            },
            {
              "pitch": 41,
              "time": 92.21218390984016,
              "duration": 0.2499508304195804,
              "velocity": 39
            },
            {
              "pitch": 41,
              "time": 94.73246232933732,
              "duration": 0.24995135073260072,
              "velocity": 39
            },
            {
              "pitch": 41,
              "time": 96.24462958916084,
              "duration": 0.24995109057609058,
              "velocity": 39
            },
            {
              "pitch": 41,
              "time": 98.76490852897103,
              "duration": 0.2498982788045288,
              "velocity": 39
            },
            {
              "pitch": 41,
              "time": 100.27707578879453,
              "duration": 0.2498982788045288,
              "velocity": 39
            },
            {
              "pitch": 41,
              "time": 102.79730191683316,
              "duration": 0.24995109057609058,
              "velocity": 39
            },
            {
              "pitch": 41,
              "time": 104.30946891650017,
              "duration": 0.24995135073260072,
              "velocity": 39
            },
            {
              "pitch": 41,
              "time": 106.82974785631036,
              "duration": 0.24995109057609058,
              "velocity": 39
            },
            {
              "pitch": 41,
              "time": 108.34191511613386,
              "duration": 0.24995109057609058,
              "velocity": 39
            },
            {
              "pitch": 41,
              "time": 110.86219379578755,
              "duration": 0.24989853896103897,
              "velocity": 39
            },
            {
              "pitch": 41,
              "time": 112.37436105561106,
              "duration": 0.24989853896103897,
              "velocity": 39
            },
            {
              "pitch": 41,
              "time": 114.89458718364969,
              "duration": 0.24995109057609058,
              "velocity": 39
            },
            {
              "pitch": 41,
              "time": 116.40675444347319,
              "duration": 0.24995109057609058,
              "velocity": 39
            },
            {
              "pitch": 41,
              "time": 118.92703338328339,
              "duration": 0.2499508304195804,
              "velocity": 39
            },
            {
              "pitch": 41,
              "time": 120.43920038295039,
              "duration": 0.24989853896103897,
              "velocity": 39
            },
            {
              "pitch": 41,
              "time": 122.95947906260406,
              "duration": 0.24989879911754911,
              "velocity": 39
            },
            {
              "pitch": 41,
              "time": 124.47164632242757,
              "duration": 0.24989853896103897,
              "velocity": 39
            },
            {
              "pitch": 41,
              "time": 126.99187271062272,
              "duration": 0.2499508304195804,
              "velocity": 39
            },
            {
              "pitch": 44,
              "time": -0.02959722569097569,
              "duration": 0.50197796994672,
              "velocity": 64
            },
            {
              "pitch": 44,
              "time": 1.482570034132534,
              "duration": 0.5019777097902098,
              "velocity": 64
            },
            {
              "pitch": 44,
              "time": 5.5150159736097235,
              "duration": 0.5019251581751581,
              "velocity": 64
            },
            {
              "pitch": 44,
              "time": 8,
              "duration": 0.50197796994672,
              "velocity": 64
            },
            {
              "pitch": 44,
              "time": 9.51216725982351,
              "duration": 0.5019777097902098,
              "velocity": 64
            },
            {
              "pitch": 44,
              "time": 13.544613199300699,
              "duration": 0.5019251581751581,
              "velocity": 64
            },
            {
              "pitch": 44,
              "time": 17.482570034132536,
              "duration": 0.5019777097902098,
              "velocity": 64
            },
            {
              "pitch": 44,
              "time": 21.515015973609724,
              "duration": 0.5019251581751581,
              "velocity": 64
            },
            {
              "pitch": 44,
              "time": 24,
              "duration": 0.50197796994672,
              "velocity": 64
            },
            {
              "pitch": 44,
              "time": 25.51216725982351,
              "duration": 0.5019777097902098,
              "velocity": 64
            },
            {
              "pitch": 44,
              "time": 29.5446131993007,
              "duration": 0.5019251581751581,
              "velocity": 64
            },
            {
              "pitch": 44,
              "time": 36.262258574758576,
              "duration": 0.24995135073260072,
              "velocity": 64
            },
            {
              "pitch": 44,
              "time": 37.774426094738594,
              "duration": 0.24995109057609058,
              "velocity": 64
            },
            {
              "pitch": 44,
              "time": 40.29470477439227,
              "duration": 0.24989853896103897,
              "velocity": 64
            },
            {
              "pitch": 44,
              "time": 41.806872034215786,
              "duration": 0.24989853896103897,
              "velocity": 64
            },
            {
              "pitch": 44,
              "time": 44.327150713869464,
              "duration": 0.24989853896103897,
              "velocity": 64
            },
            {
              "pitch": 44,
              "time": 45.83926542207792,
              "duration": 0.24995109057609058,
              "velocity": 64
            },
            {
              "pitch": 44,
              "time": 48.3595441017316,
              "duration": 0.24995109057609058,
              "velocity": 64
            },
            {
              "pitch": 44,
              "time": 49.871711361555114,
              "duration": 0.24995109057609058,
              "velocity": 64
            },
            {
              "pitch": 44,
              "time": 52.39199004120879,
              "duration": 0.24989853896103897,
              "velocity": 64
            },
            {
              "pitch": 44,
              "time": 53.9041573010323,
              "duration": 0.24989853896103897,
              "velocity": 64
            },
            {
              "pitch": 44,
              "time": 56.42438342907093,
              "duration": 0.24995109057609058,
              "velocity": 64
            },
            {
              "pitch": 44,
              "time": 57.93655068889444,
              "duration": 0.24995109057609058,
              "velocity": 64
            },
            {
              "pitch": 44,
              "time": 60.456829628704625,
              "duration": 0.24995109057609058,
              "velocity": 64
            },
            {
              "pitch": 44,
              "time": 61.96899662837163,
              "duration": 0.24995135073260072,
              "velocity": 64
            },
            {
              "pitch": 44,
              "time": 64.48927556818182,
              "duration": 0.24989853896103897,
              "velocity": 64
            },
            {
              "pitch": 44,
              "time": 66.00144282800532,
              "duration": 0.2498982788045288,
              "velocity": 64
            },
            {
              "pitch": 44,
              "time": 68.52166895604395,
              "duration": 0.24995109057609058,
              "velocity": 64
            },
            {
              "pitch": 44,
              "time": 70.03383595571096,
              "duration": 0.24995135073260072,
              "velocity": 64
            },
            {
              "pitch": 44,
              "time": 72.55411489552115,
              "duration": 0.2499508304195804,
              "velocity": 64
            },
            {
              "pitch": 44,
              "time": 74.06628215534465,
              "duration": 0.2498982788045288,
              "velocity": 64
            },
            {
              "pitch": 44,
              "time": 76.58656057484183,
              "duration": 0.24989879911754911,
              "velocity": 64
            },
            {
              "pitch": 44,
              "time": 78.09872783466534,
              "duration": 0.24989879911754911,
              "velocity": 64
            },
            {
              "pitch": 44,
              "time": 80.61895422286047,
              "duration": 0.2499508304195804,
              "velocity": 64
            },
            {
              "pitch": 44,
              "time": 82.13112148268398,
              "duration": 0.2499508304195804,
              "velocity": 64
            },
            {
              "pitch": 44,
              "time": 84.65140016233767,
              "duration": 0.24995109057609058,
              "velocity": 64
            },
            {
              "pitch": 44,
              "time": 86.16356716200467,
              "duration": 0.24989879911754911,
              "velocity": 64
            },
            {
              "pitch": 44,
              "time": 88.68384610181485,
              "duration": 0.24989853896103897,
              "velocity": 64
            },
            {
              "pitch": 44,
              "time": 90.19601336163836,
              "duration": 0.2498982788045288,
              "velocity": 64
            },
            {
              "pitch": 44,
              "time": 92.716239489677,
              "duration": 0.24995109057609058,
              "velocity": 64
            },
            {
              "pitch": 44,
              "time": 94.2284067495005,
              "duration": 0.24995109057609058,
              "velocity": 64
            },
            {
              "pitch": 44,
              "time": 96.74868542915418,
              "duration": 0.24995109057609058,
              "velocity": 64
            },
            {
              "pitch": 44,
              "time": 98.26085268897769,
              "duration": 0.24989853896103897,
              "velocity": 64
            },
            {
              "pitch": 44,
              "time": 100.78113162878788,
              "duration": 0.2498982788045288,
              "velocity": 64
            },
            {
              "pitch": 44,
              "time": 102.29329862845488,
              "duration": 0.24989853896103897,
              "velocity": 64
            },
            {
              "pitch": 44,
              "time": 104.8135247564935,
              "duration": 0.24995135073260072,
              "velocity": 64
            },
            {
              "pitch": 44,
              "time": 106.32569201631702,
              "duration": 0.24995109057609058,
              "velocity": 64
            },
            {
              "pitch": 44,
              "time": 108.8459709561272,
              "duration": 0.2498982788045288,
              "velocity": 64
            },
            {
              "pitch": 44,
              "time": 110.3581379557942,
              "duration": 0.24989853896103897,
              "velocity": 64
            },
            {
              "pitch": 44,
              "time": 112.87841663544789,
              "duration": 0.24989879911754911,
              "velocity": 64
            },
            {
              "pitch": 44,
              "time": 114.39053134365635,
              "duration": 0.24995109057609058,
              "velocity": 64
            },
            {
              "pitch": 44,
              "time": 116.91081028346653,
              "duration": 0.2499508304195804,
              "velocity": 64
            },
            {
              "pitch": 44,
              "time": 118.42297754329005,
              "duration": 0.24995109057609058,
              "velocity": 64
            },
            {
              "pitch": 44,
              "time": 120.94325596278722,
              "duration": 0.24989879911754911,
              "velocity": 64
            },
            {
              "pitch": 44,
              "time": 122.45542348276723,
              "duration": 0.24989853896103897,
              "velocity": 64
            },
            {
              "pitch": 44,
              "time": 124.97570216242092,
              "duration": 0.2498982788045288,
              "velocity": 64
            },
            {
              "pitch": 44,
              "time": 126.48781687062937,
              "duration": 0.24995109057609058,
              "velocity": 64
            },
            {
              "pitch": 69,
              "time": 0.4744586143023643,
              "duration": 1.0060312083749583,
              "velocity": 3
            },
            {
              "pitch": 69,
              "time": 4.506904553779553,
              "duration": 0.7539520375457875,
              "velocity": 3
            },
            {
              "pitch": 69,
              "time": 8.50405583999334,
              "duration": 1.0060312083749583,
              "velocity": 3
            },
            {
              "pitch": 69,
              "time": 12.53650177947053,
              "duration": 0.7539520375457875,
              "velocity": 3
            },
            {
              "pitch": 69,
              "time": 16.474458614302364,
              "duration": 1.0060312083749583,
              "velocity": 3
            },
            {
              "pitch": 69,
              "time": 20.506904553779552,
              "duration": 0.7539520375457875,
              "velocity": 3
            },
            {
              "pitch": 69,
              "time": 24.50405583999334,
              "duration": 1.0060312083749583,
              "velocity": 3
            },
            {
              "pitch": 69,
              "time": 28.53650177947053,
              "duration": 0.7539520375457875,
              "velocity": 3
            }
          ],
          "gainInfo": 1,
          "contentSummary": "midi clip, 7.8 bars, 231 notes",
          "clipColor": 10,
          "name": "ARP 2600 V3 3"
        },
        {
          "id": "track_midi_33_10_clip_2",
          "trackId": "track_midi_33_10",
          "clipType": "midi",
          "start": 127,
          "end": 192,
          "loop": false,
          "sourceRef": null,
          "midiNoteCount": 231,
          "midiNotes": [
            {
              "pitch": 41,
              "time": 1.9866258741258742,
              "duration": 0.5019777097902098,
              "velocity": 39
            },
            {
              "pitch": 41,
              "time": 3.498792873792874,
              "duration": 0.7560827193639693,
              "velocity": 39
            },
            {
              "pitch": 41,
              "time": 6.019071813603063,
              "duration": 0.5019251581751581,
              "velocity": 39
            },
            {
              "pitch": 41,
              "time": 7.5312390734265735,
              "duration": 0.4998982788045288,
              "velocity": 39
            },
            {
              "pitch": 41,
              "time": 10.01622309981685,
              "duration": 0.5019777097902098,
              "velocity": 39
            },
            {
              "pitch": 41,
              "time": 11.528390099483849,
              "duration": 0.7560827193639693,
              "velocity": 39
            },
            {
              "pitch": 41,
              "time": 14.048669039294039,
              "duration": 0.5019251581751581,
              "velocity": 39
            },
            {
              "pitch": 41,
              "time": 15.560836299117549,
              "duration": 0.2498982788045288,
              "velocity": 39
            },
            {
              "pitch": 41,
              "time": 17.986625874125874,
              "duration": 0.5019777097902098,
              "velocity": 39
            },
            {
              "pitch": 41,
              "time": 19.498792873792873,
              "duration": 0.7560827193639693,
              "velocity": 39
            },
            {
              "pitch": 41,
              "time": 22.019071813603063,
              "duration": 0.5019251581751581,
              "velocity": 39
            },
            {
              "pitch": 41,
              "time": 23.531239073426573,
              "duration": 0.4998982788045288,
              "velocity": 39
            },
            {
              "pitch": 41,
              "time": 26.016223099816848,
              "duration": 0.5019777097902098,
              "velocity": 39
            },
            {
              "pitch": 41,
              "time": 27.52839009948385,
              "duration": 0.7560827193639693,
              "velocity": 39
            },
            {
              "pitch": 41,
              "time": 30.04866903929404,
              "duration": 0.5019251581751581,
              "velocity": 39
            },
            {
              "pitch": 41,
              "time": 31.56083629911755,
              "duration": 0.2498982788045288,
              "velocity": 39
            },
            {
              "pitch": 41,
              "time": 34.24603599525474,
              "duration": 0.2499508304195804,
              "velocity": 39
            },
            {
              "pitch": 41,
              "time": 35.75820325507826,
              "duration": 0.2499508304195804,
              "velocity": 39
            },
            {
              "pitch": 41,
              "time": 38.278481674575424,
              "duration": 0.24995109057609058,
              "velocity": 39
            },
            {
              "pitch": 41,
              "time": 39.79064893439894,
              "duration": 0.24989879911754911,
              "velocity": 39
            },
            {
              "pitch": 41,
              "time": 42.31092787420913,
              "duration": 0.2498982788045288,
              "velocity": 39
            },
            {
              "pitch": 41,
              "time": 43.82309487387612,
              "duration": 0.24989853896103897,
              "velocity": 39
            },
            {
              "pitch": 41,
              "time": 46.34332100191475,
              "duration": 0.24995135073260072,
              "velocity": 39
            },
            {
              "pitch": 41,
              "time": 47.85548826173826,
              "duration": 0.24995109057609058,
              "velocity": 39
            },
            {
              "pitch": 41,
              "time": 50.37576720154845,
              "duration": 0.24995109057609058,
              "velocity": 39
            },
            {
              "pitch": 41,
              "time": 51.88793420121545,
              "duration": 0.24989853896103897,
              "velocity": 39
            },
            {
              "pitch": 41,
              "time": 54.40821314102564,
              "duration": 0.24989853896103897,
              "velocity": 39
            },
            {
              "pitch": 41,
              "time": 55.92038040084915,
              "duration": 0.24989853896103897,
              "velocity": 39
            },
            {
              "pitch": 41,
              "time": 58.44060652888778,
              "duration": 0.24995109057609058,
              "velocity": 39
            },
            {
              "pitch": 41,
              "time": 59.95277378871129,
              "duration": 0.24995109057609058,
              "velocity": 39
            },
            {
              "pitch": 41,
              "time": 62.47305246836497,
              "duration": 0.24989853896103897,
              "velocity": 39
            },
            {
              "pitch": 41,
              "time": 63.985219728188476,
              "duration": 0.24989853896103897,
              "velocity": 39
            },
            {
              "pitch": 41,
              "time": 66.50549840784215,
              "duration": 0.24989853896103897,
              "velocity": 39
            },
            {
              "pitch": 41,
              "time": 68.01761311605061,
              "duration": 0.24995109057609058,
              "velocity": 39
            },
            {
              "pitch": 41,
              "time": 70.5378917957043,
              "duration": 0.24995109057609058,
              "velocity": 39
            },
            {
              "pitch": 41,
              "time": 72.05005905552781,
              "duration": 0.24995109057609058,
              "velocity": 39
            },
            {
              "pitch": 41,
              "time": 74.57033773518148,
              "duration": 0.24989853896103897,
              "velocity": 39
            },
            {
              "pitch": 41,
              "time": 76.08250525516151,
              "duration": 0.2498982788045288,
              "velocity": 39
            },
            {
              "pitch": 41,
              "time": 78.60278367465868,
              "duration": 0.24989853896103897,
              "velocity": 39
            },
            {
              "pitch": 41,
              "time": 80.11489838286714,
              "duration": 0.24995135073260072,
              "velocity": 39
            },
            {
              "pitch": 41,
              "time": 82.63517706252081,
              "duration": 0.24995109057609058,
              "velocity": 39
            },
            {
              "pitch": 41,
              "time": 84.14734458250084,
              "duration": 0.2499508304195804,
              "velocity": 39
            },
            {
              "pitch": 41,
              "time": 86.667623001998,
              "duration": 0.24989853896103897,
              "velocity": 39
            },
            {
              "pitch": 41,
              "time": 88.17979026182151,
              "duration": 0.24989879911754911,
              "velocity": 39
            },
            {
              "pitch": 41,
              "time": 90.7000692016317,
              "duration": 0.2498982788045288,
              "velocity": 39
            },
            {
              "pitch": 41,
              "time": 92.21218390984016,
              "duration": 0.2499508304195804,
              "velocity": 39
            },
            {
              "pitch": 41,
              "time": 94.73246232933732,
              "duration": 0.24995135073260072,
              "velocity": 39
            },
            {
              "pitch": 41,
              "time": 96.24462958916084,
              "duration": 0.24995109057609058,
              "velocity": 39
            },
            {
              "pitch": 41,
              "time": 98.76490852897103,
              "duration": 0.2498982788045288,
              "velocity": 39
            },
            {
              "pitch": 41,
              "time": 100.27707578879453,
              "duration": 0.2498982788045288,
              "velocity": 39
            },
            {
              "pitch": 41,
              "time": 102.79730191683316,
              "duration": 0.24995109057609058,
              "velocity": 39
            },
            {
              "pitch": 41,
              "time": 104.30946891650017,
              "duration": 0.24995135073260072,
              "velocity": 39
            },
            {
              "pitch": 41,
              "time": 106.82974785631036,
              "duration": 0.24995109057609058,
              "velocity": 39
            },
            {
              "pitch": 41,
              "time": 108.34191511613386,
              "duration": 0.24995109057609058,
              "velocity": 39
            },
            {
              "pitch": 41,
              "time": 110.86219379578755,
              "duration": 0.24989853896103897,
              "velocity": 39
            },
            {
              "pitch": 41,
              "time": 112.37436105561106,
              "duration": 0.24989853896103897,
              "velocity": 39
            },
            {
              "pitch": 41,
              "time": 114.89458718364969,
              "duration": 0.24995109057609058,
              "velocity": 39
            },
            {
              "pitch": 41,
              "time": 116.40675444347319,
              "duration": 0.24995109057609058,
              "velocity": 39
            },
            {
              "pitch": 41,
              "time": 118.92703338328339,
              "duration": 0.2499508304195804,
              "velocity": 39
            },
            {
              "pitch": 41,
              "time": 120.43920038295039,
              "duration": 0.24989853896103897,
              "velocity": 39
            },
            {
              "pitch": 41,
              "time": 122.95947906260406,
              "duration": 0.24989879911754911,
              "velocity": 39
            },
            {
              "pitch": 41,
              "time": 124.47164632242757,
              "duration": 0.24989853896103897,
              "velocity": 39
            },
            {
              "pitch": 41,
              "time": 126.99187271062272,
              "duration": 0.2499508304195804,
              "velocity": 39
            },
            {
              "pitch": 44,
              "time": -0.02959722569097569,
              "duration": 0.50197796994672,
              "velocity": 64
            },
            {
              "pitch": 44,
              "time": 1.482570034132534,
              "duration": 0.5019777097902098,
              "velocity": 64
            },
            {
              "pitch": 44,
              "time": 5.5150159736097235,
              "duration": 0.5019251581751581,
              "velocity": 64
            },
            {
              "pitch": 44,
              "time": 8,
              "duration": 0.50197796994672,
              "velocity": 64
            },
            {
              "pitch": 44,
              "time": 9.51216725982351,
              "duration": 0.5019777097902098,
              "velocity": 64
            },
            {
              "pitch": 44,
              "time": 13.544613199300699,
              "duration": 0.5019251581751581,
              "velocity": 64
            },
            {
              "pitch": 44,
              "time": 17.482570034132536,
              "duration": 0.5019777097902098,
              "velocity": 64
            },
            {
              "pitch": 44,
              "time": 21.515015973609724,
              "duration": 0.5019251581751581,
              "velocity": 64
            },
            {
              "pitch": 44,
              "time": 24,
              "duration": 0.50197796994672,
              "velocity": 64
            },
            {
              "pitch": 44,
              "time": 25.51216725982351,
              "duration": 0.5019777097902098,
              "velocity": 64
            },
            {
              "pitch": 44,
              "time": 29.5446131993007,
              "duration": 0.5019251581751581,
              "velocity": 64
            },
            {
              "pitch": 44,
              "time": 36.262258574758576,
              "duration": 0.24995135073260072,
              "velocity": 64
            },
            {
              "pitch": 44,
              "time": 37.774426094738594,
              "duration": 0.24995109057609058,
              "velocity": 64
            },
            {
              "pitch": 44,
              "time": 40.29470477439227,
              "duration": 0.24989853896103897,
              "velocity": 64
            },
            {
              "pitch": 44,
              "time": 41.806872034215786,
              "duration": 0.24989853896103897,
              "velocity": 64
            },
            {
              "pitch": 44,
              "time": 44.327150713869464,
              "duration": 0.24989853896103897,
              "velocity": 64
            },
            {
              "pitch": 44,
              "time": 45.83926542207792,
              "duration": 0.24995109057609058,
              "velocity": 64
            },
            {
              "pitch": 44,
              "time": 48.3595441017316,
              "duration": 0.24995109057609058,
              "velocity": 64
            },
            {
              "pitch": 44,
              "time": 49.871711361555114,
              "duration": 0.24995109057609058,
              "velocity": 64
            },
            {
              "pitch": 44,
              "time": 52.39199004120879,
              "duration": 0.24989853896103897,
              "velocity": 64
            },
            {
              "pitch": 44,
              "time": 53.9041573010323,
              "duration": 0.24989853896103897,
              "velocity": 64
            },
            {
              "pitch": 44,
              "time": 56.42438342907093,
              "duration": 0.24995109057609058,
              "velocity": 64
            },
            {
              "pitch": 44,
              "time": 57.93655068889444,
              "duration": 0.24995109057609058,
              "velocity": 64
            },
            {
              "pitch": 44,
              "time": 60.456829628704625,
              "duration": 0.24995109057609058,
              "velocity": 64
            },
            {
              "pitch": 44,
              "time": 61.96899662837163,
              "duration": 0.24995135073260072,
              "velocity": 64
            },
            {
              "pitch": 44,
              "time": 64.48927556818182,
              "duration": 0.24989853896103897,
              "velocity": 64
            },
            {
              "pitch": 44,
              "time": 66.00144282800532,
              "duration": 0.2498982788045288,
              "velocity": 64
            },
            {
              "pitch": 44,
              "time": 68.52166895604395,
              "duration": 0.24995109057609058,
              "velocity": 64
            },
            {
              "pitch": 44,
              "time": 70.03383595571096,
              "duration": 0.24995135073260072,
              "velocity": 64
            },
            {
              "pitch": 44,
              "time": 72.55411489552115,
              "duration": 0.2499508304195804,
              "velocity": 64
            },
            {
              "pitch": 44,
              "time": 74.06628215534465,
              "duration": 0.2498982788045288,
              "velocity": 64
            },
            {
              "pitch": 44,
              "time": 76.58656057484183,
              "duration": 0.24989879911754911,
              "velocity": 64
            },
            {
              "pitch": 44,
              "time": 78.09872783466534,
              "duration": 0.24989879911754911,
              "velocity": 64
            },
            {
              "pitch": 44,
              "time": 80.61895422286047,
              "duration": 0.2499508304195804,
              "velocity": 64
            },
            {
              "pitch": 44,
              "time": 82.13112148268398,
              "duration": 0.2499508304195804,
              "velocity": 64
            },
            {
              "pitch": 44,
              "time": 84.65140016233767,
              "duration": 0.24995109057609058,
              "velocity": 64
            },
            {
              "pitch": 44,
              "time": 86.16356716200467,
              "duration": 0.24989879911754911,
              "velocity": 64
            },
            {
              "pitch": 44,
              "time": 88.68384610181485,
              "duration": 0.24989853896103897,
              "velocity": 64
            },
            {
              "pitch": 44,
              "time": 90.19601336163836,
              "duration": 0.2498982788045288,
              "velocity": 64
            },
            {
              "pitch": 44,
              "time": 92.716239489677,
              "duration": 0.24995109057609058,
              "velocity": 64
            },
            {
              "pitch": 44,
              "time": 94.2284067495005,
              "duration": 0.24995109057609058,
              "velocity": 64
            },
            {
              "pitch": 44,
              "time": 96.74868542915418,
              "duration": 0.24995109057609058,
              "velocity": 64
            },
            {
              "pitch": 44,
              "time": 98.26085268897769,
              "duration": 0.24989853896103897,
              "velocity": 64
            },
            {
              "pitch": 44,
              "time": 100.78113162878788,
              "duration": 0.2498982788045288,
              "velocity": 64
            },
            {
              "pitch": 44,
              "time": 102.29329862845488,
              "duration": 0.24989853896103897,
              "velocity": 64
            },
            {
              "pitch": 44,
              "time": 104.8135247564935,
              "duration": 0.24995135073260072,
              "velocity": 64
            },
            {
              "pitch": 44,
              "time": 106.32569201631702,
              "duration": 0.24995109057609058,
              "velocity": 64
            },
            {
              "pitch": 44,
              "time": 108.8459709561272,
              "duration": 0.2498982788045288,
              "velocity": 64
            },
            {
              "pitch": 44,
              "time": 110.3581379557942,
              "duration": 0.24989853896103897,
              "velocity": 64
            },
            {
              "pitch": 44,
              "time": 112.87841663544789,
              "duration": 0.24989879911754911,
              "velocity": 64
            },
            {
              "pitch": 44,
              "time": 114.39053134365635,
              "duration": 0.24995109057609058,
              "velocity": 64
            },
            {
              "pitch": 44,
              "time": 116.91081028346653,
              "duration": 0.2499508304195804,
              "velocity": 64
            },
            {
              "pitch": 44,
              "time": 118.42297754329005,
              "duration": 0.24995109057609058,
              "velocity": 64
            },
            {
              "pitch": 44,
              "time": 120.94325596278722,
              "duration": 0.24989879911754911,
              "velocity": 64
            },
            {
              "pitch": 44,
              "time": 122.45542348276723,
              "duration": 0.24989853896103897,
              "velocity": 64
            },
            {
              "pitch": 44,
              "time": 124.97570216242092,
              "duration": 0.2498982788045288,
              "velocity": 64
            },
            {
              "pitch": 44,
              "time": 126.48781687062937,
              "duration": 0.24995109057609058,
              "velocity": 64
            },
            {
              "pitch": 69,
              "time": 0.4744586143023643,
              "duration": 1.0060312083749583,
              "velocity": 3
            },
            {
              "pitch": 69,
              "time": 4.506904553779553,
              "duration": 0.7539520375457875,
              "velocity": 3
            },
            {
              "pitch": 69,
              "time": 8.50405583999334,
              "duration": 1.0060312083749583,
              "velocity": 3
            },
            {
              "pitch": 69,
              "time": 12.53650177947053,
              "duration": 0.7539520375457875,
              "velocity": 3
            },
            {
              "pitch": 69,
              "time": 16.474458614302364,
              "duration": 1.0060312083749583,
              "velocity": 3
            },
            {
              "pitch": 69,
              "time": 20.506904553779552,
              "duration": 0.7539520375457875,
              "velocity": 3
            },
            {
              "pitch": 69,
              "time": 24.50405583999334,
              "duration": 1.0060312083749583,
              "velocity": 3
            },
            {
              "pitch": 69,
              "time": 28.53650177947053,
              "duration": 0.7539520375457875,
              "velocity": 3
            }
          ],
          "gainInfo": 1,
          "contentSummary": "midi clip, 16.2 bars, 231 notes",
          "clipColor": 10,
          "name": "ARP 2600 V3 3"
        },
        {
          "id": "track_midi_33_10_clip_3",
          "trackId": "track_midi_33_10",
          "clipType": "midi",
          "start": 192,
          "end": 319.218648538961,
          "loop": false,
          "sourceRef": null,
          "midiNoteCount": 254,
          "midiNotes": [
            {
              "pitch": 41,
              "time": 2.9999908945221447,
              "duration": 0.24794112137862137,
              "velocity": 39
            },
            {
              "pitch": 41,
              "time": 4.4999976585914085,
              "duration": 0.24794112137862137,
              "velocity": 39
            },
            {
              "pitch": 41,
              "time": 7.000009105477855,
              "duration": 0.24788882992007993,
              "velocity": 39
            },
            {
              "pitch": 41,
              "time": 8.50001586954712,
              "duration": 0.24788882992007993,
              "velocity": 39
            },
            {
              "pitch": 41,
              "time": 10.999975024975026,
              "duration": 0.24794112137862137,
              "velocity": 39
            },
            {
              "pitch": 41,
              "time": 12.49998178904429,
              "duration": 0.24794112137862137,
              "velocity": 39
            },
            {
              "pitch": 41,
              "time": 14.999993235930736,
              "duration": 0.24794112137862137,
              "velocity": 39
            },
            {
              "pitch": 41,
              "time": 16.5,
              "duration": 0.24794112137862137,
              "velocity": 39
            },
            {
              "pitch": 41,
              "time": 19.000011446886447,
              "duration": 0.24788882992007993,
              "velocity": 39
            },
            {
              "pitch": 41,
              "time": 20.500018210955712,
              "duration": 0.24788882992007993,
              "velocity": 39
            },
            {
              "pitch": 41,
              "time": 22.999977366383618,
              "duration": 0.24794112137862137,
              "velocity": 39
            },
            {
              "pitch": 41,
              "time": 24.49998413045288,
              "duration": 0.24794112137862137,
              "velocity": 39
            },
            {
              "pitch": 41,
              "time": 26.999995577339327,
              "duration": 0.24794086122211123,
              "velocity": 39
            },
            {
              "pitch": 41,
              "time": 28.500002341408592,
              "duration": 0.24788882992007993,
              "velocity": 39
            },
            {
              "pitch": 41,
              "time": 31.000013528138528,
              "duration": 0.24788909007659007,
              "velocity": 39
            },
            {
              "pitch": 41,
              "time": 32.50002029220779,
              "duration": 0.24788909007659007,
              "velocity": 39
            },
            {
              "pitch": 41,
              "time": 34.99997970779221,
              "duration": 0.24794086122211123,
              "velocity": 39
            },
            {
              "pitch": 41,
              "time": 36.49998647186147,
              "duration": 0.24794086122211123,
              "velocity": 39
            },
            {
              "pitch": 41,
              "time": 38.99999765859141,
              "duration": 0.24794112137862137,
              "velocity": 39
            },
            {
              "pitch": 41,
              "time": 40.50000442266067,
              "duration": 0.24788909007659007,
              "velocity": 39
            },
            {
              "pitch": 41,
              "time": 43.00001586954712,
              "duration": 0.24788882992007993,
              "velocity": 39
            },
            {
              "pitch": 41,
              "time": 44.50002263361638,
              "duration": 0.24788882992007993,
              "velocity": 39
            },
            {
              "pitch": 41,
              "time": 46.99998178904429,
              "duration": 0.24794112137862137,
              "velocity": 39
            },
            {
              "pitch": 41,
              "time": 48.49998855311355,
              "duration": 0.24794112137862137,
              "velocity": 39
            },
            {
              "pitch": 41,
              "time": 51,
              "duration": 0.24794112137862137,
              "velocity": 39
            },
            {
              "pitch": 41,
              "time": 52.50000676406926,
              "duration": 0.24788882992007993,
              "velocity": 39
            },
            {
              "pitch": 41,
              "time": 55.00001821095571,
              "duration": 0.24788882992007993,
              "velocity": 39
            },
            {
              "pitch": 41,
              "time": 56.50002497502498,
              "duration": 0.24788882992007993,
              "velocity": 39
            },
            {
              "pitch": 41,
              "time": 58.99998413045288,
              "duration": 0.24794112137862137,
              "velocity": 39
            },
            {
              "pitch": 41,
              "time": 60.49999089452214,
              "duration": 0.24794112137862137,
              "velocity": 39
            },
            {
              "pitch": 41,
              "time": 63.00000234140859,
              "duration": 0.24788882992007993,
              "velocity": 39
            },
            {
              "pitch": 41,
              "time": 64.50000910547786,
              "duration": 0.24788882992007993,
              "velocity": 39
            },
            {
              "pitch": 41,
              "time": 67.0000202922078,
              "duration": 0.24788909007659007,
              "velocity": 39
            },
            {
              "pitch": 41,
              "time": 68.49997502497503,
              "duration": 0.24794112137862137,
              "velocity": 39
            },
            {
              "pitch": 41,
              "time": 70.99998647186148,
              "duration": 0.24794086122211123,
              "velocity": 39
            },
            {
              "pitch": 41,
              "time": 72.49999323593073,
              "duration": 0.24794112137862137,
              "velocity": 39
            },
            {
              "pitch": 41,
              "time": 75.00000442266067,
              "duration": 0.24788909007659007,
              "velocity": 39
            },
            {
              "pitch": 41,
              "time": 76.50001144688645,
              "duration": 0.24788882992007993,
              "velocity": 39
            },
            {
              "pitch": 41,
              "time": 79.00002263361638,
              "duration": 0.24788882992007993,
              "velocity": 39
            },
            {
              "pitch": 41,
              "time": 80.49997736638362,
              "duration": 0.24794112137862137,
              "velocity": 39
            },
            {
              "pitch": 41,
              "time": 82.99998855311355,
              "duration": 0.24794112137862137,
              "velocity": 39
            },
            {
              "pitch": 41,
              "time": 84.49999557733933,
              "duration": 0.24794086122211123,
              "velocity": 39
            },
            {
              "pitch": 41,
              "time": 87.00000676406927,
              "duration": 0.24788882992007993,
              "velocity": 39
            },
            {
              "pitch": 41,
              "time": 88.50001352813852,
              "duration": 0.24788909007659007,
              "velocity": 39
            },
            {
              "pitch": 41,
              "time": 91.00002497502497,
              "duration": 0.24788882992007993,
              "velocity": 39
            },
            {
              "pitch": 41,
              "time": 92.4999797077922,
              "duration": 0.24794086122211123,
              "velocity": 39
            },
            {
              "pitch": 41,
              "time": 94.99999089452214,
              "duration": 0.24794112137862137,
              "velocity": 39
            },
            {
              "pitch": 41,
              "time": 96.49999765859141,
              "duration": 0.24794112137862137,
              "velocity": 39
            },
            {
              "pitch": 41,
              "time": 99.00000910547786,
              "duration": 0.24788882992007993,
              "velocity": 39
            },
            {
              "pitch": 41,
              "time": 100.50001586954711,
              "duration": 0.24788882992007993,
              "velocity": 39
            },
            {
              "pitch": 41,
              "time": 102.99997502497503,
              "duration": 0.24794112137862137,
              "velocity": 39
            },
            {
              "pitch": 41,
              "time": 104.49998178904428,
              "duration": 0.24794112137862137,
              "velocity": 39
            },
            {
              "pitch": 41,
              "time": 106.99999323593073,
              "duration": 0.24794112137862137,
              "velocity": 39
            },
            {
              "pitch": 41,
              "time": 108.5,
              "duration": 0.24794112137862137,
              "velocity": 39
            },
            {
              "pitch": 41,
              "time": 111.00001144688645,
              "duration": 0.24788882992007993,
              "velocity": 39
            },
            {
              "pitch": 41,
              "time": 112.50001821095572,
              "duration": 0.24788882992007993,
              "velocity": 39
            },
            {
              "pitch": 41,
              "time": 114.99997736638362,
              "duration": 0.24794112137862137,
              "velocity": 39
            },
            {
              "pitch": 41,
              "time": 116.49998413045289,
              "duration": 0.24794112137862137,
              "velocity": 39
            },
            {
              "pitch": 41,
              "time": 118.99999557733933,
              "duration": 0.24794086122211123,
              "velocity": 39
            },
            {
              "pitch": 41,
              "time": 120.50000234140859,
              "duration": 0.24788882992007993,
              "velocity": 39
            },
            {
              "pitch": 41,
              "time": 123.00001352813852,
              "duration": 0.24788909007659007,
              "velocity": 39
            },
            {
              "pitch": 41,
              "time": 124.5000202922078,
              "duration": 0.24788909007659007,
              "velocity": 39
            },
            {
              "pitch": 41,
              "time": 126.9999797077922,
              "duration": 0.24794086122211123,
              "velocity": 39
            },
            {
              "pitch": 44,
              "time": 0.999981789044289,
              "duration": 0.24794112137862137,
              "velocity": 64
            },
            {
              "pitch": 44,
              "time": 2.4999885531135533,
              "duration": 0.24794112137862137,
              "velocity": 64
            },
            {
              "pitch": 44,
              "time": 5,
              "duration": 0.24794112137862137,
              "velocity": 64
            },
            {
              "pitch": 44,
              "time": 6.500006764069264,
              "duration": 0.24788882992007993,
              "velocity": 64
            },
            {
              "pitch": 44,
              "time": 9.00001821095571,
              "duration": 0.24788882992007993,
              "velocity": 64
            },
            {
              "pitch": 44,
              "time": 10.500024975024974,
              "duration": 0.24788882992007993,
              "velocity": 64
            },
            {
              "pitch": 44,
              "time": 12.99998413045288,
              "duration": 0.24794112137862137,
              "velocity": 64
            },
            {
              "pitch": 44,
              "time": 14.499990894522144,
              "duration": 0.24794112137862137,
              "velocity": 64
            },
            {
              "pitch": 44,
              "time": 17.000002341408592,
              "duration": 0.24788882992007993,
              "velocity": 64
            },
            {
              "pitch": 44,
              "time": 18.500009105477854,
              "duration": 0.24788882992007993,
              "velocity": 64
            },
            {
              "pitch": 44,
              "time": 21.000020292207793,
              "duration": 0.24788909007659007,
              "velocity": 64
            },
            {
              "pitch": 44,
              "time": 22.499975024975026,
              "duration": 0.24794112137862137,
              "velocity": 64
            },
            {
              "pitch": 44,
              "time": 24.999986471861472,
              "duration": 0.24794086122211123,
              "velocity": 64
            },
            {
              "pitch": 44,
              "time": 26.499993235930734,
              "duration": 0.24794112137862137,
              "velocity": 64
            },
            {
              "pitch": 44,
              "time": 29.000004422660673,
              "duration": 0.24788909007659007,
              "velocity": 64
            },
            {
              "pitch": 44,
              "time": 30.500011446886447,
              "duration": 0.24788882992007993,
              "velocity": 64
            },
            {
              "pitch": 44,
              "time": 33.00002263361638,
              "duration": 0.24788882992007993,
              "velocity": 64
            },
            {
              "pitch": 44,
              "time": 34.49997736638362,
              "duration": 0.24794112137862137,
              "velocity": 64
            },
            {
              "pitch": 44,
              "time": 36.99998855311355,
              "duration": 0.24794112137862137,
              "velocity": 64
            },
            {
              "pitch": 44,
              "time": 38.49999557733933,
              "duration": 0.24794086122211123,
              "velocity": 64
            },
            {
              "pitch": 44,
              "time": 41.00000676406926,
              "duration": 0.24788882992007993,
              "velocity": 64
            },
            {
              "pitch": 44,
              "time": 42.50001352813853,
              "duration": 0.24788909007659007,
              "velocity": 64
            },
            {
              "pitch": 44,
              "time": 45.00002497502498,
              "duration": 0.24788882992007993,
              "velocity": 64
            },
            {
              "pitch": 44,
              "time": 46.49997970779221,
              "duration": 0.24794086122211123,
              "velocity": 64
            },
            {
              "pitch": 44,
              "time": 48.99999089452214,
              "duration": 0.24794112137862137,
              "velocity": 64
            },
            {
              "pitch": 44,
              "time": 50.49999765859141,
              "duration": 0.24794112137862137,
              "velocity": 64
            },
            {
              "pitch": 44,
              "time": 53.00000910547786,
              "duration": 0.24788882992007993,
              "velocity": 64
            },
            {
              "pitch": 44,
              "time": 54.50001586954712,
              "duration": 0.24788882992007993,
              "velocity": 64
            },
            {
              "pitch": 44,
              "time": 56.99997502497502,
              "duration": 0.24794112137862137,
              "velocity": 64
            },
            {
              "pitch": 44,
              "time": 58.49998178904429,
              "duration": 0.24794112137862137,
              "velocity": 64
            },
            {
              "pitch": 44,
              "time": 60.99999323593074,
              "duration": 0.24794112137862137,
              "velocity": 64
            },
            {
              "pitch": 44,
              "time": 62.5,
              "duration": 0.24794112137862137,
              "velocity": 64
            },
            {
              "pitch": 44,
              "time": 65.00001144688645,
              "duration": 0.24788882992007993,
              "velocity": 64
            },
            {
              "pitch": 44,
              "time": 66.50001821095572,
              "duration": 0.24788882992007993,
              "velocity": 64
            },
            {
              "pitch": 44,
              "time": 68.99997736638362,
              "duration": 0.24794112137862137,
              "velocity": 64
            },
            {
              "pitch": 44,
              "time": 70.49998413045289,
              "duration": 0.24794112137862137,
              "velocity": 64
            },
            {
              "pitch": 44,
              "time": 72.99999557733933,
              "duration": 0.24794086122211123,
              "velocity": 64
            },
            {
              "pitch": 44,
              "time": 74.50000234140859,
              "duration": 0.24788882992007993,
              "velocity": 64
            },
            {
              "pitch": 44,
              "time": 77.00001352813852,
              "duration": 0.24788909007659007,
              "velocity": 64
            },
            {
              "pitch": 44,
              "time": 78.5000202922078,
              "duration": 0.24788909007659007,
              "velocity": 64
            },
            {
              "pitch": 44,
              "time": 80.9999797077922,
              "duration": 0.24794086122211123,
              "velocity": 64
            },
            {
              "pitch": 44,
              "time": 82.49998647186148,
              "duration": 0.24794086122211123,
              "velocity": 64
            },
            {
              "pitch": 44,
              "time": 84.99999765859141,
              "duration": 0.24794112137862137,
              "velocity": 64
            },
            {
              "pitch": 44,
              "time": 86.50000442266067,
              "duration": 0.24788909007659007,
              "velocity": 64
            },
            {
              "pitch": 44,
              "time": 89.00001586954711,
              "duration": 0.24788882992007993,
              "velocity": 64
            },
            {
              "pitch": 44,
              "time": 90.50002263361638,
              "duration": 0.24788882992007993,
              "velocity": 64
            },
            {
              "pitch": 44,
              "time": 92.99998178904428,
              "duration": 0.24794112137862137,
              "velocity": 64
            },
            {
              "pitch": 44,
              "time": 94.49998855311355,
              "duration": 0.24794112137862137,
              "velocity": 64
            },
            {
              "pitch": 44,
              "time": 97,
              "duration": 0.24794112137862137,
              "velocity": 64
            },
            {
              "pitch": 44,
              "time": 98.50000676406927,
              "duration": 0.24788882992007993,
              "velocity": 64
            },
            {
              "pitch": 44,
              "time": 101.00001821095572,
              "duration": 0.24788882992007993,
              "velocity": 64
            },
            {
              "pitch": 44,
              "time": 102.50002497502497,
              "duration": 0.24788882992007993,
              "velocity": 64
            },
            {
              "pitch": 44,
              "time": 104.99998413045289,
              "duration": 0.24794112137862137,
              "velocity": 64
            },
            {
              "pitch": 44,
              "time": 106.49999089452214,
              "duration": 0.24794112137862137,
              "velocity": 64
            },
            {
              "pitch": 44,
              "time": 109.00000234140859,
              "duration": 0.24788882992007993,
              "velocity": 64
            },
            {
              "pitch": 44,
              "time": 110.50000910547786,
              "duration": 0.24788882992007993,
              "velocity": 64
            },
            {
              "pitch": 44,
              "time": 113.0000202922078,
              "duration": 0.24788909007659007,
              "velocity": 64
            },
            {
              "pitch": 44,
              "time": 114.49997502497503,
              "duration": 0.24794112137862137,
              "velocity": 64
            },
            {
              "pitch": 44,
              "time": 116.99998647186148,
              "duration": 0.24794086122211123,
              "velocity": 64
            },
            {
              "pitch": 44,
              "time": 118.49999323593073,
              "duration": 0.24794112137862137,
              "velocity": 64
            },
            {
              "pitch": 44,
              "time": 121.00000442266067,
              "duration": 0.24788909007659007,
              "velocity": 64
            },
            {
              "pitch": 44,
              "time": 122.50001144688645,
              "duration": 0.24788882992007993,
              "velocity": 64
            },
            {
              "pitch": 44,
              "time": 125.00002263361638,
              "duration": 0.24788882992007993,
              "velocity": 64
            },
            {
              "pitch": 44,
              "time": 126.49997736638362,
              "duration": 0.24794112137862137,
              "velocity": 64
            },
            {
              "pitch": 69,
              "time": 1.4999841304528805,
              "duration": 0.24794112137862137,
              "velocity": 3
            }
          ],
          "gainInfo": 1,
          "contentSummary": "midi clip, 31.8 bars, 254 notes",
          "clipColor": 10,
          "name": "ARP 2600 V3 3"
        },
        {
          "id": "track_midi_33_10_clip_4",
          "trackId": "track_midi_33_10",
          "clipType": "midi",
          "start": 319.218648538961,
          "end": 320,
          "loop": false,
          "sourceRef": null,
          "midiNoteCount": 254,
          "midiNotes": [
            {
              "pitch": 53,
              "time": 2.9999908945221447,
              "duration": 0.24794112137862137,
              "velocity": 39
            },
            {
              "pitch": 53,
              "time": 4.4999976585914085,
              "duration": 0.24794112137862137,
              "velocity": 39
            },
            {
              "pitch": 53,
              "time": 7.000009105477855,
              "duration": 0.24788882992007993,
              "velocity": 39
            },
            {
              "pitch": 53,
              "time": 8.50001586954712,
              "duration": 0.24788882992007993,
              "velocity": 39
            },
            {
              "pitch": 53,
              "time": 10.999975024975026,
              "duration": 0.24794112137862137,
              "velocity": 39
            },
            {
              "pitch": 53,
              "time": 12.49998178904429,
              "duration": 0.24794112137862137,
              "velocity": 39
            },
            {
              "pitch": 53,
              "time": 14.999993235930736,
              "duration": 0.24794112137862137,
              "velocity": 39
            },
            {
              "pitch": 53,
              "time": 16.5,
              "duration": 0.24794112137862137,
              "velocity": 39
            },
            {
              "pitch": 53,
              "time": 19.000011446886447,
              "duration": 0.24788882992007993,
              "velocity": 39
            },
            {
              "pitch": 53,
              "time": 20.500018210955712,
              "duration": 0.24788882992007993,
              "velocity": 39
            },
            {
              "pitch": 53,
              "time": 22.999977366383618,
              "duration": 0.24794112137862137,
              "velocity": 39
            },
            {
              "pitch": 53,
              "time": 24.49998413045288,
              "duration": 0.24794112137862137,
              "velocity": 39
            },
            {
              "pitch": 53,
              "time": 26.999995577339327,
              "duration": 0.24794086122211123,
              "velocity": 39
            },
            {
              "pitch": 53,
              "time": 28.500002341408592,
              "duration": 0.24788882992007993,
              "velocity": 39
            },
            {
              "pitch": 53,
              "time": 31.000013528138528,
              "duration": 0.24788909007659007,
              "velocity": 39
            },
            {
              "pitch": 53,
              "time": 32.50002029220779,
              "duration": 0.24788909007659007,
              "velocity": 39
            },
            {
              "pitch": 53,
              "time": 34.99997970779221,
              "duration": 0.24794086122211123,
              "velocity": 39
            },
            {
              "pitch": 53,
              "time": 36.49998647186147,
              "duration": 0.24794086122211123,
              "velocity": 39
            },
            {
              "pitch": 53,
              "time": 38.99999765859141,
              "duration": 0.24794112137862137,
              "velocity": 39
            },
            {
              "pitch": 53,
              "time": 40.50000442266067,
              "duration": 0.24788909007659007,
              "velocity": 39
            },
            {
              "pitch": 53,
              "time": 43.00001586954712,
              "duration": 0.24788882992007993,
              "velocity": 39
            },
            {
              "pitch": 53,
              "time": 44.50002263361638,
              "duration": 0.24788882992007993,
              "velocity": 39
            },
            {
              "pitch": 53,
              "time": 46.99998178904429,
              "duration": 0.24794112137862137,
              "velocity": 39
            },
            {
              "pitch": 53,
              "time": 48.49998855311355,
              "duration": 0.24794112137862137,
              "velocity": 39
            },
            {
              "pitch": 53,
              "time": 51,
              "duration": 0.24794112137862137,
              "velocity": 39
            },
            {
              "pitch": 53,
              "time": 52.50000676406926,
              "duration": 0.24788882992007993,
              "velocity": 39
            },
            {
              "pitch": 53,
              "time": 55.00001821095571,
              "duration": 0.24788882992007993,
              "velocity": 39
            },
            {
              "pitch": 53,
              "time": 56.50002497502498,
              "duration": 0.24788882992007993,
              "velocity": 39
            },
            {
              "pitch": 53,
              "time": 58.99998413045288,
              "duration": 0.24794112137862137,
              "velocity": 39
            },
            {
              "pitch": 53,
              "time": 60.49999089452214,
              "duration": 0.24794112137862137,
              "velocity": 39
            },
            {
              "pitch": 53,
              "time": 63.00000234140859,
              "duration": 0.24788882992007993,
              "velocity": 39
            },
            {
              "pitch": 53,
              "time": 64.50000910547786,
              "duration": 0.24788882992007993,
              "velocity": 39
            },
            {
              "pitch": 53,
              "time": 67.0000202922078,
              "duration": 0.24788909007659007,
              "velocity": 39
            },
            {
              "pitch": 53,
              "time": 68.49997502497503,
              "duration": 0.24794112137862137,
              "velocity": 39
            },
            {
              "pitch": 53,
              "time": 70.99998647186148,
              "duration": 0.24794086122211123,
              "velocity": 39
            },
            {
              "pitch": 53,
              "time": 72.49999323593073,
              "duration": 0.24794112137862137,
              "velocity": 39
            },
            {
              "pitch": 53,
              "time": 75.00000442266067,
              "duration": 0.24788909007659007,
              "velocity": 39
            },
            {
              "pitch": 53,
              "time": 76.50001144688645,
              "duration": 0.24788882992007993,
              "velocity": 39
            },
            {
              "pitch": 53,
              "time": 79.00002263361638,
              "duration": 0.24788882992007993,
              "velocity": 39
            },
            {
              "pitch": 53,
              "time": 80.49997736638362,
              "duration": 0.24794112137862137,
              "velocity": 39
            },
            {
              "pitch": 53,
              "time": 82.99998855311355,
              "duration": 0.24794112137862137,
              "velocity": 39
            },
            {
              "pitch": 53,
              "time": 84.49999557733933,
              "duration": 0.24794086122211123,
              "velocity": 39
            },
            {
              "pitch": 53,
              "time": 87.00000676406927,
              "duration": 0.24788882992007993,
              "velocity": 39
            },
            {
              "pitch": 53,
              "time": 88.50001352813852,
              "duration": 0.24788909007659007,
              "velocity": 39
            },
            {
              "pitch": 53,
              "time": 91.00002497502497,
              "duration": 0.24788882992007993,
              "velocity": 39
            },
            {
              "pitch": 53,
              "time": 92.4999797077922,
              "duration": 0.24794086122211123,
              "velocity": 39
            },
            {
              "pitch": 53,
              "time": 94.99999089452214,
              "duration": 0.24794112137862137,
              "velocity": 39
            },
            {
              "pitch": 53,
              "time": 96.49999765859141,
              "duration": 0.24794112137862137,
              "velocity": 39
            },
            {
              "pitch": 53,
              "time": 99.00000910547786,
              "duration": 0.24788882992007993,
              "velocity": 39
            },
            {
              "pitch": 53,
              "time": 100.50001586954711,
              "duration": 0.24788882992007993,
              "velocity": 39
            },
            {
              "pitch": 53,
              "time": 102.99997502497503,
              "duration": 0.24794112137862137,
              "velocity": 39
            },
            {
              "pitch": 53,
              "time": 104.49998178904428,
              "duration": 0.24794112137862137,
              "velocity": 39
            },
            {
              "pitch": 53,
              "time": 106.99999323593073,
              "duration": 0.24794112137862137,
              "velocity": 39
            },
            {
              "pitch": 53,
              "time": 108.5,
              "duration": 0.24794112137862137,
              "velocity": 39
            },
            {
              "pitch": 53,
              "time": 111.00001144688645,
              "duration": 0.24788882992007993,
              "velocity": 39
            },
            {
              "pitch": 53,
              "time": 112.50001821095572,
              "duration": 0.24788882992007993,
              "velocity": 39
            },
            {
              "pitch": 53,
              "time": 114.99997736638362,
              "duration": 0.24794112137862137,
              "velocity": 39
            },
            {
              "pitch": 53,
              "time": 116.49998413045289,
              "duration": 0.24794112137862137,
              "velocity": 39
            },
            {
              "pitch": 53,
              "time": 118.99999557733933,
              "duration": 0.24794086122211123,
              "velocity": 39
            },
            {
              "pitch": 53,
              "time": 120.50000234140859,
              "duration": 0.24788882992007993,
              "velocity": 39
            },
            {
              "pitch": 53,
              "time": 123.00001352813852,
              "duration": 0.24788909007659007,
              "velocity": 39
            },
            {
              "pitch": 53,
              "time": 124.5000202922078,
              "duration": 0.24788909007659007,
              "velocity": 39
            },
            {
              "pitch": 53,
              "time": 126.9999797077922,
              "duration": 0.24794086122211123,
              "velocity": 39
            },
            {
              "pitch": 56,
              "time": 0.999981789044289,
              "duration": 0.24794112137862137,
              "velocity": 64
            },
            {
              "pitch": 56,
              "time": 2.4999885531135533,
              "duration": 0.24794112137862137,
              "velocity": 64
            },
            {
              "pitch": 56,
              "time": 5,
              "duration": 0.24794112137862137,
              "velocity": 64
            },
            {
              "pitch": 56,
              "time": 6.500006764069264,
              "duration": 0.24788882992007993,
              "velocity": 64
            },
            {
              "pitch": 56,
              "time": 9.00001821095571,
              "duration": 0.24788882992007993,
              "velocity": 64
            },
            {
              "pitch": 56,
              "time": 10.500024975024974,
              "duration": 0.24788882992007993,
              "velocity": 64
            },
            {
              "pitch": 56,
              "time": 12.99998413045288,
              "duration": 0.24794112137862137,
              "velocity": 64
            },
            {
              "pitch": 56,
              "time": 14.499990894522144,
              "duration": 0.24794112137862137,
              "velocity": 64
            },
            {
              "pitch": 56,
              "time": 17.000002341408592,
              "duration": 0.24788882992007993,
              "velocity": 64
            },
            {
              "pitch": 56,
              "time": 18.500009105477854,
              "duration": 0.24788882992007993,
              "velocity": 64
            },
            {
              "pitch": 56,
              "time": 21.000020292207793,
              "duration": 0.24788909007659007,
              "velocity": 64
            },
            {
              "pitch": 56,
              "time": 22.499975024975026,
              "duration": 0.24794112137862137,
              "velocity": 64
            },
            {
              "pitch": 56,
              "time": 24.999986471861472,
              "duration": 0.24794086122211123,
              "velocity": 64
            },
            {
              "pitch": 56,
              "time": 26.499993235930734,
              "duration": 0.24794112137862137,
              "velocity": 64
            },
            {
              "pitch": 56,
              "time": 29.000004422660673,
              "duration": 0.24788909007659007,
              "velocity": 64
            },
            {
              "pitch": 56,
              "time": 30.500011446886447,
              "duration": 0.24788882992007993,
              "velocity": 64
            },
            {
              "pitch": 56,
              "time": 33.00002263361638,
              "duration": 0.24788882992007993,
              "velocity": 64
            },
            {
              "pitch": 56,
              "time": 34.49997736638362,
              "duration": 0.24794112137862137,
              "velocity": 64
            },
            {
              "pitch": 56,
              "time": 36.99998855311355,
              "duration": 0.24794112137862137,
              "velocity": 64
            },
            {
              "pitch": 56,
              "time": 38.49999557733933,
              "duration": 0.24794086122211123,
              "velocity": 64
            },
            {
              "pitch": 56,
              "time": 41.00000676406926,
              "duration": 0.24788882992007993,
              "velocity": 64
            },
            {
              "pitch": 56,
              "time": 42.50001352813853,
              "duration": 0.24788909007659007,
              "velocity": 64
            },
            {
              "pitch": 56,
              "time": 45.00002497502498,
              "duration": 0.24788882992007993,
              "velocity": 64
            },
            {
              "pitch": 56,
              "time": 46.49997970779221,
              "duration": 0.24794086122211123,
              "velocity": 64
            },
            {
              "pitch": 56,
              "time": 48.99999089452214,
              "duration": 0.24794112137862137,
              "velocity": 64
            },
            {
              "pitch": 56,
              "time": 50.49999765859141,
              "duration": 0.24794112137862137,
              "velocity": 64
            },
            {
              "pitch": 56,
              "time": 53.00000910547786,
              "duration": 0.24788882992007993,
              "velocity": 64
            },
            {
              "pitch": 56,
              "time": 54.50001586954712,
              "duration": 0.24788882992007993,
              "velocity": 64
            },
            {
              "pitch": 56,
              "time": 56.99997502497502,
              "duration": 0.24794112137862137,
              "velocity": 64
            },
            {
              "pitch": 56,
              "time": 58.49998178904429,
              "duration": 0.24794112137862137,
              "velocity": 64
            },
            {
              "pitch": 56,
              "time": 60.99999323593074,
              "duration": 0.24794112137862137,
              "velocity": 64
            },
            {
              "pitch": 56,
              "time": 62.5,
              "duration": 0.24794112137862137,
              "velocity": 64
            },
            {
              "pitch": 56,
              "time": 65.00001144688645,
              "duration": 0.24788882992007993,
              "velocity": 64
            },
            {
              "pitch": 56,
              "time": 66.50001821095572,
              "duration": 0.24788882992007993,
              "velocity": 64
            },
            {
              "pitch": 56,
              "time": 68.99997736638362,
              "duration": 0.24794112137862137,
              "velocity": 64
            },
            {
              "pitch": 56,
              "time": 70.49998413045289,
              "duration": 0.24794112137862137,
              "velocity": 64
            },
            {
              "pitch": 56,
              "time": 72.99999557733933,
              "duration": 0.24794086122211123,
              "velocity": 64
            },
            {
              "pitch": 56,
              "time": 74.50000234140859,
              "duration": 0.24788882992007993,
              "velocity": 64
            },
            {
              "pitch": 56,
              "time": 77.00001352813852,
              "duration": 0.24788909007659007,
              "velocity": 64
            },
            {
              "pitch": 56,
              "time": 78.5000202922078,
              "duration": 0.24788909007659007,
              "velocity": 64
            },
            {
              "pitch": 56,
              "time": 80.9999797077922,
              "duration": 0.24794086122211123,
              "velocity": 64
            },
            {
              "pitch": 56,
              "time": 82.49998647186148,
              "duration": 0.24794086122211123,
              "velocity": 64
            },
            {
              "pitch": 56,
              "time": 84.99999765859141,
              "duration": 0.24794112137862137,
              "velocity": 64
            },
            {
              "pitch": 56,
              "time": 86.50000442266067,
              "duration": 0.24788909007659007,
              "velocity": 64
            },
            {
              "pitch": 56,
              "time": 89.00001586954711,
              "duration": 0.24788882992007993,
              "velocity": 64
            },
            {
              "pitch": 56,
              "time": 90.50002263361638,
              "duration": 0.24788882992007993,
              "velocity": 64
            },
            {
              "pitch": 56,
              "time": 92.99998178904428,
              "duration": 0.24794112137862137,
              "velocity": 64
            },
            {
              "pitch": 56,
              "time": 94.49998855311355,
              "duration": 0.24794112137862137,
              "velocity": 64
            },
            {
              "pitch": 56,
              "time": 97,
              "duration": 0.24794112137862137,
              "velocity": 64
            },
            {
              "pitch": 56,
              "time": 98.50000676406927,
              "duration": 0.24788882992007993,
              "velocity": 64
            },
            {
              "pitch": 56,
              "time": 101.00001821095572,
              "duration": 0.24788882992007993,
              "velocity": 64
            },
            {
              "pitch": 56,
              "time": 102.50002497502497,
              "duration": 0.24788882992007993,
              "velocity": 64
            },
            {
              "pitch": 56,
              "time": 104.99998413045289,
              "duration": 0.24794112137862137,
              "velocity": 64
            },
            {
              "pitch": 56,
              "time": 106.49999089452214,
              "duration": 0.24794112137862137,
              "velocity": 64
            },
            {
              "pitch": 56,
              "time": 109.00000234140859,
              "duration": 0.24788882992007993,
              "velocity": 64
            },
            {
              "pitch": 56,
              "time": 110.50000910547786,
              "duration": 0.24788882992007993,
              "velocity": 64
            },
            {
              "pitch": 56,
              "time": 113.0000202922078,
              "duration": 0.24788909007659007,
              "velocity": 64
            },
            {
              "pitch": 56,
              "time": 114.49997502497503,
              "duration": 0.24794112137862137,
              "velocity": 64
            },
            {
              "pitch": 56,
              "time": 116.99998647186148,
              "duration": 0.24794086122211123,
              "velocity": 64
            },
            {
              "pitch": 56,
              "time": 118.49999323593073,
              "duration": 0.24794112137862137,
              "velocity": 64
            },
            {
              "pitch": 56,
              "time": 121.00000442266067,
              "duration": 0.24788909007659007,
              "velocity": 64
            },
            {
              "pitch": 56,
              "time": 122.50001144688645,
              "duration": 0.24788882992007993,
              "velocity": 64
            },
            {
              "pitch": 56,
              "time": 125.00002263361638,
              "duration": 0.24788882992007993,
              "velocity": 64
            },
            {
              "pitch": 56,
              "time": 126.49997736638362,
              "duration": 0.24794112137862137,
              "velocity": 64
            },
            {
              "pitch": 81,
              "time": 1.4999841304528805,
              "duration": 0.24794112137862137,
              "velocity": 3
            }
          ],
          "gainInfo": 1,
          "contentSummary": "midi clip, 0.2 bars, 254 notes",
          "clipColor": 10,
          "name": "ARP 2600 V3 3"
        },
        {
          "id": "track_midi_33_10_clip_5",
          "trackId": "track_midi_33_10",
          "clipType": "midi",
          "start": 320,
          "end": 447.218648538961,
          "loop": false,
          "sourceRef": null,
          "midiNoteCount": 254,
          "midiNotes": [
            {
              "pitch": 41,
              "time": 2.9999908945221447,
              "duration": 0.24794112137862137,
              "velocity": 39
            },
            {
              "pitch": 41,
              "time": 4.4999976585914085,
              "duration": 0.24794112137862137,
              "velocity": 39
            },
            {
              "pitch": 41,
              "time": 7.000009105477855,
              "duration": 0.24788882992007993,
              "velocity": 39
            },
            {
              "pitch": 41,
              "time": 8.50001586954712,
              "duration": 0.24788882992007993,
              "velocity": 39
            },
            {
              "pitch": 41,
              "time": 10.999975024975026,
              "duration": 0.24794112137862137,
              "velocity": 39
            },
            {
              "pitch": 41,
              "time": 12.49998178904429,
              "duration": 0.24794112137862137,
              "velocity": 39
            },
            {
              "pitch": 41,
              "time": 14.999993235930736,
              "duration": 0.24794112137862137,
              "velocity": 39
            },
            {
              "pitch": 41,
              "time": 16.5,
              "duration": 0.24794112137862137,
              "velocity": 39
            },
            {
              "pitch": 41,
              "time": 19.000011446886447,
              "duration": 0.24788882992007993,
              "velocity": 39
            },
            {
              "pitch": 41,
              "time": 20.500018210955712,
              "duration": 0.24788882992007993,
              "velocity": 39
            },
            {
              "pitch": 41,
              "time": 22.999977366383618,
              "duration": 0.24794112137862137,
              "velocity": 39
            },
            {
              "pitch": 41,
              "time": 24.49998413045288,
              "duration": 0.24794112137862137,
              "velocity": 39
            },
            {
              "pitch": 41,
              "time": 26.999995577339327,
              "duration": 0.24794086122211123,
              "velocity": 39
            },
            {
              "pitch": 41,
              "time": 28.500002341408592,
              "duration": 0.24788882992007993,
              "velocity": 39
            },
            {
              "pitch": 41,
              "time": 31.000013528138528,
              "duration": 0.24788909007659007,
              "velocity": 39
            },
            {
              "pitch": 41,
              "time": 32.50002029220779,
              "duration": 0.24788909007659007,
              "velocity": 39
            },
            {
              "pitch": 41,
              "time": 34.99997970779221,
              "duration": 0.24794086122211123,
              "velocity": 39
            },
            {
              "pitch": 41,
              "time": 36.49998647186147,
              "duration": 0.24794086122211123,
              "velocity": 39
            },
            {
              "pitch": 41,
              "time": 38.99999765859141,
              "duration": 0.24794112137862137,
              "velocity": 39
            },
            {
              "pitch": 41,
              "time": 40.50000442266067,
              "duration": 0.24788909007659007,
              "velocity": 39
            },
            {
              "pitch": 41,
              "time": 43.00001586954712,
              "duration": 0.24788882992007993,
              "velocity": 39
            },
            {
              "pitch": 41,
              "time": 44.50002263361638,
              "duration": 0.24788882992007993,
              "velocity": 39
            },
            {
              "pitch": 41,
              "time": 46.99998178904429,
              "duration": 0.24794112137862137,
              "velocity": 39
            },
            {
              "pitch": 41,
              "time": 48.49998855311355,
              "duration": 0.24794112137862137,
              "velocity": 39
            },
            {
              "pitch": 41,
              "time": 51,
              "duration": 0.24794112137862137,
              "velocity": 39
            },
            {
              "pitch": 41,
              "time": 52.50000676406926,
              "duration": 0.24788882992007993,
              "velocity": 39
            },
            {
              "pitch": 41,
              "time": 55.00001821095571,
              "duration": 0.24788882992007993,
              "velocity": 39
            },
            {
              "pitch": 41,
              "time": 56.50002497502498,
              "duration": 0.24788882992007993,
              "velocity": 39
            },
            {
              "pitch": 41,
              "time": 58.99998413045288,
              "duration": 0.24794112137862137,
              "velocity": 39
            },
            {
              "pitch": 41,
              "time": 60.49999089452214,
              "duration": 0.24794112137862137,
              "velocity": 39
            },
            {
              "pitch": 41,
              "time": 63.00000234140859,
              "duration": 0.24788882992007993,
              "velocity": 39
            },
            {
              "pitch": 41,
              "time": 64.50000910547786,
              "duration": 0.24788882992007993,
              "velocity": 39
            },
            {
              "pitch": 41,
              "time": 67.0000202922078,
              "duration": 0.24788909007659007,
              "velocity": 39
            },
            {
              "pitch": 41,
              "time": 68.49997502497503,
              "duration": 0.24794112137862137,
              "velocity": 39
            },
            {
              "pitch": 41,
              "time": 70.99998647186148,
              "duration": 0.24794086122211123,
              "velocity": 39
            },
            {
              "pitch": 41,
              "time": 72.49999323593073,
              "duration": 0.24794112137862137,
              "velocity": 39
            },
            {
              "pitch": 41,
              "time": 75.00000442266067,
              "duration": 0.24788909007659007,
              "velocity": 39
            },
            {
              "pitch": 41,
              "time": 76.50001144688645,
              "duration": 0.24788882992007993,
              "velocity": 39
            },
            {
              "pitch": 41,
              "time": 79.00002263361638,
              "duration": 0.24788882992007993,
              "velocity": 39
            },
            {
              "pitch": 41,
              "time": 80.49997736638362,
              "duration": 0.24794112137862137,
              "velocity": 39
            },
            {
              "pitch": 41,
              "time": 82.99998855311355,
              "duration": 0.24794112137862137,
              "velocity": 39
            },
            {
              "pitch": 41,
              "time": 84.49999557733933,
              "duration": 0.24794086122211123,
              "velocity": 39
            },
            {
              "pitch": 41,
              "time": 87.00000676406927,
              "duration": 0.24788882992007993,
              "velocity": 39
            },
            {
              "pitch": 41,
              "time": 88.50001352813852,
              "duration": 0.24788909007659007,
              "velocity": 39
            },
            {
              "pitch": 41,
              "time": 91.00002497502497,
              "duration": 0.24788882992007993,
              "velocity": 39
            },
            {
              "pitch": 41,
              "time": 92.4999797077922,
              "duration": 0.24794086122211123,
              "velocity": 39
            },
            {
              "pitch": 41,
              "time": 94.99999089452214,
              "duration": 0.24794112137862137,
              "velocity": 39
            },
            {
              "pitch": 41,
              "time": 96.49999765859141,
              "duration": 0.24794112137862137,
              "velocity": 39
            },
            {
              "pitch": 41,
              "time": 99.00000910547786,
              "duration": 0.24788882992007993,
              "velocity": 39
            },
            {
              "pitch": 41,
              "time": 100.50001586954711,
              "duration": 0.24788882992007993,
              "velocity": 39
            },
            {
              "pitch": 41,
              "time": 102.99997502497503,
              "duration": 0.24794112137862137,
              "velocity": 39
            },
            {
              "pitch": 41,
              "time": 104.49998178904428,
              "duration": 0.24794112137862137,
              "velocity": 39
            },
            {
              "pitch": 41,
              "time": 106.99999323593073,
              "duration": 0.24794112137862137,
              "velocity": 39
            },
            {
              "pitch": 41,
              "time": 108.5,
              "duration": 0.24794112137862137,
              "velocity": 39
            },
            {
              "pitch": 41,
              "time": 111.00001144688645,
              "duration": 0.24788882992007993,
              "velocity": 39
            },
            {
              "pitch": 41,
              "time": 112.50001821095572,
              "duration": 0.24788882992007993,
              "velocity": 39
            },
            {
              "pitch": 41,
              "time": 114.99997736638362,
              "duration": 0.24794112137862137,
              "velocity": 39
            },
            {
              "pitch": 41,
              "time": 116.49998413045289,
              "duration": 0.24794112137862137,
              "velocity": 39
            },
            {
              "pitch": 41,
              "time": 118.99999557733933,
              "duration": 0.24794086122211123,
              "velocity": 39
            },
            {
              "pitch": 41,
              "time": 120.50000234140859,
              "duration": 0.24788882992007993,
              "velocity": 39
            },
            {
              "pitch": 41,
              "time": 123.00001352813852,
              "duration": 0.24788909007659007,
              "velocity": 39
            },
            {
              "pitch": 41,
              "time": 124.5000202922078,
              "duration": 0.24788909007659007,
              "velocity": 39
            },
            {
              "pitch": 41,
              "time": 126.9999797077922,
              "duration": 0.24794086122211123,
              "velocity": 39
            },
            {
              "pitch": 44,
              "time": 0.999981789044289,
              "duration": 0.24794112137862137,
              "velocity": 64
            },
            {
              "pitch": 44,
              "time": 2.4999885531135533,
              "duration": 0.24794112137862137,
              "velocity": 64
            },
            {
              "pitch": 44,
              "time": 5,
              "duration": 0.24794112137862137,
              "velocity": 64
            },
            {
              "pitch": 44,
              "time": 6.500006764069264,
              "duration": 0.24788882992007993,
              "velocity": 64
            },
            {
              "pitch": 44,
              "time": 9.00001821095571,
              "duration": 0.24788882992007993,
              "velocity": 64
            },
            {
              "pitch": 44,
              "time": 10.500024975024974,
              "duration": 0.24788882992007993,
              "velocity": 64
            },
            {
              "pitch": 44,
              "time": 12.99998413045288,
              "duration": 0.24794112137862137,
              "velocity": 64
            },
            {
              "pitch": 44,
              "time": 14.499990894522144,
              "duration": 0.24794112137862137,
              "velocity": 64
            },
            {
              "pitch": 44,
              "time": 17.000002341408592,
              "duration": 0.24788882992007993,
              "velocity": 64
            },
            {
              "pitch": 44,
              "time": 18.500009105477854,
              "duration": 0.24788882992007993,
              "velocity": 64
            },
            {
              "pitch": 44,
              "time": 21.000020292207793,
              "duration": 0.24788909007659007,
              "velocity": 64
            },
            {
              "pitch": 44,
              "time": 22.499975024975026,
              "duration": 0.24794112137862137,
              "velocity": 64
            },
            {
              "pitch": 44,
              "time": 24.999986471861472,
              "duration": 0.24794086122211123,
              "velocity": 64
            },
            {
              "pitch": 44,
              "time": 26.499993235930734,
              "duration": 0.24794112137862137,
              "velocity": 64
            },
            {
              "pitch": 44,
              "time": 29.000004422660673,
              "duration": 0.24788909007659007,
              "velocity": 64
            },
            {
              "pitch": 44,
              "time": 30.500011446886447,
              "duration": 0.24788882992007993,
              "velocity": 64
            },
            {
              "pitch": 44,
              "time": 33.00002263361638,
              "duration": 0.24788882992007993,
              "velocity": 64
            },
            {
              "pitch": 44,
              "time": 34.49997736638362,
              "duration": 0.24794112137862137,
              "velocity": 64
            },
            {
              "pitch": 44,
              "time": 36.99998855311355,
              "duration": 0.24794112137862137,
              "velocity": 64
            },
            {
              "pitch": 44,
              "time": 38.49999557733933,
              "duration": 0.24794086122211123,
              "velocity": 64
            },
            {
              "pitch": 44,
              "time": 41.00000676406926,
              "duration": 0.24788882992007993,
              "velocity": 64
            },
            {
              "pitch": 44,
              "time": 42.50001352813853,
              "duration": 0.24788909007659007,
              "velocity": 64
            },
            {
              "pitch": 44,
              "time": 45.00002497502498,
              "duration": 0.24788882992007993,
              "velocity": 64
            },
            {
              "pitch": 44,
              "time": 46.49997970779221,
              "duration": 0.24794086122211123,
              "velocity": 64
            },
            {
              "pitch": 44,
              "time": 48.99999089452214,
              "duration": 0.24794112137862137,
              "velocity": 64
            },
            {
              "pitch": 44,
              "time": 50.49999765859141,
              "duration": 0.24794112137862137,
              "velocity": 64
            },
            {
              "pitch": 44,
              "time": 53.00000910547786,
              "duration": 0.24788882992007993,
              "velocity": 64
            },
            {
              "pitch": 44,
              "time": 54.50001586954712,
              "duration": 0.24788882992007993,
              "velocity": 64
            },
            {
              "pitch": 44,
              "time": 56.99997502497502,
              "duration": 0.24794112137862137,
              "velocity": 64
            },
            {
              "pitch": 44,
              "time": 58.49998178904429,
              "duration": 0.24794112137862137,
              "velocity": 64
            },
            {
              "pitch": 44,
              "time": 60.99999323593074,
              "duration": 0.24794112137862137,
              "velocity": 64
            },
            {
              "pitch": 44,
              "time": 62.5,
              "duration": 0.24794112137862137,
              "velocity": 64
            },
            {
              "pitch": 44,
              "time": 65.00001144688645,
              "duration": 0.24788882992007993,
              "velocity": 64
            },
            {
              "pitch": 44,
              "time": 66.50001821095572,
              "duration": 0.24788882992007993,
              "velocity": 64
            },
            {
              "pitch": 44,
              "time": 68.99997736638362,
              "duration": 0.24794112137862137,
              "velocity": 64
            },
            {
              "pitch": 44,
              "time": 70.49998413045289,
              "duration": 0.24794112137862137,
              "velocity": 64
            },
            {
              "pitch": 44,
              "time": 72.99999557733933,
              "duration": 0.24794086122211123,
              "velocity": 64
            },
            {
              "pitch": 44,
              "time": 74.50000234140859,
              "duration": 0.24788882992007993,
              "velocity": 64
            },
            {
              "pitch": 44,
              "time": 77.00001352813852,
              "duration": 0.24788909007659007,
              "velocity": 64
            },
            {
              "pitch": 44,
              "time": 78.5000202922078,
              "duration": 0.24788909007659007,
              "velocity": 64
            },
            {
              "pitch": 44,
              "time": 80.9999797077922,
              "duration": 0.24794086122211123,
              "velocity": 64
            },
            {
              "pitch": 44,
              "time": 82.49998647186148,
              "duration": 0.24794086122211123,
              "velocity": 64
            },
            {
              "pitch": 44,
              "time": 84.99999765859141,
              "duration": 0.24794112137862137,
              "velocity": 64
            },
            {
              "pitch": 44,
              "time": 86.50000442266067,
              "duration": 0.24788909007659007,
              "velocity": 64
            },
            {
              "pitch": 44,
              "time": 89.00001586954711,
              "duration": 0.24788882992007993,
              "velocity": 64
            },
            {
              "pitch": 44,
              "time": 90.50002263361638,
              "duration": 0.24788882992007993,
              "velocity": 64
            },
            {
              "pitch": 44,
              "time": 92.99998178904428,
              "duration": 0.24794112137862137,
              "velocity": 64
            },
            {
              "pitch": 44,
              "time": 94.49998855311355,
              "duration": 0.24794112137862137,
              "velocity": 64
            },
            {
              "pitch": 44,
              "time": 97,
              "duration": 0.24794112137862137,
              "velocity": 64
            },
            {
              "pitch": 44,
              "time": 98.50000676406927,
              "duration": 0.24788882992007993,
              "velocity": 64
            },
            {
              "pitch": 44,
              "time": 101.00001821095572,
              "duration": 0.24788882992007993,
              "velocity": 64
            },
            {
              "pitch": 44,
              "time": 102.50002497502497,
              "duration": 0.24788882992007993,
              "velocity": 64
            },
            {
              "pitch": 44,
              "time": 104.99998413045289,
              "duration": 0.24794112137862137,
              "velocity": 64
            },
            {
              "pitch": 44,
              "time": 106.49999089452214,
              "duration": 0.24794112137862137,
              "velocity": 64
            },
            {
              "pitch": 44,
              "time": 109.00000234140859,
              "duration": 0.24788882992007993,
              "velocity": 64
            },
            {
              "pitch": 44,
              "time": 110.50000910547786,
              "duration": 0.24788882992007993,
              "velocity": 64
            },
            {
              "pitch": 44,
              "time": 113.0000202922078,
              "duration": 0.24788909007659007,
              "velocity": 64
            },
            {
              "pitch": 44,
              "time": 114.49997502497503,
              "duration": 0.24794112137862137,
              "velocity": 64
            },
            {
              "pitch": 44,
              "time": 116.99998647186148,
              "duration": 0.24794086122211123,
              "velocity": 64
            },
            {
              "pitch": 44,
              "time": 118.49999323593073,
              "duration": 0.24794112137862137,
              "velocity": 64
            },
            {
              "pitch": 44,
              "time": 121.00000442266067,
              "duration": 0.24788909007659007,
              "velocity": 64
            },
            {
              "pitch": 44,
              "time": 122.50001144688645,
              "duration": 0.24788882992007993,
              "velocity": 64
            },
            {
              "pitch": 44,
              "time": 125.00002263361638,
              "duration": 0.24788882992007993,
              "velocity": 64
            },
            {
              "pitch": 44,
              "time": 126.49997736638362,
              "duration": 0.24794112137862137,
              "velocity": 64
            },
            {
              "pitch": 69,
              "time": 1.4999841304528805,
              "duration": 0.24794112137862137,
              "velocity": 3
            }
          ],
          "gainInfo": 1,
          "contentSummary": "midi clip, 31.8 bars, 254 notes",
          "clipColor": 10,
          "name": "ARP 2600 V3 3"
        },
        {
          "id": "track_midi_33_10_clip_6",
          "trackId": "track_midi_33_10",
          "clipType": "midi",
          "start": 447.218648538961,
          "end": 448,
          "loop": false,
          "sourceRef": null,
          "midiNoteCount": 254,
          "midiNotes": [
            {
              "pitch": 53,
              "time": 2.9999908945221447,
              "duration": 0.24794112137862137,
              "velocity": 39
            },
            {
              "pitch": 53,
              "time": 4.4999976585914085,
              "duration": 0.24794112137862137,
              "velocity": 39
            },
            {
              "pitch": 53,
              "time": 7.000009105477855,
              "duration": 0.24788882992007993,
              "velocity": 39
            },
            {
              "pitch": 53,
              "time": 8.50001586954712,
              "duration": 0.24788882992007993,
              "velocity": 39
            },
            {
              "pitch": 53,
              "time": 10.999975024975026,
              "duration": 0.24794112137862137,
              "velocity": 39
            },
            {
              "pitch": 53,
              "time": 12.49998178904429,
              "duration": 0.24794112137862137,
              "velocity": 39
            },
            {
              "pitch": 53,
              "time": 14.999993235930736,
              "duration": 0.24794112137862137,
              "velocity": 39
            },
            {
              "pitch": 53,
              "time": 16.5,
              "duration": 0.24794112137862137,
              "velocity": 39
            },
            {
              "pitch": 53,
              "time": 19.000011446886447,
              "duration": 0.24788882992007993,
              "velocity": 39
            },
            {
              "pitch": 53,
              "time": 20.500018210955712,
              "duration": 0.24788882992007993,
              "velocity": 39
            },
            {
              "pitch": 53,
              "time": 22.999977366383618,
              "duration": 0.24794112137862137,
              "velocity": 39
            },
            {
              "pitch": 53,
              "time": 24.49998413045288,
              "duration": 0.24794112137862137,
              "velocity": 39
            },
            {
              "pitch": 53,
              "time": 26.999995577339327,
              "duration": 0.24794086122211123,
              "velocity": 39
            },
            {
              "pitch": 53,
              "time": 28.500002341408592,
              "duration": 0.24788882992007993,
              "velocity": 39
            },
            {
              "pitch": 53,
              "time": 31.000013528138528,
              "duration": 0.24788909007659007,
              "velocity": 39
            },
            {
              "pitch": 53,
              "time": 32.50002029220779,
              "duration": 0.24788909007659007,
              "velocity": 39
            },
            {
              "pitch": 53,
              "time": 34.99997970779221,
              "duration": 0.24794086122211123,
              "velocity": 39
            },
            {
              "pitch": 53,
              "time": 36.49998647186147,
              "duration": 0.24794086122211123,
              "velocity": 39
            },
            {
              "pitch": 53,
              "time": 38.99999765859141,
              "duration": 0.24794112137862137,
              "velocity": 39
            },
            {
              "pitch": 53,
              "time": 40.50000442266067,
              "duration": 0.24788909007659007,
              "velocity": 39
            },
            {
              "pitch": 53,
              "time": 43.00001586954712,
              "duration": 0.24788882992007993,
              "velocity": 39
            },
            {
              "pitch": 53,
              "time": 44.50002263361638,
              "duration": 0.24788882992007993,
              "velocity": 39
            },
            {
              "pitch": 53,
              "time": 46.99998178904429,
              "duration": 0.24794112137862137,
              "velocity": 39
            },
            {
              "pitch": 53,
              "time": 48.49998855311355,
              "duration": 0.24794112137862137,
              "velocity": 39
            },
            {
              "pitch": 53,
              "time": 51,
              "duration": 0.24794112137862137,
              "velocity": 39
            },
            {
              "pitch": 53,
              "time": 52.50000676406926,
              "duration": 0.24788882992007993,
              "velocity": 39
            },
            {
              "pitch": 53,
              "time": 55.00001821095571,
              "duration": 0.24788882992007993,
              "velocity": 39
            },
            {
              "pitch": 53,
              "time": 56.50002497502498,
              "duration": 0.24788882992007993,
              "velocity": 39
            },
            {
              "pitch": 53,
              "time": 58.99998413045288,
              "duration": 0.24794112137862137,
              "velocity": 39
            },
            {
              "pitch": 53,
              "time": 60.49999089452214,
              "duration": 0.24794112137862137,
              "velocity": 39
            },
            {
              "pitch": 53,
              "time": 63.00000234140859,
              "duration": 0.24788882992007993,
              "velocity": 39
            },
            {
              "pitch": 53,
              "time": 64.50000910547786,
              "duration": 0.24788882992007993,
              "velocity": 39
            },
            {
              "pitch": 53,
              "time": 67.0000202922078,
              "duration": 0.24788909007659007,
              "velocity": 39
            },
            {
              "pitch": 53,
              "time": 68.49997502497503,
              "duration": 0.24794112137862137,
              "velocity": 39
            },
            {
              "pitch": 53,
              "time": 70.99998647186148,
              "duration": 0.24794086122211123,
              "velocity": 39
            },
            {
              "pitch": 53,
              "time": 72.49999323593073,
              "duration": 0.24794112137862137,
              "velocity": 39
            },
            {
              "pitch": 53,
              "time": 75.00000442266067,
              "duration": 0.24788909007659007,
              "velocity": 39
            },
            {
              "pitch": 53,
              "time": 76.50001144688645,
              "duration": 0.24788882992007993,
              "velocity": 39
            },
            {
              "pitch": 53,
              "time": 79.00002263361638,
              "duration": 0.24788882992007993,
              "velocity": 39
            },
            {
              "pitch": 53,
              "time": 80.49997736638362,
              "duration": 0.24794112137862137,
              "velocity": 39
            },
            {
              "pitch": 53,
              "time": 82.99998855311355,
              "duration": 0.24794112137862137,
              "velocity": 39
            },
            {
              "pitch": 53,
              "time": 84.49999557733933,
              "duration": 0.24794086122211123,
              "velocity": 39
            },
            {
              "pitch": 53,
              "time": 87.00000676406927,
              "duration": 0.24788882992007993,
              "velocity": 39
            },
            {
              "pitch": 53,
              "time": 88.50001352813852,
              "duration": 0.24788909007659007,
              "velocity": 39
            },
            {
              "pitch": 53,
              "time": 91.00002497502497,
              "duration": 0.24788882992007993,
              "velocity": 39
            },
            {
              "pitch": 53,
              "time": 92.4999797077922,
              "duration": 0.24794086122211123,
              "velocity": 39
            },
            {
              "pitch": 53,
              "time": 94.99999089452214,
              "duration": 0.24794112137862137,
              "velocity": 39
            },
            {
              "pitch": 53,
              "time": 96.49999765859141,
              "duration": 0.24794112137862137,
              "velocity": 39
            },
            {
              "pitch": 53,
              "time": 99.00000910547786,
              "duration": 0.24788882992007993,
              "velocity": 39
            },
            {
              "pitch": 53,
              "time": 100.50001586954711,
              "duration": 0.24788882992007993,
              "velocity": 39
            },
            {
              "pitch": 53,
              "time": 102.99997502497503,
              "duration": 0.24794112137862137,
              "velocity": 39
            },
            {
              "pitch": 53,
              "time": 104.49998178904428,
              "duration": 0.24794112137862137,
              "velocity": 39
            },
            {
              "pitch": 53,
              "time": 106.99999323593073,
              "duration": 0.24794112137862137,
              "velocity": 39
            },
            {
              "pitch": 53,
              "time": 108.5,
              "duration": 0.24794112137862137,
              "velocity": 39
            },
            {
              "pitch": 53,
              "time": 111.00001144688645,
              "duration": 0.24788882992007993,
              "velocity": 39
            },
            {
              "pitch": 53,
              "time": 112.50001821095572,
              "duration": 0.24788882992007993,
              "velocity": 39
            },
            {
              "pitch": 53,
              "time": 114.99997736638362,
              "duration": 0.24794112137862137,
              "velocity": 39
            },
            {
              "pitch": 53,
              "time": 116.49998413045289,
              "duration": 0.24794112137862137,
              "velocity": 39
            },
            {
              "pitch": 53,
              "time": 118.99999557733933,
              "duration": 0.24794086122211123,
              "velocity": 39
            },
            {
              "pitch": 53,
              "time": 120.50000234140859,
              "duration": 0.24788882992007993,
              "velocity": 39
            },
            {
              "pitch": 53,
              "time": 123.00001352813852,
              "duration": 0.24788909007659007,
              "velocity": 39
            },
            {
              "pitch": 53,
              "time": 124.5000202922078,
              "duration": 0.24788909007659007,
              "velocity": 39
            },
            {
              "pitch": 53,
              "time": 126.9999797077922,
              "duration": 0.24794086122211123,
              "velocity": 39
            },
            {
              "pitch": 56,
              "time": 0.999981789044289,
              "duration": 0.24794112137862137,
              "velocity": 64
            },
            {
              "pitch": 56,
              "time": 2.4999885531135533,
              "duration": 0.24794112137862137,
              "velocity": 64
            },
            {
              "pitch": 56,
              "time": 5,
              "duration": 0.24794112137862137,
              "velocity": 64
            },
            {
              "pitch": 56,
              "time": 6.500006764069264,
              "duration": 0.24788882992007993,
              "velocity": 64
            },
            {
              "pitch": 56,
              "time": 9.00001821095571,
              "duration": 0.24788882992007993,
              "velocity": 64
            },
            {
              "pitch": 56,
              "time": 10.500024975024974,
              "duration": 0.24788882992007993,
              "velocity": 64
            },
            {
              "pitch": 56,
              "time": 12.99998413045288,
              "duration": 0.24794112137862137,
              "velocity": 64
            },
            {
              "pitch": 56,
              "time": 14.499990894522144,
              "duration": 0.24794112137862137,
              "velocity": 64
            },
            {
              "pitch": 56,
              "time": 17.000002341408592,
              "duration": 0.24788882992007993,
              "velocity": 64
            },
            {
              "pitch": 56,
              "time": 18.500009105477854,
              "duration": 0.24788882992007993,
              "velocity": 64
            },
            {
              "pitch": 56,
              "time": 21.000020292207793,
              "duration": 0.24788909007659007,
              "velocity": 64
            },
            {
              "pitch": 56,
              "time": 22.499975024975026,
              "duration": 0.24794112137862137,
              "velocity": 64
            },
            {
              "pitch": 56,
              "time": 24.999986471861472,
              "duration": 0.24794086122211123,
              "velocity": 64
            },
            {
              "pitch": 56,
              "time": 26.499993235930734,
              "duration": 0.24794112137862137,
              "velocity": 64
            },
            {
              "pitch": 56,
              "time": 29.000004422660673,
              "duration": 0.24788909007659007,
              "velocity": 64
            },
            {
              "pitch": 56,
              "time": 30.500011446886447,
              "duration": 0.24788882992007993,
              "velocity": 64
            },
            {
              "pitch": 56,
              "time": 33.00002263361638,
              "duration": 0.24788882992007993,
              "velocity": 64
            },
            {
              "pitch": 56,
              "time": 34.49997736638362,
              "duration": 0.24794112137862137,
              "velocity": 64
            },
            {
              "pitch": 56,
              "time": 36.99998855311355,
              "duration": 0.24794112137862137,
              "velocity": 64
            },
            {
              "pitch": 56,
              "time": 38.49999557733933,
              "duration": 0.24794086122211123,
              "velocity": 64
            },
            {
              "pitch": 56,
              "time": 41.00000676406926,
              "duration": 0.24788882992007993,
              "velocity": 64
            },
            {
              "pitch": 56,
              "time": 42.50001352813853,
              "duration": 0.24788909007659007,
              "velocity": 64
            },
            {
              "pitch": 56,
              "time": 45.00002497502498,
              "duration": 0.24788882992007993,
              "velocity": 64
            },
            {
              "pitch": 56,
              "time": 46.49997970779221,
              "duration": 0.24794086122211123,
              "velocity": 64
            },
            {
              "pitch": 56,
              "time": 48.99999089452214,
              "duration": 0.24794112137862137,
              "velocity": 64
            },
            {
              "pitch": 56,
              "time": 50.49999765859141,
              "duration": 0.24794112137862137,
              "velocity": 64
            },
            {
              "pitch": 56,
              "time": 53.00000910547786,
              "duration": 0.24788882992007993,
              "velocity": 64
            },
            {
              "pitch": 56,
              "time": 54.50001586954712,
              "duration": 0.24788882992007993,
              "velocity": 64
            },
            {
              "pitch": 56,
              "time": 56.99997502497502,
              "duration": 0.24794112137862137,
              "velocity": 64
            },
            {
              "pitch": 56,
              "time": 58.49998178904429,
              "duration": 0.24794112137862137,
              "velocity": 64
            },
            {
              "pitch": 56,
              "time": 60.99999323593074,
              "duration": 0.24794112137862137,
              "velocity": 64
            },
            {
              "pitch": 56,
              "time": 62.5,
              "duration": 0.24794112137862137,
              "velocity": 64
            },
            {
              "pitch": 56,
              "time": 65.00001144688645,
              "duration": 0.24788882992007993,
              "velocity": 64
            },
            {
              "pitch": 56,
              "time": 66.50001821095572,
              "duration": 0.24788882992007993,
              "velocity": 64
            },
            {
              "pitch": 56,
              "time": 68.99997736638362,
              "duration": 0.24794112137862137,
              "velocity": 64
            },
            {
              "pitch": 56,
              "time": 70.49998413045289,
              "duration": 0.24794112137862137,
              "velocity": 64
            },
            {
              "pitch": 56,
              "time": 72.99999557733933,
              "duration": 0.24794086122211123,
              "velocity": 64
            },
            {
              "pitch": 56,
              "time": 74.50000234140859,
              "duration": 0.24788882992007993,
              "velocity": 64
            },
            {
              "pitch": 56,
              "time": 77.00001352813852,
              "duration": 0.24788909007659007,
              "velocity": 64
            },
            {
              "pitch": 56,
              "time": 78.5000202922078,
              "duration": 0.24788909007659007,
              "velocity": 64
            },
            {
              "pitch": 56,
              "time": 80.9999797077922,
              "duration": 0.24794086122211123,
              "velocity": 64
            },
            {
              "pitch": 56,
              "time": 82.49998647186148,
              "duration": 0.24794086122211123,
              "velocity": 64
            },
            {
              "pitch": 56,
              "time": 84.99999765859141,
              "duration": 0.24794112137862137,
              "velocity": 64
            },
            {
              "pitch": 56,
              "time": 86.50000442266067,
              "duration": 0.24788909007659007,
              "velocity": 64
            },
            {
              "pitch": 56,
              "time": 89.00001586954711,
              "duration": 0.24788882992007993,
              "velocity": 64
            },
            {
              "pitch": 56,
              "time": 90.50002263361638,
              "duration": 0.24788882992007993,
              "velocity": 64
            },
            {
              "pitch": 56,
              "time": 92.99998178904428,
              "duration": 0.24794112137862137,
              "velocity": 64
            },
            {
              "pitch": 56,
              "time": 94.49998855311355,
              "duration": 0.24794112137862137,
              "velocity": 64
            },
            {
              "pitch": 56,
              "time": 97,
              "duration": 0.24794112137862137,
              "velocity": 64
            },
            {
              "pitch": 56,
              "time": 98.50000676406927,
              "duration": 0.24788882992007993,
              "velocity": 64
            },
            {
              "pitch": 56,
              "time": 101.00001821095572,
              "duration": 0.24788882992007993,
              "velocity": 64
            },
            {
              "pitch": 56,
              "time": 102.50002497502497,
              "duration": 0.24788882992007993,
              "velocity": 64
            },
            {
              "pitch": 56,
              "time": 104.99998413045289,
              "duration": 0.24794112137862137,
              "velocity": 64
            },
            {
              "pitch": 56,
              "time": 106.49999089452214,
              "duration": 0.24794112137862137,
              "velocity": 64
            },
            {
              "pitch": 56,
              "time": 109.00000234140859,
              "duration": 0.24788882992007993,
              "velocity": 64
            },
            {
              "pitch": 56,
              "time": 110.50000910547786,
              "duration": 0.24788882992007993,
              "velocity": 64
            },
            {
              "pitch": 56,
              "time": 113.0000202922078,
              "duration": 0.24788909007659007,
              "velocity": 64
            },
            {
              "pitch": 56,
              "time": 114.49997502497503,
              "duration": 0.24794112137862137,
              "velocity": 64
            },
            {
              "pitch": 56,
              "time": 116.99998647186148,
              "duration": 0.24794086122211123,
              "velocity": 64
            },
            {
              "pitch": 56,
              "time": 118.49999323593073,
              "duration": 0.24794112137862137,
              "velocity": 64
            },
            {
              "pitch": 56,
              "time": 121.00000442266067,
              "duration": 0.24788909007659007,
              "velocity": 64
            },
            {
              "pitch": 56,
              "time": 122.50001144688645,
              "duration": 0.24788882992007993,
              "velocity": 64
            },
            {
              "pitch": 56,
              "time": 125.00002263361638,
              "duration": 0.24788882992007993,
              "velocity": 64
            },
            {
              "pitch": 56,
              "time": 126.49997736638362,
              "duration": 0.24794112137862137,
              "velocity": 64
            },
            {
              "pitch": 81,
              "time": 1.4999841304528805,
              "duration": 0.24794112137862137,
              "velocity": 3
            }
          ],
          "gainInfo": 1,
          "contentSummary": "midi clip, 0.2 bars, 254 notes",
          "clipColor": 10,
          "name": "ARP 2600 V3 3"
        },
        {
          "id": "track_midi_33_10_clip_7",
          "trackId": "track_midi_33_10",
          "clipType": "midi",
          "start": 448.781351461039,
          "end": 480,
          "loop": false,
          "sourceRef": null,
          "midiNoteCount": 231,
          "midiNotes": [
            {
              "pitch": 41,
              "time": 1.9866258741258742,
              "duration": 0.5019777097902098,
              "velocity": 39
            },
            {
              "pitch": 41,
              "time": 3.498792873792874,
              "duration": 0.7560827193639693,
              "velocity": 39
            },
            {
              "pitch": 41,
              "time": 6.019071813603063,
              "duration": 0.5019251581751581,
              "velocity": 39
            },
            {
              "pitch": 41,
              "time": 7.5312390734265735,
              "duration": 0.4998982788045288,
              "velocity": 39
            },
            {
              "pitch": 41,
              "time": 10.01622309981685,
              "duration": 0.5019777097902098,
              "velocity": 39
            },
            {
              "pitch": 41,
              "time": 11.528390099483849,
              "duration": 0.7560827193639693,
              "velocity": 39
            },
            {
              "pitch": 41,
              "time": 14.048669039294039,
              "duration": 0.5019251581751581,
              "velocity": 39
            },
            {
              "pitch": 41,
              "time": 15.560836299117549,
              "duration": 0.2498982788045288,
              "velocity": 39
            },
            {
              "pitch": 41,
              "time": 17.986625874125874,
              "duration": 0.5019777097902098,
              "velocity": 39
            },
            {
              "pitch": 41,
              "time": 19.498792873792873,
              "duration": 0.7560827193639693,
              "velocity": 39
            },
            {
              "pitch": 41,
              "time": 22.019071813603063,
              "duration": 0.5019251581751581,
              "velocity": 39
            },
            {
              "pitch": 41,
              "time": 23.531239073426573,
              "duration": 0.4998982788045288,
              "velocity": 39
            },
            {
              "pitch": 41,
              "time": 26.016223099816848,
              "duration": 0.5019777097902098,
              "velocity": 39
            },
            {
              "pitch": 41,
              "time": 27.52839009948385,
              "duration": 0.7560827193639693,
              "velocity": 39
            },
            {
              "pitch": 41,
              "time": 30.04866903929404,
              "duration": 0.5019251581751581,
              "velocity": 39
            },
            {
              "pitch": 41,
              "time": 31.56083629911755,
              "duration": 0.2498982788045288,
              "velocity": 39
            },
            {
              "pitch": 41,
              "time": 34.24603599525474,
              "duration": 0.2499508304195804,
              "velocity": 39
            },
            {
              "pitch": 41,
              "time": 35.75820325507826,
              "duration": 0.2499508304195804,
              "velocity": 39
            },
            {
              "pitch": 41,
              "time": 38.278481674575424,
              "duration": 0.24995109057609058,
              "velocity": 39
            },
            {
              "pitch": 41,
              "time": 39.79064893439894,
              "duration": 0.24989879911754911,
              "velocity": 39
            },
            {
              "pitch": 41,
              "time": 42.31092787420913,
              "duration": 0.2498982788045288,
              "velocity": 39
            },
            {
              "pitch": 41,
              "time": 43.82309487387612,
              "duration": 0.24989853896103897,
              "velocity": 39
            },
            {
              "pitch": 41,
              "time": 46.34332100191475,
              "duration": 0.24995135073260072,
              "velocity": 39
            },
            {
              "pitch": 41,
              "time": 47.85548826173826,
              "duration": 0.24995109057609058,
              "velocity": 39
            },
            {
              "pitch": 41,
              "time": 50.37576720154845,
              "duration": 0.24995109057609058,
              "velocity": 39
            },
            {
              "pitch": 41,
              "time": 51.88793420121545,
              "duration": 0.24989853896103897,
              "velocity": 39
            },
            {
              "pitch": 41,
              "time": 54.40821314102564,
              "duration": 0.24989853896103897,
              "velocity": 39
            },
            {
              "pitch": 41,
              "time": 55.92038040084915,
              "duration": 0.24989853896103897,
              "velocity": 39
            },
            {
              "pitch": 41,
              "time": 58.44060652888778,
              "duration": 0.24995109057609058,
              "velocity": 39
            },
            {
              "pitch": 41,
              "time": 59.95277378871129,
              "duration": 0.24995109057609058,
              "velocity": 39
            },
            {
              "pitch": 41,
              "time": 62.47305246836497,
              "duration": 0.24989853896103897,
              "velocity": 39
            },
            {
              "pitch": 41,
              "time": 63.985219728188476,
              "duration": 0.24989853896103897,
              "velocity": 39
            },
            {
              "pitch": 41,
              "time": 66.50549840784215,
              "duration": 0.24989853896103897,
              "velocity": 39
            },
            {
              "pitch": 41,
              "time": 68.01761311605061,
              "duration": 0.24995109057609058,
              "velocity": 39
            },
            {
              "pitch": 41,
              "time": 70.5378917957043,
              "duration": 0.24995109057609058,
              "velocity": 39
            },
            {
              "pitch": 41,
              "time": 72.05005905552781,
              "duration": 0.24995109057609058,
              "velocity": 39
            },
            {
              "pitch": 41,
              "time": 74.57033773518148,
              "duration": 0.24989853896103897,
              "velocity": 39
            },
            {
              "pitch": 41,
              "time": 76.08250525516151,
              "duration": 0.2498982788045288,
              "velocity": 39
            },
            {
              "pitch": 41,
              "time": 78.60278367465868,
              "duration": 0.24989853896103897,
              "velocity": 39
            },
            {
              "pitch": 41,
              "time": 80.11489838286714,
              "duration": 0.24995135073260072,
              "velocity": 39
            },
            {
              "pitch": 41,
              "time": 82.63517706252081,
              "duration": 0.24995109057609058,
              "velocity": 39
            },
            {
              "pitch": 41,
              "time": 84.14734458250084,
              "duration": 0.2499508304195804,
              "velocity": 39
            },
            {
              "pitch": 41,
              "time": 86.667623001998,
              "duration": 0.24989853896103897,
              "velocity": 39
            },
            {
              "pitch": 41,
              "time": 88.17979026182151,
              "duration": 0.24989879911754911,
              "velocity": 39
            },
            {
              "pitch": 41,
              "time": 90.7000692016317,
              "duration": 0.2498982788045288,
              "velocity": 39
            },
            {
              "pitch": 41,
              "time": 92.21218390984016,
              "duration": 0.2499508304195804,
              "velocity": 39
            },
            {
              "pitch": 41,
              "time": 94.73246232933732,
              "duration": 0.24995135073260072,
              "velocity": 39
            },
            {
              "pitch": 41,
              "time": 96.24462958916084,
              "duration": 0.24995109057609058,
              "velocity": 39
            },
            {
              "pitch": 41,
              "time": 98.76490852897103,
              "duration": 0.2498982788045288,
              "velocity": 39
            },
            {
              "pitch": 41,
              "time": 100.27707578879453,
              "duration": 0.2498982788045288,
              "velocity": 39
            },
            {
              "pitch": 41,
              "time": 102.79730191683316,
              "duration": 0.24995109057609058,
              "velocity": 39
            },
            {
              "pitch": 41,
              "time": 104.30946891650017,
              "duration": 0.24995135073260072,
              "velocity": 39
            },
            {
              "pitch": 41,
              "time": 106.82974785631036,
              "duration": 0.24995109057609058,
              "velocity": 39
            },
            {
              "pitch": 41,
              "time": 108.34191511613386,
              "duration": 0.24995109057609058,
              "velocity": 39
            },
            {
              "pitch": 41,
              "time": 110.86219379578755,
              "duration": 0.24989853896103897,
              "velocity": 39
            },
            {
              "pitch": 41,
              "time": 112.37436105561106,
              "duration": 0.24989853896103897,
              "velocity": 39
            },
            {
              "pitch": 41,
              "time": 114.89458718364969,
              "duration": 0.24995109057609058,
              "velocity": 39
            },
            {
              "pitch": 41,
              "time": 116.40675444347319,
              "duration": 0.24995109057609058,
              "velocity": 39
            },
            {
              "pitch": 41,
              "time": 118.92703338328339,
              "duration": 0.2499508304195804,
              "velocity": 39
            },
            {
              "pitch": 41,
              "time": 120.43920038295039,
              "duration": 0.24989853896103897,
              "velocity": 39
            },
            {
              "pitch": 41,
              "time": 122.95947906260406,
              "duration": 0.24989879911754911,
              "velocity": 39
            },
            {
              "pitch": 41,
              "time": 124.47164632242757,
              "duration": 0.24989853896103897,
              "velocity": 39
            },
            {
              "pitch": 41,
              "time": 126.99187271062272,
              "duration": 0.2499508304195804,
              "velocity": 39
            },
            {
              "pitch": 44,
              "time": -0.02959722569097569,
              "duration": 0.50197796994672,
              "velocity": 64
            },
            {
              "pitch": 44,
              "time": 1.482570034132534,
              "duration": 0.5019777097902098,
              "velocity": 64
            },
            {
              "pitch": 44,
              "time": 5.5150159736097235,
              "duration": 0.5019251581751581,
              "velocity": 64
            },
            {
              "pitch": 44,
              "time": 8,
              "duration": 0.50197796994672,
              "velocity": 64
            },
            {
              "pitch": 44,
              "time": 9.51216725982351,
              "duration": 0.5019777097902098,
              "velocity": 64
            },
            {
              "pitch": 44,
              "time": 13.544613199300699,
              "duration": 0.5019251581751581,
              "velocity": 64
            },
            {
              "pitch": 44,
              "time": 17.482570034132536,
              "duration": 0.5019777097902098,
              "velocity": 64
            },
            {
              "pitch": 44,
              "time": 21.515015973609724,
              "duration": 0.5019251581751581,
              "velocity": 64
            },
            {
              "pitch": 44,
              "time": 24,
              "duration": 0.50197796994672,
              "velocity": 64
            },
            {
              "pitch": 44,
              "time": 25.51216725982351,
              "duration": 0.5019777097902098,
              "velocity": 64
            },
            {
              "pitch": 44,
              "time": 29.5446131993007,
              "duration": 0.5019251581751581,
              "velocity": 64
            },
            {
              "pitch": 44,
              "time": 36.262258574758576,
              "duration": 0.24995135073260072,
              "velocity": 64
            },
            {
              "pitch": 44,
              "time": 37.774426094738594,
              "duration": 0.24995109057609058,
              "velocity": 64
            },
            {
              "pitch": 44,
              "time": 40.29470477439227,
              "duration": 0.24989853896103897,
              "velocity": 64
            },
            {
              "pitch": 44,
              "time": 41.806872034215786,
              "duration": 0.24989853896103897,
              "velocity": 64
            },
            {
              "pitch": 44,
              "time": 44.327150713869464,
              "duration": 0.24989853896103897,
              "velocity": 64
            },
            {
              "pitch": 44,
              "time": 45.83926542207792,
              "duration": 0.24995109057609058,
              "velocity": 64
            },
            {
              "pitch": 44,
              "time": 48.3595441017316,
              "duration": 0.24995109057609058,
              "velocity": 64
            },
            {
              "pitch": 44,
              "time": 49.871711361555114,
              "duration": 0.24995109057609058,
              "velocity": 64
            },
            {
              "pitch": 44,
              "time": 52.39199004120879,
              "duration": 0.24989853896103897,
              "velocity": 64
            },
            {
              "pitch": 44,
              "time": 53.9041573010323,
              "duration": 0.24989853896103897,
              "velocity": 64
            },
            {
              "pitch": 44,
              "time": 56.42438342907093,
              "duration": 0.24995109057609058,
              "velocity": 64
            },
            {
              "pitch": 44,
              "time": 57.93655068889444,
              "duration": 0.24995109057609058,
              "velocity": 64
            },
            {
              "pitch": 44,
              "time": 60.456829628704625,
              "duration": 0.24995109057609058,
              "velocity": 64
            },
            {
              "pitch": 44,
              "time": 61.96899662837163,
              "duration": 0.24995135073260072,
              "velocity": 64
            },
            {
              "pitch": 44,
              "time": 64.48927556818182,
              "duration": 0.24989853896103897,
              "velocity": 64
            },
            {
              "pitch": 44,
              "time": 66.00144282800532,
              "duration": 0.2498982788045288,
              "velocity": 64
            },
            {
              "pitch": 44,
              "time": 68.52166895604395,
              "duration": 0.24995109057609058,
              "velocity": 64
            },
            {
              "pitch": 44,
              "time": 70.03383595571096,
              "duration": 0.24995135073260072,
              "velocity": 64
            },
            {
              "pitch": 44,
              "time": 72.55411489552115,
              "duration": 0.2499508304195804,
              "velocity": 64
            },
            {
              "pitch": 44,
              "time": 74.06628215534465,
              "duration": 0.2498982788045288,
              "velocity": 64
            },
            {
              "pitch": 44,
              "time": 76.58656057484183,
              "duration": 0.24989879911754911,
              "velocity": 64
            },
            {
              "pitch": 44,
              "time": 78.09872783466534,
              "duration": 0.24989879911754911,
              "velocity": 64
            },
            {
              "pitch": 44,
              "time": 80.61895422286047,
              "duration": 0.2499508304195804,
              "velocity": 64
            },
            {
              "pitch": 44,
              "time": 82.13112148268398,
              "duration": 0.2499508304195804,
              "velocity": 64
            },
            {
              "pitch": 44,
              "time": 84.65140016233767,
              "duration": 0.24995109057609058,
              "velocity": 64
            },
            {
              "pitch": 44,
              "time": 86.16356716200467,
              "duration": 0.24989879911754911,
              "velocity": 64
            },
            {
              "pitch": 44,
              "time": 88.68384610181485,
              "duration": 0.24989853896103897,
              "velocity": 64
            },
            {
              "pitch": 44,
              "time": 90.19601336163836,
              "duration": 0.2498982788045288,
              "velocity": 64
            },
            {
              "pitch": 44,
              "time": 92.716239489677,
              "duration": 0.24995109057609058,
              "velocity": 64
            },
            {
              "pitch": 44,
              "time": 94.2284067495005,
              "duration": 0.24995109057609058,
              "velocity": 64
            },
            {
              "pitch": 44,
              "time": 96.74868542915418,
              "duration": 0.24995109057609058,
              "velocity": 64
            },
            {
              "pitch": 44,
              "time": 98.26085268897769,
              "duration": 0.24989853896103897,
              "velocity": 64
            },
            {
              "pitch": 44,
              "time": 100.78113162878788,
              "duration": 0.2498982788045288,
              "velocity": 64
            },
            {
              "pitch": 44,
              "time": 102.29329862845488,
              "duration": 0.24989853896103897,
              "velocity": 64
            },
            {
              "pitch": 44,
              "time": 104.8135247564935,
              "duration": 0.24995135073260072,
              "velocity": 64
            },
            {
              "pitch": 44,
              "time": 106.32569201631702,
              "duration": 0.24995109057609058,
              "velocity": 64
            },
            {
              "pitch": 44,
              "time": 108.8459709561272,
              "duration": 0.2498982788045288,
              "velocity": 64
            },
            {
              "pitch": 44,
              "time": 110.3581379557942,
              "duration": 0.24989853896103897,
              "velocity": 64
            },
            {
              "pitch": 44,
              "time": 112.87841663544789,
              "duration": 0.24989879911754911,
              "velocity": 64
            },
            {
              "pitch": 44,
              "time": 114.39053134365635,
              "duration": 0.24995109057609058,
              "velocity": 64
            },
            {
              "pitch": 44,
              "time": 116.91081028346653,
              "duration": 0.2499508304195804,
              "velocity": 64
            },
            {
              "pitch": 44,
              "time": 118.42297754329005,
              "duration": 0.24995109057609058,
              "velocity": 64
            },
            {
              "pitch": 44,
              "time": 120.94325596278722,
              "duration": 0.24989879911754911,
              "velocity": 64
            },
            {
              "pitch": 44,
              "time": 122.45542348276723,
              "duration": 0.24989853896103897,
              "velocity": 64
            },
            {
              "pitch": 44,
              "time": 124.97570216242092,
              "duration": 0.2498982788045288,
              "velocity": 64
            },
            {
              "pitch": 44,
              "time": 126.48781687062937,
              "duration": 0.24995109057609058,
              "velocity": 64
            },
            {
              "pitch": 69,
              "time": 0.4744586143023643,
              "duration": 1.0060312083749583,
              "velocity": 3
            },
            {
              "pitch": 69,
              "time": 4.506904553779553,
              "duration": 0.7539520375457875,
              "velocity": 3
            },
            {
              "pitch": 69,
              "time": 8.50405583999334,
              "duration": 1.0060312083749583,
              "velocity": 3
            },
            {
              "pitch": 69,
              "time": 12.53650177947053,
              "duration": 0.7539520375457875,
              "velocity": 3
            },
            {
              "pitch": 69,
              "time": 16.474458614302364,
              "duration": 1.0060312083749583,
              "velocity": 3
            },
            {
              "pitch": 69,
              "time": 20.506904553779552,
              "duration": 0.7539520375457875,
              "velocity": 3
            },
            {
              "pitch": 69,
              "time": 24.50405583999334,
              "duration": 1.0060312083749583,
              "velocity": 3
            },
            {
              "pitch": 69,
              "time": 28.53650177947053,
              "duration": 0.7539520375457875,
              "velocity": 3
            }
          ],
          "gainInfo": 1,
          "contentSummary": "midi clip, 7.8 bars, 231 notes",
          "clipColor": 10,
          "name": "ARP 2600 V3 3"
        },
        {
          "id": "track_midi_33_10_clip_8",
          "trackId": "track_midi_33_10",
          "clipType": "midi",
          "start": 480,
          "end": 511,
          "loop": false,
          "sourceRef": null,
          "midiNoteCount": 231,
          "midiNotes": [
            {
              "pitch": 41,
              "time": 1.9866258741258742,
              "duration": 0.5019777097902098,
              "velocity": 39
            },
            {
              "pitch": 41,
              "time": 3.498792873792874,
              "duration": 0.7560827193639693,
              "velocity": 39
            },
            {
              "pitch": 41,
              "time": 6.019071813603063,
              "duration": 0.5019251581751581,
              "velocity": 39
            },
            {
              "pitch": 41,
              "time": 7.5312390734265735,
              "duration": 0.4998982788045288,
              "velocity": 39
            },
            {
              "pitch": 41,
              "time": 10.01622309981685,
              "duration": 0.5019777097902098,
              "velocity": 39
            },
            {
              "pitch": 41,
              "time": 11.528390099483849,
              "duration": 0.7560827193639693,
              "velocity": 39
            },
            {
              "pitch": 41,
              "time": 14.048669039294039,
              "duration": 0.5019251581751581,
              "velocity": 39
            },
            {
              "pitch": 41,
              "time": 15.560836299117549,
              "duration": 0.2498982788045288,
              "velocity": 39
            },
            {
              "pitch": 41,
              "time": 17.986625874125874,
              "duration": 0.5019777097902098,
              "velocity": 39
            },
            {
              "pitch": 41,
              "time": 19.498792873792873,
              "duration": 0.7560827193639693,
              "velocity": 39
            },
            {
              "pitch": 41,
              "time": 22.019071813603063,
              "duration": 0.5019251581751581,
              "velocity": 39
            },
            {
              "pitch": 41,
              "time": 23.531239073426573,
              "duration": 0.4998982788045288,
              "velocity": 39
            },
            {
              "pitch": 41,
              "time": 26.016223099816848,
              "duration": 0.5019777097902098,
              "velocity": 39
            },
            {
              "pitch": 41,
              "time": 27.52839009948385,
              "duration": 0.7560827193639693,
              "velocity": 39
            },
            {
              "pitch": 41,
              "time": 30.04866903929404,
              "duration": 0.5019251581751581,
              "velocity": 39
            },
            {
              "pitch": 41,
              "time": 31.56083629911755,
              "duration": 0.2498982788045288,
              "velocity": 39
            },
            {
              "pitch": 41,
              "time": 34.24603599525474,
              "duration": 0.2499508304195804,
              "velocity": 39
            },
            {
              "pitch": 41,
              "time": 35.75820325507826,
              "duration": 0.2499508304195804,
              "velocity": 39
            },
            {
              "pitch": 41,
              "time": 38.278481674575424,
              "duration": 0.24995109057609058,
              "velocity": 39
            },
            {
              "pitch": 41,
              "time": 39.79064893439894,
              "duration": 0.24989879911754911,
              "velocity": 39
            },
            {
              "pitch": 41,
              "time": 42.31092787420913,
              "duration": 0.2498982788045288,
              "velocity": 39
            },
            {
              "pitch": 41,
              "time": 43.82309487387612,
              "duration": 0.24989853896103897,
              "velocity": 39
            },
            {
              "pitch": 41,
              "time": 46.34332100191475,
              "duration": 0.24995135073260072,
              "velocity": 39
            },
            {
              "pitch": 41,
              "time": 47.85548826173826,
              "duration": 0.24995109057609058,
              "velocity": 39
            },
            {
              "pitch": 41,
              "time": 50.37576720154845,
              "duration": 0.24995109057609058,
              "velocity": 39
            },
            {
              "pitch": 41,
              "time": 51.88793420121545,
              "duration": 0.24989853896103897,
              "velocity": 39
            },
            {
              "pitch": 41,
              "time": 54.40821314102564,
              "duration": 0.24989853896103897,
              "velocity": 39
            },
            {
              "pitch": 41,
              "time": 55.92038040084915,
              "duration": 0.24989853896103897,
              "velocity": 39
            },
            {
              "pitch": 41,
              "time": 58.44060652888778,
              "duration": 0.24995109057609058,
              "velocity": 39
            },
            {
              "pitch": 41,
              "time": 59.95277378871129,
              "duration": 0.24995109057609058,
              "velocity": 39
            },
            {
              "pitch": 41,
              "time": 62.47305246836497,
              "duration": 0.24989853896103897,
              "velocity": 39
            },
            {
              "pitch": 41,
              "time": 63.985219728188476,
              "duration": 0.24989853896103897,
              "velocity": 39
            },
            {
              "pitch": 41,
              "time": 66.50549840784215,
              "duration": 0.24989853896103897,
              "velocity": 39
            },
            {
              "pitch": 41,
              "time": 68.01761311605061,
              "duration": 0.24995109057609058,
              "velocity": 39
            },
            {
              "pitch": 41,
              "time": 70.5378917957043,
              "duration": 0.24995109057609058,
              "velocity": 39
            },
            {
              "pitch": 41,
              "time": 72.05005905552781,
              "duration": 0.24995109057609058,
              "velocity": 39
            },
            {
              "pitch": 41,
              "time": 74.57033773518148,
              "duration": 0.24989853896103897,
              "velocity": 39
            },
            {
              "pitch": 41,
              "time": 76.08250525516151,
              "duration": 0.2498982788045288,
              "velocity": 39
            },
            {
              "pitch": 41,
              "time": 78.60278367465868,
              "duration": 0.24989853896103897,
              "velocity": 39
            },
            {
              "pitch": 41,
              "time": 80.11489838286714,
              "duration": 0.24995135073260072,
              "velocity": 39
            },
            {
              "pitch": 41,
              "time": 82.63517706252081,
              "duration": 0.24995109057609058,
              "velocity": 39
            },
            {
              "pitch": 41,
              "time": 84.14734458250084,
              "duration": 0.2499508304195804,
              "velocity": 39
            },
            {
              "pitch": 41,
              "time": 86.667623001998,
              "duration": 0.24989853896103897,
              "velocity": 39
            },
            {
              "pitch": 41,
              "time": 88.17979026182151,
              "duration": 0.24989879911754911,
              "velocity": 39
            },
            {
              "pitch": 41,
              "time": 90.7000692016317,
              "duration": 0.2498982788045288,
              "velocity": 39
            },
            {
              "pitch": 41,
              "time": 92.21218390984016,
              "duration": 0.2499508304195804,
              "velocity": 39
            },
            {
              "pitch": 41,
              "time": 94.73246232933732,
              "duration": 0.24995135073260072,
              "velocity": 39
            },
            {
              "pitch": 41,
              "time": 96.24462958916084,
              "duration": 0.24995109057609058,
              "velocity": 39
            },
            {
              "pitch": 41,
              "time": 98.76490852897103,
              "duration": 0.2498982788045288,
              "velocity": 39
            },
            {
              "pitch": 41,
              "time": 100.27707578879453,
              "duration": 0.2498982788045288,
              "velocity": 39
            },
            {
              "pitch": 41,
              "time": 102.79730191683316,
              "duration": 0.24995109057609058,
              "velocity": 39
            },
            {
              "pitch": 41,
              "time": 104.30946891650017,
              "duration": 0.24995135073260072,
              "velocity": 39
            },
            {
              "pitch": 41,
              "time": 106.82974785631036,
              "duration": 0.24995109057609058,
              "velocity": 39
            },
            {
              "pitch": 41,
              "time": 108.34191511613386,
              "duration": 0.24995109057609058,
              "velocity": 39
            },
            {
              "pitch": 41,
              "time": 110.86219379578755,
              "duration": 0.24989853896103897,
              "velocity": 39
            },
            {
              "pitch": 41,
              "time": 112.37436105561106,
              "duration": 0.24989853896103897,
              "velocity": 39
            },
            {
              "pitch": 41,
              "time": 114.89458718364969,
              "duration": 0.24995109057609058,
              "velocity": 39
            },
            {
              "pitch": 41,
              "time": 116.40675444347319,
              "duration": 0.24995109057609058,
              "velocity": 39
            },
            {
              "pitch": 41,
              "time": 118.92703338328339,
              "duration": 0.2499508304195804,
              "velocity": 39
            },
            {
              "pitch": 41,
              "time": 120.43920038295039,
              "duration": 0.24989853896103897,
              "velocity": 39
            },
            {
              "pitch": 41,
              "time": 122.95947906260406,
              "duration": 0.24989879911754911,
              "velocity": 39
            },
            {
              "pitch": 41,
              "time": 124.47164632242757,
              "duration": 0.24989853896103897,
              "velocity": 39
            },
            {
              "pitch": 41,
              "time": 126.99187271062272,
              "duration": 0.2499508304195804,
              "velocity": 39
            },
            {
              "pitch": 44,
              "time": -0.02959722569097569,
              "duration": 0.50197796994672,
              "velocity": 64
            },
            {
              "pitch": 44,
              "time": 1.482570034132534,
              "duration": 0.5019777097902098,
              "velocity": 64
            },
            {
              "pitch": 44,
              "time": 5.5150159736097235,
              "duration": 0.5019251581751581,
              "velocity": 64
            },
            {
              "pitch": 44,
              "time": 8,
              "duration": 0.50197796994672,
              "velocity": 64
            },
            {
              "pitch": 44,
              "time": 9.51216725982351,
              "duration": 0.5019777097902098,
              "velocity": 64
            },
            {
              "pitch": 44,
              "time": 13.544613199300699,
              "duration": 0.5019251581751581,
              "velocity": 64
            },
            {
              "pitch": 44,
              "time": 17.482570034132536,
              "duration": 0.5019777097902098,
              "velocity": 64
            },
            {
              "pitch": 44,
              "time": 21.515015973609724,
              "duration": 0.5019251581751581,
              "velocity": 64
            },
            {
              "pitch": 44,
              "time": 24,
              "duration": 0.50197796994672,
              "velocity": 64
            },
            {
              "pitch": 44,
              "time": 25.51216725982351,
              "duration": 0.5019777097902098,
              "velocity": 64
            },
            {
              "pitch": 44,
              "time": 29.5446131993007,
              "duration": 0.5019251581751581,
              "velocity": 64
            },
            {
              "pitch": 44,
              "time": 36.262258574758576,
              "duration": 0.24995135073260072,
              "velocity": 64
            },
            {
              "pitch": 44,
              "time": 37.774426094738594,
              "duration": 0.24995109057609058,
              "velocity": 64
            },
            {
              "pitch": 44,
              "time": 40.29470477439227,
              "duration": 0.24989853896103897,
              "velocity": 64
            },
            {
              "pitch": 44,
              "time": 41.806872034215786,
              "duration": 0.24989853896103897,
              "velocity": 64
            },
            {
              "pitch": 44,
              "time": 44.327150713869464,
              "duration": 0.24989853896103897,
              "velocity": 64
            },
            {
              "pitch": 44,
              "time": 45.83926542207792,
              "duration": 0.24995109057609058,
              "velocity": 64
            },
            {
              "pitch": 44,
              "time": 48.3595441017316,
              "duration": 0.24995109057609058,
              "velocity": 64
            },
            {
              "pitch": 44,
              "time": 49.871711361555114,
              "duration": 0.24995109057609058,
              "velocity": 64
            },
            {
              "pitch": 44,
              "time": 52.39199004120879,
              "duration": 0.24989853896103897,
              "velocity": 64
            },
            {
              "pitch": 44,
              "time": 53.9041573010323,
              "duration": 0.24989853896103897,
              "velocity": 64
            },
            {
              "pitch": 44,
              "time": 56.42438342907093,
              "duration": 0.24995109057609058,
              "velocity": 64
            },
            {
              "pitch": 44,
              "time": 57.93655068889444,
              "duration": 0.24995109057609058,
              "velocity": 64
            },
            {
              "pitch": 44,
              "time": 60.456829628704625,
              "duration": 0.24995109057609058,
              "velocity": 64
            },
            {
              "pitch": 44,
              "time": 61.96899662837163,
              "duration": 0.24995135073260072,
              "velocity": 64
            },
            {
              "pitch": 44,
              "time": 64.48927556818182,
              "duration": 0.24989853896103897,
              "velocity": 64
            },
            {
              "pitch": 44,
              "time": 66.00144282800532,
              "duration": 0.2498982788045288,
              "velocity": 64
            },
            {
              "pitch": 44,
              "time": 68.52166895604395,
              "duration": 0.24995109057609058,
              "velocity": 64
            },
            {
              "pitch": 44,
              "time": 70.03383595571096,
              "duration": 0.24995135073260072,
              "velocity": 64
            },
            {
              "pitch": 44,
              "time": 72.55411489552115,
              "duration": 0.2499508304195804,
              "velocity": 64
            },
            {
              "pitch": 44,
              "time": 74.06628215534465,
              "duration": 0.2498982788045288,
              "velocity": 64
            },
            {
              "pitch": 44,
              "time": 76.58656057484183,
              "duration": 0.24989879911754911,
              "velocity": 64
            },
            {
              "pitch": 44,
              "time": 78.09872783466534,
              "duration": 0.24989879911754911,
              "velocity": 64
            },
            {
              "pitch": 44,
              "time": 80.61895422286047,
              "duration": 0.2499508304195804,
              "velocity": 64
            },
            {
              "pitch": 44,
              "time": 82.13112148268398,
              "duration": 0.2499508304195804,
              "velocity": 64
            },
            {
              "pitch": 44,
              "time": 84.65140016233767,
              "duration": 0.24995109057609058,
              "velocity": 64
            },
            {
              "pitch": 44,
              "time": 86.16356716200467,
              "duration": 0.24989879911754911,
              "velocity": 64
            },
            {
              "pitch": 44,
              "time": 88.68384610181485,
              "duration": 0.24989853896103897,
              "velocity": 64
            },
            {
              "pitch": 44,
              "time": 90.19601336163836,
              "duration": 0.2498982788045288,
              "velocity": 64
            },
            {
              "pitch": 44,
              "time": 92.716239489677,
              "duration": 0.24995109057609058,
              "velocity": 64
            },
            {
              "pitch": 44,
              "time": 94.2284067495005,
              "duration": 0.24995109057609058,
              "velocity": 64
            },
            {
              "pitch": 44,
              "time": 96.74868542915418,
              "duration": 0.24995109057609058,
              "velocity": 64
            },
            {
              "pitch": 44,
              "time": 98.26085268897769,
              "duration": 0.24989853896103897,
              "velocity": 64
            },
            {
              "pitch": 44,
              "time": 100.78113162878788,
              "duration": 0.2498982788045288,
              "velocity": 64
            },
            {
              "pitch": 44,
              "time": 102.29329862845488,
              "duration": 0.24989853896103897,
              "velocity": 64
            },
            {
              "pitch": 44,
              "time": 104.8135247564935,
              "duration": 0.24995135073260072,
              "velocity": 64
            },
            {
              "pitch": 44,
              "time": 106.32569201631702,
              "duration": 0.24995109057609058,
              "velocity": 64
            },
            {
              "pitch": 44,
              "time": 108.8459709561272,
              "duration": 0.2498982788045288,
              "velocity": 64
            },
            {
              "pitch": 44,
              "time": 110.3581379557942,
              "duration": 0.24989853896103897,
              "velocity": 64
            },
            {
              "pitch": 44,
              "time": 112.87841663544789,
              "duration": 0.24989879911754911,
              "velocity": 64
            },
            {
              "pitch": 44,
              "time": 114.39053134365635,
              "duration": 0.24995109057609058,
              "velocity": 64
            },
            {
              "pitch": 44,
              "time": 116.91081028346653,
              "duration": 0.2499508304195804,
              "velocity": 64
            },
            {
              "pitch": 44,
              "time": 118.42297754329005,
              "duration": 0.24995109057609058,
              "velocity": 64
            },
            {
              "pitch": 44,
              "time": 120.94325596278722,
              "duration": 0.24989879911754911,
              "velocity": 64
            },
            {
              "pitch": 44,
              "time": 122.45542348276723,
              "duration": 0.24989853896103897,
              "velocity": 64
            },
            {
              "pitch": 44,
              "time": 124.97570216242092,
              "duration": 0.2498982788045288,
              "velocity": 64
            },
            {
              "pitch": 44,
              "time": 126.48781687062937,
              "duration": 0.24995109057609058,
              "velocity": 64
            },
            {
              "pitch": 69,
              "time": 0.4744586143023643,
              "duration": 1.0060312083749583,
              "velocity": 3
            },
            {
              "pitch": 69,
              "time": 4.506904553779553,
              "duration": 0.7539520375457875,
              "velocity": 3
            },
            {
              "pitch": 69,
              "time": 8.50405583999334,
              "duration": 1.0060312083749583,
              "velocity": 3
            },
            {
              "pitch": 69,
              "time": 12.53650177947053,
              "duration": 0.7539520375457875,
              "velocity": 3
            },
            {
              "pitch": 69,
              "time": 16.474458614302364,
              "duration": 1.0060312083749583,
              "velocity": 3
            },
            {
              "pitch": 69,
              "time": 20.506904553779552,
              "duration": 0.7539520375457875,
              "velocity": 3
            },
            {
              "pitch": 69,
              "time": 24.50405583999334,
              "duration": 1.0060312083749583,
              "velocity": 3
            },
            {
              "pitch": 69,
              "time": 28.53650177947053,
              "duration": 0.7539520375457875,
              "velocity": 3
            }
          ],
          "gainInfo": 1,
          "contentSummary": "midi clip, 7.8 bars, 231 notes",
          "clipColor": 10,
          "name": "ARP 2600 V3 3"
        },
        {
          "id": "track_midi_33_10_clip_9",
          "trackId": "track_midi_33_10",
          "clipType": "midi",
          "start": 511,
          "end": 576,
          "loop": false,
          "sourceRef": null,
          "midiNoteCount": 231,
          "midiNotes": [
            {
              "pitch": 41,
              "time": 1.9866258741258742,
              "duration": 0.5019777097902098,
              "velocity": 39
            },
            {
              "pitch": 41,
              "time": 3.498792873792874,
              "duration": 0.7560827193639693,
              "velocity": 39
            },
            {
              "pitch": 41,
              "time": 6.019071813603063,
              "duration": 0.5019251581751581,
              "velocity": 39
            },
            {
              "pitch": 41,
              "time": 7.5312390734265735,
              "duration": 0.4998982788045288,
              "velocity": 39
            },
            {
              "pitch": 41,
              "time": 10.01622309981685,
              "duration": 0.5019777097902098,
              "velocity": 39
            },
            {
              "pitch": 41,
              "time": 11.528390099483849,
              "duration": 0.7560827193639693,
              "velocity": 39
            },
            {
              "pitch": 41,
              "time": 14.048669039294039,
              "duration": 0.5019251581751581,
              "velocity": 39
            },
            {
              "pitch": 41,
              "time": 15.560836299117549,
              "duration": 0.2498982788045288,
              "velocity": 39
            },
            {
              "pitch": 41,
              "time": 17.986625874125874,
              "duration": 0.5019777097902098,
              "velocity": 39
            },
            {
              "pitch": 41,
              "time": 19.498792873792873,
              "duration": 0.7560827193639693,
              "velocity": 39
            },
            {
              "pitch": 41,
              "time": 22.019071813603063,
              "duration": 0.5019251581751581,
              "velocity": 39
            },
            {
              "pitch": 41,
              "time": 23.531239073426573,
              "duration": 0.4998982788045288,
              "velocity": 39
            },
            {
              "pitch": 41,
              "time": 26.016223099816848,
              "duration": 0.5019777097902098,
              "velocity": 39
            },
            {
              "pitch": 41,
              "time": 27.52839009948385,
              "duration": 0.7560827193639693,
              "velocity": 39
            },
            {
              "pitch": 41,
              "time": 30.04866903929404,
              "duration": 0.5019251581751581,
              "velocity": 39
            },
            {
              "pitch": 41,
              "time": 31.56083629911755,
              "duration": 0.2498982788045288,
              "velocity": 39
            },
            {
              "pitch": 41,
              "time": 34.24603599525474,
              "duration": 0.2499508304195804,
              "velocity": 39
            },
            {
              "pitch": 41,
              "time": 35.75820325507826,
              "duration": 0.2499508304195804,
              "velocity": 39
            },
            {
              "pitch": 41,
              "time": 38.278481674575424,
              "duration": 0.24995109057609058,
              "velocity": 39
            },
            {
              "pitch": 41,
              "time": 39.79064893439894,
              "duration": 0.24989879911754911,
              "velocity": 39
            },
            {
              "pitch": 41,
              "time": 42.31092787420913,
              "duration": 0.2498982788045288,
              "velocity": 39
            },
            {
              "pitch": 41,
              "time": 43.82309487387612,
              "duration": 0.24989853896103897,
              "velocity": 39
            },
            {
              "pitch": 41,
              "time": 46.34332100191475,
              "duration": 0.24995135073260072,
              "velocity": 39
            },
            {
              "pitch": 41,
              "time": 47.85548826173826,
              "duration": 0.24995109057609058,
              "velocity": 39
            },
            {
              "pitch": 41,
              "time": 50.37576720154845,
              "duration": 0.24995109057609058,
              "velocity": 39
            },
            {
              "pitch": 41,
              "time": 51.88793420121545,
              "duration": 0.24989853896103897,
              "velocity": 39
            },
            {
              "pitch": 41,
              "time": 54.40821314102564,
              "duration": 0.24989853896103897,
              "velocity": 39
            },
            {
              "pitch": 41,
              "time": 55.92038040084915,
              "duration": 0.24989853896103897,
              "velocity": 39
            },
            {
              "pitch": 41,
              "time": 58.44060652888778,
              "duration": 0.24995109057609058,
              "velocity": 39
            },
            {
              "pitch": 41,
              "time": 59.95277378871129,
              "duration": 0.24995109057609058,
              "velocity": 39
            },
            {
              "pitch": 41,
              "time": 62.47305246836497,
              "duration": 0.24989853896103897,
              "velocity": 39
            },
            {
              "pitch": 41,
              "time": 63.985219728188476,
              "duration": 0.24989853896103897,
              "velocity": 39
            },
            {
              "pitch": 41,
              "time": 66.50549840784215,
              "duration": 0.24989853896103897,
              "velocity": 39
            },
            {
              "pitch": 41,
              "time": 68.01761311605061,
              "duration": 0.24995109057609058,
              "velocity": 39
            },
            {
              "pitch": 41,
              "time": 70.5378917957043,
              "duration": 0.24995109057609058,
              "velocity": 39
            },
            {
              "pitch": 41,
              "time": 72.05005905552781,
              "duration": 0.24995109057609058,
              "velocity": 39
            },
            {
              "pitch": 41,
              "time": 74.57033773518148,
              "duration": 0.24989853896103897,
              "velocity": 39
            },
            {
              "pitch": 41,
              "time": 76.08250525516151,
              "duration": 0.2498982788045288,
              "velocity": 39
            },
            {
              "pitch": 41,
              "time": 78.60278367465868,
              "duration": 0.24989853896103897,
              "velocity": 39
            },
            {
              "pitch": 41,
              "time": 80.11489838286714,
              "duration": 0.24995135073260072,
              "velocity": 39
            },
            {
              "pitch": 41,
              "time": 82.63517706252081,
              "duration": 0.24995109057609058,
              "velocity": 39
            },
            {
              "pitch": 41,
              "time": 84.14734458250084,
              "duration": 0.2499508304195804,
              "velocity": 39
            },
            {
              "pitch": 41,
              "time": 86.667623001998,
              "duration": 0.24989853896103897,
              "velocity": 39
            },
            {
              "pitch": 41,
              "time": 88.17979026182151,
              "duration": 0.24989879911754911,
              "velocity": 39
            },
            {
              "pitch": 41,
              "time": 90.7000692016317,
              "duration": 0.2498982788045288,
              "velocity": 39
            },
            {
              "pitch": 41,
              "time": 92.21218390984016,
              "duration": 0.2499508304195804,
              "velocity": 39
            },
            {
              "pitch": 41,
              "time": 94.73246232933732,
              "duration": 0.24995135073260072,
              "velocity": 39
            },
            {
              "pitch": 41,
              "time": 96.24462958916084,
              "duration": 0.24995109057609058,
              "velocity": 39
            },
            {
              "pitch": 41,
              "time": 98.76490852897103,
              "duration": 0.2498982788045288,
              "velocity": 39
            },
            {
              "pitch": 41,
              "time": 100.27707578879453,
              "duration": 0.2498982788045288,
              "velocity": 39
            },
            {
              "pitch": 41,
              "time": 102.79730191683316,
              "duration": 0.24995109057609058,
              "velocity": 39
            },
            {
              "pitch": 41,
              "time": 104.30946891650017,
              "duration": 0.24995135073260072,
              "velocity": 39
            },
            {
              "pitch": 41,
              "time": 106.82974785631036,
              "duration": 0.24995109057609058,
              "velocity": 39
            },
            {
              "pitch": 41,
              "time": 108.34191511613386,
              "duration": 0.24995109057609058,
              "velocity": 39
            },
            {
              "pitch": 41,
              "time": 110.86219379578755,
              "duration": 0.24989853896103897,
              "velocity": 39
            },
            {
              "pitch": 41,
              "time": 112.37436105561106,
              "duration": 0.24989853896103897,
              "velocity": 39
            },
            {
              "pitch": 41,
              "time": 114.89458718364969,
              "duration": 0.24995109057609058,
              "velocity": 39
            },
            {
              "pitch": 41,
              "time": 116.40675444347319,
              "duration": 0.24995109057609058,
              "velocity": 39
            },
            {
              "pitch": 41,
              "time": 118.92703338328339,
              "duration": 0.2499508304195804,
              "velocity": 39
            },
            {
              "pitch": 41,
              "time": 120.43920038295039,
              "duration": 0.24989853896103897,
              "velocity": 39
            },
            {
              "pitch": 41,
              "time": 122.95947906260406,
              "duration": 0.24989879911754911,
              "velocity": 39
            },
            {
              "pitch": 41,
              "time": 124.47164632242757,
              "duration": 0.24989853896103897,
              "velocity": 39
            },
            {
              "pitch": 41,
              "time": 126.99187271062272,
              "duration": 0.2499508304195804,
              "velocity": 39
            },
            {
              "pitch": 44,
              "time": -0.02959722569097569,
              "duration": 0.50197796994672,
              "velocity": 64
            },
            {
              "pitch": 44,
              "time": 1.482570034132534,
              "duration": 0.5019777097902098,
              "velocity": 64
            },
            {
              "pitch": 44,
              "time": 5.5150159736097235,
              "duration": 0.5019251581751581,
              "velocity": 64
            },
            {
              "pitch": 44,
              "time": 8,
              "duration": 0.50197796994672,
              "velocity": 64
            },
            {
              "pitch": 44,
              "time": 9.51216725982351,
              "duration": 0.5019777097902098,
              "velocity": 64
            },
            {
              "pitch": 44,
              "time": 13.544613199300699,
              "duration": 0.5019251581751581,
              "velocity": 64
            },
            {
              "pitch": 44,
              "time": 17.482570034132536,
              "duration": 0.5019777097902098,
              "velocity": 64
            },
            {
              "pitch": 44,
              "time": 21.515015973609724,
              "duration": 0.5019251581751581,
              "velocity": 64
            },
            {
              "pitch": 44,
              "time": 24,
              "duration": 0.50197796994672,
              "velocity": 64
            },
            {
              "pitch": 44,
              "time": 25.51216725982351,
              "duration": 0.5019777097902098,
              "velocity": 64
            },
            {
              "pitch": 44,
              "time": 29.5446131993007,
              "duration": 0.5019251581751581,
              "velocity": 64
            },
            {
              "pitch": 44,
              "time": 36.262258574758576,
              "duration": 0.24995135073260072,
              "velocity": 64
            },
            {
              "pitch": 44,
              "time": 37.774426094738594,
              "duration": 0.24995109057609058,
              "velocity": 64
            },
            {
              "pitch": 44,
              "time": 40.29470477439227,
              "duration": 0.24989853896103897,
              "velocity": 64
            },
            {
              "pitch": 44,
              "time": 41.806872034215786,
              "duration": 0.24989853896103897,
              "velocity": 64
            },
            {
              "pitch": 44,
              "time": 44.327150713869464,
              "duration": 0.24989853896103897,
              "velocity": 64
            },
            {
              "pitch": 44,
              "time": 45.83926542207792,
              "duration": 0.24995109057609058,
              "velocity": 64
            },
            {
              "pitch": 44,
              "time": 48.3595441017316,
              "duration": 0.24995109057609058,
              "velocity": 64
            },
            {
              "pitch": 44,
              "time": 49.871711361555114,
              "duration": 0.24995109057609058,
              "velocity": 64
            },
            {
              "pitch": 44,
              "time": 52.39199004120879,
              "duration": 0.24989853896103897,
              "velocity": 64
            },
            {
              "pitch": 44,
              "time": 53.9041573010323,
              "duration": 0.24989853896103897,
              "velocity": 64
            },
            {
              "pitch": 44,
              "time": 56.42438342907093,
              "duration": 0.24995109057609058,
              "velocity": 64
            },
            {
              "pitch": 44,
              "time": 57.93655068889444,
              "duration": 0.24995109057609058,
              "velocity": 64
            },
            {
              "pitch": 44,
              "time": 60.456829628704625,
              "duration": 0.24995109057609058,
              "velocity": 64
            },
            {
              "pitch": 44,
              "time": 61.96899662837163,
              "duration": 0.24995135073260072,
              "velocity": 64
            },
            {
              "pitch": 44,
              "time": 64.48927556818182,
              "duration": 0.24989853896103897,
              "velocity": 64
            },
            {
              "pitch": 44,
              "time": 66.00144282800532,
              "duration": 0.2498982788045288,
              "velocity": 64
            },
            {
              "pitch": 44,
              "time": 68.52166895604395,
              "duration": 0.24995109057609058,
              "velocity": 64
            },
            {
              "pitch": 44,
              "time": 70.03383595571096,
              "duration": 0.24995135073260072,
              "velocity": 64
            },
            {
              "pitch": 44,
              "time": 72.55411489552115,
              "duration": 0.2499508304195804,
              "velocity": 64
            },
            {
              "pitch": 44,
              "time": 74.06628215534465,
              "duration": 0.2498982788045288,
              "velocity": 64
            },
            {
              "pitch": 44,
              "time": 76.58656057484183,
              "duration": 0.24989879911754911,
              "velocity": 64
            },
            {
              "pitch": 44,
              "time": 78.09872783466534,
              "duration": 0.24989879911754911,
              "velocity": 64
            },
            {
              "pitch": 44,
              "time": 80.61895422286047,
              "duration": 0.2499508304195804,
              "velocity": 64
            },
            {
              "pitch": 44,
              "time": 82.13112148268398,
              "duration": 0.2499508304195804,
              "velocity": 64
            },
            {
              "pitch": 44,
              "time": 84.65140016233767,
              "duration": 0.24995109057609058,
              "velocity": 64
            },
            {
              "pitch": 44,
              "time": 86.16356716200467,
              "duration": 0.24989879911754911,
              "velocity": 64
            },
            {
              "pitch": 44,
              "time": 88.68384610181485,
              "duration": 0.24989853896103897,
              "velocity": 64
            },
            {
              "pitch": 44,
              "time": 90.19601336163836,
              "duration": 0.2498982788045288,
              "velocity": 64
            },
            {
              "pitch": 44,
              "time": 92.716239489677,
              "duration": 0.24995109057609058,
              "velocity": 64
            },
            {
              "pitch": 44,
              "time": 94.2284067495005,
              "duration": 0.24995109057609058,
              "velocity": 64
            },
            {
              "pitch": 44,
              "time": 96.74868542915418,
              "duration": 0.24995109057609058,
              "velocity": 64
            },
            {
              "pitch": 44,
              "time": 98.26085268897769,
              "duration": 0.24989853896103897,
              "velocity": 64
            },
            {
              "pitch": 44,
              "time": 100.78113162878788,
              "duration": 0.2498982788045288,
              "velocity": 64
            },
            {
              "pitch": 44,
              "time": 102.29329862845488,
              "duration": 0.24989853896103897,
              "velocity": 64
            },
            {
              "pitch": 44,
              "time": 104.8135247564935,
              "duration": 0.24995135073260072,
              "velocity": 64
            },
            {
              "pitch": 44,
              "time": 106.32569201631702,
              "duration": 0.24995109057609058,
              "velocity": 64
            },
            {
              "pitch": 44,
              "time": 108.8459709561272,
              "duration": 0.2498982788045288,
              "velocity": 64
            },
            {
              "pitch": 44,
              "time": 110.3581379557942,
              "duration": 0.24989853896103897,
              "velocity": 64
            },
            {
              "pitch": 44,
              "time": 112.87841663544789,
              "duration": 0.24989879911754911,
              "velocity": 64
            },
            {
              "pitch": 44,
              "time": 114.39053134365635,
              "duration": 0.24995109057609058,
              "velocity": 64
            },
            {
              "pitch": 44,
              "time": 116.91081028346653,
              "duration": 0.2499508304195804,
              "velocity": 64
            },
            {
              "pitch": 44,
              "time": 118.42297754329005,
              "duration": 0.24995109057609058,
              "velocity": 64
            },
            {
              "pitch": 44,
              "time": 120.94325596278722,
              "duration": 0.24989879911754911,
              "velocity": 64
            },
            {
              "pitch": 44,
              "time": 122.45542348276723,
              "duration": 0.24989853896103897,
              "velocity": 64
            },
            {
              "pitch": 44,
              "time": 124.97570216242092,
              "duration": 0.2498982788045288,
              "velocity": 64
            },
            {
              "pitch": 44,
              "time": 126.48781687062937,
              "duration": 0.24995109057609058,
              "velocity": 64
            },
            {
              "pitch": 69,
              "time": 0.4744586143023643,
              "duration": 1.0060312083749583,
              "velocity": 3
            },
            {
              "pitch": 69,
              "time": 4.506904553779553,
              "duration": 0.7539520375457875,
              "velocity": 3
            },
            {
              "pitch": 69,
              "time": 8.50405583999334,
              "duration": 1.0060312083749583,
              "velocity": 3
            },
            {
              "pitch": 69,
              "time": 12.53650177947053,
              "duration": 0.7539520375457875,
              "velocity": 3
            },
            {
              "pitch": 69,
              "time": 16.474458614302364,
              "duration": 1.0060312083749583,
              "velocity": 3
            },
            {
              "pitch": 69,
              "time": 20.506904553779552,
              "duration": 0.7539520375457875,
              "velocity": 3
            },
            {
              "pitch": 69,
              "time": 24.50405583999334,
              "duration": 1.0060312083749583,
              "velocity": 3
            },
            {
              "pitch": 69,
              "time": 28.53650177947053,
              "duration": 0.7539520375457875,
              "velocity": 3
            }
          ],
          "gainInfo": 1,
          "contentSummary": "midi clip, 16.2 bars, 231 notes",
          "clipColor": 10,
          "name": "ARP 2600 V3 3"
        },
        {
          "id": "track_midi_33_10_clip_10",
          "trackId": "track_midi_33_10",
          "clipType": "midi",
          "start": 576,
          "end": 703.218648538961,
          "loop": false,
          "sourceRef": null,
          "midiNoteCount": 254,
          "midiNotes": [
            {
              "pitch": 41,
              "time": 2.9999908945221447,
              "duration": 0.24794112137862137,
              "velocity": 39
            },
            {
              "pitch": 41,
              "time": 4.4999976585914085,
              "duration": 0.24794112137862137,
              "velocity": 39
            },
            {
              "pitch": 41,
              "time": 7.000009105477855,
              "duration": 0.24788882992007993,
              "velocity": 39
            },
            {
              "pitch": 41,
              "time": 8.50001586954712,
              "duration": 0.24788882992007993,
              "velocity": 39
            },
            {
              "pitch": 41,
              "time": 10.999975024975026,
              "duration": 0.24794112137862137,
              "velocity": 39
            },
            {
              "pitch": 41,
              "time": 12.49998178904429,
              "duration": 0.24794112137862137,
              "velocity": 39
            },
            {
              "pitch": 41,
              "time": 14.999993235930736,
              "duration": 0.24794112137862137,
              "velocity": 39
            },
            {
              "pitch": 41,
              "time": 16.5,
              "duration": 0.24794112137862137,
              "velocity": 39
            },
            {
              "pitch": 41,
              "time": 19.000011446886447,
              "duration": 0.24788882992007993,
              "velocity": 39
            },
            {
              "pitch": 41,
              "time": 20.500018210955712,
              "duration": 0.24788882992007993,
              "velocity": 39
            },
            {
              "pitch": 41,
              "time": 22.999977366383618,
              "duration": 0.24794112137862137,
              "velocity": 39
            },
            {
              "pitch": 41,
              "time": 24.49998413045288,
              "duration": 0.24794112137862137,
              "velocity": 39
            },
            {
              "pitch": 41,
              "time": 26.999995577339327,
              "duration": 0.24794086122211123,
              "velocity": 39
            },
            {
              "pitch": 41,
              "time": 28.500002341408592,
              "duration": 0.24788882992007993,
              "velocity": 39
            },
            {
              "pitch": 41,
              "time": 31.000013528138528,
              "duration": 0.24788909007659007,
              "velocity": 39
            },
            {
              "pitch": 41,
              "time": 32.50002029220779,
              "duration": 0.24788909007659007,
              "velocity": 39
            },
            {
              "pitch": 41,
              "time": 34.99997970779221,
              "duration": 0.24794086122211123,
              "velocity": 39
            },
            {
              "pitch": 41,
              "time": 36.49998647186147,
              "duration": 0.24794086122211123,
              "velocity": 39
            },
            {
              "pitch": 41,
              "time": 38.99999765859141,
              "duration": 0.24794112137862137,
              "velocity": 39
            },
            {
              "pitch": 41,
              "time": 40.50000442266067,
              "duration": 0.24788909007659007,
              "velocity": 39
            },
            {
              "pitch": 41,
              "time": 43.00001586954712,
              "duration": 0.24788882992007993,
              "velocity": 39
            },
            {
              "pitch": 41,
              "time": 44.50002263361638,
              "duration": 0.24788882992007993,
              "velocity": 39
            },
            {
              "pitch": 41,
              "time": 46.99998178904429,
              "duration": 0.24794112137862137,
              "velocity": 39
            },
            {
              "pitch": 41,
              "time": 48.49998855311355,
              "duration": 0.24794112137862137,
              "velocity": 39
            },
            {
              "pitch": 41,
              "time": 51,
              "duration": 0.24794112137862137,
              "velocity": 39
            },
            {
              "pitch": 41,
              "time": 52.50000676406926,
              "duration": 0.24788882992007993,
              "velocity": 39
            },
            {
              "pitch": 41,
              "time": 55.00001821095571,
              "duration": 0.24788882992007993,
              "velocity": 39
            },
            {
              "pitch": 41,
              "time": 56.50002497502498,
              "duration": 0.24788882992007993,
              "velocity": 39
            },
            {
              "pitch": 41,
              "time": 58.99998413045288,
              "duration": 0.24794112137862137,
              "velocity": 39
            },
            {
              "pitch": 41,
              "time": 60.49999089452214,
              "duration": 0.24794112137862137,
              "velocity": 39
            },
            {
              "pitch": 41,
              "time": 63.00000234140859,
              "duration": 0.24788882992007993,
              "velocity": 39
            },
            {
              "pitch": 41,
              "time": 64.50000910547786,
              "duration": 0.24788882992007993,
              "velocity": 39
            },
            {
              "pitch": 41,
              "time": 67.0000202922078,
              "duration": 0.24788909007659007,
              "velocity": 39
            },
            {
              "pitch": 41,
              "time": 68.49997502497503,
              "duration": 0.24794112137862137,
              "velocity": 39
            },
            {
              "pitch": 41,
              "time": 70.99998647186148,
              "duration": 0.24794086122211123,
              "velocity": 39
            },
            {
              "pitch": 41,
              "time": 72.49999323593073,
              "duration": 0.24794112137862137,
              "velocity": 39
            },
            {
              "pitch": 41,
              "time": 75.00000442266067,
              "duration": 0.24788909007659007,
              "velocity": 39
            },
            {
              "pitch": 41,
              "time": 76.50001144688645,
              "duration": 0.24788882992007993,
              "velocity": 39
            },
            {
              "pitch": 41,
              "time": 79.00002263361638,
              "duration": 0.24788882992007993,
              "velocity": 39
            },
            {
              "pitch": 41,
              "time": 80.49997736638362,
              "duration": 0.24794112137862137,
              "velocity": 39
            },
            {
              "pitch": 41,
              "time": 82.99998855311355,
              "duration": 0.24794112137862137,
              "velocity": 39
            },
            {
              "pitch": 41,
              "time": 84.49999557733933,
              "duration": 0.24794086122211123,
              "velocity": 39
            },
            {
              "pitch": 41,
              "time": 87.00000676406927,
              "duration": 0.24788882992007993,
              "velocity": 39
            },
            {
              "pitch": 41,
              "time": 88.50001352813852,
              "duration": 0.24788909007659007,
              "velocity": 39
            },
            {
              "pitch": 41,
              "time": 91.00002497502497,
              "duration": 0.24788882992007993,
              "velocity": 39
            },
            {
              "pitch": 41,
              "time": 92.4999797077922,
              "duration": 0.24794086122211123,
              "velocity": 39
            },
            {
              "pitch": 41,
              "time": 94.99999089452214,
              "duration": 0.24794112137862137,
              "velocity": 39
            },
            {
              "pitch": 41,
              "time": 96.49999765859141,
              "duration": 0.24794112137862137,
              "velocity": 39
            },
            {
              "pitch": 41,
              "time": 99.00000910547786,
              "duration": 0.24788882992007993,
              "velocity": 39
            },
            {
              "pitch": 41,
              "time": 100.50001586954711,
              "duration": 0.24788882992007993,
              "velocity": 39
            },
            {
              "pitch": 41,
              "time": 102.99997502497503,
              "duration": 0.24794112137862137,
              "velocity": 39
            },
            {
              "pitch": 41,
              "time": 104.49998178904428,
              "duration": 0.24794112137862137,
              "velocity": 39
            },
            {
              "pitch": 41,
              "time": 106.99999323593073,
              "duration": 0.24794112137862137,
              "velocity": 39
            },
            {
              "pitch": 41,
              "time": 108.5,
              "duration": 0.24794112137862137,
              "velocity": 39
            },
            {
              "pitch": 41,
              "time": 111.00001144688645,
              "duration": 0.24788882992007993,
              "velocity": 39
            },
            {
              "pitch": 41,
              "time": 112.50001821095572,
              "duration": 0.24788882992007993,
              "velocity": 39
            },
            {
              "pitch": 41,
              "time": 114.99997736638362,
              "duration": 0.24794112137862137,
              "velocity": 39
            },
            {
              "pitch": 41,
              "time": 116.49998413045289,
              "duration": 0.24794112137862137,
              "velocity": 39
            },
            {
              "pitch": 41,
              "time": 118.99999557733933,
              "duration": 0.24794086122211123,
              "velocity": 39
            },
            {
              "pitch": 41,
              "time": 120.50000234140859,
              "duration": 0.24788882992007993,
              "velocity": 39
            },
            {
              "pitch": 41,
              "time": 123.00001352813852,
              "duration": 0.24788909007659007,
              "velocity": 39
            },
            {
              "pitch": 41,
              "time": 124.5000202922078,
              "duration": 0.24788909007659007,
              "velocity": 39
            },
            {
              "pitch": 41,
              "time": 126.9999797077922,
              "duration": 0.24794086122211123,
              "velocity": 39
            },
            {
              "pitch": 44,
              "time": 0.999981789044289,
              "duration": 0.24794112137862137,
              "velocity": 64
            },
            {
              "pitch": 44,
              "time": 2.4999885531135533,
              "duration": 0.24794112137862137,
              "velocity": 64
            },
            {
              "pitch": 44,
              "time": 5,
              "duration": 0.24794112137862137,
              "velocity": 64
            },
            {
              "pitch": 44,
              "time": 6.500006764069264,
              "duration": 0.24788882992007993,
              "velocity": 64
            },
            {
              "pitch": 44,
              "time": 9.00001821095571,
              "duration": 0.24788882992007993,
              "velocity": 64
            },
            {
              "pitch": 44,
              "time": 10.500024975024974,
              "duration": 0.24788882992007993,
              "velocity": 64
            },
            {
              "pitch": 44,
              "time": 12.99998413045288,
              "duration": 0.24794112137862137,
              "velocity": 64
            },
            {
              "pitch": 44,
              "time": 14.499990894522144,
              "duration": 0.24794112137862137,
              "velocity": 64
            },
            {
              "pitch": 44,
              "time": 17.000002341408592,
              "duration": 0.24788882992007993,
              "velocity": 64
            },
            {
              "pitch": 44,
              "time": 18.500009105477854,
              "duration": 0.24788882992007993,
              "velocity": 64
            },
            {
              "pitch": 44,
              "time": 21.000020292207793,
              "duration": 0.24788909007659007,
              "velocity": 64
            },
            {
              "pitch": 44,
              "time": 22.499975024975026,
              "duration": 0.24794112137862137,
              "velocity": 64
            },
            {
              "pitch": 44,
              "time": 24.999986471861472,
              "duration": 0.24794086122211123,
              "velocity": 64
            },
            {
              "pitch": 44,
              "time": 26.499993235930734,
              "duration": 0.24794112137862137,
              "velocity": 64
            },
            {
              "pitch": 44,
              "time": 29.000004422660673,
              "duration": 0.24788909007659007,
              "velocity": 64
            },
            {
              "pitch": 44,
              "time": 30.500011446886447,
              "duration": 0.24788882992007993,
              "velocity": 64
            },
            {
              "pitch": 44,
              "time": 33.00002263361638,
              "duration": 0.24788882992007993,
              "velocity": 64
            },
            {
              "pitch": 44,
              "time": 34.49997736638362,
              "duration": 0.24794112137862137,
              "velocity": 64
            },
            {
              "pitch": 44,
              "time": 36.99998855311355,
              "duration": 0.24794112137862137,
              "velocity": 64
            },
            {
              "pitch": 44,
              "time": 38.49999557733933,
              "duration": 0.24794086122211123,
              "velocity": 64
            },
            {
              "pitch": 44,
              "time": 41.00000676406926,
              "duration": 0.24788882992007993,
              "velocity": 64
            },
            {
              "pitch": 44,
              "time": 42.50001352813853,
              "duration": 0.24788909007659007,
              "velocity": 64
            },
            {
              "pitch": 44,
              "time": 45.00002497502498,
              "duration": 0.24788882992007993,
              "velocity": 64
            },
            {
              "pitch": 44,
              "time": 46.49997970779221,
              "duration": 0.24794086122211123,
              "velocity": 64
            },
            {
              "pitch": 44,
              "time": 48.99999089452214,
              "duration": 0.24794112137862137,
              "velocity": 64
            },
            {
              "pitch": 44,
              "time": 50.49999765859141,
              "duration": 0.24794112137862137,
              "velocity": 64
            },
            {
              "pitch": 44,
              "time": 53.00000910547786,
              "duration": 0.24788882992007993,
              "velocity": 64
            },
            {
              "pitch": 44,
              "time": 54.50001586954712,
              "duration": 0.24788882992007993,
              "velocity": 64
            },
            {
              "pitch": 44,
              "time": 56.99997502497502,
              "duration": 0.24794112137862137,
              "velocity": 64
            },
            {
              "pitch": 44,
              "time": 58.49998178904429,
              "duration": 0.24794112137862137,
              "velocity": 64
            },
            {
              "pitch": 44,
              "time": 60.99999323593074,
              "duration": 0.24794112137862137,
              "velocity": 64
            },
            {
              "pitch": 44,
              "time": 62.5,
              "duration": 0.24794112137862137,
              "velocity": 64
            },
            {
              "pitch": 44,
              "time": 65.00001144688645,
              "duration": 0.24788882992007993,
              "velocity": 64
            },
            {
              "pitch": 44,
              "time": 66.50001821095572,
              "duration": 0.24788882992007993,
              "velocity": 64
            },
            {
              "pitch": 44,
              "time": 68.99997736638362,
              "duration": 0.24794112137862137,
              "velocity": 64
            },
            {
              "pitch": 44,
              "time": 70.49998413045289,
              "duration": 0.24794112137862137,
              "velocity": 64
            },
            {
              "pitch": 44,
              "time": 72.99999557733933,
              "duration": 0.24794086122211123,
              "velocity": 64
            },
            {
              "pitch": 44,
              "time": 74.50000234140859,
              "duration": 0.24788882992007993,
              "velocity": 64
            },
            {
              "pitch": 44,
              "time": 77.00001352813852,
              "duration": 0.24788909007659007,
              "velocity": 64
            },
            {
              "pitch": 44,
              "time": 78.5000202922078,
              "duration": 0.24788909007659007,
              "velocity": 64
            },
            {
              "pitch": 44,
              "time": 80.9999797077922,
              "duration": 0.24794086122211123,
              "velocity": 64
            },
            {
              "pitch": 44,
              "time": 82.49998647186148,
              "duration": 0.24794086122211123,
              "velocity": 64
            },
            {
              "pitch": 44,
              "time": 84.99999765859141,
              "duration": 0.24794112137862137,
              "velocity": 64
            },
            {
              "pitch": 44,
              "time": 86.50000442266067,
              "duration": 0.24788909007659007,
              "velocity": 64
            },
            {
              "pitch": 44,
              "time": 89.00001586954711,
              "duration": 0.24788882992007993,
              "velocity": 64
            },
            {
              "pitch": 44,
              "time": 90.50002263361638,
              "duration": 0.24788882992007993,
              "velocity": 64
            },
            {
              "pitch": 44,
              "time": 92.99998178904428,
              "duration": 0.24794112137862137,
              "velocity": 64
            },
            {
              "pitch": 44,
              "time": 94.49998855311355,
              "duration": 0.24794112137862137,
              "velocity": 64
            },
            {
              "pitch": 44,
              "time": 97,
              "duration": 0.24794112137862137,
              "velocity": 64
            },
            {
              "pitch": 44,
              "time": 98.50000676406927,
              "duration": 0.24788882992007993,
              "velocity": 64
            },
            {
              "pitch": 44,
              "time": 101.00001821095572,
              "duration": 0.24788882992007993,
              "velocity": 64
            },
            {
              "pitch": 44,
              "time": 102.50002497502497,
              "duration": 0.24788882992007993,
              "velocity": 64
            },
            {
              "pitch": 44,
              "time": 104.99998413045289,
              "duration": 0.24794112137862137,
              "velocity": 64
            },
            {
              "pitch": 44,
              "time": 106.49999089452214,
              "duration": 0.24794112137862137,
              "velocity": 64
            },
            {
              "pitch": 44,
              "time": 109.00000234140859,
              "duration": 0.24788882992007993,
              "velocity": 64
            },
            {
              "pitch": 44,
              "time": 110.50000910547786,
              "duration": 0.24788882992007993,
              "velocity": 64
            },
            {
              "pitch": 44,
              "time": 113.0000202922078,
              "duration": 0.24788909007659007,
              "velocity": 64
            },
            {
              "pitch": 44,
              "time": 114.49997502497503,
              "duration": 0.24794112137862137,
              "velocity": 64
            },
            {
              "pitch": 44,
              "time": 116.99998647186148,
              "duration": 0.24794086122211123,
              "velocity": 64
            },
            {
              "pitch": 44,
              "time": 118.49999323593073,
              "duration": 0.24794112137862137,
              "velocity": 64
            },
            {
              "pitch": 44,
              "time": 121.00000442266067,
              "duration": 0.24788909007659007,
              "velocity": 64
            },
            {
              "pitch": 44,
              "time": 122.50001144688645,
              "duration": 0.24788882992007993,
              "velocity": 64
            },
            {
              "pitch": 44,
              "time": 125.00002263361638,
              "duration": 0.24788882992007993,
              "velocity": 64
            },
            {
              "pitch": 44,
              "time": 126.49997736638362,
              "duration": 0.24794112137862137,
              "velocity": 64
            },
            {
              "pitch": 69,
              "time": 1.4999841304528805,
              "duration": 0.24794112137862137,
              "velocity": 3
            }
          ],
          "gainInfo": 1,
          "contentSummary": "midi clip, 31.8 bars, 254 notes",
          "clipColor": 10,
          "name": "ARP 2600 V3 3"
        },
        {
          "id": "track_midi_33_10_clip_11",
          "trackId": "track_midi_33_10",
          "clipType": "midi",
          "start": 703.218648538961,
          "end": 704,
          "loop": false,
          "sourceRef": null,
          "midiNoteCount": 254,
          "midiNotes": [
            {
              "pitch": 53,
              "time": 2.9999908945221447,
              "duration": 0.24794112137862137,
              "velocity": 39
            },
            {
              "pitch": 53,
              "time": 4.4999976585914085,
              "duration": 0.24794112137862137,
              "velocity": 39
            },
            {
              "pitch": 53,
              "time": 7.000009105477855,
              "duration": 0.24788882992007993,
              "velocity": 39
            },
            {
              "pitch": 53,
              "time": 8.50001586954712,
              "duration": 0.24788882992007993,
              "velocity": 39
            },
            {
              "pitch": 53,
              "time": 10.999975024975026,
              "duration": 0.24794112137862137,
              "velocity": 39
            },
            {
              "pitch": 53,
              "time": 12.49998178904429,
              "duration": 0.24794112137862137,
              "velocity": 39
            },
            {
              "pitch": 53,
              "time": 14.999993235930736,
              "duration": 0.24794112137862137,
              "velocity": 39
            },
            {
              "pitch": 53,
              "time": 16.5,
              "duration": 0.24794112137862137,
              "velocity": 39
            },
            {
              "pitch": 53,
              "time": 19.000011446886447,
              "duration": 0.24788882992007993,
              "velocity": 39
            },
            {
              "pitch": 53,
              "time": 20.500018210955712,
              "duration": 0.24788882992007993,
              "velocity": 39
            },
            {
              "pitch": 53,
              "time": 22.999977366383618,
              "duration": 0.24794112137862137,
              "velocity": 39
            },
            {
              "pitch": 53,
              "time": 24.49998413045288,
              "duration": 0.24794112137862137,
              "velocity": 39
            },
            {
              "pitch": 53,
              "time": 26.999995577339327,
              "duration": 0.24794086122211123,
              "velocity": 39
            },
            {
              "pitch": 53,
              "time": 28.500002341408592,
              "duration": 0.24788882992007993,
              "velocity": 39
            },
            {
              "pitch": 53,
              "time": 31.000013528138528,
              "duration": 0.24788909007659007,
              "velocity": 39
            },
            {
              "pitch": 53,
              "time": 32.50002029220779,
              "duration": 0.24788909007659007,
              "velocity": 39
            },
            {
              "pitch": 53,
              "time": 34.99997970779221,
              "duration": 0.24794086122211123,
              "velocity": 39
            },
            {
              "pitch": 53,
              "time": 36.49998647186147,
              "duration": 0.24794086122211123,
              "velocity": 39
            },
            {
              "pitch": 53,
              "time": 38.99999765859141,
              "duration": 0.24794112137862137,
              "velocity": 39
            },
            {
              "pitch": 53,
              "time": 40.50000442266067,
              "duration": 0.24788909007659007,
              "velocity": 39
            },
            {
              "pitch": 53,
              "time": 43.00001586954712,
              "duration": 0.24788882992007993,
              "velocity": 39
            },
            {
              "pitch": 53,
              "time": 44.50002263361638,
              "duration": 0.24788882992007993,
              "velocity": 39
            },
            {
              "pitch": 53,
              "time": 46.99998178904429,
              "duration": 0.24794112137862137,
              "velocity": 39
            },
            {
              "pitch": 53,
              "time": 48.49998855311355,
              "duration": 0.24794112137862137,
              "velocity": 39
            },
            {
              "pitch": 53,
              "time": 51,
              "duration": 0.24794112137862137,
              "velocity": 39
            },
            {
              "pitch": 53,
              "time": 52.50000676406926,
              "duration": 0.24788882992007993,
              "velocity": 39
            },
            {
              "pitch": 53,
              "time": 55.00001821095571,
              "duration": 0.24788882992007993,
              "velocity": 39
            },
            {
              "pitch": 53,
              "time": 56.50002497502498,
              "duration": 0.24788882992007993,
              "velocity": 39
            },
            {
              "pitch": 53,
              "time": 58.99998413045288,
              "duration": 0.24794112137862137,
              "velocity": 39
            },
            {
              "pitch": 53,
              "time": 60.49999089452214,
              "duration": 0.24794112137862137,
              "velocity": 39
            },
            {
              "pitch": 53,
              "time": 63.00000234140859,
              "duration": 0.24788882992007993,
              "velocity": 39
            },
            {
              "pitch": 53,
              "time": 64.50000910547786,
              "duration": 0.24788882992007993,
              "velocity": 39
            },
            {
              "pitch": 53,
              "time": 67.0000202922078,
              "duration": 0.24788909007659007,
              "velocity": 39
            },
            {
              "pitch": 53,
              "time": 68.49997502497503,
              "duration": 0.24794112137862137,
              "velocity": 39
            },
            {
              "pitch": 53,
              "time": 70.99998647186148,
              "duration": 0.24794086122211123,
              "velocity": 39
            },
            {
              "pitch": 53,
              "time": 72.49999323593073,
              "duration": 0.24794112137862137,
              "velocity": 39
            },
            {
              "pitch": 53,
              "time": 75.00000442266067,
              "duration": 0.24788909007659007,
              "velocity": 39
            },
            {
              "pitch": 53,
              "time": 76.50001144688645,
              "duration": 0.24788882992007993,
              "velocity": 39
            },
            {
              "pitch": 53,
              "time": 79.00002263361638,
              "duration": 0.24788882992007993,
              "velocity": 39
            },
            {
              "pitch": 53,
              "time": 80.49997736638362,
              "duration": 0.24794112137862137,
              "velocity": 39
            },
            {
              "pitch": 53,
              "time": 82.99998855311355,
              "duration": 0.24794112137862137,
              "velocity": 39
            },
            {
              "pitch": 53,
              "time": 84.49999557733933,
              "duration": 0.24794086122211123,
              "velocity": 39
            },
            {
              "pitch": 53,
              "time": 87.00000676406927,
              "duration": 0.24788882992007993,
              "velocity": 39
            },
            {
              "pitch": 53,
              "time": 88.50001352813852,
              "duration": 0.24788909007659007,
              "velocity": 39
            },
            {
              "pitch": 53,
              "time": 91.00002497502497,
              "duration": 0.24788882992007993,
              "velocity": 39
            },
            {
              "pitch": 53,
              "time": 92.4999797077922,
              "duration": 0.24794086122211123,
              "velocity": 39
            },
            {
              "pitch": 53,
              "time": 94.99999089452214,
              "duration": 0.24794112137862137,
              "velocity": 39
            },
            {
              "pitch": 53,
              "time": 96.49999765859141,
              "duration": 0.24794112137862137,
              "velocity": 39
            },
            {
              "pitch": 53,
              "time": 99.00000910547786,
              "duration": 0.24788882992007993,
              "velocity": 39
            },
            {
              "pitch": 53,
              "time": 100.50001586954711,
              "duration": 0.24788882992007993,
              "velocity": 39
            },
            {
              "pitch": 53,
              "time": 102.99997502497503,
              "duration": 0.24794112137862137,
              "velocity": 39
            },
            {
              "pitch": 53,
              "time": 104.49998178904428,
              "duration": 0.24794112137862137,
              "velocity": 39
            },
            {
              "pitch": 53,
              "time": 106.99999323593073,
              "duration": 0.24794112137862137,
              "velocity": 39
            },
            {
              "pitch": 53,
              "time": 108.5,
              "duration": 0.24794112137862137,
              "velocity": 39
            },
            {
              "pitch": 53,
              "time": 111.00001144688645,
              "duration": 0.24788882992007993,
              "velocity": 39
            },
            {
              "pitch": 53,
              "time": 112.50001821095572,
              "duration": 0.24788882992007993,
              "velocity": 39
            },
            {
              "pitch": 53,
              "time": 114.99997736638362,
              "duration": 0.24794112137862137,
              "velocity": 39
            },
            {
              "pitch": 53,
              "time": 116.49998413045289,
              "duration": 0.24794112137862137,
              "velocity": 39
            },
            {
              "pitch": 53,
              "time": 118.99999557733933,
              "duration": 0.24794086122211123,
              "velocity": 39
            },
            {
              "pitch": 53,
              "time": 120.50000234140859,
              "duration": 0.24788882992007993,
              "velocity": 39
            },
            {
              "pitch": 53,
              "time": 123.00001352813852,
              "duration": 0.24788909007659007,
              "velocity": 39
            },
            {
              "pitch": 53,
              "time": 124.5000202922078,
              "duration": 0.24788909007659007,
              "velocity": 39
            },
            {
              "pitch": 53,
              "time": 126.9999797077922,
              "duration": 0.24794086122211123,
              "velocity": 39
            },
            {
              "pitch": 56,
              "time": 0.999981789044289,
              "duration": 0.24794112137862137,
              "velocity": 64
            },
            {
              "pitch": 56,
              "time": 2.4999885531135533,
              "duration": 0.24794112137862137,
              "velocity": 64
            },
            {
              "pitch": 56,
              "time": 5,
              "duration": 0.24794112137862137,
              "velocity": 64
            },
            {
              "pitch": 56,
              "time": 6.500006764069264,
              "duration": 0.24788882992007993,
              "velocity": 64
            },
            {
              "pitch": 56,
              "time": 9.00001821095571,
              "duration": 0.24788882992007993,
              "velocity": 64
            },
            {
              "pitch": 56,
              "time": 10.500024975024974,
              "duration": 0.24788882992007993,
              "velocity": 64
            },
            {
              "pitch": 56,
              "time": 12.99998413045288,
              "duration": 0.24794112137862137,
              "velocity": 64
            },
            {
              "pitch": 56,
              "time": 14.499990894522144,
              "duration": 0.24794112137862137,
              "velocity": 64
            },
            {
              "pitch": 56,
              "time": 17.000002341408592,
              "duration": 0.24788882992007993,
              "velocity": 64
            },
            {
              "pitch": 56,
              "time": 18.500009105477854,
              "duration": 0.24788882992007993,
              "velocity": 64
            },
            {
              "pitch": 56,
              "time": 21.000020292207793,
              "duration": 0.24788909007659007,
              "velocity": 64
            },
            {
              "pitch": 56,
              "time": 22.499975024975026,
              "duration": 0.24794112137862137,
              "velocity": 64
            },
            {
              "pitch": 56,
              "time": 24.999986471861472,
              "duration": 0.24794086122211123,
              "velocity": 64
            },
            {
              "pitch": 56,
              "time": 26.499993235930734,
              "duration": 0.24794112137862137,
              "velocity": 64
            },
            {
              "pitch": 56,
              "time": 29.000004422660673,
              "duration": 0.24788909007659007,
              "velocity": 64
            },
            {
              "pitch": 56,
              "time": 30.500011446886447,
              "duration": 0.24788882992007993,
              "velocity": 64
            },
            {
              "pitch": 56,
              "time": 33.00002263361638,
              "duration": 0.24788882992007993,
              "velocity": 64
            },
            {
              "pitch": 56,
              "time": 34.49997736638362,
              "duration": 0.24794112137862137,
              "velocity": 64
            },
            {
              "pitch": 56,
              "time": 36.99998855311355,
              "duration": 0.24794112137862137,
              "velocity": 64
            },
            {
              "pitch": 56,
              "time": 38.49999557733933,
              "duration": 0.24794086122211123,
              "velocity": 64
            },
            {
              "pitch": 56,
              "time": 41.00000676406926,
              "duration": 0.24788882992007993,
              "velocity": 64
            },
            {
              "pitch": 56,
              "time": 42.50001352813853,
              "duration": 0.24788909007659007,
              "velocity": 64
            },
            {
              "pitch": 56,
              "time": 45.00002497502498,
              "duration": 0.24788882992007993,
              "velocity": 64
            },
            {
              "pitch": 56,
              "time": 46.49997970779221,
              "duration": 0.24794086122211123,
              "velocity": 64
            },
            {
              "pitch": 56,
              "time": 48.99999089452214,
              "duration": 0.24794112137862137,
              "velocity": 64
            },
            {
              "pitch": 56,
              "time": 50.49999765859141,
              "duration": 0.24794112137862137,
              "velocity": 64
            },
            {
              "pitch": 56,
              "time": 53.00000910547786,
              "duration": 0.24788882992007993,
              "velocity": 64
            },
            {
              "pitch": 56,
              "time": 54.50001586954712,
              "duration": 0.24788882992007993,
              "velocity": 64
            },
            {
              "pitch": 56,
              "time": 56.99997502497502,
              "duration": 0.24794112137862137,
              "velocity": 64
            },
            {
              "pitch": 56,
              "time": 58.49998178904429,
              "duration": 0.24794112137862137,
              "velocity": 64
            },
            {
              "pitch": 56,
              "time": 60.99999323593074,
              "duration": 0.24794112137862137,
              "velocity": 64
            },
            {
              "pitch": 56,
              "time": 62.5,
              "duration": 0.24794112137862137,
              "velocity": 64
            },
            {
              "pitch": 56,
              "time": 65.00001144688645,
              "duration": 0.24788882992007993,
              "velocity": 64
            },
            {
              "pitch": 56,
              "time": 66.50001821095572,
              "duration": 0.24788882992007993,
              "velocity": 64
            },
            {
              "pitch": 56,
              "time": 68.99997736638362,
              "duration": 0.24794112137862137,
              "velocity": 64
            },
            {
              "pitch": 56,
              "time": 70.49998413045289,
              "duration": 0.24794112137862137,
              "velocity": 64
            },
            {
              "pitch": 56,
              "time": 72.99999557733933,
              "duration": 0.24794086122211123,
              "velocity": 64
            },
            {
              "pitch": 56,
              "time": 74.50000234140859,
              "duration": 0.24788882992007993,
              "velocity": 64
            },
            {
              "pitch": 56,
              "time": 77.00001352813852,
              "duration": 0.24788909007659007,
              "velocity": 64
            },
            {
              "pitch": 56,
              "time": 78.5000202922078,
              "duration": 0.24788909007659007,
              "velocity": 64
            },
            {
              "pitch": 56,
              "time": 80.9999797077922,
              "duration": 0.24794086122211123,
              "velocity": 64
            },
            {
              "pitch": 56,
              "time": 82.49998647186148,
              "duration": 0.24794086122211123,
              "velocity": 64
            },
            {
              "pitch": 56,
              "time": 84.99999765859141,
              "duration": 0.24794112137862137,
              "velocity": 64
            },
            {
              "pitch": 56,
              "time": 86.50000442266067,
              "duration": 0.24788909007659007,
              "velocity": 64
            },
            {
              "pitch": 56,
              "time": 89.00001586954711,
              "duration": 0.24788882992007993,
              "velocity": 64
            },
            {
              "pitch": 56,
              "time": 90.50002263361638,
              "duration": 0.24788882992007993,
              "velocity": 64
            },
            {
              "pitch": 56,
              "time": 92.99998178904428,
              "duration": 0.24794112137862137,
              "velocity": 64
            },
            {
              "pitch": 56,
              "time": 94.49998855311355,
              "duration": 0.24794112137862137,
              "velocity": 64
            },
            {
              "pitch": 56,
              "time": 97,
              "duration": 0.24794112137862137,
              "velocity": 64
            },
            {
              "pitch": 56,
              "time": 98.50000676406927,
              "duration": 0.24788882992007993,
              "velocity": 64
            },
            {
              "pitch": 56,
              "time": 101.00001821095572,
              "duration": 0.24788882992007993,
              "velocity": 64
            },
            {
              "pitch": 56,
              "time": 102.50002497502497,
              "duration": 0.24788882992007993,
              "velocity": 64
            },
            {
              "pitch": 56,
              "time": 104.99998413045289,
              "duration": 0.24794112137862137,
              "velocity": 64
            },
            {
              "pitch": 56,
              "time": 106.49999089452214,
              "duration": 0.24794112137862137,
              "velocity": 64
            },
            {
              "pitch": 56,
              "time": 109.00000234140859,
              "duration": 0.24788882992007993,
              "velocity": 64
            },
            {
              "pitch": 56,
              "time": 110.50000910547786,
              "duration": 0.24788882992007993,
              "velocity": 64
            },
            {
              "pitch": 56,
              "time": 113.0000202922078,
              "duration": 0.24788909007659007,
              "velocity": 64
            },
            {
              "pitch": 56,
              "time": 114.49997502497503,
              "duration": 0.24794112137862137,
              "velocity": 64
            },
            {
              "pitch": 56,
              "time": 116.99998647186148,
              "duration": 0.24794086122211123,
              "velocity": 64
            },
            {
              "pitch": 56,
              "time": 118.49999323593073,
              "duration": 0.24794112137862137,
              "velocity": 64
            },
            {
              "pitch": 56,
              "time": 121.00000442266067,
              "duration": 0.24788909007659007,
              "velocity": 64
            },
            {
              "pitch": 56,
              "time": 122.50001144688645,
              "duration": 0.24788882992007993,
              "velocity": 64
            },
            {
              "pitch": 56,
              "time": 125.00002263361638,
              "duration": 0.24788882992007993,
              "velocity": 64
            },
            {
              "pitch": 56,
              "time": 126.49997736638362,
              "duration": 0.24794112137862137,
              "velocity": 64
            },
            {
              "pitch": 81,
              "time": 1.4999841304528805,
              "duration": 0.24794112137862137,
              "velocity": 3
            }
          ],
          "gainInfo": 1,
          "contentSummary": "midi clip, 0.2 bars, 254 notes",
          "clipColor": 10,
          "name": "ARP 2600 V3 3"
        },
        {
          "id": "track_midi_33_10_clip_12",
          "trackId": "track_midi_33_10",
          "clipType": "midi",
          "start": 704,
          "end": 752,
          "loop": false,
          "sourceRef": null,
          "midiNoteCount": 254,
          "midiNotes": [
            {
              "pitch": 41,
              "time": 2.9999908945221447,
              "duration": 0.24794112137862137,
              "velocity": 39
            },
            {
              "pitch": 41,
              "time": 4.4999976585914085,
              "duration": 0.24794112137862137,
              "velocity": 39
            },
            {
              "pitch": 41,
              "time": 7.000009105477855,
              "duration": 0.24788882992007993,
              "velocity": 39
            },
            {
              "pitch": 41,
              "time": 8.50001586954712,
              "duration": 0.24788882992007993,
              "velocity": 39
            },
            {
              "pitch": 41,
              "time": 10.999975024975026,
              "duration": 0.24794112137862137,
              "velocity": 39
            },
            {
              "pitch": 41,
              "time": 12.49998178904429,
              "duration": 0.24794112137862137,
              "velocity": 39
            },
            {
              "pitch": 41,
              "time": 14.999993235930736,
              "duration": 0.24794112137862137,
              "velocity": 39
            },
            {
              "pitch": 41,
              "time": 16.5,
              "duration": 0.24794112137862137,
              "velocity": 39
            },
            {
              "pitch": 41,
              "time": 19.000011446886447,
              "duration": 0.24788882992007993,
              "velocity": 39
            },
            {
              "pitch": 41,
              "time": 20.500018210955712,
              "duration": 0.24788882992007993,
              "velocity": 39
            },
            {
              "pitch": 41,
              "time": 22.999977366383618,
              "duration": 0.24794112137862137,
              "velocity": 39
            },
            {
              "pitch": 41,
              "time": 24.49998413045288,
              "duration": 0.24794112137862137,
              "velocity": 39
            },
            {
              "pitch": 41,
              "time": 26.999995577339327,
              "duration": 0.24794086122211123,
              "velocity": 39
            },
            {
              "pitch": 41,
              "time": 28.500002341408592,
              "duration": 0.24788882992007993,
              "velocity": 39
            },
            {
              "pitch": 41,
              "time": 31.000013528138528,
              "duration": 0.24788909007659007,
              "velocity": 39
            },
            {
              "pitch": 41,
              "time": 32.50002029220779,
              "duration": 0.24788909007659007,
              "velocity": 39
            },
            {
              "pitch": 41,
              "time": 34.99997970779221,
              "duration": 0.24794086122211123,
              "velocity": 39
            },
            {
              "pitch": 41,
              "time": 36.49998647186147,
              "duration": 0.24794086122211123,
              "velocity": 39
            },
            {
              "pitch": 41,
              "time": 38.99999765859141,
              "duration": 0.24794112137862137,
              "velocity": 39
            },
            {
              "pitch": 41,
              "time": 40.50000442266067,
              "duration": 0.24788909007659007,
              "velocity": 39
            },
            {
              "pitch": 41,
              "time": 43.00001586954712,
              "duration": 0.24788882992007993,
              "velocity": 39
            },
            {
              "pitch": 41,
              "time": 44.50002263361638,
              "duration": 0.24788882992007993,
              "velocity": 39
            },
            {
              "pitch": 41,
              "time": 46.99998178904429,
              "duration": 0.24794112137862137,
              "velocity": 39
            },
            {
              "pitch": 41,
              "time": 48.49998855311355,
              "duration": 0.24794112137862137,
              "velocity": 39
            },
            {
              "pitch": 41,
              "time": 51,
              "duration": 0.24794112137862137,
              "velocity": 39
            },
            {
              "pitch": 41,
              "time": 52.50000676406926,
              "duration": 0.24788882992007993,
              "velocity": 39
            },
            {
              "pitch": 41,
              "time": 55.00001821095571,
              "duration": 0.24788882992007993,
              "velocity": 39
            },
            {
              "pitch": 41,
              "time": 56.50002497502498,
              "duration": 0.24788882992007993,
              "velocity": 39
            },
            {
              "pitch": 41,
              "time": 58.99998413045288,
              "duration": 0.24794112137862137,
              "velocity": 39
            },
            {
              "pitch": 41,
              "time": 60.49999089452214,
              "duration": 0.24794112137862137,
              "velocity": 39
            },
            {
              "pitch": 41,
              "time": 63.00000234140859,
              "duration": 0.24788882992007993,
              "velocity": 39
            },
            {
              "pitch": 41,
              "time": 64.50000910547786,
              "duration": 0.24788882992007993,
              "velocity": 39
            },
            {
              "pitch": 41,
              "time": 67.0000202922078,
              "duration": 0.24788909007659007,
              "velocity": 39
            },
            {
              "pitch": 41,
              "time": 68.49997502497503,
              "duration": 0.24794112137862137,
              "velocity": 39
            },
            {
              "pitch": 41,
              "time": 70.99998647186148,
              "duration": 0.24794086122211123,
              "velocity": 39
            },
            {
              "pitch": 41,
              "time": 72.49999323593073,
              "duration": 0.24794112137862137,
              "velocity": 39
            },
            {
              "pitch": 41,
              "time": 75.00000442266067,
              "duration": 0.24788909007659007,
              "velocity": 39
            },
            {
              "pitch": 41,
              "time": 76.50001144688645,
              "duration": 0.24788882992007993,
              "velocity": 39
            },
            {
              "pitch": 41,
              "time": 79.00002263361638,
              "duration": 0.24788882992007993,
              "velocity": 39
            },
            {
              "pitch": 41,
              "time": 80.49997736638362,
              "duration": 0.24794112137862137,
              "velocity": 39
            },
            {
              "pitch": 41,
              "time": 82.99998855311355,
              "duration": 0.24794112137862137,
              "velocity": 39
            },
            {
              "pitch": 41,
              "time": 84.49999557733933,
              "duration": 0.24794086122211123,
              "velocity": 39
            },
            {
              "pitch": 41,
              "time": 87.00000676406927,
              "duration": 0.24788882992007993,
              "velocity": 39
            },
            {
              "pitch": 41,
              "time": 88.50001352813852,
              "duration": 0.24788909007659007,
              "velocity": 39
            },
            {
              "pitch": 41,
              "time": 91.00002497502497,
              "duration": 0.24788882992007993,
              "velocity": 39
            },
            {
              "pitch": 41,
              "time": 92.4999797077922,
              "duration": 0.24794086122211123,
              "velocity": 39
            },
            {
              "pitch": 41,
              "time": 94.99999089452214,
              "duration": 0.24794112137862137,
              "velocity": 39
            },
            {
              "pitch": 41,
              "time": 96.49999765859141,
              "duration": 0.24794112137862137,
              "velocity": 39
            },
            {
              "pitch": 41,
              "time": 99.00000910547786,
              "duration": 0.24788882992007993,
              "velocity": 39
            },
            {
              "pitch": 41,
              "time": 100.50001586954711,
              "duration": 0.24788882992007993,
              "velocity": 39
            },
            {
              "pitch": 41,
              "time": 102.99997502497503,
              "duration": 0.24794112137862137,
              "velocity": 39
            },
            {
              "pitch": 41,
              "time": 104.49998178904428,
              "duration": 0.24794112137862137,
              "velocity": 39
            },
            {
              "pitch": 41,
              "time": 106.99999323593073,
              "duration": 0.24794112137862137,
              "velocity": 39
            },
            {
              "pitch": 41,
              "time": 108.5,
              "duration": 0.24794112137862137,
              "velocity": 39
            },
            {
              "pitch": 41,
              "time": 111.00001144688645,
              "duration": 0.24788882992007993,
              "velocity": 39
            },
            {
              "pitch": 41,
              "time": 112.50001821095572,
              "duration": 0.24788882992007993,
              "velocity": 39
            },
            {
              "pitch": 41,
              "time": 114.99997736638362,
              "duration": 0.24794112137862137,
              "velocity": 39
            },
            {
              "pitch": 41,
              "time": 116.49998413045289,
              "duration": 0.24794112137862137,
              "velocity": 39
            },
            {
              "pitch": 41,
              "time": 118.99999557733933,
              "duration": 0.24794086122211123,
              "velocity": 39
            },
            {
              "pitch": 41,
              "time": 120.50000234140859,
              "duration": 0.24788882992007993,
              "velocity": 39
            },
            {
              "pitch": 41,
              "time": 123.00001352813852,
              "duration": 0.24788909007659007,
              "velocity": 39
            },
            {
              "pitch": 41,
              "time": 124.5000202922078,
              "duration": 0.24788909007659007,
              "velocity": 39
            },
            {
              "pitch": 41,
              "time": 126.9999797077922,
              "duration": 0.24794086122211123,
              "velocity": 39
            },
            {
              "pitch": 44,
              "time": 0.999981789044289,
              "duration": 0.24794112137862137,
              "velocity": 64
            },
            {
              "pitch": 44,
              "time": 2.4999885531135533,
              "duration": 0.24794112137862137,
              "velocity": 64
            },
            {
              "pitch": 44,
              "time": 5,
              "duration": 0.24794112137862137,
              "velocity": 64
            },
            {
              "pitch": 44,
              "time": 6.500006764069264,
              "duration": 0.24788882992007993,
              "velocity": 64
            },
            {
              "pitch": 44,
              "time": 9.00001821095571,
              "duration": 0.24788882992007993,
              "velocity": 64
            },
            {
              "pitch": 44,
              "time": 10.500024975024974,
              "duration": 0.24788882992007993,
              "velocity": 64
            },
            {
              "pitch": 44,
              "time": 12.99998413045288,
              "duration": 0.24794112137862137,
              "velocity": 64
            },
            {
              "pitch": 44,
              "time": 14.499990894522144,
              "duration": 0.24794112137862137,
              "velocity": 64
            },
            {
              "pitch": 44,
              "time": 17.000002341408592,
              "duration": 0.24788882992007993,
              "velocity": 64
            },
            {
              "pitch": 44,
              "time": 18.500009105477854,
              "duration": 0.24788882992007993,
              "velocity": 64
            },
            {
              "pitch": 44,
              "time": 21.000020292207793,
              "duration": 0.24788909007659007,
              "velocity": 64
            },
            {
              "pitch": 44,
              "time": 22.499975024975026,
              "duration": 0.24794112137862137,
              "velocity": 64
            },
            {
              "pitch": 44,
              "time": 24.999986471861472,
              "duration": 0.24794086122211123,
              "velocity": 64
            },
            {
              "pitch": 44,
              "time": 26.499993235930734,
              "duration": 0.24794112137862137,
              "velocity": 64
            },
            {
              "pitch": 44,
              "time": 29.000004422660673,
              "duration": 0.24788909007659007,
              "velocity": 64
            },
            {
              "pitch": 44,
              "time": 30.500011446886447,
              "duration": 0.24788882992007993,
              "velocity": 64
            },
            {
              "pitch": 44,
              "time": 33.00002263361638,
              "duration": 0.24788882992007993,
              "velocity": 64
            },
            {
              "pitch": 44,
              "time": 34.49997736638362,
              "duration": 0.24794112137862137,
              "velocity": 64
            },
            {
              "pitch": 44,
              "time": 36.99998855311355,
              "duration": 0.24794112137862137,
              "velocity": 64
            },
            {
              "pitch": 44,
              "time": 38.49999557733933,
              "duration": 0.24794086122211123,
              "velocity": 64
            },
            {
              "pitch": 44,
              "time": 41.00000676406926,
              "duration": 0.24788882992007993,
              "velocity": 64
            },
            {
              "pitch": 44,
              "time": 42.50001352813853,
              "duration": 0.24788909007659007,
              "velocity": 64
            },
            {
              "pitch": 44,
              "time": 45.00002497502498,
              "duration": 0.24788882992007993,
              "velocity": 64
            },
            {
              "pitch": 44,
              "time": 46.49997970779221,
              "duration": 0.24794086122211123,
              "velocity": 64
            },
            {
              "pitch": 44,
              "time": 48.99999089452214,
              "duration": 0.24794112137862137,
              "velocity": 64
            },
            {
              "pitch": 44,
              "time": 50.49999765859141,
              "duration": 0.24794112137862137,
              "velocity": 64
            },
            {
              "pitch": 44,
              "time": 53.00000910547786,
              "duration": 0.24788882992007993,
              "velocity": 64
            },
            {
              "pitch": 44,
              "time": 54.50001586954712,
              "duration": 0.24788882992007993,
              "velocity": 64
            },
            {
              "pitch": 44,
              "time": 56.99997502497502,
              "duration": 0.24794112137862137,
              "velocity": 64
            },
            {
              "pitch": 44,
              "time": 58.49998178904429,
              "duration": 0.24794112137862137,
              "velocity": 64
            },
            {
              "pitch": 44,
              "time": 60.99999323593074,
              "duration": 0.24794112137862137,
              "velocity": 64
            },
            {
              "pitch": 44,
              "time": 62.5,
              "duration": 0.24794112137862137,
              "velocity": 64
            },
            {
              "pitch": 44,
              "time": 65.00001144688645,
              "duration": 0.24788882992007993,
              "velocity": 64
            },
            {
              "pitch": 44,
              "time": 66.50001821095572,
              "duration": 0.24788882992007993,
              "velocity": 64
            },
            {
              "pitch": 44,
              "time": 68.99997736638362,
              "duration": 0.24794112137862137,
              "velocity": 64
            },
            {
              "pitch": 44,
              "time": 70.49998413045289,
              "duration": 0.24794112137862137,
              "velocity": 64
            },
            {
              "pitch": 44,
              "time": 72.99999557733933,
              "duration": 0.24794086122211123,
              "velocity": 64
            },
            {
              "pitch": 44,
              "time": 74.50000234140859,
              "duration": 0.24788882992007993,
              "velocity": 64
            },
            {
              "pitch": 44,
              "time": 77.00001352813852,
              "duration": 0.24788909007659007,
              "velocity": 64
            },
            {
              "pitch": 44,
              "time": 78.5000202922078,
              "duration": 0.24788909007659007,
              "velocity": 64
            },
            {
              "pitch": 44,
              "time": 80.9999797077922,
              "duration": 0.24794086122211123,
              "velocity": 64
            },
            {
              "pitch": 44,
              "time": 82.49998647186148,
              "duration": 0.24794086122211123,
              "velocity": 64
            },
            {
              "pitch": 44,
              "time": 84.99999765859141,
              "duration": 0.24794112137862137,
              "velocity": 64
            },
            {
              "pitch": 44,
              "time": 86.50000442266067,
              "duration": 0.24788909007659007,
              "velocity": 64
            },
            {
              "pitch": 44,
              "time": 89.00001586954711,
              "duration": 0.24788882992007993,
              "velocity": 64
            },
            {
              "pitch": 44,
              "time": 90.50002263361638,
              "duration": 0.24788882992007993,
              "velocity": 64
            },
            {
              "pitch": 44,
              "time": 92.99998178904428,
              "duration": 0.24794112137862137,
              "velocity": 64
            },
            {
              "pitch": 44,
              "time": 94.49998855311355,
              "duration": 0.24794112137862137,
              "velocity": 64
            },
            {
              "pitch": 44,
              "time": 97,
              "duration": 0.24794112137862137,
              "velocity": 64
            },
            {
              "pitch": 44,
              "time": 98.50000676406927,
              "duration": 0.24788882992007993,
              "velocity": 64
            },
            {
              "pitch": 44,
              "time": 101.00001821095572,
              "duration": 0.24788882992007993,
              "velocity": 64
            },
            {
              "pitch": 44,
              "time": 102.50002497502497,
              "duration": 0.24788882992007993,
              "velocity": 64
            },
            {
              "pitch": 44,
              "time": 104.99998413045289,
              "duration": 0.24794112137862137,
              "velocity": 64
            },
            {
              "pitch": 44,
              "time": 106.49999089452214,
              "duration": 0.24794112137862137,
              "velocity": 64
            },
            {
              "pitch": 44,
              "time": 109.00000234140859,
              "duration": 0.24788882992007993,
              "velocity": 64
            },
            {
              "pitch": 44,
              "time": 110.50000910547786,
              "duration": 0.24788882992007993,
              "velocity": 64
            },
            {
              "pitch": 44,
              "time": 113.0000202922078,
              "duration": 0.24788909007659007,
              "velocity": 64
            },
            {
              "pitch": 44,
              "time": 114.49997502497503,
              "duration": 0.24794112137862137,
              "velocity": 64
            },
            {
              "pitch": 44,
              "time": 116.99998647186148,
              "duration": 0.24794086122211123,
              "velocity": 64
            },
            {
              "pitch": 44,
              "time": 118.49999323593073,
              "duration": 0.24794112137862137,
              "velocity": 64
            },
            {
              "pitch": 44,
              "time": 121.00000442266067,
              "duration": 0.24788909007659007,
              "velocity": 64
            },
            {
              "pitch": 44,
              "time": 122.50001144688645,
              "duration": 0.24788882992007993,
              "velocity": 64
            },
            {
              "pitch": 44,
              "time": 125.00002263361638,
              "duration": 0.24788882992007993,
              "velocity": 64
            },
            {
              "pitch": 44,
              "time": 126.49997736638362,
              "duration": 0.24794112137862137,
              "velocity": 64
            },
            {
              "pitch": 69,
              "time": 1.4999841304528805,
              "duration": 0.24794112137862137,
              "velocity": 3
            }
          ],
          "gainInfo": 1,
          "contentSummary": "midi clip, 12.0 bars, 254 notes",
          "clipColor": 10,
          "name": "ARP 2600 V3 3"
        }
      ],
      "automationLanes": [],
      "routing": {
        "audioInput": {
          "target": "AudioIn/External/S0",
          "upper": "Ext. In",
          "lower": "1/2"
        },
        "audioOutput": {
          "target": "AudioOut/Main",
          "upper": "Main",
          "lower": ""
        }
      },
      "warnings": []
    },
    {
      "id": "track_midi_24_11",
      "name": "Lead 2",
      "type": "midi",
      "parentGroupId": null,
      "orderIndex": 11,
      "muted": false,
      "solo": false,
      "frozen": false,
      "armed": false,
      "color": null,
      "inferredRole": "lead",
      "inferredConfidence": 0.95,
      "clipCount": 28,
      "deviceCount": 6,
      "automationPoints": 0,
      "devices": [
        {
          "id": "track_midi_24_11_dev_0",
          "deviceClass": "Drift",
          "pluginName": null,
          "enabled": true,
          "inferredPurpose": "synth",
          "parameters": {},
          "hasSidechainInput": false
        },
        {
          "id": "track_midi_24_11_dev_1",
          "deviceClass": "Roar",
          "pluginName": null,
          "enabled": true,
          "inferredPurpose": "effect",
          "parameters": {},
          "hasSidechainInput": false
        },
        {
          "id": "track_midi_24_11_dev_2",
          "deviceClass": "Delay",
          "pluginName": null,
          "enabled": true,
          "inferredPurpose": "delay",
          "parameters": {},
          "hasSidechainInput": false
        },
        {
          "id": "track_midi_24_11_dev_3",
          "deviceClass": "AudioEffectGroupDevice",
          "pluginName": null,
          "enabled": true,
          "inferredPurpose": "effect",
          "parameters": {},
          "hasSidechainInput": false
        },
        {
          "id": "track_midi_24_11_dev_4",
          "deviceClass": "Reverb",
          "pluginName": null,
          "enabled": true,
          "inferredPurpose": "reverb",
          "parameters": {},
          "hasSidechainInput": false
        },
        {
          "id": "track_midi_24_11_dev_5",
          "deviceClass": "AudioEffectGroupDevice",
          "pluginName": null,
          "enabled": true,
          "inferredPurpose": "effect",
          "parameters": {},
          "hasSidechainInput": false
        }
      ],
      "clips": [
        {
          "id": "track_midi_24_11_clip_0",
          "trackId": "track_midi_24_11",
          "clipType": "midi",
          "start": 112,
          "end": 144,
          "loop": true,
          "sourceRef": null,
          "midiNoteCount": 5,
          "midiNotes": [
            {
              "pitch": 65,
              "time": 2.1895120504495504,
              "duration": 0.25,
              "velocity": 100
            },
            {
              "pitch": 67,
              "time": 2.1895120504495504,
              "duration": 0.25,
              "velocity": 100
            },
            {
              "pitch": 72,
              "time": 2.1895120504495504,
              "duration": 0.25,
              "velocity": 100
            },
            {
              "pitch": 74,
              "time": 2.1895120504495504,
              "duration": 0.25,
              "velocity": 100
            },
            {
              "pitch": 75,
              "time": 2.1895120504495504,
              "duration": 0.25,
              "velocity": 100
            }
          ],
          "gainInfo": 1,
          "contentSummary": "midi clip, 8.0 bars, 5 notes",
          "clipColor": 43,
          "name": null
        },
        {
          "id": "track_midi_24_11_clip_1",
          "trackId": "track_midi_24_11",
          "clipType": "midi",
          "start": 144,
          "end": 176,
          "loop": true,
          "sourceRef": null,
          "midiNoteCount": 5,
          "midiNotes": [
            {
              "pitch": 65,
              "time": 2.1895120504495504,
              "duration": 0.25,
              "velocity": 100
            },
            {
              "pitch": 67,
              "time": 2.1895120504495504,
              "duration": 0.25,
              "velocity": 100
            },
            {
              "pitch": 72,
              "time": 2.1895120504495504,
              "duration": 0.25,
              "velocity": 100
            },
            {
              "pitch": 74,
              "time": 2.1895120504495504,
              "duration": 0.25,
              "velocity": 100
            },
            {
              "pitch": 75,
              "time": 2.1895120504495504,
              "duration": 0.25,
              "velocity": 100
            }
          ],
          "gainInfo": 1,
          "contentSummary": "midi clip, 8.0 bars, 5 notes",
          "clipColor": 43,
          "name": null
        },
        {
          "id": "track_midi_24_11_clip_2",
          "trackId": "track_midi_24_11",
          "clipType": "midi",
          "start": 176,
          "end": 208,
          "loop": true,
          "sourceRef": null,
          "midiNoteCount": 5,
          "midiNotes": [
            {
              "pitch": 65,
              "time": 2.1895120504495504,
              "duration": 0.25,
              "velocity": 100
            },
            {
              "pitch": 67,
              "time": 2.1895120504495504,
              "duration": 0.25,
              "velocity": 100
            },
            {
              "pitch": 72,
              "time": 2.1895120504495504,
              "duration": 0.25,
              "velocity": 100
            },
            {
              "pitch": 74,
              "time": 2.1895120504495504,
              "duration": 0.25,
              "velocity": 100
            },
            {
              "pitch": 75,
              "time": 2.1895120504495504,
              "duration": 0.25,
              "velocity": 100
            }
          ],
          "gainInfo": 1,
          "contentSummary": "midi clip, 8.0 bars, 5 notes",
          "clipColor": 43,
          "name": "mod"
        },
        {
          "id": "track_midi_24_11_clip_3",
          "trackId": "track_midi_24_11",
          "clipType": "midi",
          "start": 208,
          "end": 240,
          "loop": true,
          "sourceRef": null,
          "midiNoteCount": 5,
          "midiNotes": [
            {
              "pitch": 65,
              "time": 2.1895120504495504,
              "duration": 0.25,
              "velocity": 100
            },
            {
              "pitch": 67,
              "time": 2.1895120504495504,
              "duration": 0.25,
              "velocity": 100
            },
            {
              "pitch": 72,
              "time": 2.1895120504495504,
              "duration": 0.25,
              "velocity": 100
            },
            {
              "pitch": 74,
              "time": 2.1895120504495504,
              "duration": 0.25,
              "velocity": 100
            },
            {
              "pitch": 75,
              "time": 2.1895120504495504,
              "duration": 0.25,
              "velocity": 100
            }
          ],
          "gainInfo": 1,
          "contentSummary": "midi clip, 8.0 bars, 5 notes",
          "clipColor": 43,
          "name": "mod"
        },
        {
          "id": "track_midi_24_11_clip_4",
          "trackId": "track_midi_24_11",
          "clipType": "midi",
          "start": 240,
          "end": 243,
          "loop": true,
          "sourceRef": null,
          "midiNoteCount": 5,
          "midiNotes": [
            {
              "pitch": 65,
              "time": 2.1895120504495504,
              "duration": 0.25,
              "velocity": 100
            },
            {
              "pitch": 67,
              "time": 2.1895120504495504,
              "duration": 0.25,
              "velocity": 100
            },
            {
              "pitch": 72,
              "time": 2.1895120504495504,
              "duration": 0.25,
              "velocity": 100
            },
            {
              "pitch": 74,
              "time": 2.1895120504495504,
              "duration": 0.25,
              "velocity": 100
            },
            {
              "pitch": 75,
              "time": 2.1895120504495504,
              "duration": 0.25,
              "velocity": 100
            }
          ],
          "gainInfo": 1,
          "contentSummary": "midi clip, 0.8 bars, 5 notes",
          "clipColor": 43,
          "name": "mod"
        },
        {
          "id": "track_midi_24_11_clip_5",
          "trackId": "track_midi_24_11",
          "clipType": "midi",
          "start": 243,
          "end": 275,
          "loop": true,
          "sourceRef": null,
          "midiNoteCount": 10,
          "midiNotes": [
            {
              "pitch": 53,
              "time": 0.9395120504495504,
              "duration": 0.25,
              "velocity": 100
            },
            {
              "pitch": 55,
              "time": 0.9395120504495504,
              "duration": 0.25,
              "velocity": 100
            },
            {
              "pitch": 60,
              "time": 0.9395120504495504,
              "duration": 0.25,
              "velocity": 100
            },
            {
              "pitch": 62,
              "time": 0.9395120504495504,
              "duration": 0.25,
              "velocity": 100
            },
            {
              "pitch": 63,
              "time": 0.9395120504495504,
              "duration": 0.25,
              "velocity": 100
            },
            {
              "pitch": 65,
              "time": 2.1895120504495504,
              "duration": 0.25,
              "velocity": 100
            },
            {
              "pitch": 67,
              "time": 2.1895120504495504,
              "duration": 0.25,
              "velocity": 100
            },
            {
              "pitch": 72,
              "time": 2.1895120504495504,
              "duration": 0.25,
              "velocity": 100
            },
            {
              "pitch": 74,
              "time": 2.1895120504495504,
              "duration": 0.25,
              "velocity": 100
            },
            {
              "pitch": 75,
              "time": 2.1895120504495504,
              "duration": 0.25,
              "velocity": 100
            }
          ],
          "gainInfo": 1,
          "contentSummary": "midi clip, 8.0 bars, 10 notes",
          "clipColor": 43,
          "name": "mod"
        },
        {
          "id": "track_midi_24_11_clip_6",
          "trackId": "track_midi_24_11",
          "clipType": "midi",
          "start": 275,
          "end": 307,
          "loop": true,
          "sourceRef": null,
          "midiNoteCount": 10,
          "midiNotes": [
            {
              "pitch": 53,
              "time": 0.9395120504495504,
              "duration": 0.25,
              "velocity": 100
            },
            {
              "pitch": 55,
              "time": 0.9395120504495504,
              "duration": 0.25,
              "velocity": 100
            },
            {
              "pitch": 60,
              "time": 0.9395120504495504,
              "duration": 0.25,
              "velocity": 100
            },
            {
              "pitch": 62,
              "time": 0.9395120504495504,
              "duration": 0.25,
              "velocity": 100
            },
            {
              "pitch": 63,
              "time": 0.9395120504495504,
              "duration": 0.25,
              "velocity": 100
            },
            {
              "pitch": 65,
              "time": 2.1895120504495504,
              "duration": 0.25,
              "velocity": 100
            },
            {
              "pitch": 67,
              "time": 2.1895120504495504,
              "duration": 0.25,
              "velocity": 100
            },
            {
              "pitch": 72,
              "time": 2.1895120504495504,
              "duration": 0.25,
              "velocity": 100
            },
            {
              "pitch": 74,
              "time": 2.1895120504495504,
              "duration": 0.25,
              "velocity": 100
            },
            {
              "pitch": 75,
              "time": 2.1895120504495504,
              "duration": 0.25,
              "velocity": 100
            }
          ],
          "gainInfo": 1,
          "contentSummary": "midi clip, 8.0 bars, 10 notes",
          "clipColor": 43,
          "name": "mod"
        },
        {
          "id": "track_midi_24_11_clip_7",
          "trackId": "track_midi_24_11",
          "clipType": "midi",
          "start": 307,
          "end": 339,
          "loop": true,
          "sourceRef": null,
          "midiNoteCount": 10,
          "midiNotes": [
            {
              "pitch": 53,
              "time": 0.9395120504495504,
              "duration": 0.25,
              "velocity": 100
            },
            {
              "pitch": 55,
              "time": 0.9395120504495504,
              "duration": 0.25,
              "velocity": 100
            },
            {
              "pitch": 60,
              "time": 0.9395120504495504,
              "duration": 0.25,
              "velocity": 100
            },
            {
              "pitch": 62,
              "time": 0.9395120504495504,
              "duration": 0.25,
              "velocity": 100
            },
            {
              "pitch": 63,
              "time": 0.9395120504495504,
              "duration": 0.25,
              "velocity": 100
            },
            {
              "pitch": 65,
              "time": 2.1895120504495504,
              "duration": 0.25,
              "velocity": 100
            },
            {
              "pitch": 67,
              "time": 2.1895120504495504,
              "duration": 0.25,
              "velocity": 100
            },
            {
              "pitch": 72,
              "time": 2.1895120504495504,
              "duration": 0.25,
              "velocity": 100
            },
            {
              "pitch": 74,
              "time": 2.1895120504495504,
              "duration": 0.25,
              "velocity": 100
            },
            {
              "pitch": 75,
              "time": 2.1895120504495504,
              "duration": 0.25,
              "velocity": 100
            }
          ],
          "gainInfo": 1,
          "contentSummary": "midi clip, 8.0 bars, 10 notes",
          "clipColor": 43,
          "name": "mod"
        },
        {
          "id": "track_midi_24_11_clip_8",
          "trackId": "track_midi_24_11",
          "clipType": "midi",
          "start": 339,
          "end": 371,
          "loop": true,
          "sourceRef": null,
          "midiNoteCount": 10,
          "midiNotes": [
            {
              "pitch": 53,
              "time": 0.9395120504495504,
              "duration": 0.25,
              "velocity": 100
            },
            {
              "pitch": 55,
              "time": 0.9395120504495504,
              "duration": 0.25,
              "velocity": 100
            },
            {
              "pitch": 60,
              "time": 0.9395120504495504,
              "duration": 0.25,
              "velocity": 100
            },
            {
              "pitch": 62,
              "time": 0.9395120504495504,
              "duration": 0.25,
              "velocity": 100
            },
            {
              "pitch": 63,
              "time": 0.9395120504495504,
              "duration": 0.25,
              "velocity": 100
            },
            {
              "pitch": 65,
              "time": 2.1895120504495504,
              "duration": 0.25,
              "velocity": 100
            },
            {
              "pitch": 67,
              "time": 2.1895120504495504,
              "duration": 0.25,
              "velocity": 100
            },
            {
              "pitch": 72,
              "time": 2.1895120504495504,
              "duration": 0.25,
              "velocity": 100
            },
            {
              "pitch": 74,
              "time": 2.1895120504495504,
              "duration": 0.25,
              "velocity": 100
            },
            {
              "pitch": 75,
              "time": 2.1895120504495504,
              "duration": 0.25,
              "velocity": 100
            }
          ],
          "gainInfo": 1,
          "contentSummary": "midi clip, 8.0 bars, 10 notes",
          "clipColor": 43,
          "name": "mod"
        },
        {
          "id": "track_midi_24_11_clip_9",
          "trackId": "track_midi_24_11",
          "clipType": "midi",
          "start": 371,
          "end": 403,
          "loop": true,
          "sourceRef": null,
          "midiNoteCount": 10,
          "midiNotes": [
            {
              "pitch": 53,
              "time": 0.9395120504495504,
              "duration": 0.25,
              "velocity": 100
            },
            {
              "pitch": 55,
              "time": 0.9395120504495504,
              "duration": 0.25,
              "velocity": 100
            },
            {
              "pitch": 60,
              "time": 0.9395120504495504,
              "duration": 0.25,
              "velocity": 100
            },
            {
              "pitch": 62,
              "time": 0.9395120504495504,
              "duration": 0.25,
              "velocity": 100
            },
            {
              "pitch": 63,
              "time": 0.9395120504495504,
              "duration": 0.25,
              "velocity": 100
            },
            {
              "pitch": 65,
              "time": 2.1895120504495504,
              "duration": 0.25,
              "velocity": 100
            },
            {
              "pitch": 67,
              "time": 2.1895120504495504,
              "duration": 0.25,
              "velocity": 100
            },
            {
              "pitch": 72,
              "time": 2.1895120504495504,
              "duration": 0.25,
              "velocity": 100
            },
            {
              "pitch": 74,
              "time": 2.1895120504495504,
              "duration": 0.25,
              "velocity": 100
            },
            {
              "pitch": 75,
              "time": 2.1895120504495504,
              "duration": 0.25,
              "velocity": 100
            }
          ],
          "gainInfo": 1,
          "contentSummary": "midi clip, 8.0 bars, 10 notes",
          "clipColor": 43,
          "name": "mod"
        },
        {
          "id": "track_midi_24_11_clip_10",
          "trackId": "track_midi_24_11",
          "clipType": "midi",
          "start": 403,
          "end": 406,
          "loop": true,
          "sourceRef": null,
          "midiNoteCount": 10,
          "midiNotes": [
            {
              "pitch": 53,
              "time": 0.9395120504495504,
              "duration": 0.25,
              "velocity": 100
            },
            {
              "pitch": 55,
              "time": 0.9395120504495504,
              "duration": 0.25,
              "velocity": 100
            },
            {
              "pitch": 60,
              "time": 0.9395120504495504,
              "duration": 0.25,
              "velocity": 100
            },
            {
              "pitch": 62,
              "time": 0.9395120504495504,
              "duration": 0.25,
              "velocity": 100
            },
            {
              "pitch": 63,
              "time": 0.9395120504495504,
              "duration": 0.25,
              "velocity": 100
            },
            {
              "pitch": 65,
              "time": 2.1895120504495504,
              "duration": 0.25,
              "velocity": 100
            },
            {
              "pitch": 67,
              "time": 2.1895120504495504,
              "duration": 0.25,
              "velocity": 100
            },
            {
              "pitch": 72,
              "time": 2.1895120504495504,
              "duration": 0.25,
              "velocity": 100
            },
            {
              "pitch": 74,
              "time": 2.1895120504495504,
              "duration": 0.25,
              "velocity": 100
            },
            {
              "pitch": 75,
              "time": 2.1895120504495504,
              "duration": 0.25,
              "velocity": 100
            }
          ],
          "gainInfo": 1,
          "contentSummary": "midi clip, 0.8 bars, 10 notes",
          "clipColor": 43,
          "name": "mod"
        },
        {
          "id": "track_midi_24_11_clip_11",
          "trackId": "track_midi_24_11",
          "clipType": "midi",
          "start": 406,
          "end": 438,
          "loop": true,
          "sourceRef": null,
          "midiNoteCount": 10,
          "midiNotes": [
            {
              "pitch": 53,
              "time": 0.9395120504495504,
              "duration": 0.25,
              "velocity": 100
            },
            {
              "pitch": 55,
              "time": 0.9395120504495504,
              "duration": 0.25,
              "velocity": 100
            },
            {
              "pitch": 60,
              "time": 0.9395120504495504,
              "duration": 0.25,
              "velocity": 100
            },
            {
              "pitch": 62,
              "time": 0.9395120504495504,
              "duration": 0.25,
              "velocity": 100
            },
            {
              "pitch": 63,
              "time": 0.9395120504495504,
              "duration": 0.25,
              "velocity": 100
            },
            {
              "pitch": 65,
              "time": 2.1895120504495504,
              "duration": 0.25,
              "velocity": 100
            },
            {
              "pitch": 67,
              "time": 2.1895120504495504,
              "duration": 0.25,
              "velocity": 100
            },
            {
              "pitch": 72,
              "time": 2.1895120504495504,
              "duration": 0.25,
              "velocity": 100
            },
            {
              "pitch": 74,
              "time": 2.1895120504495504,
              "duration": 0.25,
              "velocity": 100
            },
            {
              "pitch": 75,
              "time": 2.1895120504495504,
              "duration": 0.25,
              "velocity": 100
            }
          ],
          "gainInfo": 1,
          "contentSummary": "midi clip, 8.0 bars, 10 notes",
          "clipColor": 43,
          "name": "mod"
        },
        {
          "id": "track_midi_24_11_clip_12",
          "trackId": "track_midi_24_11",
          "clipType": "midi",
          "start": 438,
          "end": 470,
          "loop": true,
          "sourceRef": null,
          "midiNoteCount": 10,
          "midiNotes": [
            {
              "pitch": 53,
              "time": 0.9395120504495504,
              "duration": 0.25,
              "velocity": 100
            },
            {
              "pitch": 55,
              "time": 0.9395120504495504,
              "duration": 0.25,
              "velocity": 100
            },
            {
              "pitch": 60,
              "time": 0.9395120504495504,
              "duration": 0.25,
              "velocity": 100
            },
            {
              "pitch": 62,
              "time": 0.9395120504495504,
              "duration": 0.25,
              "velocity": 100
            },
            {
              "pitch": 63,
              "time": 0.9395120504495504,
              "duration": 0.25,
              "velocity": 100
            },
            {
              "pitch": 65,
              "time": 2.1895120504495504,
              "duration": 0.25,
              "velocity": 100
            },
            {
              "pitch": 67,
              "time": 2.1895120504495504,
              "duration": 0.25,
              "velocity": 100
            },
            {
              "pitch": 72,
              "time": 2.1895120504495504,
              "duration": 0.25,
              "velocity": 100
            },
            {
              "pitch": 74,
              "time": 2.1895120504495504,
              "duration": 0.25,
              "velocity": 100
            },
            {
              "pitch": 75,
              "time": 2.1895120504495504,
              "duration": 0.25,
              "velocity": 100
            }
          ],
          "gainInfo": 1,
          "contentSummary": "midi clip, 8.0 bars, 10 notes",
          "clipColor": 43,
          "name": "mod"
        },
        {
          "id": "track_midi_24_11_clip_13",
          "trackId": "track_midi_24_11",
          "clipType": "midi",
          "start": 470,
          "end": 672,
          "loop": true,
          "sourceRef": null,
          "midiNoteCount": 5,
          "midiNotes": [
            {
              "pitch": 65,
              "time": 2.1895120504495504,
              "duration": 0.25,
              "velocity": 100
            },
            {
              "pitch": 67,
              "time": 2.1895120504495504,
              "duration": 0.25,
              "velocity": 100
            },
            {
              "pitch": 72,
              "time": 2.1895120504495504,
              "duration": 0.25,
              "velocity": 100
            },
            {
              "pitch": 74,
              "time": 2.1895120504495504,
              "duration": 0.25,
              "velocity": 100
            },
            {
              "pitch": 75,
              "time": 2.1895120504495504,
              "duration": 0.25,
              "velocity": 100
            }
          ],
          "gainInfo": 1,
          "contentSummary": "midi clip, 50.5 bars, 5 notes",
          "clipColor": 43,
          "name": null
        },
        {
          "id": "track_midi_24_11_clip_14",
          "trackId": "track_midi_24_11",
          "clipType": "midi",
          "start": 0,
          "end": 3,
          "loop": true,
          "sourceRef": null,
          "midiNoteCount": 5,
          "midiNotes": [
            {
              "pitch": 65,
              "time": 1.9395120504495504,
              "duration": 0.25,
              "velocity": 100
            },
            {
              "pitch": 67,
              "time": 1.9395120504495504,
              "duration": 0.25,
              "velocity": 100
            },
            {
              "pitch": 72,
              "time": 1.9395120504495504,
              "duration": 0.25,
              "velocity": 100
            },
            {
              "pitch": 74,
              "time": 1.9395120504495504,
              "duration": 0.25,
              "velocity": 100
            },
            {
              "pitch": 75,
              "time": 1.9395120504495504,
              "duration": 0.25,
              "velocity": 100
            }
          ],
          "gainInfo": 1,
          "contentSummary": "midi clip, 0.8 bars, 5 notes",
          "clipColor": 43,
          "name": null
        },
        {
          "id": "track_midi_24_11_clip_15",
          "trackId": "track_midi_24_11",
          "clipType": "midi",
          "start": 0,
          "end": 3,
          "loop": true,
          "sourceRef": null,
          "midiNoteCount": 5,
          "midiNotes": [
            {
              "pitch": 65,
              "time": 2.1895120504495504,
              "duration": 0.25,
              "velocity": 100
            },
            {
              "pitch": 67,
              "time": 2.1895120504495504,
              "duration": 0.25,
              "velocity": 100
            },
            {
              "pitch": 72,
              "time": 2.1895120504495504,
              "duration": 0.25,
              "velocity": 100
            },
            {
              "pitch": 74,
              "time": 2.1895120504495504,
              "duration": 0.25,
              "velocity": 100
            },
            {
              "pitch": 75,
              "time": 2.1895120504495504,
              "duration": 0.25,
              "velocity": 100
            }
          ],
          "gainInfo": 1,
          "contentSummary": "midi clip, 0.8 bars, 5 notes",
          "clipColor": 43,
          "name": null
        },
        {
          "id": "track_midi_24_11_clip_16",
          "trackId": "track_midi_24_11",
          "clipType": "midi",
          "start": 0,
          "end": 3,
          "loop": true,
          "sourceRef": null,
          "midiNoteCount": 5,
          "midiNotes": [
            {
              "pitch": 65,
              "time": 2.1895120504495504,
              "duration": 0.25,
              "velocity": 100
            },
            {
              "pitch": 67,
              "time": 2.1895120504495504,
              "duration": 0.25,
              "velocity": 100
            },
            {
              "pitch": 72,
              "time": 2.1895120504495504,
              "duration": 0.25,
              "velocity": 100
            },
            {
              "pitch": 74,
              "time": 2.1895120504495504,
              "duration": 0.25,
              "velocity": 100
            },
            {
              "pitch": 75,
              "time": 2.1895120504495504,
              "duration": 0.25,
              "velocity": 100
            }
          ],
          "gainInfo": 1,
          "contentSummary": "midi clip, 0.8 bars, 5 notes",
          "clipColor": 43,
          "name": null
        },
        {
          "id": "track_midi_24_11_clip_17",
          "trackId": "track_midi_24_11",
          "clipType": "midi",
          "start": 0,
          "end": 3,
          "loop": true,
          "sourceRef": null,
          "midiNoteCount": 5,
          "midiNotes": [
            {
              "pitch": 65,
              "time": 2.1895120504495504,
              "duration": 0.25,
              "velocity": 100
            },
            {
              "pitch": 67,
              "time": 2.1895120504495504,
              "duration": 0.25,
              "velocity": 100
            },
            {
              "pitch": 72,
              "time": 2.1895120504495504,
              "duration": 0.25,
              "velocity": 100
            },
            {
              "pitch": 74,
              "time": 2.1895120504495504,
              "duration": 0.25,
              "velocity": 100
            },
            {
              "pitch": 75,
              "time": 2.1895120504495504,
              "duration": 0.25,
              "velocity": 100
            }
          ],
          "gainInfo": 1,
          "contentSummary": "midi clip, 0.8 bars, 5 notes",
          "clipColor": 43,
          "name": "mod"
        },
        {
          "id": "track_midi_24_11_clip_18",
          "trackId": "track_midi_24_11",
          "clipType": "midi",
          "start": 0,
          "end": 3,
          "loop": true,
          "sourceRef": null,
          "midiNoteCount": 5,
          "midiNotes": [
            {
              "pitch": 65,
              "time": 2.1895120504495504,
              "duration": 0.25,
              "velocity": 100
            },
            {
              "pitch": 67,
              "time": 2.1895120504495504,
              "duration": 0.25,
              "velocity": 100
            },
            {
              "pitch": 72,
              "time": 2.1895120504495504,
              "duration": 0.25,
              "velocity": 100
            },
            {
              "pitch": 74,
              "time": 2.1895120504495504,
              "duration": 0.25,
              "velocity": 100
            },
            {
              "pitch": 75,
              "time": 2.1895120504495504,
              "duration": 0.25,
              "velocity": 100
            }
          ],
          "gainInfo": 1,
          "contentSummary": "midi clip, 0.8 bars, 5 notes",
          "clipColor": 43,
          "name": "mod"
        },
        {
          "id": "track_midi_24_11_clip_19",
          "trackId": "track_midi_24_11",
          "clipType": "midi",
          "start": 0,
          "end": 3,
          "loop": true,
          "sourceRef": null,
          "midiNoteCount": 5,
          "midiNotes": [
            {
              "pitch": 65,
              "time": 2.1895120504495504,
              "duration": 0.25,
              "velocity": 100
            },
            {
              "pitch": 67,
              "time": 2.1895120504495504,
              "duration": 0.25,
              "velocity": 100
            },
            {
              "pitch": 72,
              "time": 2.1895120504495504,
              "duration": 0.25,
              "velocity": 100
            },
            {
              "pitch": 74,
              "time": 2.1895120504495504,
              "duration": 0.25,
              "velocity": 100
            },
            {
              "pitch": 75,
              "time": 2.1895120504495504,
              "duration": 0.25,
              "velocity": 100
            }
          ],
          "gainInfo": 1,
          "contentSummary": "midi clip, 0.8 bars, 5 notes",
          "clipColor": 43,
          "name": "mod"
        },
        {
          "id": "track_midi_24_11_clip_20",
          "trackId": "track_midi_24_11",
          "clipType": "midi",
          "start": 0,
          "end": 3,
          "loop": true,
          "sourceRef": null,
          "midiNoteCount": 10,
          "midiNotes": [
            {
              "pitch": 53,
              "time": 0.9395120504495504,
              "duration": 0.25,
              "velocity": 100
            },
            {
              "pitch": 55,
              "time": 0.9395120504495504,
              "duration": 0.25,
              "velocity": 100
            },
            {
              "pitch": 60,
              "time": 0.9395120504495504,
              "duration": 0.25,
              "velocity": 100
            },
            {
              "pitch": 62,
              "time": 0.9395120504495504,
              "duration": 0.25,
              "velocity": 100
            },
            {
              "pitch": 63,
              "time": 0.9395120504495504,
              "duration": 0.25,
              "velocity": 100
            },
            {
              "pitch": 65,
              "time": 2.1895120504495504,
              "duration": 0.25,
              "velocity": 100
            },
            {
              "pitch": 67,
              "time": 2.1895120504495504,
              "duration": 0.25,
              "velocity": 100
            },
            {
              "pitch": 72,
              "time": 2.1895120504495504,
              "duration": 0.25,
              "velocity": 100
            },
            {
              "pitch": 74,
              "time": 2.1895120504495504,
              "duration": 0.25,
              "velocity": 100
            },
            {
              "pitch": 75,
              "time": 2.1895120504495504,
              "duration": 0.25,
              "velocity": 100
            }
          ],
          "gainInfo": 1,
          "contentSummary": "midi clip, 0.8 bars, 10 notes",
          "clipColor": 43,
          "name": "mod"
        },
        {
          "id": "track_midi_24_11_clip_21",
          "trackId": "track_midi_24_11",
          "clipType": "midi",
          "start": 0,
          "end": 3,
          "loop": true,
          "sourceRef": null,
          "midiNoteCount": 10,
          "midiNotes": [
            {
              "pitch": 53,
              "time": 0.9395120504495504,
              "duration": 0.25,
              "velocity": 100
            },
            {
              "pitch": 55,
              "time": 0.9395120504495504,
              "duration": 0.25,
              "velocity": 100
            },
            {
              "pitch": 60,
              "time": 0.9395120504495504,
              "duration": 0.25,
              "velocity": 100
            },
            {
              "pitch": 62,
              "time": 0.9395120504495504,
              "duration": 0.25,
              "velocity": 100
            },
            {
              "pitch": 63,
              "time": 0.9395120504495504,
              "duration": 0.25,
              "velocity": 100
            },
            {
              "pitch": 65,
              "time": 2.1895120504495504,
              "duration": 0.25,
              "velocity": 100
            },
            {
              "pitch": 67,
              "time": 2.1895120504495504,
              "duration": 0.25,
              "velocity": 100
            },
            {
              "pitch": 72,
              "time": 2.1895120504495504,
              "duration": 0.25,
              "velocity": 100
            },
            {
              "pitch": 74,
              "time": 2.1895120504495504,
              "duration": 0.25,
              "velocity": 100
            },
            {
              "pitch": 75,
              "time": 2.1895120504495504,
              "duration": 0.25,
              "velocity": 100
            }
          ],
          "gainInfo": 1,
          "contentSummary": "midi clip, 0.8 bars, 10 notes",
          "clipColor": 43,
          "name": "mod"
        },
        {
          "id": "track_midi_24_11_clip_22",
          "trackId": "track_midi_24_11",
          "clipType": "midi",
          "start": 0,
          "end": 3,
          "loop": true,
          "sourceRef": null,
          "midiNoteCount": 10,
          "midiNotes": [
            {
              "pitch": 53,
              "time": 0.9395120504495504,
              "duration": 0.25,
              "velocity": 100
            },
            {
              "pitch": 55,
              "time": 0.9395120504495504,
              "duration": 0.25,
              "velocity": 100
            },
            {
              "pitch": 60,
              "time": 0.9395120504495504,
              "duration": 0.25,
              "velocity": 100
            },
            {
              "pitch": 62,
              "time": 0.9395120504495504,
              "duration": 0.25,
              "velocity": 100
            },
            {
              "pitch": 63,
              "time": 0.9395120504495504,
              "duration": 0.25,
              "velocity": 100
            },
            {
              "pitch": 65,
              "time": 2.1895120504495504,
              "duration": 0.25,
              "velocity": 100
            },
            {
              "pitch": 67,
              "time": 2.1895120504495504,
              "duration": 0.25,
              "velocity": 100
            },
            {
              "pitch": 72,
              "time": 2.1895120504495504,
              "duration": 0.25,
              "velocity": 100
            },
            {
              "pitch": 74,
              "time": 2.1895120504495504,
              "duration": 0.25,
              "velocity": 100
            },
            {
              "pitch": 75,
              "time": 2.1895120504495504,
              "duration": 0.25,
              "velocity": 100
            }
          ],
          "gainInfo": 1,
          "contentSummary": "midi clip, 0.8 bars, 10 notes",
          "clipColor": 43,
          "name": "mod"
        },
        {
          "id": "track_midi_24_11_clip_23",
          "trackId": "track_midi_24_11",
          "clipType": "midi",
          "start": 0,
          "end": 3,
          "loop": true,
          "sourceRef": null,
          "midiNoteCount": 10,
          "midiNotes": [
            {
              "pitch": 53,
              "time": 0.9395120504495504,
              "duration": 0.25,
              "velocity": 100
            },
            {
              "pitch": 55,
              "time": 0.9395120504495504,
              "duration": 0.25,
              "velocity": 100
            },
            {
              "pitch": 60,
              "time": 0.9395120504495504,
              "duration": 0.25,
              "velocity": 100
            },
            {
              "pitch": 62,
              "time": 0.9395120504495504,
              "duration": 0.25,
              "velocity": 100
            },
            {
              "pitch": 63,
              "time": 0.9395120504495504,
              "duration": 0.25,
              "velocity": 100
            },
            {
              "pitch": 65,
              "time": 2.1895120504495504,
              "duration": 0.25,
              "velocity": 100
            },
            {
              "pitch": 67,
              "time": 2.1895120504495504,
              "duration": 0.25,
              "velocity": 100
            },
            {
              "pitch": 72,
              "time": 2.1895120504495504,
              "duration": 0.25,
              "velocity": 100
            },
            {
              "pitch": 74,
              "time": 2.1895120504495504,
              "duration": 0.25,
              "velocity": 100
            },
            {
              "pitch": 75,
              "time": 2.1895120504495504,
              "duration": 0.25,
              "velocity": 100
            }
          ],
          "gainInfo": 1,
          "contentSummary": "midi clip, 0.8 bars, 10 notes",
          "clipColor": 43,
          "name": "mod"
        },
        {
          "id": "track_midi_24_11_clip_24",
          "trackId": "track_midi_24_11",
          "clipType": "midi",
          "start": 0,
          "end": 3,
          "loop": true,
          "sourceRef": null,
          "midiNoteCount": 10,
          "midiNotes": [
            {
              "pitch": 53,
              "time": 0.9395120504495504,
              "duration": 0.25,
              "velocity": 100
            },
            {
              "pitch": 55,
              "time": 0.9395120504495504,
              "duration": 0.25,
              "velocity": 100
            },
            {
              "pitch": 60,
              "time": 0.9395120504495504,
              "duration": 0.25,
              "velocity": 100
            },
            {
              "pitch": 62,
              "time": 0.9395120504495504,
              "duration": 0.25,
              "velocity": 100
            },
            {
              "pitch": 63,
              "time": 0.9395120504495504,
              "duration": 0.25,
              "velocity": 100
            },
            {
              "pitch": 65,
              "time": 2.1895120504495504,
              "duration": 0.25,
              "velocity": 100
            },
            {
              "pitch": 67,
              "time": 2.1895120504495504,
              "duration": 0.25,
              "velocity": 100
            },
            {
              "pitch": 72,
              "time": 2.1895120504495504,
              "duration": 0.25,
              "velocity": 100
            },
            {
              "pitch": 74,
              "time": 2.1895120504495504,
              "duration": 0.25,
              "velocity": 100
            },
            {
              "pitch": 75,
              "time": 2.1895120504495504,
              "duration": 0.25,
              "velocity": 100
            }
          ],
          "gainInfo": 1,
          "contentSummary": "midi clip, 0.8 bars, 10 notes",
          "clipColor": 43,
          "name": "mod"
        },
        {
          "id": "track_midi_24_11_clip_25",
          "trackId": "track_midi_24_11",
          "clipType": "midi",
          "start": 0,
          "end": 3,
          "loop": true,
          "sourceRef": null,
          "midiNoteCount": 10,
          "midiNotes": [
            {
              "pitch": 53,
              "time": 0.9395120504495504,
              "duration": 0.25,
              "velocity": 100
            },
            {
              "pitch": 55,
              "time": 0.9395120504495504,
              "duration": 0.25,
              "velocity": 100
            },
            {
              "pitch": 60,
              "time": 0.9395120504495504,
              "duration": 0.25,
              "velocity": 100
            },
            {
              "pitch": 62,
              "time": 0.9395120504495504,
              "duration": 0.25,
              "velocity": 100
            },
            {
              "pitch": 63,
              "time": 0.9395120504495504,
              "duration": 0.25,
              "velocity": 100
            },
            {
              "pitch": 65,
              "time": 2.1895120504495504,
              "duration": 0.25,
              "velocity": 100
            },
            {
              "pitch": 67,
              "time": 2.1895120504495504,
              "duration": 0.25,
              "velocity": 100
            },
            {
              "pitch": 72,
              "time": 2.1895120504495504,
              "duration": 0.25,
              "velocity": 100
            },
            {
              "pitch": 74,
              "time": 2.1895120504495504,
              "duration": 0.25,
              "velocity": 100
            },
            {
              "pitch": 75,
              "time": 2.1895120504495504,
              "duration": 0.25,
              "velocity": 100
            }
          ],
          "gainInfo": 1,
          "contentSummary": "midi clip, 0.8 bars, 10 notes",
          "clipColor": 43,
          "name": "mod"
        },
        {
          "id": "track_midi_24_11_clip_26",
          "trackId": "track_midi_24_11",
          "clipType": "midi",
          "start": 0,
          "end": 3,
          "loop": true,
          "sourceRef": null,
          "midiNoteCount": 10,
          "midiNotes": [
            {
              "pitch": 53,
              "time": 0.9395120504495504,
              "duration": 0.25,
              "velocity": 100
            },
            {
              "pitch": 55,
              "time": 0.9395120504495504,
              "duration": 0.25,
              "velocity": 100
            },
            {
              "pitch": 60,
              "time": 0.9395120504495504,
              "duration": 0.25,
              "velocity": 100
            },
            {
              "pitch": 62,
              "time": 0.9395120504495504,
              "duration": 0.25,
              "velocity": 100
            },
            {
              "pitch": 63,
              "time": 0.9395120504495504,
              "duration": 0.25,
              "velocity": 100
            },
            {
              "pitch": 65,
              "time": 2.1895120504495504,
              "duration": 0.25,
              "velocity": 100
            },
            {
              "pitch": 67,
              "time": 2.1895120504495504,
              "duration": 0.25,
              "velocity": 100
            },
            {
              "pitch": 72,
              "time": 2.1895120504495504,
              "duration": 0.25,
              "velocity": 100
            },
            {
              "pitch": 74,
              "time": 2.1895120504495504,
              "duration": 0.25,
              "velocity": 100
            },
            {
              "pitch": 75,
              "time": 2.1895120504495504,
              "duration": 0.25,
              "velocity": 100
            }
          ],
          "gainInfo": 1,
          "contentSummary": "midi clip, 0.8 bars, 10 notes",
          "clipColor": 43,
          "name": "mod"
        },
        {
          "id": "track_midi_24_11_clip_27",
          "trackId": "track_midi_24_11",
          "clipType": "midi",
          "start": 0,
          "end": 3,
          "loop": true,
          "sourceRef": null,
          "midiNoteCount": 10,
          "midiNotes": [
            {
              "pitch": 53,
              "time": 0.9395120504495504,
              "duration": 0.25,
              "velocity": 100
            },
            {
              "pitch": 55,
              "time": 0.9395120504495504,
              "duration": 0.25,
              "velocity": 100
            },
            {
              "pitch": 60,
              "time": 0.9395120504495504,
              "duration": 0.25,
              "velocity": 100
            },
            {
              "pitch": 62,
              "time": 0.9395120504495504,
              "duration": 0.25,
              "velocity": 100
            },
            {
              "pitch": 63,
              "time": 0.9395120504495504,
              "duration": 0.25,
              "velocity": 100
            },
            {
              "pitch": 65,
              "time": 2.1895120504495504,
              "duration": 0.25,
              "velocity": 100
            },
            {
              "pitch": 67,
              "time": 2.1895120504495504,
              "duration": 0.25,
              "velocity": 100
            },
            {
              "pitch": 72,
              "time": 2.1895120504495504,
              "duration": 0.25,
              "velocity": 100
            },
            {
              "pitch": 74,
              "time": 2.1895120504495504,
              "duration": 0.25,
              "velocity": 100
            },
            {
              "pitch": 75,
              "time": 2.1895120504495504,
              "duration": 0.25,
              "velocity": 100
            }
          ],
          "gainInfo": 1,
          "contentSummary": "midi clip, 0.8 bars, 10 notes",
          "clipColor": 43,
          "name": "mod"
        }
      ],
      "automationLanes": [],
      "routing": {
        "audioInput": {
          "target": "AudioIn/External/S0",
          "upper": "Ext. In",
          "lower": "1/2"
        },
        "audioOutput": {
          "target": "AudioOut/Main",
          "upper": "Main",
          "lower": ""
        }
      },
      "warnings": []
    },
    {
      "id": "track_midi_28_12",
      "name": "perc 1",
      "type": "midi",
      "parentGroupId": null,
      "orderIndex": 12,
      "muted": false,
      "solo": false,
      "frozen": false,
      "armed": false,
      "color": null,
      "inferredRole": "percussion",
      "inferredConfidence": 0.95,
      "clipCount": 2,
      "deviceCount": 1,
      "automationPoints": 0,
      "devices": [
        {
          "id": "track_midi_28_12_dev_0",
          "deviceClass": "OriginalSimpler",
          "pluginName": null,
          "enabled": true,
          "inferredPurpose": "sampler_instrument",
          "parameters": {},
          "hasSidechainInput": false
        }
      ],
      "clips": [
        {
          "id": "track_midi_28_12_clip_0",
          "trackId": "track_midi_28_12",
          "clipType": "midi",
          "start": 96,
          "end": 752,
          "loop": true,
          "sourceRef": null,
          "midiNoteCount": 3,
          "midiNotes": [
            {
              "pitch": 60,
              "time": 2,
              "duration": 0.25,
              "velocity": 100
            },
            {
              "pitch": 60,
              "time": 2.25,
              "duration": 0.25,
              "velocity": 100
            },
            {
              "pitch": 60,
              "time": 2.5,
              "duration": 0.25,
              "velocity": 100
            }
          ],
          "gainInfo": 1,
          "contentSummary": "midi clip, 164.0 bars, 3 notes",
          "clipColor": 4,
          "name": null
        },
        {
          "id": "track_midi_28_12_clip_1",
          "trackId": "track_midi_28_12",
          "clipType": "midi",
          "start": 0,
          "end": 4,
          "loop": true,
          "sourceRef": null,
          "midiNoteCount": 3,
          "midiNotes": [
            {
              "pitch": 60,
              "time": 2,
              "duration": 0.25,
              "velocity": 100
            },
            {
              "pitch": 60,
              "time": 2.25,
              "duration": 0.25,
              "velocity": 100
            },
            {
              "pitch": 60,
              "time": 2.5,
              "duration": 0.25,
              "velocity": 100
            }
          ],
          "gainInfo": 1,
          "contentSummary": "midi clip, 1.0 bars, 3 notes",
          "clipColor": 4,
          "name": null
        }
      ],
      "automationLanes": [],
      "routing": {
        "audioInput": {
          "target": "AudioIn/External/S0",
          "upper": "Ext. In",
          "lower": "1/2"
        },
        "audioOutput": {
          "target": "AudioOut/Main",
          "upper": "Main",
          "lower": ""
        }
      },
      "warnings": []
    },
    {
      "id": "track_midi_29_13",
      "name": "perc 2",
      "type": "midi",
      "parentGroupId": null,
      "orderIndex": 13,
      "muted": false,
      "solo": false,
      "frozen": false,
      "armed": false,
      "color": null,
      "inferredRole": "percussion",
      "inferredConfidence": 0.95,
      "clipCount": 2,
      "deviceCount": 1,
      "automationPoints": 0,
      "devices": [
        {
          "id": "track_midi_29_13_dev_0",
          "deviceClass": "OriginalSimpler",
          "pluginName": null,
          "enabled": true,
          "inferredPurpose": "sampler_instrument",
          "parameters": {},
          "hasSidechainInput": false
        }
      ],
      "clips": [
        {
          "id": "track_midi_29_13_clip_0",
          "trackId": "track_midi_29_13",
          "clipType": "midi",
          "start": 96,
          "end": 752,
          "loop": true,
          "sourceRef": null,
          "midiNoteCount": 1,
          "midiNotes": [
            {
              "pitch": 60,
              "time": 10,
              "duration": 0.25,
              "velocity": 100
            }
          ],
          "gainInfo": 1,
          "contentSummary": "midi clip, 164.0 bars, 1 notes",
          "clipColor": 3,
          "name": null
        },
        {
          "id": "track_midi_29_13_clip_1",
          "trackId": "track_midi_29_13",
          "clipType": "midi",
          "start": 0,
          "end": 16,
          "loop": true,
          "sourceRef": null,
          "midiNoteCount": 2,
          "midiNotes": [
            {
              "pitch": 60,
              "time": 6,
              "duration": 0.25,
              "velocity": 100
            },
            {
              "pitch": 60,
              "time": 14,
              "duration": 0.25,
              "velocity": 100
            }
          ],
          "gainInfo": 1,
          "contentSummary": "midi clip, 4.0 bars, 2 notes",
          "clipColor": 3,
          "name": null
        }
      ],
      "automationLanes": [],
      "routing": {
        "audioInput": {
          "target": "AudioIn/External/S0",
          "upper": "Ext. In",
          "lower": "1/2"
        },
        "audioOutput": {
          "target": "AudioOut/Main",
          "upper": "Main",
          "lower": ""
        }
      },
      "warnings": []
    },
    {
      "id": "track_midi_31_14",
      "name": "15-Pads",
      "type": "midi",
      "parentGroupId": null,
      "orderIndex": 14,
      "muted": false,
      "solo": false,
      "frozen": false,
      "armed": false,
      "color": null,
      "inferredRole": "drone",
      "inferredConfidence": 0.95,
      "clipCount": 2,
      "deviceCount": 1,
      "automationPoints": 0,
      "devices": [
        {
          "id": "track_midi_31_14_dev_0",
          "deviceClass": "PluginDevice",
          "pluginName": null,
          "enabled": true,
          "inferredPurpose": "effect",
          "parameters": {},
          "hasSidechainInput": false
        }
      ],
      "clips": [
        {
          "id": "track_midi_31_14_clip_0",
          "trackId": "track_midi_31_14",
          "clipType": "midi",
          "start": 96,
          "end": 688,
          "loop": true,
          "sourceRef": null,
          "midiNoteCount": 2,
          "midiNotes": [
            {
              "pitch": 60,
              "time": 0,
              "duration": 4,
              "velocity": 100
            },
            {
              "pitch": 66,
              "time": 0,
              "duration": 4,
              "velocity": 100
            }
          ],
          "gainInfo": 1,
          "contentSummary": "midi clip, 148.0 bars, 2 notes",
          "clipColor": 8,
          "name": null
        },
        {
          "id": "track_midi_31_14_clip_1",
          "trackId": "track_midi_31_14",
          "clipType": "midi",
          "start": 0,
          "end": 4,
          "loop": true,
          "sourceRef": null,
          "midiNoteCount": 2,
          "midiNotes": [
            {
              "pitch": 60,
              "time": 0,
              "duration": 4,
              "velocity": 100
            },
            {
              "pitch": 66,
              "time": 0,
              "duration": 4,
              "velocity": 100
            }
          ],
          "gainInfo": 1,
          "contentSummary": "midi clip, 1.0 bars, 2 notes",
          "clipColor": 8,
          "name": null
        }
      ],
      "automationLanes": [],
      "routing": {
        "audioInput": {
          "target": "AudioIn/External/S0",
          "upper": "Ext. In",
          "lower": "1/2"
        },
        "audioOutput": {
          "target": "AudioOut/Main",
          "upper": "Main",
          "lower": ""
        }
      },
      "warnings": []
    }
  ],
  "returnTracks": [
    {
      "id": "track_return_2_0",
      "name": "A-Reverb",
      "type": "return",
      "parentGroupId": null,
      "orderIndex": 0,
      "muted": false,
      "solo": false,
      "frozen": false,
      "armed": false,
      "color": null,
      "inferredRole": "return_fx",
      "inferredConfidence": 0.95,
      "clipCount": 0,
      "deviceCount": 1,
      "automationPoints": 0,
      "devices": [
        {
          "id": "track_return_2_0_dev_0",
          "deviceClass": "Reverb",
          "pluginName": null,
          "enabled": true,
          "inferredPurpose": "reverb",
          "parameters": {},
          "hasSidechainInput": false
        }
      ],
      "clips": [],
      "automationLanes": [],
      "routing": {
        "audioInput": {
          "target": "AudioIn/External/S0",
          "upper": "Ext. In",
          "lower": "1/2"
        },
        "audioOutput": {
          "target": "AudioOut/Main",
          "upper": "Master",
          "lower": ""
        }
      },
      "warnings": []
    },
    {
      "id": "track_return_3_1",
      "name": "B-Delay",
      "type": "return",
      "parentGroupId": null,
      "orderIndex": 1,
      "muted": false,
      "solo": false,
      "frozen": false,
      "armed": false,
      "color": null,
      "inferredRole": "return_fx",
      "inferredConfidence": 0.95,
      "clipCount": 0,
      "deviceCount": 1,
      "automationPoints": 0,
      "devices": [
        {
          "id": "track_return_3_1_dev_0",
          "deviceClass": "Delay",
          "pluginName": null,
          "enabled": true,
          "inferredPurpose": "delay",
          "parameters": {},
          "hasSidechainInput": false
        }
      ],
      "clips": [],
      "automationLanes": [],
      "routing": {
        "audioInput": {
          "target": "AudioIn/External/S0",
          "upper": "Ext. In",
          "lower": "1/2"
        },
        "audioOutput": {
          "target": "AudioOut/Main",
          "upper": "Master",
          "lower": ""
        }
      },
      "warnings": []
    }
  ],
  "masterTrackPresent": false,
  "sections": [
    {
      "id": "93463a43-00b1-4110-adf1-57a23b78c1f5",
      "label": "Intro",
      "startBar": 0,
      "endBar": 16,
      "energyScore": 1,
      "densityScore": 0.765,
      "dominantRoles": [
        "hihat",
        "lead",
        "kick",
        "bass"
      ],
      "missingElements": [
        "no automation in section"
      ],
      "transitionQuality": 0.5
    },
    {
      "id": "b4034284-f070-4427-bc88-e8cb7c4ec144",
      "label": "Intro",
      "startBar": 16,
      "endBar": 752,
      "energyScore": 1,
      "densityScore": 0.882,
      "dominantRoles": [
        "hihat",
        "percussion",
        "lead",
        "kick"
      ],
      "missingElements": [
        "no automation in section"
      ],
      "transitionQuality": 0.5
    }
  ],
  "parseQuality": 1,
  "warnings": [],
  "styleTags": [
    "atmospheric techno",
    "dark warehouse techno",
    "minimal techno",
    "driving groove techno"
  ],
  "totalClips": 140,
  "totalDevices": 62,
  "returnTrackCount": 2,
  "locators": [],
  "sidechainLinks": [
    {
      "sourceTrackId": "track_midi_12_0",
      "targetTrackId": "track_midi_15_2",
      "sourceTrackName": "kick 1",
      "targetTrackName": "sub",
      "deviceClass": "Compressor2",
      "deviceId": "track_midi_15_2_dev_3",
      "confidence": 0.82,
      "relationType": "INFERRED_KICK_TO_BASS_DUCK",
      "purpose": "low_end_groove",
      "detectionMethod": "INFERRED",
      "bars": null,
      "automationEvidence": false,
      "deviceEvidence": true
    },
    {
      "sourceTrackId": "track_midi_12_0",
      "targetTrackId": "track_midi_16_3",
      "sourceTrackName": "kick 1",
      "targetTrackName": "bass",
      "deviceClass": "Compressor2",
      "deviceId": "track_midi_16_3_dev_1",
      "confidence": 0.82,
      "relationType": "INFERRED_KICK_TO_BASS_DUCK",
      "purpose": "low_end_groove",
      "detectionMethod": "INFERRED",
      "bars": null,
      "automationEvidence": false,
      "deviceEvidence": true
    },
    {
      "sourceTrackId": "track_midi_12_0",
      "targetTrackId": "track_midi_17_4",
      "sourceTrackName": "kick 1",
      "targetTrackName": "texture",
      "deviceClass": "Compressor2",
      "deviceId": "track_midi_17_4_dev_3",
      "confidence": 0.58,
      "relationType": "INFERRED_KICK_TO_TEXTURE_DUCK",
      "purpose": "texture_pumping",
      "detectionMethod": "INFERRED",
      "bars": null,
      "automationEvidence": false,
      "deviceEvidence": true
    }
  ]
}